<?xml version="1.0" standalone="no"?>
<!DOCTYPE svg PUBLIC "-//W3C//DTD SVG 1.1//EN" "http://www.w3.org/Graphics/SVG/1.1/DTD/svg11.dtd" >
<svg>
<metadata>
Created by FontForge 20090914 at Wed Jan 26 19:20:49 2022
 By www-data
Copyright (c) 2018 by Artegra. All rights reserved.
</metadata>
<defs>
<font id="Suprema-Bold" horiz-adv-x="1308" >
  <font-face 
    font-family="Suprema"
    font-weight="700"
    font-stretch="normal"
    units-per-em="2048"
    panose-1="2 11 8 3 2 0 0 2 0 4"
    ascent="1524"
    descent="-524"
    x-height="1030"
    cap-height="1434"
    bbox="-180 -622.002 2461 2058"
    underline-thickness="102"
    underline-position="-103"
    unicode-range="U+000D-U+FB04"
  />
<missing-glyph horiz-adv-x="1466" 
d="M140 1434h1186v-1434h-1186v1434zM633 717l-313 455v-910zM1146 262v910l-313 -455zM733 862l270 393h-540zM733 571l-270 -392h540z" />
    <glyph glyph-name=".notdef" horiz-adv-x="1466" 
d="M140 1434h1186v-1434h-1186v1434zM633 717l-313 455v-910zM1146 262v910l-313 -455zM733 862l270 393h-540zM733 571l-270 -392h540z" />
    <glyph glyph-name="NULL" horiz-adv-x="0" 
 />
    <glyph glyph-name="NULL" horiz-adv-x="0" 
 />
    <glyph glyph-name="nonmarkingreturn" unicode="&#xd;" horiz-adv-x="580" 
 />
    <glyph glyph-name="space" unicode=" " horiz-adv-x="580" 
 />
    <glyph glyph-name="exclam" unicode="!" horiz-adv-x="666" 
d="M167 1434h333l-40 -1012h-253zM160 163c0 24 4.5 46.5 13.5 67.5s21.333 39.333 37 55s34 28 55 37s43.5 13.5 67.5 13.5s46.5 -4.5 67.5 -13.5s39.333 -21.333 55 -37s28 -34 37 -55s13.5 -43.5 13.5 -67.5s-4.5 -46.5 -13.5 -67.5s-21.333 -39.333 -37 -55
s-34 -28 -55 -37s-43.5 -13.5 -67.5 -13.5s-46.5 4.5 -67.5 13.5s-39.333 21.333 -55 37s-28 34 -37 55s-13.5 43.5 -13.5 67.5z" />
    <glyph glyph-name="quotedbl" unicode="&#x22;" horiz-adv-x="818" 
d="M80 1434h293l-20 -507h-252zM445 1434h293l-20 -507h-252z" />
    <glyph glyph-name="numbersign" unicode="#" horiz-adv-x="1651" 
d="M1050 1434h317l-52 -322h216v-286h-262l-35 -218h216v-286h-262l-51 -322h-317l51 322h-218l-51 -322h-318l51 322h-215v286h261l35 218h-215v286h261l52 322h318l-52 -322h218zM699 608h218l35 218h-218z" />
    <glyph glyph-name="dollar" unicode="$" horiz-adv-x="1396" 
d="M423 398c7.33301 -24.667 22.0039 -46.3291 44.0039 -64.9961c18.667 -16 45.667 -30.667 81 -44s83 -20 143 -20c52 0 96.5 3.83301 133.5 11.5s67.333 18.5 91 32.5s40.834 30.667 51.501 50s16 40.666 16 63.999c0 20 -4.5 38.167 -13.5 54.5
s-24.833 31.166 -47.5 44.499s-53.334 25.5 -92.001 36.5s-88 21.5 -148 31.5c-100.667 16.667 -187.167 37.667 -259.5 63s-131.666 55.833 -177.999 91.5s-80.5 77.167 -102.5 124.5s-33 101.333 -33 162c0 56.667 10 107.834 30 153.501s48 85.334 84 119.001
s79.333 61.667 130 84s106.667 38.5 168 48.5v234h333v-233c50 -8.66699 94.167 -20.834 132.5 -36.501s71.833 -33.334 100.5 -53.001s53.167 -40.667 73.5 -63s37.166 -44.5 50.499 -66.5c32 -51.333 51.333 -107 58 -167h-343c-6 20 -18 38.333 -36 55
c-16 13.333 -39.5 25.833 -70.5 37.5s-73.833 17.5 -128.5 17.5c-49.333 0 -90 -3.16699 -122 -9.5s-57.5 -15.166 -76.5 -26.499s-32.167 -25 -39.5 -41s-11 -33.667 -11 -53c0 -16 3.66699 -30.833 11 -44.5s20.666 -26.5 39.999 -38.5s45.666 -23 78.999 -33
s76 -19.333 128 -28c98 -16 185.167 -35.167 261.5 -57.5s140.666 -51.333 192.999 -87s92.333 -79.334 120 -131.001s41.5 -114.5 41.5 -188.5c0 -68.667 -11.667 -128.334 -35 -179.001s-55.5 -93.667 -96.5 -129s-89.833 -63.5 -146.5 -84.5s-118 -35.833 -184 -44.5
v-230h-333v233c-54 8.66699 -101.833 21.167 -143.5 37.5s-77.834 34.833 -108.501 55.5s-56.667 42.667 -78 66s-39 46.666 -53 69.999c-32.667 54 -52 112.667 -58 176h343z" />
    <glyph glyph-name="uni0025" unicode="%" horiz-adv-x="1745" 
d="M1151 1434h345l-902 -1434h-345zM331 1109c0 -28.667 8.83301 -53.167 26.5 -73.5s43.5 -30.5 77.5 -30.5s59.833 10.167 77.5 30.5s26.5 44.833 26.5 73.5s-8.83301 53.167 -26.5 73.5s-43.5 30.5 -77.5 30.5s-59.833 -10.167 -77.5 -30.5s-26.5 -44.833 -26.5 -73.5z
M80 1109c0 48.667 8.83301 94.667 26.5 138s42.167 81 73.5 113s68.833 57.333 112.5 76s91.167 28 142.5 28s98.666 -9.33301 141.999 -28s80.833 -44 112.5 -76s56.334 -69.667 74.001 -113s26.5 -89.333 26.5 -138c0 -49.333 -8.83301 -95.5 -26.5 -138.5
s-42.334 -80.5 -74.001 -112.5s-69.167 -57.333 -112.5 -76s-90.666 -28 -141.999 -28s-98.833 9.33301 -142.5 28s-81.167 44 -112.5 76s-55.833 69.5 -73.5 112.5s-26.5 89.167 -26.5 138.5zM1206 325c0 -28.667 8.83301 -53.167 26.5 -73.5s43.5 -30.5 77.5 -30.5
s59.833 10.167 77.5 30.5s26.5 44.833 26.5 73.5s-8.83301 53.167 -26.5 73.5s-43.5 30.5 -77.5 30.5s-59.833 -10.167 -77.5 -30.5s-26.5 -44.833 -26.5 -73.5zM955 325c0 48.667 8.83301 94.667 26.5 138s42.167 81 73.5 113s68.833 57.333 112.5 76s91.167 28 142.5 28
s98.666 -9.33301 141.999 -28s80.833 -44 112.5 -76s56.334 -69.667 74.001 -113s26.5 -89.333 26.5 -138c0 -49.333 -8.83301 -95.5 -26.5 -138.5s-42.334 -80.5 -74.001 -112.5s-69.167 -57.333 -112.5 -76s-90.666 -28 -141.999 -28s-98.833 9.33301 -142.5 28
s-81.167 44 -112.5 76s-55.833 69.5 -73.5 112.5s-26.5 89.167 -26.5 138.5z" />
    <glyph glyph-name="ampersand" unicode="&#x26;" horiz-adv-x="1644" 
d="M686 1464c70.667 0 132.833 -9.16992 186.5 -27.5029s98.5 -44 134.5 -77s63 -72.167 81 -117.5s27 -95.333 27 -150c0 -52 -10.833 -98.667 -32.5 -140s-49.334 -78.5 -83.001 -111.5s-70.5 -62.667 -110.5 -89l-114 -73.5c25.333 -31.333 52.166 -60.833 80.499 -88.5
l90.5 -85.5l26.5 46l29 53.5l28 54.5c9 18 16.833 34.667 23.5 50h329c-12.667 -39.333 -27.667 -79.666 -45 -120.999s-35 -80.666 -53 -117.999s-35.5 -71.166 -52.5 -101.499s-31.5 -53.5 -43.5 -69.5l69.5 -51l72.5 -51.5l71 -50l67 -46.5l146 -99h-496
c-13.333 6.66699 -27.333 14.334 -42 23.001l-43.5 26c-16.333 10 -33.166 21.333 -50.499 34c-23.333 -15.333 -48.166 -29.833 -74.499 -43.5s-55.833 -25.667 -88.5 -36s-68.834 -18.5 -108.501 -24.5s-84.167 -9 -133.5 -9c-67.333 0 -131 6.66699 -191 20
s-112.667 35 -158 65s-81.333 69.167 -108 117.5s-40 107.5 -40 177.5c0 44.667 6.16699 86.167 18.5 124.5s30 73.5 53 105.5s50.833 61.5 83.5 88.5s69 52.167 109 75.5c-11.333 14 -23.166 31.167 -35.499 51.5s-23.666 43.5 -33.999 69.5s-18.833 54.667 -25.5 86
s-10 65 -10 101c0 68 12.167 127.667 36.5 179s57.166 94.166 98.499 128.499s88.833 60.333 142.5 78s110.167 26.5 169.5 26.5zM412.999 369.997c0 -31.333 13.501 -57.667 40.501 -79s67.167 -32 120.5 -32c32 0 62.333 3.83301 91 11.5s52.667 17.167 72 28.5
c-20 15.333 -40.167 32.333 -60.5 51l-59.5 56.5l-55 56.5l-47 51c-38.667 -21.333 -65.334 -43.333 -80.001 -66s-22 -48.667 -22 -78zM782 1092c0 28 -8.5 48.8311 -25.5 62.498s-40.5 20.5 -70.5 20.5c-12 0 -24.833 -2.33301 -38.5 -7s-26 -12.5 -37 -23.5
s-20.167 -25.667 -27.5 -44s-11 -41.166 -11 -68.499c0 -29.333 5.5 -55 16.5 -77s20.5 -39 28.5 -51l62 37.5c20 12.333 37.667 25.833 53 40.5s27.5 30.834 36.5 48.501s13.5 38.167 13.5 61.5z" />
    <glyph glyph-name="quotesingle" unicode="'" horiz-adv-x="453" 
d="M80 1434h293l-20 -507h-252z" />
    <glyph glyph-name="parenleft" unicode="(" horiz-adv-x="943" 
d="M453 580c0 -69.333 5.83301 -131.665 17.5 -186.998s27.167 -105 46.5 -149s41.166 -82.5 65.499 -115.5s49.5 -61.5 75.5 -85.5c60 -56 128.333 -96.667 205 -122l-100 -278c-120 37.333 -227.333 96.333 -322 177c-40 34 -79.333 74.667 -118 122s-73 102 -103 164
s-54.167 132.167 -72.5 210.5s-27.5 166.166 -27.5 263.499c0 96.667 9.16699 184.334 27.5 263.001s42.5 149 72.5 211s64.333 116.5 103 163.5s78 87.5 118 121.5c94.667 80.667 202 140 322 178l100 -278c-76.667 -26 -145 -67 -205 -123
c-26 -24 -51.167 -52.5 -75.5 -85.5s-46.166 -71.333 -65.499 -115s-34.833 -93.334 -46.5 -149.001s-17.5 -117.834 -17.5 -186.501z" />
    <glyph glyph-name="parenright" unicode=")" horiz-adv-x="943" 
d="M490 580c0 68.667 -5.83301 130.833 -17.5 186.5s-27.167 105.334 -46.5 149.001s-41.333 82 -66 115s-49.667 61.5 -75 85.5c-60.667 56 -129 97 -205 123l100 278c119.333 -38 226.333 -97.333 321 -178c40 -34 79.333 -74.5 118 -121.5s73.167 -101.5 103.5 -163.5
s54.666 -132.333 72.999 -211s27.5 -166.334 27.5 -263.001c0 -97.333 -9.16699 -185.166 -27.5 -263.499s-42.666 -148.5 -72.999 -210.5s-64.833 -116.667 -103.5 -164s-78 -88 -118 -122c-94.667 -80.667 -201.667 -139.667 -321 -177l-100 278
c76 25.333 144.333 66 205 122c25.333 24 50.333 52.5 75 85.5s46.667 71.5 66 115.5s34.833 93.667 46.5 149s17.5 117.666 17.5 186.999z" />
    <glyph glyph-name="asterisk" unicode="*" horiz-adv-x="960" 
d="M480 828l-153 -212l-214 178l176 171l-259 75l91 258l225 -106l-20 242h308l-20 -242l225 106l91 -258l-259 -75l176 -171l-214 -178z" />
    <glyph glyph-name="plus" unicode="+" horiz-adv-x="1150" 
d="M1050 534h-326v-331h-298v331h-326v289h326v330h298v-330h326v-289z" />
    <glyph glyph-name="comma" unicode="," horiz-adv-x="710" 
d="M291 264h319l-249 -542h-281z" />
    <glyph glyph-name="hyphen" unicode="-" horiz-adv-x="970" 
d="M870 454h-770v252h770v-252z" />
    <glyph glyph-name="period" unicode="." horiz-adv-x="546" 
d="M100 163c0 24 4.5 46.5 13.5 67.5s21.333 39.333 37 55s34 28 55 37s43.5 13.5 67.5 13.5s46.5 -4.5 67.5 -13.5s39.333 -21.333 55 -37s28 -34 37 -55s13.5 -43.5 13.5 -67.5s-4.5 -46.5 -13.5 -67.5s-21.333 -39.333 -37 -55s-34 -28 -55 -37s-43.5 -13.5 -67.5 -13.5
s-46.5 4.5 -67.5 13.5s-39.333 21.333 -55 37s-28 34 -37 55s-13.5 43.5 -13.5 67.5z" />
    <glyph glyph-name="slash" unicode="/" horiz-adv-x="1221" 
d="M758 1434h363l-658 -1434h-363z" />
    <glyph glyph-name="zero" unicode="0" horiz-adv-x="1618" 
d="M809 -20c-108.667 0 -206.667 19.333 -294 58s-161.833 91.334 -223.5 158.001s-109 144.834 -142 234.501s-49.5 185.167 -49.5 286.5s16.5 196.833 49.5 286.5s80.333 167.834 142 234.501s136.167 119.334 223.5 158.001s185.333 58 294 58s206.667 -19.333 294 -58
s161.833 -91.334 223.5 -158.001s109 -144.834 142 -234.501s49.5 -185.167 49.5 -286.5s-16.5 -196.833 -49.5 -286.5s-80.333 -167.834 -142 -234.501s-136.167 -119.334 -223.5 -158.001s-185.333 -58 -294 -58zM809 269c60.667 0 114.334 12.167 161.001 36.5
s86 57.166 118 98.499s56.167 89 72.5 143s24.5 110.667 24.5 170s-8.16699 116 -24.5 170s-40.5 101.667 -72.5 143s-71.333 74.166 -118 98.499s-100.334 36.5 -161.001 36.5s-114.334 -12.167 -161.001 -36.5s-86 -57.166 -118 -98.499s-56.167 -89 -72.5 -143
s-24.5 -110.667 -24.5 -170s8.16699 -116 24.5 -170s40.5 -101.667 72.5 -143s71.333 -74.166 118 -98.499s100.334 -36.5 161.001 -36.5z" />
    <glyph glyph-name="one" unicode="1" horiz-adv-x="882" 
d="M50 1061l438 373h254v-1434h-333v921l-125 -107z" />
    <glyph glyph-name="two" unicode="2" horiz-adv-x="1393" 
d="M120 990c20 86.667 54.333 163.997 103 231.997c20.667 28.667 45.667 57 75 85s63.666 52.833 102.999 74.5s84.333 39.167 135 52.5s108 20 172 20c88 0 166 -11.833 234 -35.5s125.5 -56.167 172.5 -97.5s82.667 -89.666 107 -144.999s36.5 -115 36.5 -179
c0 -61.333 -10.5 -116.333 -31.5 -165s-47.667 -93.167 -80 -133.5s-67.666 -77 -105.999 -110l-109.5 -92.5l-254 -207h596v-289h-1152v227l258 210l99.5 80.5l91 75l72.5 60l43 35.5l83.5 68.5c28.333 23.667 54.166 48.334 77.499 74.001s42.333 52.334 57 80.001
s22 56.5 22 86.5c0 50.667 -19 91.334 -57 122.001s-91.333 46 -160 46c-28 0 -53.167 -2.5 -75.5 -7.5s-42 -11.667 -59 -20s-32 -17.833 -45 -28.5s-23.833 -21.334 -32.5 -32.001c-21.333 -26 -35.666 -55 -42.999 -87h-333z" />
    <glyph glyph-name="three" unicode="3" horiz-adv-x="1432" 
d="M439 404c10 -25.333 26.999 -47.999 50.999 -67.999c20.667 -17.333 49.667 -32.833 87 -46.5s87 -20.5 149 -20.5c42.667 0 80.834 3 114.501 9s62.167 15.5 85.5 28.5s41.333 29.833 54 50.5s19 45.334 19 74.001c0 36.667 -9.16699 65.5 -27.5 86.5s-46 36.667 -83 47
s-83.333 16.666 -139 18.999s-120.834 3.5 -195.501 3.5v289c65.333 0 123.666 1.66699 174.999 5s94.5 10.5 129.5 21.5s61.667 26.833 80 47.5s27.5 48 27.5 82c0 23.333 -5.83301 43.5 -17.5 60.5s-28 30.833 -49 41.5s-46.333 18.5 -76 23.5s-62.167 7.5 -97.5 7.5
c-28 0 -53.167 -2 -75.5 -6s-42.166 -9.16699 -59.499 -15.5s-32.5 -13.5 -45.5 -21.5s-24.167 -16.333 -33.5 -25c-22 -20 -37.667 -42.333 -47 -67h-339c22 79.333 58.667 150 110 212c22 26.667 48 52.667 78 78s65 48 105 68s85.333 36 136 48s107.667 18 171 18
c78.667 0 152.834 -8.83301 222.501 -26.5s130.5 -43.834 182.5 -78.501s93 -77.667 123 -129s45 -110.666 45 -177.999c0 -34 -5.66699 -66 -17 -96s-27.5 -57.5 -48.5 -82.5s-46.167 -47.333 -75.5 -67s-62 -35.834 -98 -48.501c89.333 -19.333 157 -56.666 203 -111.999
s69 -125 69 -209c0 -74.667 -16.167 -139.834 -48.5 -195.501s-76 -102.167 -131 -139.5s-119.167 -65.333 -192.5 -84s-151.333 -28 -234 -28c-71.333 0 -134.833 6 -190.5 18s-105 28 -148 48s-79.833 42.667 -110.5 68s-56.667 51.333 -78 78c-50 62 -83 132.667 -99 212
h339z" />
    <glyph glyph-name="four" unicode="4" horiz-adv-x="1613" 
d="M947 0v323h-827v221l855 890h305v-822h233v-289h-233v-323h-333zM947 612v386l-371 -386h371z" />
    <glyph glyph-name="five" unicode="5" horiz-adv-x="1484" 
d="M746 269c98.667 0 170.838 15.999 216.505 47.999s68.5 82 68.5 150c0 70 -22.833 120.667 -68.5 152s-117.834 47 -216.501 47c-32 0 -65.167 -1.16699 -99.5 -3.5s-68.333 -5.16602 -102 -8.49902s-66.834 -7.33301 -99.501 -12s-63.334 -9.33398 -92.001 -14.001
c-68 -11.333 -134.667 -23.666 -200 -36.999l46 843h1070v-289h-759l-15 -221c19.333 5.33301 41.666 10.333 66.999 15c21.333 4 47.5 7.66699 78.5 11s66.167 5 105.5 5c108 0 200.833 -11.167 278.5 -33.5s141.667 -54.5 192 -96.5s87.5 -93.167 111.5 -153.5
s36 -128.5 36 -204.5c0 -72 -13 -137.833 -39 -197.5s-64.667 -111 -116 -154s-115.666 -76.333 -192.999 -100s-167.333 -35.5 -270 -35.5c-71.333 0 -134.666 6 -189.999 18s-103.833 28 -145.5 48s-77.334 42.667 -107.001 68s-54.5 51.333 -74.5 78
c-46.667 62 -76.334 132.667 -89.001 212h333c11.333 -25.333 28.666 -48 51.999 -68c20 -17.333 47.667 -32.833 83 -46.5s81.333 -20.5 138 -20.5z" />
    <glyph glyph-name="six" unicode="6" horiz-adv-x="1600" 
d="M1026 1081c-6.66699 16 -18.6699 30.0039 -36.0029 42.0039c-15.333 10.667 -37 20.167 -65 28.5s-65.667 12.833 -113 13.5c-58 -0.666992 -107 -8.66699 -147 -24s-73.167 -37 -99.5 -65s-46.333 -61.833 -60 -101.5s-22.834 -84.5 -27.501 -134.5
c15.333 24.667 37.333 47 66 67c24.667 16.667 58 32 100 46s95.667 21 161 21c104 0 196.667 -12 278 -36s149.833 -57.667 205.5 -101s98.167 -95.5 127.5 -156.5s44 -128.833 44 -203.5s-14.667 -142.5 -44 -203.5s-71.833 -113.333 -127.5 -157
s-124.167 -77.334 -205.5 -101.001s-174 -35.5 -278 -35.5c-109.333 0 -203.5 11.833 -282.5 35.5s-144.833 57 -197.5 100s-93.167 94.333 -121.5 154s-46.166 125.167 -53.499 196.5c-8.66699 86.667 -11.5 171.167 -8.5 253.5s13.333 160.166 31 233.499
s43.334 140.666 77.001 201.999s76.334 114.166 128.001 158.499s113.334 78.833 185.001 103.5s154.5 37 248.5 37c60 0 114 -5.33301 162 -16s91.167 -24.834 129.5 -42.501s72 -37.667 101 -60s54.167 -45.166 75.5 -68.499c50 -54.667 86.667 -116.667 110 -186h-363z
M1127 477.004c0 138.667 -107.333 208 -322 208s-322 -69.333 -322 -208s107.333 -208 322 -208s322 69.333 322 208z" />
    <glyph glyph-name="seven" unicode="7" horiz-adv-x="1413" 
d="M100 1434h1213v-166l-656 -1268h-349l595 1145h-803v289z" />
    <glyph glyph-name="eight" unicode="8" horiz-adv-x="1526" 
d="M763 -20c-93.333 0 -179.832 8.5 -259.499 25.5s-148.667 43.167 -207 78.5s-104 80.333 -137 135s-49.5 120 -49.5 196c0 38.667 6.5 75 19.5 109s31.5 65 55.5 93s52.5 52.5 85.5 73.5s69.5 37.833 109.5 50.5c-39.333 12 -73.666 28.833 -102.999 50.5
s-53.833 45.834 -73.5 72.501s-34.5 54.834 -44.5 84.501s-15 59.167 -15 88.5c0 66 15.5 124.833 46.5 176.5s74 95.334 129 131.001s120.333 62.834 196 81.501s158.167 28 247.5 28s171.833 -9.33301 247.5 -28s141 -45.834 196 -81.501s98 -79.334 129 -131.001
s46.5 -110.5 46.5 -176.5c0 -29.333 -5 -58.833 -15 -88.5s-24.833 -57.834 -44.5 -84.501s-44.334 -50.834 -74.001 -72.501s-63.834 -38.5 -102.501 -50.5c40 -12.667 76.5 -29.5 109.5 -50.5s61.5 -45.5 85.5 -73.5s42.5 -59 55.5 -93s19.5 -70.333 19.5 -109
c0 -76 -16.5 -141.333 -49.5 -196s-78.667 -99.667 -137 -135s-127.333 -61.5 -207 -78.5s-166.167 -25.5 -259.5 -25.5zM763.001 269c50.667 0 95.834 2.66699 135.501 8s73.167 14.5 100.5 27.5s48.166 30 62.499 51s21.5 47.167 21.5 78.5
c0 30.667 -7.16699 56.5 -21.5 77.5s-35.166 37.833 -62.499 50.5s-60.833 21.834 -100.5 27.501s-84.834 8.5 -135.501 8.5s-95.834 -2.83301 -135.501 -8.5s-73.167 -14.834 -100.5 -27.501s-48.166 -29.5 -62.499 -50.5s-21.5 -46.833 -21.5 -77.5
c0 -31.333 7.16699 -57.5 21.5 -78.5s35.166 -38 62.499 -51s60.833 -22.167 100.5 -27.5s84.834 -8 135.501 -8zM477.001 1026c0 -24.667 6.5 -45.834 19.5 -63.501s31.833 -32 56.5 -43s54.667 -19.167 90 -24.5s75.333 -8 120 -8s84.667 2.66699 120 8
s65.333 13.5 90 24.5s43.5 25.333 56.5 43s19.5 38.834 19.5 63.501s-6.5 45.834 -19.5 63.501s-31.833 32.167 -56.5 43.5s-54.667 19.5 -90 24.5s-75.333 7.5 -120 7.5s-84.667 -2.5 -120 -7.5s-65.333 -13.167 -90 -24.5s-43.5 -25.833 -56.5 -43.5
s-19.5 -38.834 -19.5 -63.501z" />
    <glyph glyph-name="nine" unicode="9" horiz-adv-x="1600" 
d="M574 353c6.66699 -16 18.6699 -30.002 36.0029 -42.002c15.333 -10.667 36.833 -20.334 64.5 -29.001s65.5 -13 113.5 -13c58 0.666992 107 8.66699 147 24s73.167 37 99.5 65s46.333 61.833 60 101.5s22.834 84.5 27.501 134.5
c-15.333 -25.333 -37.333 -47.666 -66 -66.999c-24.667 -17.333 -58 -32.833 -100 -46.5s-95.667 -20.5 -161 -20.5c-104 0 -196.667 11.833 -278 35.5s-149.833 57.334 -205.5 101.001s-98.167 96 -127.5 157s-44 128.833 -44 203.5s14.667 142.5 44 203.5
s71.833 113.167 127.5 156.5s124.167 77 205.5 101s174 36 278 36c108.667 0 202.667 -11.833 282 -35.5s145.333 -57 198 -100s93.167 -94.333 121.5 -154s46.166 -125.167 53.499 -196.5c8.66699 -86.667 11.5 -171.167 8.5 -253.5s-13.333 -160.166 -31 -233.499
s-43.334 -140.666 -77.001 -201.999s-76.334 -114.166 -128.001 -158.499s-113.334 -78.833 -185.001 -103.5s-154.5 -37 -248.5 -37c-60 0 -114 5.33301 -162 16s-91.167 24.667 -129.5 42s-72 37.166 -101 59.499s-54.167 45.166 -75.5 68.499
c-50 54.667 -86.667 117 -110 187h363zM473.003 956.998c0 -138.667 107.333 -208 322 -208s322 69.333 322 208s-107.333 208 -322 208s-322 -69.333 -322 -208z" />
    <glyph glyph-name="colon" unicode=":" horiz-adv-x="546" 
d="M100 163c0 24 4.5 46.5 13.5 67.5s21.333 39.333 37 55s34 28 55 37s43.5 13.5 67.5 13.5s46.5 -4.5 67.5 -13.5s39.333 -21.333 55 -37s28 -34 37 -55s13.5 -43.5 13.5 -67.5s-4.5 -46.5 -13.5 -67.5s-21.333 -39.333 -37 -55s-34 -28 -55 -37s-43.5 -13.5 -67.5 -13.5
s-46.5 4.5 -67.5 13.5s-39.333 21.333 -55 37s-28 34 -37 55s-13.5 43.5 -13.5 67.5zM100 867c0 24 4.5 46.5 13.5 67.5s21.333 39.333 37 55s34 28 55 37s43.5 13.5 67.5 13.5s46.5 -4.5 67.5 -13.5s39.333 -21.333 55 -37s28 -34 37 -55s13.5 -43.5 13.5 -67.5
s-4.5 -46.5 -13.5 -67.5s-21.333 -39.333 -37 -55s-34 -28 -55 -37s-43.5 -13.5 -67.5 -13.5s-46.5 4.5 -67.5 13.5s-39.333 21.333 -55 37s-28 34 -37 55s-13.5 43.5 -13.5 67.5z" />
    <glyph glyph-name="semicolon" unicode=";" horiz-adv-x="640" 
d="M194 867c0 24 4.5 46.5 13.5 67.5s21.333 39.333 37 55s34 28 55 37s43.5 13.5 67.5 13.5s46.5 -4.5 67.5 -13.5s39.333 -21.333 55 -37s28 -34 37 -55s13.5 -43.5 13.5 -67.5s-4.5 -46.5 -13.5 -67.5s-21.333 -39.333 -37 -55s-34 -28 -55 -37s-43.5 -13.5 -67.5 -13.5
s-46.5 4.5 -67.5 13.5s-39.333 21.333 -55 37s-28 34 -37 55s-13.5 43.5 -13.5 67.5zM211 264h319l-249 -542h-281z" />
    <glyph glyph-name="less" unicode="&#x3c;" horiz-adv-x="1154" 
d="M100 567v204l934 479v-340l-534 -241l534 -241v-340z" />
    <glyph glyph-name="equal" unicode="=" horiz-adv-x="1109" 
d="M1009 319h-909v289h909v-289zM1009 741h-909v289h909v-289z" />
    <glyph glyph-name="greater" unicode="&#x3e;" horiz-adv-x="1154" 
d="M120 88v340l534 241l-534 241v340l934 -479v-204z" />
    <glyph glyph-name="question" unicode="?" horiz-adv-x="1435" 
d="M100 1048c25.333 79.333 65.334 150.33 120.001 212.997c22.667 26.667 49.834 52.667 81.501 78s68.5 48 110.5 68s89.167 36.167 141.5 48.5s111.166 18.5 176.499 18.5c96 0 181.667 -12 257 -36s138.666 -56.333 189.999 -97s90.5 -88 117.5 -142
s40.5 -111 40.5 -171c0 -48.667 -8.83301 -94.667 -26.5 -138s-45.334 -82.166 -83.001 -116.499s-85.5 -63.166 -143.5 -86.499s-127.333 -39.333 -208 -48v-217h-333v412c86 0.666992 158.333 5.16699 217 13.5s106 20.5 142 36.5s62 35.833 78 59.5s24 51.834 24 84.501
c0 23.333 -5.33301 44.666 -16 63.999s-27.167 35.833 -49.5 49.5s-50.666 24.334 -84.999 32.001s-74.833 11.5 -121.5 11.5c-28.667 0 -54.667 -2 -78 -6s-44.5 -9.33301 -63.5 -16s-35.667 -14 -50 -22s-26.833 -16.333 -37.5 -25c-25.333 -20 -44.333 -42.667 -57 -68
h-344zM534.001 162.997c0 24 4.5 46.5 13.5 67.5s21.333 39.333 37 55s34 28 55 37s43.5 13.5 67.5 13.5s46.5 -4.5 67.5 -13.5s39.333 -21.333 55 -37s28 -34 37 -55s13.5 -43.5 13.5 -67.5s-4.5 -46.5 -13.5 -67.5s-21.333 -39.333 -37 -55s-34 -28 -55 -37
s-43.5 -13.5 -67.5 -13.5s-46.5 4.5 -67.5 13.5s-39.333 21.333 -55 37s-28 34 -37 55s-13.5 43.5 -13.5 67.5z" />
    <glyph glyph-name="at" unicode="@" horiz-adv-x="1820" 
d="M1335 225c-32 0 -60.835 4.00098 -86.502 12.001s-48 18.833 -67 32.5s-34.667 29.167 -47 46.5s-20.833 35 -25.5 53c-6 -26 -16.167 -51 -30.5 -75s-32.666 -45.5 -54.999 -64.5s-48.5 -34.167 -78.5 -45.5s-64 -17 -102 -17c-22.667 0 -47 2.83301 -73 8.5
s-51.5 14.667 -76.5 27s-48.667 28.666 -71 48.999s-41.333 45.333 -57 75s-27.167 64.334 -34.5 104.001s-8.66602 85.167 -3.99902 136.5c6 52.667 17.5 98.667 34.5 138s37.167 73.166 60.5 101.499s48.833 51.666 76.5 69.999s55.5 32.833 83.5 43.5s54.833 18 80.5 22
s48.167 6 67.5 6c56.667 0 109.167 -5.66699 157.5 -17s95.5 -28.666 141.5 -51.999c-4.66699 -56.667 -8.66699 -111.334 -12 -164.001s-5.66602 -102 -6.99902 -148c-0.666992 -22.667 1 -44.167 5 -64.5s10.667 -38 20 -53s21.333 -26.833 36 -35.5s32.667 -13 54 -13
c18 0 34.667 2.83301 50 8.5s28.666 14.667 39.999 27s20.166 28.333 26.499 48s9.5 43.834 9.5 72.501c0 87.333 -14.167 165.166 -42.5 233.499s-67 126 -116 173s-106.333 82.833 -172 107.5s-135.834 37 -210.501 37s-144.834 -12.333 -210.501 -37
s-123 -60.5 -172 -107.5s-87.667 -104.667 -116 -173s-42.5 -146.166 -42.5 -233.499s14.167 -165.166 42.5 -233.499s67 -126 116 -173s106.333 -82.833 172 -107.5s135.834 -37 210.501 -37c62.667 0 116.5 5.66699 161.5 17s82.167 23.666 111.5 36.999
c34 16 62.333 34.333 85 55h293c-40 -57.333 -90.667 -108.333 -152 -153c-26 -19.333 -55.833 -38 -89.5 -56s-71.167 -34.167 -112.5 -48.5s-86.666 -25.833 -135.999 -34.5s-103 -13 -161 -13c-70.667 0 -138.834 8.16699 -204.501 24.5s-127 39.666 -184 69.999
s-109 67.5 -156 111.5s-87.167 93.667 -120.5 149s-59.166 115.833 -77.499 181.5s-27.5 135.834 -27.5 210.501c0 74 9.16699 144 27.5 210s44.166 126.667 77.499 182s73.5 105 120.5 149s99 81.167 156 111.5s118.333 53.666 184 69.999s133.834 24.5 204.501 24.5
s138.834 -8.16699 204.501 -24.5s127 -39.666 184 -69.999s109 -67.5 156 -111.5s87.167 -93.667 120.5 -149s59.166 -116 77.499 -182s27.5 -136 27.5 -210c0 -49.333 -7.66699 -94.333 -23 -135s-37.666 -75.5 -66.999 -104.5s-65.333 -51.667 -108 -68
s-91.667 -24.5 -147 -24.5zM722.998 556.001c-7.33301 -68.667 1.33008 -121.331 25.9971 -157.998s63.334 -55 116.001 -55c22.667 0 43.334 4.16699 62.001 12.5s35 21.833 49 40.5s25.833 43.167 35.5 73.5s16.834 67.833 21.501 112.5
c2 21.333 4.16699 42.666 6.5 63.999l6.5 57c2.66699 19.333 4.66699 37.666 6 54.999c-38 12.667 -75.5 18.667 -112.5 18s-70.667 -9 -101 -25s-55.833 -40 -76.5 -72s-33.667 -73 -39 -123z" />
    <glyph glyph-name="A" unicode="A" horiz-adv-x="1684" 
d="M1153 268h-622l-119 -268h-362l651 1434h282l651 -1434h-362zM659 557h365l-182 410z" />
    <glyph glyph-name="B" unicode="B" horiz-adv-x="1537" 
d="M140 0l-0.00390625 1434h706c94.667 0 176 -10.333 244 -31s123.833 -48.5 167.5 -83.5s75.834 -76 96.501 -123s31 -96.833 31 -149.5c0 -37.333 -6 -72.333 -18 -105s-28.167 -62 -48.5 -88s-44.166 -48.333 -71.499 -67s-56.333 -32.334 -87 -41.001
c42 -9.33301 80.167 -23.333 114.5 -42s63.5 -42 87.5 -70s42.5 -60.667 55.5 -98s19.5 -79.333 19.5 -126c0 -56 -10.833 -108.833 -32.5 -158.5s-55.667 -93.167 -102 -130.5s-105.666 -66.833 -177.999 -88.5s-159.166 -32.5 -260.499 -32.5h-724zM863.996 289.001
c81.333 0 141.666 12.333 180.999 37s59 63.667 59 117s-19.667 92.333 -59 117s-99.666 37 -180.999 37h-391v-308h391zM845.996 866.001c43.333 0 78.5 3.66699 105.5 11s48 17.5 63 30.5s25 27.833 30 44.5s7.5 34.667 7.5 54c0 18.667 -2.5 36.5 -7.5 53.5
s-15 31.833 -30 44.5s-36 22.667 -63 30s-62.167 11 -105.5 11h-373v-279h373z" />
    <glyph glyph-name="C" unicode="C" horiz-adv-x="1600" 
d="M844 269c58 0 106.668 8.16797 146.001 24.501s70.666 34.166 93.999 53.499c27.333 22.667 49 49 65 79h371c-28 -83.333 -71.333 -157.666 -130 -222.999c-25.333 -28 -55 -55.333 -89 -82s-73.333 -50.5 -118 -71.5s-95 -37.833 -151 -50.5s-118.667 -19 -188 -19
c-109.333 0 -209.5 18.833 -300.5 56.5s-169.333 89.5 -235 155.5s-116.834 144 -153.501 234s-55 187 -55 291s18.333 201 55 291s87.834 168 153.501 234s144 117.833 235 155.5s191.167 56.5 300.5 56.5c69.333 0 132 -6.33301 188 -19s106.333 -29.5 151 -50.5
s84 -44.833 118 -71.5s63.667 -54 89 -82c58.667 -66 102 -140.333 130 -223h-371c-16 29.333 -37.667 55.333 -65 78c-12 10 -25.667 19.667 -41 29s-33 17.666 -53 24.999s-42.167 13.333 -66.5 18s-50.833 7 -79.5 7c-59.333 0 -114.166 -10.333 -164.499 -31
s-93.666 -50.334 -129.999 -89.001s-64.833 -85.667 -85.5 -141s-31 -117.666 -31 -186.999s10.333 -131.666 31 -186.999s49.167 -102.333 85.5 -141s79.666 -68.334 129.999 -89.001s105.166 -31 164.499 -31z" />
    <glyph glyph-name="D" unicode="D" horiz-adv-x="1590" 
d="M140 0v1434h619c116 0 219.333 -18.333 310 -55s167.167 -87 229.5 -151s109.833 -139.667 142.5 -227s49 -182 49 -284s-16.333 -196.667 -49 -284s-80.167 -163 -142.5 -227s-138.833 -114.333 -229.5 -151s-194 -55 -310 -55h-619zM759 289
c64 0 120.833 10.333 170.5 31s91.334 49.667 125.001 87s59.167 82.333 76.5 135s26 111 26 175s-8.66699 122.333 -26 175s-42.833 97.667 -76.5 135s-75.334 66.333 -125.001 87s-106.5 31 -170.5 31h-286v-856h286z" />
    <glyph glyph-name="E" unicode="E" horiz-adv-x="1433" 
d="M1214 876v-289h-741v-298h840v-289h-1173v1434h1165v-289h-832v-269h741z" />
    <glyph glyph-name="F" unicode="F" horiz-adv-x="1425" 
d="M1214 840v-289h-741v-551h-333v1434h1165v-289h-832v-305h741z" />
    <glyph glyph-name="G" unicode="G" horiz-adv-x="1701" 
d="M1144 1076c-19.333 16.667 -42.665 31.333 -69.998 44c-23.333 11.333 -52.5 21.666 -87.5 30.999s-75.833 14 -122.5 14c-62 0 -119.167 -9.83301 -171.5 -29.5s-97.833 -48.5 -136.5 -86.5s-68.834 -84.833 -90.501 -140.5s-32.5 -119.5 -32.5 -191.5
s10.833 -135.833 32.5 -191.5s51.834 -102.5 90.501 -140.5s84.167 -66.833 136.5 -86.5s109.5 -29.5 171.5 -29.5c61.333 0 115.166 8.5 161.499 25.5s85.666 40 117.999 69s57.5 62.667 75.5 101s29.667 79.166 35 122.499h-422v269h753
c12.667 -137.333 4.5 -260.166 -24.5 -368.499s-75.167 -200 -138.5 -275s-142.333 -132.5 -237 -172.5s-201.667 -60 -321 -60c-72.667 0 -142 7.83301 -208 23.5s-127.333 38.334 -184 68.001s-108 66 -154 109s-85.167 91.833 -117.5 146.5s-57.166 114.667 -74.499 180
s-26 135.333 -26 210s8.66699 144.667 26 210s42.166 125.333 74.499 180s71.5 103.5 117.5 146.5s97.333 79.333 154 109s118 52.334 184 68.001s135.333 23.5 208 23.5c60.667 0 116.834 -5.5 168.501 -16.5s99 -25.333 142 -43s81.667 -37.834 116 -60.501
s65.166 -45.667 92.499 -69c62.667 -56 114 -119 154 -189h-393z" />
    <glyph glyph-name="H" unicode="H" horiz-adv-x="1608" 
d="M1135 1434h333v-1434h-333v587h-662v-587h-333v1434h333v-558h662v558z" />
    <glyph glyph-name="I" unicode="I" horiz-adv-x="653" 
d="M493 0h-333v1434h333v-1434z" />
    <glyph glyph-name="J" unicode="J" horiz-adv-x="1353" 
d="M411 465c6.66699 -36.667 19.6689 -69.334 39.002 -98.001c8 -12 18 -24 30 -36s26 -22.5 42 -31.5s34.667 -16.333 56 -22s45.666 -8.5 72.999 -8.5c46 0 83.833 7.33301 113.5 22s53 35 70 61s28.833 56.5 35.5 91.5s10 72.5 10 112.5v878h333v-912
c0 -87.333 -12.667 -164.666 -38 -231.999s-62 -124 -110 -170s-106.833 -80.833 -176.5 -104.5s-148.834 -35.5 -237.501 -35.5c-71.333 0 -134 7 -188 21s-101 32.333 -141 55s-73.833 48.5 -101.5 77.5s-50.5 58.5 -68.5 88.5c-42 70.667 -66 151.667 -72 243h331z" />
    <glyph glyph-name="K" unicode="K" horiz-adv-x="1530" 
d="M1053 1434h427l-637 -581l637 -853h-407l-472 632l-128 -116v-516h-333v1434h333v-520z" />
    <glyph glyph-name="L" unicode="L" horiz-adv-x="1359" 
d="M473 289h786v-289h-1119v1434h333v-1145z" />
    <glyph glyph-name="M" unicode="M" horiz-adv-x="1940" 
d="M473 854v-854h-333v1434h411l419 -980l419 980h411v-1434h-333v854l-364 -854h-266z" />
    <glyph glyph-name="N" unicode="N" horiz-adv-x="1613" 
d="M140 1434h376l624 -946v946h333v-1434h-369l-631 952v-952h-333v1434z" />
    <glyph glyph-name="O" unicode="O" horiz-adv-x="1728" 
d="M100 717c0 74.667 8.66699 144.667 26 210s42.166 125.333 74.499 180s71.5 103.5 117.5 146.5s97.333 79.333 154 109s118 52.334 184 68.001s135.333 23.5 208 23.5s142 -7.83301 208 -23.5s127.333 -38.334 184 -68.001s108 -66 154 -109s85.167 -91.833 117.5 -146.5
s57.166 -114.667 74.499 -180s26 -135.333 26 -210s-8.66699 -144.667 -26 -210s-42.166 -125.333 -74.499 -180s-71.5 -103.5 -117.5 -146.5s-97.333 -79.333 -154 -109s-118 -52.334 -184 -68.001s-135.333 -23.5 -208 -23.5s-142 7.83301 -208 23.5
s-127.333 38.334 -184 68.001s-108 66 -154 109s-85.167 91.833 -117.5 146.5s-57.166 114.667 -74.499 180s-26 135.333 -26 210zM433 717c0 -72 10.833 -135.833 32.5 -191.5s51.834 -102.5 90.501 -140.5s84.167 -66.833 136.5 -86.5s109.5 -29.5 171.5 -29.5
s119.167 9.83301 171.5 29.5s97.833 48.5 136.5 86.5s68.834 84.833 90.501 140.5s32.5 119.5 32.5 191.5s-10.833 135.833 -32.5 191.5s-51.834 102.5 -90.501 140.5s-84.167 66.833 -136.5 86.5s-109.5 29.5 -171.5 29.5s-119.167 -9.83301 -171.5 -29.5
s-97.833 -48.5 -136.5 -86.5s-68.834 -84.833 -90.501 -140.5s-32.5 -119.5 -32.5 -191.5z" />
    <glyph glyph-name="P" unicode="P" horiz-adv-x="1524" 
d="M473 1145v-395.002h417c26.667 0 51.167 4.16699 73.5 12.5s41.5 20.833 57.5 37.5s28.333 37.334 37 62.001s13 53.334 13 86.001s-4.33301 61.167 -13 85.5s-21 44.833 -37 61.5s-35.167 29.167 -57.5 37.5s-46.833 12.5 -73.5 12.5h-417zM140 -0.00195312v1434h750
c81.333 0 153.833 -11.167 217.5 -33.5s117.5 -54.5 161.5 -96.5s77.5 -93 100.5 -153s34.5 -127.667 34.5 -203c0 -76 -11.5 -144 -34.5 -204s-56.5 -111 -100.5 -153s-97.833 -74.167 -161.5 -96.5s-136.167 -33.5 -217.5 -33.5h-417v-461h-333z" />
    <glyph glyph-name="Q" unicode="Q" horiz-adv-x="1750" 
d="M100 717c0 74.667 8.66797 144.666 26.001 209.999s42.166 125.333 74.499 180s71.5 103.5 117.5 146.5s97.333 79.333 154 109s118 52.334 184 68.001s135.333 23.5 208 23.5s142 -7.83301 208 -23.5s127.333 -38.334 184 -68.001s108 -66 154 -109
s85.167 -91.833 117.5 -146.5s57.166 -114.667 74.499 -180s26 -135.333 26 -210c0 -118.667 -21.333 -225.167 -64 -319.5s-102 -173.833 -178 -238.5l264 -311h-417l-141 160c-36 -9.33301 -73 -16.333 -111 -21s-77 -7 -117 -7c-72.667 0 -142 7.83301 -208 23.5
s-127.333 38.334 -184 68.001s-108 66 -154 109s-85.167 91.833 -117.5 146.5s-57.166 114.667 -74.499 180s-26 135.333 -26 210zM433.001 716.999c0 -72 10.833 -135.833 32.5 -191.5s51.834 -102.5 90.501 -140.5s84.167 -66.833 136.5 -86.5s109.5 -29.5 171.5 -29.5
s119.167 9.83301 171.5 29.5s97.833 48.5 136.5 86.5s68.834 84.833 90.501 140.5s32.5 119.5 32.5 191.5s-10.833 135.833 -32.5 191.5s-51.834 102.5 -90.501 140.5s-84.167 66.833 -136.5 86.5s-109.5 29.5 -171.5 29.5s-119.167 -9.83301 -171.5 -29.5
s-97.833 -48.5 -136.5 -86.5s-68.834 -84.833 -90.501 -140.5s-32.5 -119.5 -32.5 -191.5z" />
    <glyph glyph-name="R" unicode="R" horiz-adv-x="1547" 
d="M140 0l-0.000976562 1434h783c74.667 0 141.834 -11 201.501 -33s110.167 -53 151.5 -93s73 -88.5 95 -145.5s33 -120.5 33 -190.5c0 -50 -6.66699 -96.5 -20 -139.5s-32.5 -82 -57.5 -117s-55.167 -65.667 -90.5 -92s-75 -47.833 -119 -64.5l320 -559h-365l-292 511
h-307v-511h-333zM472.999 1145v-344.996h450c22 0 42 4.16699 60 12.5s33.5 20.166 46.5 35.499s23.167 33.5 30.5 54.5s11 44.167 11 69.5s-3.66699 48.666 -11 69.999s-17.5 39.666 -30.5 54.999s-28.5 27.166 -46.5 35.499s-38 12.5 -60 12.5h-450z" />
    <glyph glyph-name="S" unicode="S" horiz-adv-x="1396" 
d="M423 398c7.33301 -24.667 22.0029 -46.3291 44.0029 -64.9961c18.667 -16 45.667 -30.667 81 -44s83 -20 143 -20c52 0 96.5 3.83301 133.5 11.5s67.333 18.5 91 32.5s40.834 30.667 51.501 50s16 40.666 16 63.999c0 20 -4.5 38.167 -13.5 54.5
s-24.833 31.166 -47.5 44.499s-53.334 25.5 -92.001 36.5s-88 21.5 -148 31.5c-100.667 16.667 -187.167 37.667 -259.5 63s-131.666 55.833 -177.999 91.5s-80.5 77.167 -102.5 124.5s-33 101.333 -33 162c0 69.333 14.5 130.166 43.5 182.499s69.333 96 121 131
s113.167 61.333 184.5 79s149 26.5 233 26.5c69.333 0 130.833 -5.66699 184.5 -17s100.5 -26.5 140.5 -45.5s74.167 -40.5 102.5 -64.5s51.833 -48.333 70.5 -73c44 -58.667 70.667 -125 80 -199h-343c-6 20 -18 38.333 -36 55c-16 13.333 -39.5 25.833 -70.5 37.5
s-73.833 17.5 -128.5 17.5c-49.333 0 -90 -3.16699 -122 -9.5s-57.5 -15.166 -76.5 -26.499s-32.167 -25 -39.5 -41s-11 -33.667 -11 -53c0 -16 3.66699 -30.833 11 -44.5s20.666 -26.5 39.999 -38.5s45.666 -23 78.999 -33s76 -19.333 128 -28
c98 -16 185.167 -35.167 261.5 -57.5s140.666 -51.333 192.999 -87s92.333 -79.334 120 -131.001s41.5 -114.5 41.5 -188.5c0 -82 -16.5 -151.333 -49.5 -208s-77.833 -102.667 -134.5 -138s-122.834 -61 -198.501 -77s-156.5 -24 -242.5 -24
c-75.333 0 -141.666 6 -198.999 18s-107.333 27.667 -150 47s-78.834 41.666 -108.501 66.999s-54.167 51 -73.5 77c-46 61.333 -72.667 131 -80 209h343z" />
    <glyph glyph-name="T" unicode="T" horiz-adv-x="1513" 
d="M1433 1434v-289h-510v-1145h-333v1145h-510v289h1353z" />
    <glyph glyph-name="U" unicode="U" horiz-adv-x="1590" 
d="M795 -20c-105.333 0 -198.666 14.333 -279.999 43s-149.833 70.5 -205.5 125.5s-97.834 122.833 -126.501 203.5s-43 173.334 -43 278.001v804h333v-770c0 -55.333 5.33301 -107.166 16 -155.499s28.5 -90.166 53.5 -125.499s58.167 -63.166 99.5 -83.499
s92.333 -30.5 153 -30.5s111.667 10.167 153 30.5s74.5 48.166 99.5 83.499s42.833 77.166 53.5 125.499s16 100.166 16 155.499v770h333v-804c0 -104.667 -14.333 -197.334 -43 -278.001s-70.834 -148.5 -126.501 -203.5s-124.167 -96.833 -205.5 -125.5
s-174.666 -43 -279.999 -43z" />
    <glyph glyph-name="V" unicode="V" horiz-adv-x="1644" 
d="M1232 1434h362l-631 -1434h-282l-631 1434h362l410 -967z" />
    <glyph glyph-name="W" unicode="W" horiz-adv-x="2168" 
d="M816 0h-262l-504 1434h356l277 -831l256 831h290l256 -831l277 831h356l-504 -1434h-262l-268 871z" />
    <glyph glyph-name="X" unicode="X" horiz-adv-x="1680" 
d="M1062 744l568 -744h-436l-354 461l-354 -461h-436l568 744l-526 690h436l312 -408l312 408h436z" />
    <glyph glyph-name="Y" unicode="Y" horiz-adv-x="1585" 
d="M792 891l361 543h382l-576 -860v-574h-333v574l-576 860h382z" />
    <glyph glyph-name="Z" unicode="Z" horiz-adv-x="1482" 
d="M1362 289v-289h-1242v221l761 924h-759v289h1237v-221l-761 -924h764z" />
    <glyph glyph-name="bracketleft" unicode="[" horiz-adv-x="837" 
d="M483 1146v-1232h244v-288h-577v1808h577v-288h-244z" />
    <glyph glyph-name="backslash" unicode="\" horiz-adv-x="1241" 
d="M1131 0h-363l-658 1434h363z" />
    <glyph glyph-name="bracketright" unicode="]" horiz-adv-x="837" 
d="M110 1146v288h577v-1808h-577v288h244v1232h-244z" />
    <glyph glyph-name="asciicircum" unicode="^" horiz-adv-x="1202" 
d="M1102 840h-295l-206 250l-206 -250h-295l410 594h182z" />
    <glyph glyph-name="underscore" unicode="_" horiz-adv-x="1205" 
d="M80 -88h1045v-252h-1045v252z" />
    <glyph glyph-name="grave" unicode="`" horiz-adv-x="744" 
d="M664 1124h-270l-314 310h333z" />
    <glyph glyph-name="a" unicode="a" horiz-adv-x="1350" 
d="M1230 1030v-1030h-328v148c-17.333 -31.333 -40.333 -59.333 -69 -84c-12 -10.667 -26 -21 -42 -31s-33.833 -19 -53.5 -27s-41.334 -14.333 -65.001 -19s-49.5 -7 -77.5 -7c-78.667 0 -149.834 14 -213.501 42s-117.834 66.333 -162.501 115s-79 105.334 -103 170.001
s-36 134 -36 208s12 143.333 36 208s58.333 121.334 103 170.001s98.834 87 162.501 115s134.834 42 213.501 42c28 0 53.833 -2.33301 77.5 -7s45.334 -11 65.001 -19s37.5 -17 53.5 -27s30 -20.333 42 -31c28.667 -24.667 51.667 -52.667 69 -84v148h328zM655 231.998
c38.667 0 73.334 7.5 104.001 22.5s56.667 35.167 78 60.5s37.5 55.166 48.5 89.499s16.5 71.166 16.5 110.499c0 38.667 -5.5 75.334 -16.5 110.001s-27.167 64.667 -48.5 90s-47.333 45.5 -78 60.5s-65.334 22.5 -104.001 22.5c-39.333 0 -74.166 -7.5 -104.499 -22.5
s-56.166 -35.167 -77.499 -60.5s-37.5 -55.333 -48.5 -90s-16.5 -71.334 -16.5 -110.001c0 -39.333 5.5 -76.166 16.5 -110.499s27.167 -64.166 48.5 -89.499s47.166 -45.5 77.499 -60.5s65.166 -22.5 104.499 -22.5z" />
    <glyph glyph-name="b" unicode="b" horiz-adv-x="1350" 
d="M448 1516l0.00292969 -633.999c0.666992 1.33301 3.66699 6.33301 9 15s13.166 19.334 23.499 32.001s23.666 26 39.999 40s35.666 27 57.999 39s48.166 22 77.499 30s62.333 12 99 12c78.667 0 149.834 -14 213.501 -42s117.834 -66.333 162.501 -115
s79 -105.334 103 -170.001s36 -134 36 -208s-12 -143.333 -36 -208s-58.333 -121.334 -103 -170.001s-98.834 -87 -162.501 -115s-134.834 -42 -213.501 -42c-55.333 0 -102.166 8.33301 -140.499 25s-69.666 35.167 -93.999 55.5s-42.333 39.333 -54 57
s-17.834 27.5 -18.501 29.5v-147h-328v1516h328zM695.003 232.001c38.667 0 73.334 7.5 104.001 22.5s56.667 35.167 78 60.5s37.5 55.166 48.5 89.499s16.5 71.166 16.5 110.499c0 38.667 -5.5 75.334 -16.5 110.001s-27.167 64.667 -48.5 90s-47.333 45.5 -78 60.5
s-65.334 22.5 -104.001 22.5c-39.333 0 -74.166 -7.5 -104.499 -22.5s-56.166 -35.167 -77.499 -60.5s-37.5 -55.333 -48.5 -90s-16.5 -71.334 -16.5 -110.001c0 -39.333 5.5 -76.166 16.5 -110.499s27.167 -64.166 48.5 -89.499s47.166 -45.5 77.499 -60.5
s65.166 -22.5 104.499 -22.5z" />
    <glyph glyph-name="c" unicode="c" horiz-adv-x="1245" 
d="M1185 344c-22 -68 -56.333 -128.672 -103 -182.005c-20 -22.667 -43.333 -45 -70 -67s-57.5 -41.5 -92.5 -58.5s-74.333 -30.667 -118 -41s-92.5 -15.5 -146.5 -15.5c-84 0 -161.167 13.167 -231.5 39.5s-131 63 -182 110s-90.667 103.333 -119 169
s-42.5 137.834 -42.5 216.501s14.167 150.834 42.5 216.501s68 122 119 169s111.667 83.667 182 110s147.5 39.5 231.5 39.5c54 0 102.833 -5.16699 146.5 -15.5s83 -24 118 -41s65.833 -36.5 92.5 -58.5s50 -44.333 70 -67c46.667 -53.333 81 -114 103 -182h-335
c-12 20.667 -27 39.334 -45 56.001c-15.333 14 -35.333 26.833 -60 38.5s-54.667 17.5 -90 17.5c-39.333 0 -74.166 -7.5 -104.499 -22.5s-56.166 -35.167 -77.499 -60.5s-37.5 -55.333 -48.5 -90s-16.5 -71.334 -16.5 -110.001c0 -39.333 5.5 -76.166 16.5 -110.499
s27.167 -64.166 48.5 -89.499s47.166 -45.5 77.499 -60.5s65.166 -22.5 104.499 -22.5c35.333 0 65.333 5.83301 90 17.5s44.667 24.5 60 38.5c18 16.667 33 35.334 45 56.001h335z" />
    <glyph glyph-name="d" unicode="d" horiz-adv-x="1350" 
d="M1230 1516l0.00390625 -1516h-328v147l-19 -29.5c-11.333 -17.667 -29.166 -36.667 -53.499 -57s-55.833 -38.833 -94.5 -55.5s-85.334 -25 -140.001 -25c-78.667 0 -149.834 14 -213.501 42s-117.834 66.333 -162.501 115s-79 105.334 -103 170.001s-36 134 -36 208
s12 143.333 36 208s58.333 121.334 103 170.001s98.834 87 162.501 115s134.834 42 213.501 42c36.667 0 69.667 -4 99 -12s55.166 -18 77.499 -30s41.666 -25 57.999 -39s29.666 -27.333 39.999 -40s18.166 -23.334 23.499 -32.001s8.33301 -13.667 9 -15v634h328z
M655.004 231.999c38.667 0 73.334 7.5 104.001 22.5s56.667 35.167 78 60.5s37.5 55.166 48.5 89.499s16.5 71.166 16.5 110.499c0 38.667 -5.5 75.334 -16.5 110.001s-27.167 64.667 -48.5 90s-47.333 45.5 -78 60.5s-65.334 22.5 -104.001 22.5
c-39.333 0 -74.166 -7.5 -104.499 -22.5s-56.166 -35.167 -77.499 -60.5s-37.5 -55.333 -48.5 -90s-16.5 -71.334 -16.5 -110.001c0 -39.333 5.5 -76.166 16.5 -110.499s27.167 -64.166 48.5 -89.499s47.166 -45.5 77.499 -60.5s65.166 -22.5 104.499 -22.5z" />
    <glyph glyph-name="e" unicode="e" horiz-adv-x="1293" 
d="M1183 266c-28 -54 -66.333 -101.668 -115 -143.001c-20.667 -18 -44.667 -35.5 -72 -52.5s-58.5 -32.333 -93.5 -46s-73.833 -24.5 -116.5 -32.5s-89.667 -12 -141 -12c-84 0 -160.667 14 -230 42s-128.833 66.333 -178.5 115s-88.167 105.334 -115.5 170.001
s-41 134 -41 208s13.667 143.333 41 208s65.833 121.334 115.5 170.001s109.167 87 178.5 115s146 42 230 42s162.167 -14.333 234.5 -43s134.5 -70.834 186.5 -126.501s91.167 -124.334 117.5 -206.001s35.166 -175.167 26.499 -280.5h-784c16 -48 42.333 -87 79 -117
s83.334 -45 140.001 -45c26.667 0 50 1.66699 70 5s36.667 7.33301 50 12c16 4.66699 29.333 10.334 40 17.001h378zM645 797.999c-31.333 0 -59.498 -4.83301 -84.498 -14.5s-47 -23 -66 -40s-34.833 -37.167 -47.5 -60.5s-22.334 -49 -29.001 -77h454
c-6.66699 28 -16.334 53.667 -29.001 77s-28.5 43.5 -47.5 60.5s-41.167 30.333 -66.5 40s-53.333 14.5 -84 14.5z" />
    <glyph glyph-name="f" unicode="f" horiz-adv-x="1036" 
d="M926 1278l-54.001 8.00098c-16 2 -33.667 3.83301 -53 5.5s-38.333 2.5 -57 2.5c-31.333 0 -57.333 -4.83301 -78 -14.5s-37 -25 -49 -46s-20.5 -48.167 -25.5 -81.5s-7.5 -74 -7.5 -122h304v-252h-304v-778h-328v778h-214v252h214
c0.666992 45.333 3.66699 89.666 9 132.999s14 84.166 26 122.499s28.333 73.5 49 105.5s47 59.5 79 82.5s70.333 40.833 115 53.5s97.334 19 158.001 19c31.333 0 60 -1.66699 86 -5s48.667 -6.66602 68 -9.99902c22 -4.66699 42.667 -9.66699 62 -15v-238z" />
    <glyph glyph-name="g" unicode="g" horiz-adv-x="1350" 
d="M1230 1030l-0.00390625 -980.002c0 -87.333 -10.333 -166.666 -31 -237.999s-54 -132.5 -100 -183.5s-105.667 -90.5 -179 -118.5s-162.333 -42 -267 -42c-52.667 0 -100.167 5.16699 -142.5 15.5s-80 24 -113 41s-61.833 36.167 -86.5 57.5s-46 43.333 -64 66
c-42 52.667 -72.333 113 -91 181h324c8 -20.667 20.667 -39 38 -55c14.667 -13.333 34.334 -25.666 59.001 -36.999s56.667 -17 96 -17c40.667 0 75.334 6.5 104.001 19.5s52.334 33.667 71.001 62s32.334 65.333 41.001 111s13 101.5 13 167.5v67l-19 -29.5
c-11.333 -17.667 -29.333 -36.667 -54 -57s-56.167 -38.833 -94.5 -55.5s-84.833 -25 -139.5 -25c-78.667 0 -149.834 14 -213.501 42s-117.834 66.333 -162.501 115s-79 105.334 -103 170.001s-36 134 -36 208s12 143.333 36 208s58.333 121.334 103 170.001
s98.834 87 162.501 115s134.834 42 213.501 42c54.667 0 101.167 -8.33301 139.5 -25s69.833 -35.334 94.5 -56.001s42.667 -39.834 54 -57.501l19 -29.5v148h328zM654.996 231.998c38.667 0 73.334 7.5 104.001 22.5s56.667 35.167 78 60.5s37.5 55.166 48.5 89.499
s16.5 71.166 16.5 110.499c0 38.667 -5.5 75.334 -16.5 110.001s-27.167 64.667 -48.5 90s-47.333 45.5 -78 60.5s-65.334 22.5 -104.001 22.5c-39.333 0 -74.166 -7.5 -104.499 -22.5s-56.166 -35.167 -77.499 -60.5s-37.5 -55.333 -48.5 -90s-16.5 -71.334 -16.5 -110.001
c0 -39.333 5.5 -76.166 16.5 -110.499s27.167 -64.166 48.5 -89.499s47.166 -45.5 77.499 -60.5s65.166 -22.5 104.499 -22.5z" />
    <glyph glyph-name="h" unicode="h" 
d="M1188 0h-328.002v503c0 44.667 -3.33301 85.334 -10 122.001s-18 67.667 -34 93s-37.167 45 -63.5 59s-59.166 21 -98.499 21s-72.166 -7 -98.499 -21s-47.5 -33.667 -63.5 -59s-27.333 -56.333 -34 -93s-10 -77.334 -10 -122.001v-503h-328v1516h328v-627
c0.666992 1.33301 2.83398 6.33301 6.50098 15s9.66699 19 18 31s19.333 24.667 33 38s30.5 25.666 50.5 36.999s43.667 20.833 71 28.5s59 11.5 95 11.5c85.333 0 157.666 -13.667 216.999 -41s107.5 -65.166 144.5 -113.499s63.667 -106 80 -173
s24.5 -140.167 24.5 -219.5v-503z" />
    <glyph glyph-name="i" unicode="i" horiz-adv-x="584" 
d="M128 1030h328v-1030h-328v1030zM120 1334c0 24 4.5 46.333 13.5 67s21.333 38.834 37 54.501s33.834 28 54.501 37s43 13.5 67 13.5s46.333 -4.5 67 -13.5s38.834 -21.333 54.501 -37s28 -33.834 37 -54.501s13.5 -43 13.5 -67s-4.5 -46.333 -13.5 -67
s-21.333 -38.834 -37 -54.501s-33.834 -28 -54.501 -37s-43 -13.5 -67 -13.5s-46.333 4.5 -67 13.5s-38.834 21.333 -54.501 37s-28 33.834 -37 54.501s-13.5 43 -13.5 67z" />
    <glyph glyph-name="j" unicode="j" horiz-adv-x="573" 
d="M109 1334c0 24 4.5 46.333 13.5 67s21.333 38.834 37 54.501s33.834 28 54.501 37s43 13.5 67 13.5s46.333 -4.5 67 -13.5s38.834 -21.333 54.501 -37s28 -33.834 37 -54.501s13.5 -43 13.5 -67s-4.5 -46.333 -13.5 -67s-21.333 -38.834 -37 -54.501
s-33.834 -28 -54.501 -37s-43 -13.5 -67 -13.5s-46.333 4.5 -67 13.5s-38.834 21.333 -54.501 37s-28 33.834 -37 54.501s-13.5 43 -13.5 67zM-140 -270c10.667 -2 21.9971 -3.66895 33.9971 -5.00195c10.667 -1.33301 22.834 -2.5 36.501 -3.5s28.167 -1.5 43.5 -1.5
c30.667 0 55.334 4.16699 74.001 12.5s33.167 21.333 43.5 39s17.166 40.334 20.499 68.001s5 61.167 5 100.5v1090h328v-1090c0 -76 -5.16699 -143.333 -15.5 -202s-30.166 -108 -59.499 -148s-70 -70.333 -122 -91s-120 -31 -204 -31c-35.333 0 -64.5 0.833008 -87.5 2.5
s-41.833 3.83398 -56.5 6.50098c-17.333 2.66699 -30.666 6 -39.999 10v243z" />
    <glyph glyph-name="k" unicode="k" horiz-adv-x="1242" 
d="M789 1030h423l-483 -419l483 -611h-377l-330 416l-58 -50v-366h-327v1516h327v-788z" />
    <glyph glyph-name="l" unicode="l" horiz-adv-x="608" 
d="M468 1516v-1516h-328v1516h328z" />
    <glyph glyph-name="m" unicode="m" horiz-adv-x="1952" 
d="M1832 0l-327.999 -0.000976562v523c0 36 -3.16699 70.667 -9.5 104s-16.833 62.666 -31.5 87.999s-33.5 45.5 -56.5 60.5s-51.167 22.5 -84.5 22.5s-61.5 -7.5 -84.5 -22.5s-41.833 -35.167 -56.5 -60.5s-25.167 -54.666 -31.5 -87.999s-9.5 -68 -9.5 -104v-523h-328v523
c0 36 -3.16699 70.667 -9.5 104s-16.833 62.666 -31.5 87.999s-33.5 45.5 -56.5 60.5s-51.167 22.5 -84.5 22.5s-61.666 -7.5 -84.999 -22.5s-42.166 -35.167 -56.499 -60.5s-24.666 -54.666 -30.999 -87.999s-9.5 -68 -9.5 -104v-523h-328v1030h328v-101
c14 22.667 32 42.667 54 60c19.333 15.333 44.166 29.333 74.499 42s67.5 19 111.5 19c33.333 0 64.166 -2.5 92.499 -7.5s54.166 -11.833 77.499 -20.5s44.333 -18.334 63 -29.001s35 -21.334 49 -32.001c33.333 -26.667 60 -56.334 80 -89.001
c18.667 32.667 43.667 62.334 75 89.001c12.667 10.667 27.5 21.334 44.5 32.001s36.167 20.334 57.5 29.001s44.666 15.5 69.999 20.5s53 7.5 83 7.5c78 0 145.5 -13.5 202.5 -40.5s104 -64.167 141 -111.5s64.333 -103.166 82 -167.499s26.5 -133.5 26.5 -207.5v-523z" />
    <glyph glyph-name="n" unicode="n" 
d="M1188 0h-328.002v503c0 44.667 -3.33301 85.334 -10 122.001s-18 67.667 -34 93s-37.167 45 -63.5 59s-59.166 21 -98.499 21s-72.166 -7 -98.499 -21s-47.5 -33.667 -63.5 -59s-27.333 -56.333 -34 -93s-10 -77.334 -10 -122.001v-503h-328v1030h328v-141
c0.666992 1.33301 2.83398 6.33301 6.50098 15s9.66699 19 18 31s19.333 24.667 33 38s30.5 25.666 50.5 36.999s43.667 20.833 71 28.5s59 11.5 95 11.5c85.333 0 157.666 -13.667 216.999 -41s107.5 -65.166 144.5 -113.499s63.667 -106 80 -173
s24.5 -140.167 24.5 -219.5v-503z" />
    <glyph glyph-name="o" unicode="o" horiz-adv-x="1310" 
d="M655 -20c-84 0 -161.167 13.167 -231.5 39.5s-131 63 -182 110s-90.667 103.333 -119 169s-42.5 137.834 -42.5 216.501s14.167 150.834 42.5 216.501s68 122 119 169s111.667 83.667 182 110s147.5 39.5 231.5 39.5s161.167 -13.167 231.5 -39.5s131 -63 182 -110
s90.667 -103.333 119 -169s42.5 -137.834 42.5 -216.501s-14.167 -150.834 -42.5 -216.501s-68 -122 -119 -169s-111.667 -83.667 -182 -110s-147.5 -39.5 -231.5 -39.5zM655 232c38.667 0 73.334 7.5 104.001 22.5s56.667 35.167 78 60.5s37.5 55.166 48.5 89.499
s16.5 71.166 16.5 110.499c0 38.667 -5.5 75.334 -16.5 110.001s-27.167 64.667 -48.5 90s-47.333 45.5 -78 60.5s-65.334 22.5 -104.001 22.5c-39.333 0 -74.166 -7.5 -104.499 -22.5s-56.166 -35.167 -77.499 -60.5s-37.5 -55.333 -48.5 -90s-16.5 -71.334 -16.5 -110.001
c0 -39.333 5.5 -76.166 16.5 -110.499s27.167 -64.166 48.5 -89.499s47.166 -45.5 77.499 -60.5s65.166 -22.5 104.499 -22.5z" />
    <glyph glyph-name="p" unicode="p" horiz-adv-x="1350" 
d="M448 1030l0.00292969 -147.999c0.666992 1.33301 3.66699 6.33301 9 15s13.166 19.334 23.499 32.001s23.666 26 39.999 40s35.666 27 57.999 39s48.166 22 77.499 30s62.333 12 99 12c78.667 0 149.834 -14 213.501 -42s117.834 -66.333 162.501 -115
s79 -105.334 103 -170.001s36 -134 36 -208s-12 -143.333 -36 -208s-58.333 -121.334 -103 -170.001s-98.834 -87 -162.501 -115s-134.834 -42 -213.501 -42c-55.333 0 -102.166 8.33301 -140.499 25s-69.666 35.167 -93.999 55.5s-42.333 39.333 -54 57
s-17.834 27.5 -18.501 29.5v-679h-328v1562h328zM695.003 232.001c38.667 0 73.334 7.5 104.001 22.5s56.667 35.167 78 60.5s37.5 55.166 48.5 89.499s16.5 71.166 16.5 110.499c0 38.667 -5.5 75.334 -16.5 110.001s-27.167 64.667 -48.5 90s-47.333 45.5 -78 60.5
s-65.334 22.5 -104.001 22.5c-39.333 0 -74.166 -7.5 -104.499 -22.5s-56.166 -35.167 -77.499 -60.5s-37.5 -55.333 -48.5 -90s-16.5 -71.334 -16.5 -110.001c0 -39.333 5.5 -76.166 16.5 -110.499s27.167 -64.166 48.5 -89.499s47.166 -45.5 77.499 -60.5
s65.166 -22.5 104.499 -22.5z" />
    <glyph glyph-name="q" unicode="q" horiz-adv-x="1350" 
d="M1230 1030l0.00390625 -1562h-328v679l-19 -29.5c-11.333 -17.667 -29.166 -36.667 -53.499 -57s-55.833 -38.833 -94.5 -55.5s-85.334 -25 -140.001 -25c-78.667 0 -149.834 14 -213.501 42s-117.834 66.333 -162.501 115s-79 105.334 -103 170.001s-36 134 -36 208
s12 143.333 36 208s58.333 121.334 103 170.001s98.834 87 162.501 115s134.834 42 213.501 42c36.667 0 69.667 -4 99 -12s55.166 -18 77.499 -30s41.666 -25 57.999 -39s29.666 -27.333 39.999 -40s18.166 -23.334 23.499 -32.001s8.33301 -13.667 9 -15v148h328z
M655.004 231.999c38.667 0 73.334 7.5 104.001 22.5s56.667 35.167 78 60.5s37.5 55.166 48.5 89.499s16.5 71.166 16.5 110.499c0 38.667 -5.5 75.334 -16.5 110.001s-27.167 64.667 -48.5 90s-47.333 45.5 -78 60.5s-65.334 22.5 -104.001 22.5
c-39.333 0 -74.166 -7.5 -104.499 -22.5s-56.166 -35.167 -77.499 -60.5s-37.5 -55.333 -48.5 -90s-16.5 -71.334 -16.5 -110.001c0 -39.333 5.5 -76.166 16.5 -110.499s27.167 -64.166 48.5 -89.499s47.166 -45.5 77.499 -60.5s65.166 -22.5 104.499 -22.5z" />
    <glyph glyph-name="r" unicode="r" horiz-adv-x="940" 
d="M860 755c-27.333 7.33301 -56.332 13.167 -86.999 17.5s-61.334 5.5 -92.001 3.5s-60 -8 -88 -18s-52.667 -25.5 -74 -46.5s-38.5 -48.5 -51.5 -82.5s-19.5 -76 -19.5 -126v-503h-328v1030h328v-141c12.667 38.667 34 70 64 94s64.333 41.5 103 52.5
s79.5 15.833 122.5 14.5s83.833 -8 122.5 -20v-275z" />
    <glyph glyph-name="s" unicode="s" horiz-adv-x="1126" 
d="M562 232c62 0 106.839 6.33105 134.506 18.998s41.5 30.667 41.5 54c0 12.667 -2.5 23.5 -7.5 32.5s-14.333 16.667 -28 23s-32.334 11.666 -56.001 15.999s-54.167 8.5 -91.5 12.5c-80.667 8.66699 -150.834 21.334 -210.501 38.001s-109 38.334 -148 65.001
s-68.167 58.834 -87.5 96.501s-29 81.834 -29 132.501c0 42.667 10.833 83.834 32.5 123.501s53.167 74.667 94.5 105s91.833 54.666 151.5 72.999s127.5 27.5 203.5 27.5c50.667 0 96.334 -4.5 137.001 -13.5s76.667 -20.833 108 -35.5s58.666 -31.334 81.999 -50.001
s43.333 -37.667 60 -57c38.667 -46 65.667 -97.667 81 -155h-328c-4.66699 10.667 -13 20.334 -25 29.001c-10 7.33301 -24.167 14.166 -42.5 20.499s-42.5 9.5 -72.5 9.5c-53.333 0 -92.333 -6 -117 -18s-37 -31.667 -37 -59c0 -7.33301 1.16699 -14.833 3.5 -22.5
s8.66602 -15.167 18.999 -22.5s26.333 -14.166 48 -20.499s51.834 -11.5 90.501 -15.5c79.333 -8 149.833 -19.333 211.5 -34s113.667 -34.834 156 -60.501s74.5 -58 96.5 -97s33 -86.833 33 -143.5c0 -52 -12.667 -98.167 -38 -138.5s-60.333 -74.333 -105 -102
s-97.834 -48.667 -159.501 -63s-128.834 -21.5 -201.501 -21.5c-58.667 0 -110.834 4.5 -156.501 13.5s-85.667 21 -120 36s-63.833 31.833 -88.5 50.5s-45.334 38 -62.001 58c-39.333 46.667 -64.333 99.667 -75 159h328c5.33301 -12.667 15 -23.667 29 -33
c12 -8 29.333 -15.333 52 -22s53.667 -10 93 -10z" />
    <glyph glyph-name="t" unicode="t" horiz-adv-x="986" 
d="M60 1030l213.997 0.00195312v299h328v-299h304v-252h-304v-350c0 -28.667 1.83301 -55.5 5.5 -80.5s10.834 -46.833 21.501 -65.5s25.5 -33.334 44.5 -44.001s43.833 -16 74.5 -16c18 0 36.333 0.666992 55 2s35.667 3 51 5l52 8v-237c-18 -6 -38 -11 -60 -15
c-19.333 -4 -42.166 -7.5 -68.499 -10.5s-56.166 -4.5 -89.499 -4.5c-79.333 0 -145.5 9.66699 -198.5 29s-95.5 48.166 -127.5 86.499s-54.667 86 -68 143s-20 123.5 -20 199.5v350h-214v252z" />
    <glyph glyph-name="u" unicode="u" 
d="M120 1030l328.002 -0.000976562v-503c0 -45.333 3.33301 -86.166 10 -122.499s18 -67.166 34 -92.499s37.167 -45 63.5 -59s59.166 -21 98.499 -21s72.166 7 98.499 21s47.5 33.667 63.5 59s27.333 56.166 34 92.499s10 77.166 10 122.499v503h328v-1030h-328v141
c-0.666992 -1.33301 -2.83398 -6.33301 -6.50098 -15s-9.66699 -19 -18 -31s-19.333 -24.667 -33 -38s-30.5 -25.666 -50.5 -36.999s-43.667 -20.833 -71 -28.5s-59 -11.5 -95 -11.5c-85.333 0 -157.666 13.5 -216.999 40.5s-107.5 64.833 -144.5 113.5
s-63.667 106.5 -80 173.5s-24.5 140.167 -24.5 219.5v503z" />
    <glyph glyph-name="v" unicode="v" horiz-adv-x="1276" 
d="M914 1030h332l-438 -1030h-340l-438 1030h332l276 -677z" />
    <glyph glyph-name="w" unicode="w" horiz-adv-x="1758" 
d="M685 0h-313l-342 1030h332l177 -571l174 571h332l174 -571l177 571h332l-342 -1030h-313l-194 634z" />
    <glyph glyph-name="x" unicode="x" horiz-adv-x="1256" 
d="M388 0h-358l401 542l-371 488h358l210 -277l210 277h358l-371 -488l401 -542h-358l-240 333z" />
    <glyph glyph-name="y" unicode="y" horiz-adv-x="1276" 
d="M468 0l-438 1030h332l276 -677l276 677h332l-665 -1562h-340z" />
    <glyph glyph-name="z" unicode="z" horiz-adv-x="1090" 
d="M80 188l518 590h-498v252h910v-188l-518 -590h518v-252h-930v188z" />
    <glyph glyph-name="braceleft" unicode="{" horiz-adv-x="892" 
d="M442 555c26.667 -13.333 51.333 -31 74 -53s42.167 -48 58.5 -78s29 -64.333 38 -103s13.5 -81.334 13.5 -128.001c0 -66 3.66699 -118.167 11 -156.5s18 -67.166 32 -86.499s31.333 -31.666 52 -36.999s44.334 -8 71.001 -8v-289c-44 0 -87 3.66699 -129 11
s-81.5 19.833 -118.5 37.5s-71 40.667 -102 69s-57.667 63.666 -80 105.999s-39.666 92.166 -51.999 149.499s-18.5 123.333 -18.5 198c0 48.667 -5.16699 87.334 -15.5 116.001s-24.333 50.667 -42 66s-38.167 25.666 -61.5 30.999s-47.666 9.33301 -72.999 12v286
c25.333 2.66699 49.666 6.66699 72.999 12s43.833 15.666 61.5 30.999s31.667 37.333 42 66s15.5 67.334 15.5 116.001c0 74.667 6.16699 140.667 18.5 198s29.666 107.166 51.999 149.499s49 77.666 80 105.999s65 51.333 102 69s76.333 30.167 118 37.5
s84.834 11 129.501 11v-289c-26.667 0 -50.334 -2.66699 -71.001 -8s-38 -17.666 -52 -36.999s-24.667 -48.166 -32 -86.499s-11 -90.5 -11 -156.5c0 -47.333 -4.5 -90.166 -13.5 -128.499s-21.667 -72.5 -38 -102.5s-35.833 -56 -58.5 -78s-47.334 -39.667 -74.001 -53z
" />
    <glyph glyph-name="bar" unicode="|" horiz-adv-x="573" 
d="M120 1434h333v-1966h-333v1966z" />
    <glyph glyph-name="braceright" unicode="}" horiz-adv-x="892" 
d="M450 555c-26.667 13.333 -51.334 31 -74.001 53s-42.167 48 -58.5 78s-29 64.167 -38 102.5s-13.5 81.166 -13.5 128.499c0 66 -3.66699 118.167 -11 156.5s-18 67.166 -32 86.499s-31.333 31.666 -52 36.999s-44.334 8 -71.001 8v289c44 0 87 -3.66699 129 -11
s81.5 -19.833 118.5 -37.5s71 -40.667 102 -69s57.667 -63.666 80 -105.999s39.666 -92.166 51.999 -149.499s18.5 -123.333 18.5 -198c0 -48.667 5.16699 -87.334 15.5 -116.001s24.333 -50.667 42 -66s38.167 -25.666 61.5 -30.999s47.666 -9.33301 72.999 -12v-286
c-25.333 -2.66699 -49.666 -6.66699 -72.999 -12s-43.833 -15.666 -61.5 -30.999s-31.667 -37.333 -42 -66s-15.5 -67.334 -15.5 -116.001c0 -74.667 -6.16699 -140.667 -18.5 -198s-29.666 -107.166 -51.999 -149.499s-49 -77.666 -80 -105.999s-65 -51.333 -102 -69
s-76.5 -30.167 -118.5 -37.5s-85 -11 -129 -11v289c26.667 0 50.334 2.66699 71.001 8s38 17.666 52 36.999s24.667 48.166 32 86.499s11 90.5 11 156.5c0 46.667 4.5 89.334 13.5 128.001s21.667 73 38 103s35.833 56 58.5 78s47.334 39.667 74.001 53z" />
    <glyph glyph-name="asciitilde" unicode="~" horiz-adv-x="1370" 
d="M757 852c23.333 -23.333 46.166 -43.5 68.499 -60.5s46.5 -25.5 72.5 -25.5c14.667 0 27.334 4 38.001 12s19.334 17.667 26.001 29s11.5 23.333 14.5 36s4.5 24 4.5 34h289c0 -22.667 -2.33301 -48.667 -7 -78s-12.5 -59.166 -23.5 -89.499s-25.667 -60 -44 -89
s-41.166 -54.833 -68.499 -77.5s-60 -41 -98 -55s-81.667 -21 -131 -21c-38.667 0 -72.334 3.83301 -101.001 11.5s-54 17.667 -76 30s-41.667 26.166 -59 41.499l-49 45c-23.333 23.333 -46.166 43.5 -68.499 60.5s-46.5 25.5 -72.5 25.5c-14.667 0 -27.334 -4 -38.001 -12
s-19.334 -17.667 -26.001 -29s-11.5 -23.333 -14.5 -36s-4.5 -24 -4.5 -34h-289c0 22.667 2.33301 48.667 7 78s12.5 59.166 23.5 89.499s25.667 60 44 89s41.166 54.833 68.499 77.5s59.833 41 97.5 55s81.5 21 131.5 21c38.667 0 72.334 -3.83301 101.001 -11.5
s54 -17.667 76 -30s41.667 -26.166 59 -41.499z" />
    <glyph glyph-name="uni00A0" unicode="&#xa0;" horiz-adv-x="573" 
 />
    <glyph glyph-name="exclamdown" unicode="&#xa1;" horiz-adv-x="586" 
d="M167 480h253l40 -1012h-333zM120 739c0 24 4.5 46.5 13.5 67.5s21.333 39.333 37 55s34 28 55 37s43.5 13.5 67.5 13.5s46.5 -4.5 67.5 -13.5s39.333 -21.333 55 -37s28 -34 37 -55s13.5 -43.5 13.5 -67.5s-4.5 -46.5 -13.5 -67.5s-21.333 -39.333 -37 -55
s-34 -28 -55 -37s-43.5 -13.5 -67.5 -13.5s-46.5 4.5 -67.5 13.5s-39.333 21.333 -55 37s-28 34 -37 55s-13.5 43.5 -13.5 67.5z" />
    <glyph glyph-name="cent" unicode="&#xa2;" horiz-adv-x="1245" 
d="M1185 344c-16.667 -51.333 -41.334 -99.667 -74.001 -145c-14 -19.333 -30.333 -38.833 -49 -58.5s-40.334 -38.5 -65.001 -56.5s-52.167 -34.333 -82.5 -49s-63.833 -26.667 -100.5 -36v-233h-328v234c-61.333 15.333 -116.833 38.666 -166.5 69.999
s-92.334 69.166 -128.001 113.499s-63.167 94.5 -82.5 150.5s-29 116.333 -29 181s9.66699 125 29 181s46.833 106.167 82.5 150.5s78.334 82.166 128.001 113.499s105.167 54.666 166.5 69.999v234h328v-233c36.667 -9.33301 70.167 -21.333 100.5 -36s57.833 -31 82.5 -49
s46.334 -36.833 65.001 -56.5s35 -39.167 49 -58.5c32.667 -45.333 57.334 -93.666 74.001 -144.999h-335c-12 20.667 -27 39.334 -45 56.001c-15.333 14 -35.333 26.833 -60 38.5s-54.667 17.5 -90 17.5c-39.333 0 -74.166 -7.5 -104.499 -22.5
s-56.166 -35.167 -77.499 -60.5s-37.5 -55.333 -48.5 -90s-16.5 -71.334 -16.5 -110.001c0 -39.333 5.5 -76.166 16.5 -110.499s27.167 -64.166 48.5 -89.499s47.166 -45.5 77.499 -60.5s65.166 -22.5 104.499 -22.5c35.333 0 65.333 5.83301 90 17.5s44.667 24.5 60 38.5
c18 16.667 33 35.334 45 56.001h335z" />
    <glyph glyph-name="sterling" unicode="&#xa3;" horiz-adv-x="1588" 
d="M140 841h161.003c-1.33301 17.333 -2.5 34.5 -3.5 51.5s-1.5 34.5 -1.5 52.5c0 33.333 4.16699 69 12.5 107s21.833 75.833 40.5 113.5s43.167 73.834 73.5 108.501s67.166 65.334 110.499 92.001s93.833 48 151.5 64s123.5 24 197.5 24
c65.333 0 123.666 -6.33301 174.999 -19s97 -29.5 137 -50.5s74.5 -44.667 103.5 -71s53.5 -53.5 73.5 -81.5c47.333 -65.333 79.666 -139.333 96.999 -222h-343c-6.66699 28.667 -20 54.334 -40 77.001c-8.66699 10 -19 19.667 -31 29s-26.333 17.666 -43 24.999
s-35.667 13.166 -57 17.499s-45.333 6.5 -72 6.5c-47.333 0 -87.166 -5.66699 -119.499 -17s-58.333 -26.833 -78 -46.5s-33.834 -43 -42.501 -70s-13 -55.833 -13 -86.5c0 -32.667 3 -67.334 9 -104.001h486v-289h-442c2.66699 -30 3.83398 -58.5 3.50098 -85.5
s-3.33301 -52 -9 -75s-14.5 -43.333 -26.5 -61s-28.333 -31.5 -49 -41.5h839v-289h-1188v226c22.667 25.333 40.667 51 54 77s23.166 52.667 29.499 80s9.83301 55 10.5 83s-0.333008 56.667 -3 86h-203v289z" />
    <glyph glyph-name="currency" unicode="&#xa4;" horiz-adv-x="1207" 
d="M939 1552l188 -188l-159 -159c27.333 -56 41 -115 41 -177s-13.667 -121 -41 -177l159 -159l-188 -188l-159 159c-56 -27.333 -115 -40.833 -177 -40.5s-121 13.833 -177 40.5l-158 -159l-188 188l158 158c-27.333 56.667 -41 116 -41 178s13.667 121.333 41 178
l-158 158l188 188l158 -159c56 27.333 115 41 177 41s121 -13.667 177 -41zM495 1137c-14.667 -15.333 -25.667 -32.333 -33 -51s-11 -37.834 -11 -57.501s3.66699 -39 11 -58s18.333 -35.833 33 -50.5s31.5 -25.667 50.5 -33s38.333 -11 58 -11s38.834 3.66699 57.501 11
s35.667 18.333 51 33c14.667 14.667 25.667 31.5 33 50.5s11 38.333 11 58s-3.66699 38.834 -11 57.501s-18.333 35.667 -33 51c-15.333 14.667 -32.333 25.667 -51 33s-37.834 11 -57.501 11s-39 -3.66699 -58 -11s-35.833 -18.333 -50.5 -33z" />
    <glyph glyph-name="yen" unicode="&#xa5;" horiz-adv-x="1625" 
d="M336 574h310l-596 860h382l380 -553l381 553h382l-596 -860h310v-199h-310v-65h310v-199h-310v-111h-333v111h-310v199h310v65h-310v199z" />
    <glyph glyph-name="brokenbar" unicode="&#xa6;" horiz-adv-x="573" 
d="M120 1434h333v-831h-333v831zM120 299h333v-831h-333v831z" />
    <glyph glyph-name="section" unicode="&#xa7;" horiz-adv-x="1396" 
d="M1316 427c0 -64.667 -10.333 -121.334 -31 -170.001s-49.667 -90.667 -87 -126c30.667 -32.667 53.167 -69 67.5 -109s21.5 -85 21.5 -135c0 -69.333 -14.5 -130.166 -43.5 -182.499s-69.333 -96 -121 -131s-113.167 -61.333 -184.5 -79s-149 -26.5 -233 -26.5
c-70 0 -131.667 5.66699 -185 17s-100.166 26.333 -140.499 45s-74.5 39.834 -102.5 63.501s-51.333 48.167 -70 73.5c-44 58.667 -70.667 125.334 -80 200.001h343c5.33301 -20.667 17.333 -39 36 -55c15.333 -14 38.666 -26.667 69.999 -38s74.333 -17 129 -17
c49.333 0 90 3.16699 122 9.5s57.5 15.166 76.5 26.499s32.167 25 39.5 41s11 33.667 11 53c0 16 -3.66699 30.833 -11 44.5s-20.666 26.5 -39.999 38.5s-45.666 23 -78.999 33s-76 19.333 -128 28c-98 16 -185.167 35.167 -261.5 57.5s-140.666 51.333 -192.999 87
s-92.333 79.334 -120 131.001s-41.5 114.5 -41.5 188.5c0 64.667 10.333 121.167 31 169.5s49.667 90.166 87 125.499c-30.667 32.667 -53.167 69.167 -67.5 109.5s-21.5 85.5 -21.5 135.5c0 69.333 14.5 130.166 43.5 182.499s69.333 96 121 131s113.167 61.333 184.5 79
s149 26.5 233 26.5c69.333 0 130.833 -5.66699 184.5 -17s100.5 -26.5 140.5 -45.5s74.167 -40.5 102.5 -64.5s51.833 -48.333 70.5 -73c44 -58.667 70.667 -125 80 -199h-343c-6 20 -18 38.333 -36 55c-16 13.333 -39.5 25.833 -70.5 37.5s-73.833 17.5 -128.5 17.5
c-49.333 0 -90 -3.16699 -122 -9.5s-57.5 -15.166 -76.5 -26.499s-32.167 -25 -39.5 -41s-11 -33.667 -11 -53c0 -16 3.66699 -30.833 11 -44.5s20.666 -26.5 39.999 -38.5s45.666 -23 78.999 -33s76 -19.333 128 -28c98 -16 185.167 -35.167 261.5 -57.5
s140.666 -51.333 192.999 -87s92.333 -79.334 120 -131.001s41.5 -114.5 41.5 -188.5zM682 594c-57.333 8.66699 -111.001 19.667 -161.001 33c-38 -13.333 -65.5 -31.333 -82.5 -54s-25.5 -48.667 -25.5 -78c0 -20 4.5 -38.167 13.5 -54.5s24.833 -31.166 47.5 -44.499
s53.334 -25.5 92.001 -36.5s88 -21.5 148 -31.5l84 -16c26.667 -5.33301 52.334 -11.333 77.001 -18c38 14 65.5 32.333 82.5 55s25.5 48.667 25.5 78c0 20 -4.5 38.167 -13.5 54.5s-24.833 31.166 -47.5 44.499s-53.334 25.5 -92.001 36.5s-88 21.5 -148 31.5z" />
    <glyph glyph-name="dieresis" unicode="&#xa8;" horiz-adv-x="1021" 
d="M100 1334c0 24 4.5 46.333 13.5 67s21.333 38.834 37 54.501s33.834 28 54.501 37s43 13.5 67 13.5s46.333 -4.5 67 -13.5s38.834 -21.333 54.501 -37s28 -33.834 37 -54.501s13.5 -43 13.5 -67s-4.5 -46.333 -13.5 -67s-21.333 -38.834 -37 -54.501
s-33.834 -28 -54.501 -37s-43 -13.5 -67 -13.5s-46.333 4.5 -67 13.5s-38.834 21.333 -54.501 37s-28 33.834 -37 54.501s-13.5 43 -13.5 67zM577 1334c0 24 4.5 46.333 13.5 67s21.333 38.834 37 54.501s33.834 28 54.501 37s43 13.5 67 13.5s46.333 -4.5 67 -13.5
s38.834 -21.333 54.501 -37s28 -33.834 37 -54.501s13.5 -43 13.5 -67s-4.5 -46.333 -13.5 -67s-21.333 -38.834 -37 -54.501s-33.834 -28 -54.501 -37s-43 -13.5 -67 -13.5s-46.333 4.5 -67 13.5s-38.834 21.333 -54.501 37s-28 33.834 -37 54.501s-13.5 43 -13.5 67z" />
    <glyph glyph-name="copyright" unicode="&#xa9;" horiz-adv-x="1694" 
d="M100 717c0 68.667 8.83301 134.834 26.5 198.501s42.834 123.167 75.501 178.5s71.667 105.666 117 150.999s95.666 84.333 150.999 117s114.833 57.834 178.5 75.501s129.834 26.5 198.501 26.5s134.834 -8.83301 198.501 -26.5s123.167 -42.834 178.5 -75.501
s105.666 -71.667 150.999 -117s84.333 -95.666 117 -150.999s57.834 -114.833 75.501 -178.5s26.5 -129.834 26.5 -198.501s-8.83301 -134.834 -26.5 -198.501s-42.834 -123.167 -75.501 -178.5s-71.667 -105.666 -117 -150.999s-95.666 -84.333 -150.999 -117
s-114.833 -57.834 -178.5 -75.501s-129.834 -26.5 -198.501 -26.5s-134.834 8.83301 -198.501 26.5s-123.167 42.834 -178.5 75.501s-105.666 71.667 -150.999 117s-84.333 95.666 -117 150.999s-57.834 114.833 -75.501 178.5s-26.5 129.834 -26.5 198.501zM283 717
c0 -78 14.833 -151.167 44.5 -219.5s70 -128 121 -179s110.667 -91.333 179 -121s141.5 -44.5 219.5 -44.5s151.167 14.833 219.5 44.5s128 70 179 121s91.333 110.667 121 179s44.5 141.5 44.5 219.5s-14.833 151.167 -44.5 219.5s-70 128 -121 179
s-110.667 91.333 -179 121s-141.5 44.5 -219.5 44.5s-151.167 -14.833 -219.5 -44.5s-128 -70 -179 -121s-91.333 -110.667 -121 -179s-44.5 -141.5 -44.5 -219.5zM449 717c0 58.667 10.167 112.333 30.5 161s48.5 90.667 84.5 126s78.833 62.833 128.5 82.5
s103.5 29.5 161.5 29.5c36 0 68.667 -3.5 98 -10.5s55.833 -16.333 79.5 -28s44.667 -25 63 -40s34.5 -30.167 48.5 -45.5c32 -36.667 57 -78 75 -124h-223c-7.33301 11.333 -17 21.333 -29 30c-11.333 7.33301 -25.833 14.333 -43.5 21s-40.5 10 -68.5 10
s-53.833 -5 -77.5 -15s-44.334 -24.167 -62.001 -42.5s-31.5 -40.5 -41.5 -66.5s-15 -55.333 -15 -88s5 -62 15 -88s23.833 -48.167 41.5 -66.5s38.334 -32.5 62.001 -42.5s49.5 -15 77.5 -15s50.833 3.16699 68.5 9.5s32.167 13.166 43.5 20.499
c12 8.66699 21.667 19 29 31h223c-18 -46 -43 -87.333 -75 -124c-14 -15.333 -30.167 -30.5 -48.5 -45.5s-39.333 -28.333 -63 -40s-50.167 -21 -79.5 -28s-62 -10.5 -98 -10.5c-58 0 -111.833 9.83301 -161.5 29.5s-92.5 47.167 -128.5 82.5s-64.167 77.333 -84.5 126
s-30.5 102.334 -30.5 161.001z" />
    <glyph glyph-name="ordfeminine" unicode="&#xaa;" horiz-adv-x="820" 
d="M30 1074c0 50.667 8.66699 98.499 26 143.499s41.5 84.333 72.5 118s67.833 60.167 110.5 79.5s89.667 29 141 29c43.333 0 79.166 -6.66699 107.499 -20s51.166 -28 68.499 -44c20 -18.667 36 -40 48 -64v118h186v-720h-186v118c-12 -24 -28 -45.333 -48 -64
c-17.333 -16 -40.166 -30.667 -68.499 -44s-64.166 -20 -107.499 -20c-51.333 0 -98.333 9.66699 -141 29s-79.5 45.833 -110.5 79.5s-55.167 72.834 -72.5 117.501s-26 92.667 -26 144zM216 1074c0 -62 16.833 -111.833 50.5 -149.5s81.5 -56.5 143.5 -56.5
s109.833 18.833 143.5 56.5s50.5 87.5 50.5 149.5s-16.833 111.833 -50.5 149.5s-81.5 56.5 -143.5 56.5s-109.833 -18.833 -143.5 -56.5s-50.5 -87.5 -50.5 -149.5z" />
    <glyph glyph-name="guillemotleft" unicode="&#xab;" horiz-adv-x="1590" 
d="M466 699l339 -244v-390l-705 548v172l705 548v-390zM1131 699l339 -244v-390l-705 548v172l705 548v-390z" />
    <glyph glyph-name="logicalnot" unicode="&#xac;" horiz-adv-x="1272" 
d="M100 842h1072v-616h-333v327h-739v289z" />
    <glyph glyph-name="uni00AD" unicode="&#xad;" horiz-adv-x="1016" 
d="M100 800h816v-252h-816v252z" />
    <glyph glyph-name="registered" unicode="&#xae;" horiz-adv-x="1060" 
d="M369 792v424h214c20.667 0 39.667 -3.33301 57 -10s32.333 -16 45 -28s22.5 -26.833 29.5 -44.5s10.5 -37.5 10.5 -59.5c0 -16.667 -2.33301 -31.667 -7 -45s-11 -25 -19 -35s-17 -18.5 -27 -25.5s-20.333 -12.5 -31 -16.5l86 -160h-113l-78 145h-59v-145h-108zM477 1113
v-78h96c29.333 0 44 13 44 39s-14.667 39 -44 39h-96zM191 994c0 -46.667 8.83301 -90.667 26.5 -132s41.834 -77.333 72.501 -108s66.667 -54.834 108 -72.501s85.333 -26.5 132 -26.5s90.667 8.83301 132 26.5s77.333 41.834 108 72.501s54.834 66.667 72.501 108
s26.5 85.333 26.5 132s-8.83301 90.667 -26.5 132s-41.834 77.333 -72.501 108s-66.667 54.834 -108 72.501s-85.333 26.5 -132 26.5s-90.667 -8.83301 -132 -26.5s-77.333 -41.834 -108 -72.501s-54.834 -66.667 -72.501 -108s-26.5 -85.333 -26.5 -132zM60 994
c0 64.667 12.333 125.5 37 182.5s58.334 106.833 101.001 149.5s92.5 76.334 149.5 101.001s117.833 37 182.5 37s125.5 -12.333 182.5 -37s106.833 -58.334 149.5 -101.001s76.334 -92.5 101.001 -149.5s37 -117.833 37 -182.5s-12.333 -125.5 -37 -182.5
s-58.334 -106.833 -101.001 -149.5s-92.5 -76.334 -149.5 -101.001s-117.833 -37 -182.5 -37s-125.5 12.333 -182.5 37s-106.833 58.334 -149.5 101.001s-76.334 92.5 -101.001 149.5s-37 117.833 -37 182.5z" />
    <glyph glyph-name="macron" unicode="&#xaf;" horiz-adv-x="1034" 
d="M80 1434h874v-232h-874v232z" />
    <glyph glyph-name="degree" unicode="&#xb0;" horiz-adv-x="647" 
d="M30 1188c0 39.333 7.5 76.333 22.5 111s35.5 65 61.5 91s56.333 46.5 91 61.5s71.667 22.5 111 22.5s76.333 -7.5 111 -22.5s65 -35.5 91 -61.5s46.5 -56.333 61.5 -91s22.5 -71.667 22.5 -111s-7.5 -76.333 -22.5 -111s-35.5 -65 -61.5 -91s-56.333 -46.5 -91 -61.5
s-71.667 -22.5 -111 -22.5s-76.333 7.5 -111 22.5s-65 35.5 -91 61.5s-46.5 56.333 -61.5 91s-22.5 71.667 -22.5 111zM224 1188c0 -12.667 2.33301 -24.667 7 -36s11.167 -21.166 19.5 -29.499s18.166 -14.833 29.499 -19.5s23.333 -7 36 -7s24.667 2.33301 36 7
s21.166 11.167 29.499 19.5s14.833 18.166 19.5 29.499s7 23.333 7 36s-2.33301 24.667 -7 36s-11.167 21.166 -19.5 29.499s-18.166 14.833 -29.499 19.5s-23.333 7 -36 7s-24.667 -2.33301 -36 -7s-21.166 -11.167 -29.499 -19.5s-14.833 -18.166 -19.5 -29.499
s-7 -23.333 -7 -36z" />
    <glyph glyph-name="plusminus" unicode="&#xb1;" horiz-adv-x="1130" 
d="M1080 767h-366v-371h-298v371h-366v289h366v370h298v-370h366v-289zM1080 0h-1030v289h1030v-289z" />
    <glyph glyph-name="twosuperior" unicode="&#xb2;" horiz-adv-x="656" 
d="M30 1196c9.33301 46 26.668 87.333 52.001 124c10.667 15.333 23.667 30.5 39 45.5s33.166 28.333 53.499 40s43.833 21 70.5 28s57 10.5 91 10.5c43.333 0 82.5 -6.16699 117.5 -18.5s64.833 -29.333 89.5 -51s43.667 -47 57 -76s20 -60.5 20 -94.5
c0 -29.333 -4.66699 -55.5 -14 -78.5s-21.333 -43.833 -36 -62.5s-31 -35.667 -49 -51s-35.667 -29.666 -53 -42.999l-116 -91h274v-164h-583v130l279 220c33.333 26 60.333 49.5 81 70.5s31 44.167 31 69.5c0 26 -9.66699 45.167 -29 57.5s-42.333 18.5 -69 18.5
c-26 0 -46.5 -4.33301 -61.5 -13s-26.167 -18.334 -33.5 -29.001c-8.66699 -12 -14 -26 -16 -42h-195z" />
    <glyph glyph-name="threesuperior" unicode="&#xb3;" horiz-adv-x="687" 
d="M237 918c2.66699 -9.33301 8.66699 -17.666 18 -24.999c7.33301 -6.66699 18.666 -12.5 33.999 -17.5s36.333 -7.5 63 -7.5c79.333 0 119 23.667 119 71c0 16 -4.16699 28.167 -12.5 36.5s-21 14.333 -38 18s-39 5.66699 -66 6s-58.833 0.5 -95.5 0.5v154
c30.667 0 58.167 0.333008 82.5 1s44.833 3 61.5 7s29.334 10.167 38.001 18.5s13 20.166 13 35.499c0 19.333 -7.66699 34.833 -23 46.5s-41.666 17.5 -78.999 17.5c-24.667 0 -43.834 -3.16699 -57.501 -9.5s-24.167 -13.166 -31.5 -20.499
c-8 -8.66699 -13.333 -18.334 -16 -29.001h-207c10.667 41.333 29.334 78.333 56.001 111c11.333 14 24.666 27.667 39.999 41s33.5 25.333 54.5 36s44.833 19.167 71.5 25.5s56.667 9.5 90 9.5c41.333 0 79.5 -5.16699 114.5 -15.5s65.333 -25 91 -44
s45.834 -41.833 60.501 -68.5s22 -56.667 22 -90c0 -19.333 -3 -36.5 -9 -51.5s-14.167 -28.167 -24.5 -39.5s-22.166 -21.166 -35.499 -29.499s-27.333 -15.166 -42 -20.499c14.667 -2.66699 29.5 -7.16699 44.5 -13.5s28.667 -15.5 41 -27.5s22.5 -27.167 30.5 -45.5
s12 -40.833 12 -67.5c0 -39.333 -8.83301 -73.333 -26.5 -102s-40.834 -52.334 -69.501 -71.001s-61.167 -32.334 -97.5 -41.001s-73.5 -13 -111.5 -13s-71.5 3 -100.5 9s-54.667 14 -77 24s-41.333 21.5 -57 34.5s-28.834 26.167 -39.501 39.5
c-25.333 31.333 -41.333 67 -48 107h207z" />
    <glyph glyph-name="acute" unicode="&#xb4;" horiz-adv-x="744" 
d="M331 1434h333l-314 -310h-270z" />
    <glyph glyph-name="mu" unicode="&#xb5;" 
d="M654 -20c-27.333 0 -51.3291 3.83301 -71.9961 11.5s-38.667 17.167 -54 28.5s-28 23.666 -38 36.999s-18 26 -24 38s-10.333 22.333 -13 31s-4.33398 13.667 -5.00098 15v-673h-328v1562h328v-503c0 -45.333 3.33301 -86.166 10 -122.499s18 -67.166 34 -92.499
s37.167 -45 63.5 -59s59.166 -21 98.499 -21s72.166 7 98.499 21s47.5 33.667 63.5 59s27.333 56.166 34 92.499s10 77.166 10 122.499v503h328v-1030h-328v141c-0.666992 -1.33301 -2.33398 -6.33301 -5.00098 -15s-7 -19 -13 -31s-14 -24.667 -24 -38
s-22.667 -25.666 -38 -36.999s-33.333 -20.833 -54 -28.5s-44.667 -11.5 -72 -11.5z" />
    <glyph glyph-name="paragraph" unicode="&#xb6;" horiz-adv-x="1583" 
d="M1503 1145h-155v-1145h-333v1145h-71v-1145h-333v457h-49c-84 0 -157.5 13.5 -220.5 40.5s-115.333 63.167 -157 108.5s-72.834 97.5 -93.501 156.5s-31 120.167 -31 183.5c0 64 10.333 125.333 31 184s51.834 110.5 93.501 155.5s94 81 157 108s136.5 40.5 220.5 40.5
h941v-289zM562 1145c-30.667 0 -57.167 -5.5 -79.5 -16.5s-40.833 -25.833 -55.5 -44.5s-25.667 -39.834 -33 -63.501s-11 -48.5 -11 -74.5s3.66699 -51 11 -75s18.333 -45.167 33 -63.5s33.167 -33.166 55.5 -44.499s48.833 -17 79.5 -17h49v399h-49z" />
    <glyph glyph-name="periodcentered" unicode="&#xb7;" horiz-adv-x="546" 
d="M100 773c0 24 4.5 46.5 13.5 67.5s21.333 39.333 37 55s34 28 55 37s43.5 13.5 67.5 13.5s46.5 -4.5 67.5 -13.5s39.333 -21.333 55 -37s28 -34 37 -55s13.5 -43.5 13.5 -67.5s-4.5 -46.5 -13.5 -67.5s-21.333 -39.333 -37 -55s-34 -28 -55 -37s-43.5 -13.5 -67.5 -13.5
s-46.5 4.5 -67.5 13.5s-39.333 21.333 -55 37s-28 34 -37 55s-13.5 43.5 -13.5 67.5z" />
    <glyph glyph-name="cedilla" unicode="&#xb8;" horiz-adv-x="679" 
d="M133 -370c12 -5.33301 26.999 -10.333 44.999 -15s37.167 -8.33398 57.5 -11.001s40.666 -3.83398 60.999 -3.50098s39 3.33301 56 9s31.167 14.5 42.5 26.5s18 28 20 48c2.66699 23.333 -4.83301 40.166 -22.5 50.499s-40.334 16.5 -68.001 18.5s-57.667 1.33301 -90 -2
s-61.5 -7 -87.5 -11l107 333h189l-64 -198c30.667 -0.666992 59.834 -5.16699 87.501 -13.5s51.667 -20.666 72 -36.999s36 -36.666 47 -60.999s15.167 -53.166 12.5 -86.499c-3.33301 -43.333 -14.666 -79.5 -33.999 -108.5s-43.833 -52 -73.5 -69
s-62.667 -28.833 -99 -35.5s-73.166 -9.16699 -110.499 -7.5s-73.5 6.66699 -108.5 15s-65.833 18.833 -92.5 31.5z" />
    <glyph glyph-name="onesuperior" unicode="&#xb9;" horiz-adv-x="449" 
d="M30 1221l241 213h148v-720h-186v458l-83 -75z" />
    <glyph glyph-name="ordmasculine" unicode="&#xba;" horiz-adv-x="820" 
d="M30 1074c0 50.667 9.83301 98.5 29.5 143.5s46.5 84.333 80.5 118s74.167 60.167 120.5 79.5s96.166 29 149.499 29s103.166 -9.66699 149.499 -29s86.5 -45.833 120.5 -79.5s60.833 -73 80.5 -118s29.5 -92.833 29.5 -143.5c0 -51.333 -9.83301 -99.333 -29.5 -144
s-46.5 -83.834 -80.5 -117.501s-74.167 -60.167 -120.5 -79.5s-96.166 -29 -149.499 -29s-103.166 9.66699 -149.499 29s-86.5 45.833 -120.5 79.5s-60.833 72.834 -80.5 117.501s-29.5 92.667 -29.5 144zM216 1074c0 -33.333 5.16699 -62.833 15.5 -88.5
s24.5 -47.167 42.5 -64.5s38.667 -30.5 62 -39.5s48 -13.5 74 -13.5s50.667 4.5 74 13.5s44 22.167 62 39.5s32.167 38.833 42.5 64.5s15.5 55.167 15.5 88.5s-5.16699 62.833 -15.5 88.5s-24.5 47.167 -42.5 64.5s-38.667 30.5 -62 39.5s-48 13.5 -74 13.5
s-50.667 -4.5 -74 -13.5s-44 -22.167 -62 -39.5s-32.167 -38.833 -42.5 -64.5s-15.5 -55.167 -15.5 -88.5z" />
    <glyph glyph-name="guillemotright" unicode="&#xbb;" horiz-adv-x="1590" 
d="M785 943v390l705 -548v-172l-705 -548v390l339 244zM120 943v390l705 -548v-172l-705 -548v390l339 244z" />
    <glyph glyph-name="onequarter" unicode="&#xbc;" horiz-adv-x="1549" 
d="M1058 1434h212l-823 -1434h-212zM140 1221l241 213h148v-720h-186v458l-83 -75zM1103 0v154h-373v132l400 434h159v-402h120v-164h-120v-154h-186zM1103 318v154l-142 -154h142z" />
    <glyph glyph-name="onehalf" unicode="&#xbd;" horiz-adv-x="1607" 
d="M1058 1434h212l-823 -1434h-212zM140 1221l241 213h148v-720h-186v458l-83 -75zM871 482c9.33301 46 26.668 87.333 52.001 124c10.667 15.333 23.667 30.5 39 45.5s33.166 28.333 53.499 40s43.833 21 70.5 28s57 10.5 91 10.5c43.333 0 82.5 -6.16699 117.5 -18.5
s64.833 -29.333 89.5 -51s43.667 -47 57 -76s20 -60.5 20 -94.5c0 -29.333 -4.66699 -55.5 -14 -78.5s-21.333 -43.833 -36 -62.5s-31 -35.667 -49 -51s-35.667 -29.666 -53 -42.999l-116 -91h274v-164h-583v130l279 220c33.333 26 60.333 49.5 81 70.5s31 44.167 31 69.5
c0 26 -9.66699 45.167 -29 57.5s-42.333 18.5 -69 18.5c-26 0 -46.5 -4.33301 -61.5 -13s-26.167 -18.334 -33.5 -29.001c-8.66699 -12 -14 -26 -16 -42h-195z" />
    <glyph glyph-name="threequarters" unicode="&#xbe;" horiz-adv-x="1691" 
d="M1200 1434h212l-823 -1434h-212zM1245 0v154h-373v132l400 434h159v-402h120v-164h-120v-154h-186zM1245 318v154l-142 -154h142zM347 918c2.66699 -9.33301 8.66699 -17.666 18 -24.999c7.33301 -6.66699 18.666 -12.5 33.999 -17.5s36.333 -7.5 63 -7.5
c79.333 0 119 23.667 119 71c0 16 -4.16699 28.167 -12.5 36.5s-21 14.333 -38 18s-39 5.66699 -66 6s-58.833 0.5 -95.5 0.5v154c30.667 0 58.167 0.333008 82.5 1s44.833 3 61.5 7s29.334 10.167 38.001 18.5s13 20.166 13 35.499c0 19.333 -7.66699 34.833 -23 46.5
s-41.666 17.5 -78.999 17.5c-24.667 0 -43.834 -3.16699 -57.501 -9.5s-24.167 -13.166 -31.5 -20.499c-8 -8.66699 -13.333 -18.334 -16 -29.001h-207c10.667 41.333 29.334 78.333 56.001 111c11.333 14 24.666 27.667 39.999 41s33.5 25.333 54.5 36
s44.833 19.167 71.5 25.5s56.667 9.5 90 9.5c41.333 0 79.5 -5.16699 114.5 -15.5s65.333 -25 91 -44s45.834 -41.833 60.501 -68.5s22 -56.667 22 -90c0 -19.333 -3 -36.5 -9 -51.5s-14.167 -28.167 -24.5 -39.5s-22.166 -21.166 -35.499 -29.499
s-27.333 -15.166 -42 -20.499c14.667 -2.66699 29.5 -7.16699 44.5 -13.5s28.667 -15.5 41 -27.5s22.5 -27.167 30.5 -45.5s12 -40.833 12 -67.5c0 -39.333 -8.83301 -73.333 -26.5 -102s-40.834 -52.334 -69.501 -71.001s-61.167 -32.334 -97.5 -41.001
s-73.5 -13 -111.5 -13s-71.5 3 -100.5 9s-54.667 14 -77 24s-41.333 21.5 -57 34.5s-28.834 26.167 -39.501 39.5c-25.333 31.333 -41.333 67 -48 107h207z" />
    <glyph glyph-name="questiondown" unicode="&#xbf;" horiz-adv-x="845" 
d="M1065 -146c-26 -80 -65.999 -150.996 -119.999 -212.996c-23.333 -26.667 -50.833 -52.834 -82.5 -78.501s-68.334 -48.5 -110.001 -68.5s-88.834 -36 -141.501 -48s-111.334 -18 -176.001 -18c-96 0 -181.667 12 -257 36s-138.666 56.333 -189.999 97
s-90.5 88 -117.5 142s-40.5 111 -40.5 171c0 48.667 8.83301 94.667 26.5 138s45.334 82.166 83.001 116.499s85.5 63.166 143.5 86.499s127.333 39.333 208 48v217h333v-412c-86 -1.33301 -158.333 -6 -217 -14s-106 -20 -142 -36s-62 -35.833 -78 -59.5
s-24 -51.834 -24 -84.501c0 -47.333 22 -85.333 66 -114s112.667 -43 206 -43c57.333 0 104.5 7 141.5 21s66.167 29.667 87.5 47c25.333 20 44.333 43 57 69h344zM631.001 739.004c0 -24 -4.5 -46.5 -13.5 -67.5s-21.333 -39.333 -37 -55s-34 -28 -55 -37
s-43.5 -13.5 -67.5 -13.5s-46.5 4.5 -67.5 13.5s-39.333 21.333 -55 37s-28 34 -37 55s-13.5 43.5 -13.5 67.5s4.5 46.5 13.5 67.5s21.333 39.333 37 55s34 28 55 37s43.5 13.5 67.5 13.5s46.5 -4.5 67.5 -13.5s39.333 -21.333 55 -37s28 -34 37 -55s13.5 -43.5 13.5 -67.5z
" />
    <glyph glyph-name="Agrave" unicode="&#xc0;" horiz-adv-x="1684" 
d="M1153 268h-622l-119 -268h-362l651 1434h282l651 -1434h-362zM659 557h365l-182 410zM973 1568h-270l-314 310h333z" />
    <glyph glyph-name="Aacute" unicode="&#xc1;" horiz-adv-x="1684" 
d="M1153 268h-622l-119 -268h-362l651 1434h282l651 -1434h-362zM659 557h365l-182 410zM959 1878h333l-314 -310h-270z" />
    <glyph glyph-name="Acircumflex" unicode="&#xc2;" horiz-adv-x="1684" 
d="M1153 268h-622l-119 -268h-362l651 1434h282l651 -1434h-362zM659 557h365l-182 410zM1246 1566h-248l-156 109l-156 -109h-248l301 291h206z" />
    <glyph glyph-name="Atilde" unicode="&#xc3;" horiz-adv-x="1684" 
d="M1153 268h-622l-119 -268h-362l651 1434h282l651 -1434h-362zM659 557h365l-182 410zM814 1616c-19.333 16.667 -36.3359 28.5 -51.0029 35.5s-28.667 10.5 -42 10.5c-14.667 0 -26.167 -4.16699 -34.5 -12.5s-14.833 -17.166 -19.5 -26.499c-5.33301 -12 -9 -25 -11 -39
h-205c2.66699 51.333 13.667 97.666 33 138.999c8 17.333 18.5 34.5 31.5 51.5s28.833 32 47.5 45s40.5 23.5 65.5 31.5s54.167 12 87.5 12c30.667 0 58.667 -4.66699 84 -14s49 -22.666 71 -39.999c19.333 -16.667 36.333 -28.5 51 -35.5s28.667 -10.5 42 -10.5
c14 0 25.333 4 34 12s15.334 17 20.001 27c5.33301 11.333 9 24.333 11 39h205c-3.33301 -52 -14.666 -98.667 -33.999 -140c-8 -17.333 -18.5 -34.333 -31.5 -51s-28.667 -31.5 -47 -44.5s-40.166 -23.5 -65.499 -31.5s-54.333 -12 -87 -12
c-30.667 0 -58.667 4.66699 -84 14s-49 22.666 -71 39.999z" />
    <glyph glyph-name="Adieresis" unicode="&#xc4;" horiz-adv-x="1684" 
d="M1153 268h-622l-119 -268h-362l651 1434h282l651 -1434h-362zM659 557h365l-182 410zM432 1738c0 24 4.5 46.333 13.5 67s21.333 38.834 37 54.501s33.834 28 54.501 37s43 13.5 67 13.5s46.333 -4.5 67 -13.5s38.834 -21.333 54.501 -37s28 -33.834 37 -54.501
s13.5 -43 13.5 -67s-4.5 -46.333 -13.5 -67s-21.333 -38.834 -37 -54.501s-33.834 -28 -54.501 -37s-43 -13.5 -67 -13.5s-46.333 4.5 -67 13.5s-38.834 21.333 -54.501 37s-28 33.834 -37 54.501s-13.5 43 -13.5 67zM909 1738c0 24 4.5 46.333 13.5 67
s21.333 38.834 37 54.501s33.834 28 54.501 37s43 13.5 67 13.5s46.333 -4.5 67 -13.5s38.834 -21.333 54.501 -37s28 -33.834 37 -54.501s13.5 -43 13.5 -67s-4.5 -46.333 -13.5 -67s-21.333 -38.834 -37 -54.501s-33.834 -28 -54.501 -37s-43 -13.5 -67 -13.5
s-46.333 4.5 -67 13.5s-38.834 21.333 -54.501 37s-28 33.834 -37 54.501s-13.5 43 -13.5 67z" />
    <glyph glyph-name="Aring" unicode="&#xc5;" horiz-adv-x="1684" 
d="M1153 268h-622l-119 -268h-362l651 1434h282l651 -1434h-362zM659 557h365l-182 410zM596 1812c0 34 6.5 66 19.5 96s30.5 56 52.5 78s48 39.5 78 52.5s62 19.5 96 19.5s66 -6.5 96 -19.5s56 -30.5 78 -52.5s39.5 -48 52.5 -78s19.5 -62 19.5 -96s-6.5 -66 -19.5 -96
s-30.5 -56 -52.5 -78s-48 -39.5 -78 -52.5s-62 -19.5 -96 -19.5s-66 6.5 -96 19.5s-56 30.5 -78 52.5s-39.5 48 -52.5 78s-19.5 62 -19.5 96zM758 1812c0 -23.333 8.16699 -43.166 24.5 -59.499s36.166 -24.5 59.499 -24.5s43.166 8.16699 59.499 24.5
s24.5 36.166 24.5 59.499s-8.16699 43.166 -24.5 59.499s-36.166 24.5 -59.499 24.5s-43.166 -8.16699 -59.499 -24.5s-24.5 -36.166 -24.5 -59.499z" />
    <glyph glyph-name="AE" unicode="&#xc6;" horiz-adv-x="2443" 
d="M2224 876v-289h-741v-298h840v-289h-1173v268h-508l-190 -268h-402l1030 1434h1235v-289h-832v-269h741zM848 557h302v425z" />
    <glyph glyph-name="Ccedilla" unicode="&#xc7;" horiz-adv-x="1600" 
d="M630 -370c12 -5.33301 26.999 -10.332 44.999 -14.999s37.167 -8.33398 57.5 -11.001s40.666 -3.83398 60.999 -3.50098s39 3.33301 56 9s31.167 14.5 42.5 26.5s18 28 20 48c2.66699 23.333 -4.83301 40.166 -22.5 50.499s-40.334 16.5 -68.001 18.5
s-57.667 1.33301 -90 -2s-61.5 -7 -87.5 -11l80 249c-93.333 12.667 -178.166 40.167 -254.499 82.5s-142 95.5 -197 159.5s-97.5 137.333 -127.5 220s-45 171.334 -45 266.001c0 104 18.333 201 55 291s87.834 168 153.501 234s144 117.833 235 155.5
s191.167 56.5 300.5 56.5c69.333 0 132 -6.33301 188 -19s106.333 -29.5 151 -50.5s84 -44.833 118 -71.5s63.667 -54 89 -82c58.667 -66 102 -140.333 130 -223h-371c-16 29.333 -37.667 55.333 -65 78c-12 10 -25.667 19.667 -41 29s-33 17.666 -53 24.999
s-42.167 13.333 -66.5 18s-50.833 7 -79.5 7c-59.333 0 -114.166 -10.333 -164.499 -31s-93.666 -50.334 -129.999 -89.001s-64.833 -85.667 -85.5 -141s-31 -117.666 -31 -186.999s10.333 -131.666 31 -186.999s49.167 -102.333 85.5 -141s79.666 -68.334 129.999 -89.001
s105.166 -31 164.499 -31c58 0 106.667 8.16699 146 24.5s70.666 34.166 93.999 53.499c27.333 22.667 49 49 65 79h371c-26 -76.667 -65.333 -146.334 -118 -209.001c-22.667 -26.667 -49.334 -53.167 -80.001 -79.5s-66.167 -50.166 -106.5 -71.499
s-85.833 -39.5 -136.5 -54.5s-107 -24.5 -169 -28.5l-34 -108c30.667 -0.666992 59.834 -5.16699 87.501 -13.5s51.667 -20.666 72 -36.999s36 -36.666 47 -60.999s15.167 -53.166 12.5 -86.499c-3.33301 -43.333 -14.666 -79.5 -33.999 -108.5s-43.833 -52 -73.5 -69
s-62.667 -28.833 -99 -35.5s-73.166 -9.16699 -110.499 -7.5s-73.5 6.66699 -108.5 15s-65.833 18.833 -92.5 31.5z" />
    <glyph glyph-name="Egrave" unicode="&#xc8;" horiz-adv-x="1433" 
d="M1214 876v-289h-741v-298h840v-289h-1173v1434h1165v-289h-832v-269h741zM858 1568h-270l-314 310h333z" />
    <glyph glyph-name="Eacute" unicode="&#xc9;" horiz-adv-x="1433" 
d="M1214 876v-289h-741v-298h840v-289h-1173v1434h1165v-289h-832v-269h741zM817 1878h333l-314 -310h-270z" />
    <glyph glyph-name="Ecircumflex" unicode="&#xca;" horiz-adv-x="1433" 
d="M1214 876v-289h-741v-298h840v-289h-1173v1434h1165v-289h-832v-269h741zM1136 1566h-248l-156 109l-156 -109h-248l301 291h206z" />
    <glyph glyph-name="Edieresis" unicode="&#xcb;" horiz-adv-x="1433" 
d="M1214 876v-289h-741v-298h840v-289h-1173v1434h1165v-289h-832v-269h741zM309 1738c0 24 4.5 46.333 13.5 67s21.333 38.834 37 54.501s33.834 28 54.501 37s43 13.5 67 13.5s46.333 -4.5 67 -13.5s38.834 -21.333 54.501 -37s28 -33.834 37 -54.501s13.5 -43 13.5 -67
s-4.5 -46.333 -13.5 -67s-21.333 -38.834 -37 -54.501s-33.834 -28 -54.501 -37s-43 -13.5 -67 -13.5s-46.333 4.5 -67 13.5s-38.834 21.333 -54.501 37s-28 33.834 -37 54.501s-13.5 43 -13.5 67zM786 1738c0 24 4.5 46.333 13.5 67s21.333 38.834 37 54.501
s33.834 28 54.501 37s43 13.5 67 13.5s46.333 -4.5 67 -13.5s38.834 -21.333 54.501 -37s28 -33.834 37 -54.501s13.5 -43 13.5 -67s-4.5 -46.333 -13.5 -67s-21.333 -38.834 -37 -54.501s-33.834 -28 -54.501 -37s-43 -13.5 -67 -13.5s-46.333 4.5 -67 13.5
s-38.834 21.333 -54.501 37s-28 33.834 -37 54.501s-13.5 43 -13.5 67z" />
    <glyph glyph-name="Igrave" unicode="&#xcc;" horiz-adv-x="627" 
d="M467 0h-333v1434h333v-1434zM434 1568h-270l-314 310h333z" />
    <glyph glyph-name="Iacute" unicode="&#xcd;" horiz-adv-x="620" 
d="M493 0h-333v1434h333v-1434zM437 1878h333l-314 -310h-270z" />
    <glyph glyph-name="Icircumflex" unicode="&#xce;" horiz-adv-x="608" 
d="M471 0h-333v1434h333v-1434zM708 1566h-248l-156 109l-156 -109h-248l301 291h206z" />
    <glyph glyph-name="Idieresis" unicode="&#xcf;" horiz-adv-x="721" 
d="M527 0h-333v1434h333v-1434zM-50 1738c0 24 4.5 46.333 13.5 67s21.333 38.834 37 54.501s33.834 28 54.501 37s43 13.5 67 13.5s46.333 -4.5 67 -13.5s38.834 -21.333 54.501 -37s28 -33.834 37 -54.501s13.5 -43 13.5 -67s-4.5 -46.333 -13.5 -67
s-21.333 -38.834 -37 -54.501s-33.834 -28 -54.501 -37s-43 -13.5 -67 -13.5s-46.333 4.5 -67 13.5s-38.834 21.333 -54.501 37s-28 33.834 -37 54.501s-13.5 43 -13.5 67zM427 1738c0 24 4.5 46.333 13.5 67s21.333 38.834 37 54.501s33.834 28 54.501 37s43 13.5 67 13.5
s46.333 -4.5 67 -13.5s38.834 -21.333 54.501 -37s28 -33.834 37 -54.501s13.5 -43 13.5 -67s-4.5 -46.333 -13.5 -67s-21.333 -38.834 -37 -54.501s-33.834 -28 -54.501 -37s-43 -13.5 -67 -13.5s-46.333 4.5 -67 13.5s-38.834 21.333 -54.501 37s-28 33.834 -37 54.501
s-13.5 43 -13.5 67z" />
    <glyph glyph-name="Eth" unicode="&#xd0;" horiz-adv-x="1771" 
d="M321 0v573h-241v289h241v572h619c116 0 219.333 -18.333 310 -55s167.167 -87 229.5 -151s109.833 -139.667 142.5 -227s49 -182 49 -284s-16.333 -196.667 -49 -284s-80.167 -163 -142.5 -227s-138.833 -114.333 -229.5 -151s-194 -55 -310 -55h-619zM940 289
c64 0 120.833 10.333 170.5 31s91.334 49.667 125.001 87s59.167 82.333 76.5 135s26 111 26 175s-8.66699 122.333 -26 175s-42.833 97.667 -76.5 135s-75.334 66.333 -125.001 87s-106.5 31 -170.5 31h-286v-283h296v-289h-296v-284h286z" />
    <glyph glyph-name="Ntilde" unicode="&#xd1;" horiz-adv-x="1613" 
d="M140 1434h376l624 -946v946h333v-1434h-369l-631 952v-952h-333v1434zM778 1620c-19.333 16.667 -36.3359 28.5 -51.0029 35.5s-28.667 10.5 -42 10.5c-14.667 0 -26.167 -4.16699 -34.5 -12.5s-14.833 -17.166 -19.5 -26.499c-5.33301 -12 -9 -25 -11 -39h-205
c2.66699 51.333 13.667 97.666 33 138.999c8 17.333 18.5 34.5 31.5 51.5s28.833 32 47.5 45s40.5 23.5 65.5 31.5s54.167 12 87.5 12c30.667 0 58.667 -4.66699 84 -14s49 -22.666 71 -39.999c19.333 -16.667 36.333 -28.5 51 -35.5s28.667 -10.5 42 -10.5
c14 0 25.333 4 34 12s15.334 17 20.001 27c5.33301 11.333 9 24.333 11 39h205c-3.33301 -52 -14.666 -98.667 -33.999 -140c-8 -17.333 -18.5 -34.333 -31.5 -51s-28.667 -31.5 -47 -44.5s-40.166 -23.5 -65.499 -31.5s-54.333 -12 -87 -12
c-30.667 0 -58.667 4.66699 -84 14s-49 22.666 -71 39.999z" />
    <glyph glyph-name="Ograve" unicode="&#xd2;" horiz-adv-x="1728" 
d="M100 717c0 74.667 8.66699 144.667 26 210s42.166 125.333 74.499 180s71.5 103.5 117.5 146.5s97.333 79.333 154 109s118 52.334 184 68.001s135.333 23.5 208 23.5s142 -7.83301 208 -23.5s127.333 -38.334 184 -68.001s108 -66 154 -109s85.167 -91.833 117.5 -146.5
s57.166 -114.667 74.499 -180s26 -135.333 26 -210s-8.66699 -144.667 -26 -210s-42.166 -125.333 -74.499 -180s-71.5 -103.5 -117.5 -146.5s-97.333 -79.333 -154 -109s-118 -52.334 -184 -68.001s-135.333 -23.5 -208 -23.5s-142 7.83301 -208 23.5
s-127.333 38.334 -184 68.001s-108 66 -154 109s-85.167 91.833 -117.5 146.5s-57.166 114.667 -74.499 180s-26 135.333 -26 210zM433 717c0 -72 10.833 -135.833 32.5 -191.5s51.834 -102.5 90.501 -140.5s84.167 -66.833 136.5 -86.5s109.5 -29.5 171.5 -29.5
s119.167 9.83301 171.5 29.5s97.833 48.5 136.5 86.5s68.834 84.833 90.501 140.5s32.5 119.5 32.5 191.5s-10.833 135.833 -32.5 191.5s-51.834 102.5 -90.501 140.5s-84.167 66.833 -136.5 86.5s-109.5 29.5 -171.5 29.5s-119.167 -9.83301 -171.5 -29.5
s-97.833 -48.5 -136.5 -86.5s-68.834 -84.833 -90.501 -140.5s-32.5 -119.5 -32.5 -191.5zM997 1568h-270l-314 310h333z" />
    <glyph glyph-name="Oacute" unicode="&#xd3;" horiz-adv-x="1728" 
d="M100 717c0 74.667 8.66699 144.667 26 210s42.166 125.333 74.499 180s71.5 103.5 117.5 146.5s97.333 79.333 154 109s118 52.334 184 68.001s135.333 23.5 208 23.5s142 -7.83301 208 -23.5s127.333 -38.334 184 -68.001s108 -66 154 -109s85.167 -91.833 117.5 -146.5
s57.166 -114.667 74.499 -180s26 -135.333 26 -210s-8.66699 -144.667 -26 -210s-42.166 -125.333 -74.499 -180s-71.5 -103.5 -117.5 -146.5s-97.333 -79.333 -154 -109s-118 -52.334 -184 -68.001s-135.333 -23.5 -208 -23.5s-142 7.83301 -208 23.5
s-127.333 38.334 -184 68.001s-108 66 -154 109s-85.167 91.833 -117.5 146.5s-57.166 114.667 -74.499 180s-26 135.333 -26 210zM433 717c0 -72 10.833 -135.833 32.5 -191.5s51.834 -102.5 90.501 -140.5s84.167 -66.833 136.5 -86.5s109.5 -29.5 171.5 -29.5
s119.167 9.83301 171.5 29.5s97.833 48.5 136.5 86.5s68.834 84.833 90.501 140.5s32.5 119.5 32.5 191.5s-10.833 135.833 -32.5 191.5s-51.834 102.5 -90.501 140.5s-84.167 66.833 -136.5 86.5s-109.5 29.5 -171.5 29.5s-119.167 -9.83301 -171.5 -29.5
s-97.833 -48.5 -136.5 -86.5s-68.834 -84.833 -90.501 -140.5s-32.5 -119.5 -32.5 -191.5zM994 1878h333l-314 -310h-270z" />
    <glyph glyph-name="Ocircumflex" unicode="&#xd4;" horiz-adv-x="1728" 
d="M100 717c0 74.667 8.66699 144.667 26 210s42.166 125.333 74.499 180s71.5 103.5 117.5 146.5s97.333 79.333 154 109s118 52.334 184 68.001s135.333 23.5 208 23.5s142 -7.83301 208 -23.5s127.333 -38.334 184 -68.001s108 -66 154 -109s85.167 -91.833 117.5 -146.5
s57.166 -114.667 74.499 -180s26 -135.333 26 -210s-8.66699 -144.667 -26 -210s-42.166 -125.333 -74.499 -180s-71.5 -103.5 -117.5 -146.5s-97.333 -79.333 -154 -109s-118 -52.334 -184 -68.001s-135.333 -23.5 -208 -23.5s-142 7.83301 -208 23.5
s-127.333 38.334 -184 68.001s-108 66 -154 109s-85.167 91.833 -117.5 146.5s-57.166 114.667 -74.499 180s-26 135.333 -26 210zM433 717c0 -72 10.833 -135.833 32.5 -191.5s51.834 -102.5 90.501 -140.5s84.167 -66.833 136.5 -86.5s109.5 -29.5 171.5 -29.5
s119.167 9.83301 171.5 29.5s97.833 48.5 136.5 86.5s68.834 84.833 90.501 140.5s32.5 119.5 32.5 191.5s-10.833 135.833 -32.5 191.5s-51.834 102.5 -90.501 140.5s-84.167 66.833 -136.5 86.5s-109.5 29.5 -171.5 29.5s-119.167 -9.83301 -171.5 -29.5
s-97.833 -48.5 -136.5 -86.5s-68.834 -84.833 -90.501 -140.5s-32.5 -119.5 -32.5 -191.5zM1268 1566h-248l-156 109l-156 -109h-248l301 291h206z" />
    <glyph glyph-name="Otilde" unicode="&#xd5;" horiz-adv-x="1728" 
d="M100 717c0 74.667 8.66699 144.667 26 210s42.166 125.333 74.499 180s71.5 103.5 117.5 146.5s97.333 79.333 154 109s118 52.334 184 68.001s135.333 23.5 208 23.5s142 -7.83301 208 -23.5s127.333 -38.334 184 -68.001s108 -66 154 -109s85.167 -91.833 117.5 -146.5
s57.166 -114.667 74.499 -180s26 -135.333 26 -210s-8.66699 -144.667 -26 -210s-42.166 -125.333 -74.499 -180s-71.5 -103.5 -117.5 -146.5s-97.333 -79.333 -154 -109s-118 -52.334 -184 -68.001s-135.333 -23.5 -208 -23.5s-142 7.83301 -208 23.5
s-127.333 38.334 -184 68.001s-108 66 -154 109s-85.167 91.833 -117.5 146.5s-57.166 114.667 -74.499 180s-26 135.333 -26 210zM433 717c0 -72 10.833 -135.833 32.5 -191.5s51.834 -102.5 90.501 -140.5s84.167 -66.833 136.5 -86.5s109.5 -29.5 171.5 -29.5
s119.167 9.83301 171.5 29.5s97.833 48.5 136.5 86.5s68.834 84.833 90.501 140.5s32.5 119.5 32.5 191.5s-10.833 135.833 -32.5 191.5s-51.834 102.5 -90.501 140.5s-84.167 66.833 -136.5 86.5s-109.5 29.5 -171.5 29.5s-119.167 -9.83301 -171.5 -29.5
s-97.833 -48.5 -136.5 -86.5s-68.834 -84.833 -90.501 -140.5s-32.5 -119.5 -32.5 -191.5zM836 1620c-19.333 16.667 -36.3359 28.5 -51.0029 35.5s-28.667 10.5 -42 10.5c-14.667 0 -26.167 -4.16699 -34.5 -12.5s-14.833 -17.166 -19.5 -26.499
c-5.33301 -12 -9 -25 -11 -39h-205c2.66699 51.333 13.667 97.666 33 138.999c8 17.333 18.5 34.5 31.5 51.5s28.833 32 47.5 45s40.5 23.5 65.5 31.5s54.167 12 87.5 12c30.667 0 58.667 -4.66699 84 -14s49 -22.666 71 -39.999c19.333 -16.667 36.333 -28.5 51 -35.5
s28.667 -10.5 42 -10.5c14 0 25.333 4 34 12s15.334 17 20.001 27c5.33301 11.333 9 24.333 11 39h205c-3.33301 -52 -14.666 -98.667 -33.999 -140c-8 -17.333 -18.5 -34.333 -31.5 -51s-28.667 -31.5 -47 -44.5s-40.166 -23.5 -65.499 -31.5s-54.333 -12 -87 -12
c-30.667 0 -58.667 4.66699 -84 14s-49 22.666 -71 39.999z" />
    <glyph glyph-name="Odieresis" unicode="&#xd6;" horiz-adv-x="1728" 
d="M100 717c0 74.667 8.66699 144.667 26 210s42.166 125.333 74.499 180s71.5 103.5 117.5 146.5s97.333 79.333 154 109s118 52.334 184 68.001s135.333 23.5 208 23.5s142 -7.83301 208 -23.5s127.333 -38.334 184 -68.001s108 -66 154 -109s85.167 -91.833 117.5 -146.5
s57.166 -114.667 74.499 -180s26 -135.333 26 -210s-8.66699 -144.667 -26 -210s-42.166 -125.333 -74.499 -180s-71.5 -103.5 -117.5 -146.5s-97.333 -79.333 -154 -109s-118 -52.334 -184 -68.001s-135.333 -23.5 -208 -23.5s-142 7.83301 -208 23.5
s-127.333 38.334 -184 68.001s-108 66 -154 109s-85.167 91.833 -117.5 146.5s-57.166 114.667 -74.499 180s-26 135.333 -26 210zM433 717c0 -72 10.833 -135.833 32.5 -191.5s51.834 -102.5 90.501 -140.5s84.167 -66.833 136.5 -86.5s109.5 -29.5 171.5 -29.5
s119.167 9.83301 171.5 29.5s97.833 48.5 136.5 86.5s68.834 84.833 90.501 140.5s32.5 119.5 32.5 191.5s-10.833 135.833 -32.5 191.5s-51.834 102.5 -90.501 140.5s-84.167 66.833 -136.5 86.5s-109.5 29.5 -171.5 29.5s-119.167 -9.83301 -171.5 -29.5
s-97.833 -48.5 -136.5 -86.5s-68.834 -84.833 -90.501 -140.5s-32.5 -119.5 -32.5 -191.5zM454 1738c0 24 4.5 46.333 13.5 67s21.333 38.834 37 54.501s33.834 28 54.501 37s43 13.5 67 13.5s46.333 -4.5 67 -13.5s38.834 -21.333 54.501 -37s28 -33.834 37 -54.501
s13.5 -43 13.5 -67s-4.5 -46.333 -13.5 -67s-21.333 -38.834 -37 -54.501s-33.834 -28 -54.501 -37s-43 -13.5 -67 -13.5s-46.333 4.5 -67 13.5s-38.834 21.333 -54.501 37s-28 33.834 -37 54.501s-13.5 43 -13.5 67zM931 1738c0 24 4.5 46.333 13.5 67
s21.333 38.834 37 54.501s33.834 28 54.501 37s43 13.5 67 13.5s46.333 -4.5 67 -13.5s38.834 -21.333 54.501 -37s28 -33.834 37 -54.501s13.5 -43 13.5 -67s-4.5 -46.333 -13.5 -67s-21.333 -38.834 -37 -54.501s-33.834 -28 -54.501 -37s-43 -13.5 -67 -13.5
s-46.333 4.5 -67 13.5s-38.834 21.333 -54.501 37s-28 33.834 -37 54.501s-13.5 43 -13.5 67z" />
    <glyph glyph-name="multiply" unicode="&#xd7;" horiz-adv-x="1188" 
d="M885 148l-291 290l-291 -290l-203 203l290 290l-290 291l203 204l291 -291l291 291l203 -204l-291 -291l291 -290z" />
    <glyph glyph-name="Oslash" unicode="&#xd8;" horiz-adv-x="1728" 
d="M100 717c0 74.667 8.66699 144.667 26 210s42.166 125.333 74.499 180s71.5 103.5 117.5 146.5s97.333 79.333 154 109s118 52.334 184 68.001s135.333 23.5 208 23.5c70 0 136.5 -7.16699 199.5 -21.5s122.167 -35.5 177.5 -63.5l52 65h284l-154 -194
c64.667 -64 115 -140 151 -228s54 -186.333 54 -295c0 -74.667 -8.66699 -144.667 -26 -210s-42.166 -125.333 -74.499 -180s-71.5 -103.5 -117.5 -146.5s-97.333 -79.333 -154 -109s-118 -52.334 -184 -68.001s-135.333 -23.5 -208 -23.5
c-70.667 0 -137.5 7.16699 -200.5 21.5s-122.167 35.166 -177.5 62.499l-51 -64h-284l154 193c-64.667 64.667 -115 140.834 -151 228.501s-54 186.167 -54 295.5zM433 717c0 -54.667 6.33398 -104.5 19.001 -149.5s30.667 -85.5 54 -121.5l544 683
c-55.333 24 -117.333 36 -186 36c-62 0 -119.167 -9.83301 -171.5 -29.5s-97.833 -48.5 -136.5 -86.5s-68.834 -84.833 -90.501 -140.5s-32.5 -119.5 -32.5 -191.5zM1295 717c0 54.667 -6.33398 104.5 -19.001 149.5s-30.667 85.5 -54 121.5l-544 -684
c56 -23.333 118 -35 186 -35c62 0 119.167 9.83301 171.5 29.5s97.833 48.5 136.5 86.5s68.834 84.833 90.501 140.5s32.5 119.5 32.5 191.5z" />
    <glyph glyph-name="Ugrave" unicode="&#xd9;" horiz-adv-x="1590" 
d="M795 -20c-105.333 0 -198.666 14.333 -279.999 43s-149.833 70.5 -205.5 125.5s-97.834 122.833 -126.501 203.5s-43 173.334 -43 278.001v804h333v-770c0 -55.333 5.33301 -107.166 16 -155.499s28.5 -90.166 53.5 -125.499s58.167 -63.166 99.5 -83.499
s92.333 -30.5 153 -30.5s111.667 10.167 153 30.5s74.5 48.166 99.5 83.499s42.833 77.166 53.5 125.499s16 100.166 16 155.499v770h333v-804c0 -104.667 -14.333 -197.334 -43 -278.001s-70.834 -148.5 -126.501 -203.5s-124.167 -96.833 -205.5 -125.5
s-174.666 -43 -279.999 -43zM918 1568h-270l-314 310h333z" />
    <glyph glyph-name="Uacute" unicode="&#xda;" horiz-adv-x="1590" 
d="M795 -20c-105.333 0 -198.666 14.333 -279.999 43s-149.833 70.5 -205.5 125.5s-97.834 122.833 -126.501 203.5s-43 173.334 -43 278.001v804h333v-770c0 -55.333 5.33301 -107.166 16 -155.499s28.5 -90.166 53.5 -125.499s58.167 -63.166 99.5 -83.499
s92.333 -30.5 153 -30.5s111.667 10.167 153 30.5s74.5 48.166 99.5 83.499s42.833 77.166 53.5 125.499s16 100.166 16 155.499v770h333v-804c0 -104.667 -14.333 -197.334 -43 -278.001s-70.834 -148.5 -126.501 -203.5s-124.167 -96.833 -205.5 -125.5
s-174.666 -43 -279.999 -43zM893 1878h333l-314 -310h-270z" />
    <glyph glyph-name="Ucircumflex" unicode="&#xdb;" horiz-adv-x="1590" 
d="M795 -20c-105.333 0 -198.666 14.333 -279.999 43s-149.833 70.5 -205.5 125.5s-97.834 122.833 -126.501 203.5s-43 173.334 -43 278.001v804h333v-770c0 -55.333 5.33301 -107.166 16 -155.499s28.5 -90.166 53.5 -125.499s58.167 -63.166 99.5 -83.499
s92.333 -30.5 153 -30.5s111.667 10.167 153 30.5s74.5 48.166 99.5 83.499s42.833 77.166 53.5 125.499s16 100.166 16 155.499v770h333v-804c0 -104.667 -14.333 -197.334 -43 -278.001s-70.834 -148.5 -126.501 -203.5s-124.167 -96.833 -205.5 -125.5
s-174.666 -43 -279.999 -43zM1199 1566h-248l-156 109l-156 -109h-248l301 291h206z" />
    <glyph glyph-name="Udieresis" unicode="&#xdc;" horiz-adv-x="1590" 
d="M795 -20c-105.333 0 -198.666 14.333 -279.999 43s-149.833 70.5 -205.5 125.5s-97.834 122.833 -126.501 203.5s-43 173.334 -43 278.001v804h333v-770c0 -55.333 5.33301 -107.166 16 -155.499s28.5 -90.166 53.5 -125.499s58.167 -63.166 99.5 -83.499
s92.333 -30.5 153 -30.5s111.667 10.167 153 30.5s74.5 48.166 99.5 83.499s42.833 77.166 53.5 125.499s16 100.166 16 155.499v770h333v-804c0 -104.667 -14.333 -197.334 -43 -278.001s-70.834 -148.5 -126.501 -203.5s-124.167 -96.833 -205.5 -125.5
s-174.666 -43 -279.999 -43zM385 1738c0 24 4.5 46.333 13.5 67s21.333 38.834 37 54.501s33.834 28 54.501 37s43 13.5 67 13.5s46.333 -4.5 67 -13.5s38.834 -21.333 54.501 -37s28 -33.834 37 -54.501s13.5 -43 13.5 -67s-4.5 -46.333 -13.5 -67
s-21.333 -38.834 -37 -54.501s-33.834 -28 -54.501 -37s-43 -13.5 -67 -13.5s-46.333 4.5 -67 13.5s-38.834 21.333 -54.501 37s-28 33.834 -37 54.501s-13.5 43 -13.5 67zM862 1738c0 24 4.5 46.333 13.5 67s21.333 38.834 37 54.501s33.834 28 54.501 37s43 13.5 67 13.5
s46.333 -4.5 67 -13.5s38.834 -21.333 54.501 -37s28 -33.834 37 -54.501s13.5 -43 13.5 -67s-4.5 -46.333 -13.5 -67s-21.333 -38.834 -37 -54.501s-33.834 -28 -54.501 -37s-43 -13.5 -67 -13.5s-46.333 4.5 -67 13.5s-38.834 21.333 -54.501 37s-28 33.834 -37 54.501
s-13.5 43 -13.5 67z" />
    <glyph glyph-name="Yacute" unicode="&#xdd;" horiz-adv-x="1585" 
d="M792 891l361 543h382l-576 -860v-574h-333v574l-576 860h382zM899 1878h333l-314 -310h-270z" />
    <glyph glyph-name="Thorn" unicode="&#xde;" horiz-adv-x="1405" 
d="M140 1434h333v-286h392c74.667 0 140.5 -10.167 197.5 -30.5s105 -49.333 144 -87s68.5 -83 88.5 -136s30 -112.167 30 -177.5s-10 -124.5 -30 -177.5s-49.5 -98.167 -88.5 -135.5s-87 -66.333 -144 -87s-122.833 -31 -197.5 -31h-392v-286h-333v1434zM473 859v-284h392
c39.333 0 70.333 12.667 93 38s34 60 34 104c0 44.667 -11.333 79.5 -34 104.5s-53.667 37.5 -93 37.5h-392z" />
    <glyph glyph-name="germandbls" unicode="&#xdf;" horiz-adv-x="1551" 
d="M556 343c26 -14 54.9971 -26.335 86.9971 -37.002c27.333 -9.33301 59.5 -17.833 96.5 -25.5s77.833 -11.5 122.5 -11.5c48 0 88.333 3.33301 121 10s59 16.834 79 30.501s34.333 31 43 52s13 46.167 13 75.5c0 50.667 -22.833 88 -68.5 112s-113.5 36 -203.5 36h-242
v289h240c42 0 77.333 3.5 106 10.5s51.834 16.833 69.501 29.5s30.334 28 38.001 46s11.5 38 11.5 60c0 20.667 -4.5 39.834 -13.5 57.501s-24.667 33 -47 46s-52.166 23.167 -89.499 30.5s-84.333 11 -141 11c-40.667 0 -79.5 -3.83301 -116.5 -11.5
s-69.5 -21.5 -97.5 -41.5s-50.167 -47.833 -66.5 -83.5s-24.5 -81.5 -24.5 -137.5v-891h-333v891c0 84.667 11.167 157.334 33.5 218.001s51.5 111.834 87.5 153.501s77 75.167 123 100.5s92.667 44.666 140 57.999s93.166 22.166 137.499 26.499s83.166 6.5 116.499 6.5
c97.333 0 184.5 -10.667 261.5 -32s142.333 -50.5 196 -87.5s94.834 -80.5 123.501 -130.5s43 -103.333 43 -160c0 -44 -7 -82.833 -21 -116.5s-31.833 -62.5 -53.5 -86.5s-45.667 -44 -72 -60s-52.166 -28.333 -77.499 -37c46.667 -12.667 87.167 -30.334 121.5 -53.001
s62.666 -49 84.999 -79s39 -63 50 -99s16.5 -73.333 16.5 -112c0 -73.333 -14.667 -136.5 -44 -189.5s-70.166 -96.667 -122.499 -131s-114.5 -59.666 -186.5 -75.999s-150.667 -24.5 -236 -24.5c-52.667 0 -98 4 -136 12s-69.667 17 -95 27
c-29.333 11.333 -54.333 24.333 -75 39v285z" />
    <glyph glyph-name="agrave" unicode="&#xe0;" horiz-adv-x="1350" 
d="M1230 1030v-1030h-328v148c-17.333 -31.333 -40.333 -59.333 -69 -84c-12 -10.667 -26 -21 -42 -31s-33.833 -19 -53.5 -27s-41.334 -14.333 -65.001 -19s-49.5 -7 -77.5 -7c-78.667 0 -149.834 14 -213.501 42s-117.834 66.333 -162.501 115s-79 105.334 -103 170.001
s-36 134 -36 208s12 143.333 36 208s58.333 121.334 103 170.001s98.834 87 162.501 115s134.834 42 213.501 42c28 0 53.833 -2.33301 77.5 -7s45.334 -11 65.001 -19s37.5 -17 53.5 -27s30 -20.333 42 -31c28.667 -24.667 51.667 -52.667 69 -84v148h328zM655 231.998
c38.667 0 73.334 7.5 104.001 22.5s56.667 35.167 78 60.5s37.5 55.166 48.5 89.499s16.5 71.166 16.5 110.499c0 38.667 -5.5 75.334 -16.5 110.001s-27.167 64.667 -48.5 90s-47.333 45.5 -78 60.5s-65.334 22.5 -104.001 22.5c-39.333 0 -74.166 -7.5 -104.499 -22.5
s-56.166 -35.167 -77.499 -60.5s-37.5 -55.333 -48.5 -90s-16.5 -71.334 -16.5 -110.001c0 -39.333 5.5 -76.166 16.5 -110.499s27.167 -64.166 48.5 -89.499s47.166 -45.5 77.499 -60.5s65.166 -22.5 104.499 -22.5zM787 1124h-270l-314 310h333z" />
    <glyph glyph-name="aacute" unicode="&#xe1;" horiz-adv-x="1350" 
d="M1230 1030v-1030h-328v148c-17.333 -31.333 -40.333 -59.333 -69 -84c-12 -10.667 -26 -21 -42 -31s-33.833 -19 -53.5 -27s-41.334 -14.333 -65.001 -19s-49.5 -7 -77.5 -7c-78.667 0 -149.834 14 -213.501 42s-117.834 66.333 -162.501 115s-79 105.334 -103 170.001
s-36 134 -36 208s12 143.333 36 208s58.333 121.334 103 170.001s98.834 87 162.501 115s134.834 42 213.501 42c28 0 53.833 -2.33301 77.5 -7s45.334 -11 65.001 -19s37.5 -17 53.5 -27s30 -20.333 42 -31c28.667 -24.667 51.667 -52.667 69 -84v148h328zM655 231.998
c38.667 0 73.334 7.5 104.001 22.5s56.667 35.167 78 60.5s37.5 55.166 48.5 89.499s16.5 71.166 16.5 110.499c0 38.667 -5.5 75.334 -16.5 110.001s-27.167 64.667 -48.5 90s-47.333 45.5 -78 60.5s-65.334 22.5 -104.001 22.5c-39.333 0 -74.166 -7.5 -104.499 -22.5
s-56.166 -35.167 -77.499 -60.5s-37.5 -55.333 -48.5 -90s-16.5 -71.334 -16.5 -110.001c0 -39.333 5.5 -76.166 16.5 -110.499s27.167 -64.166 48.5 -89.499s47.166 -45.5 77.499 -60.5s65.166 -22.5 104.499 -22.5zM768 1434h333l-314 -310h-270z" />
    <glyph glyph-name="acircumflex" unicode="&#xe2;" horiz-adv-x="1350" 
d="M1230 1030v-1030h-328v148c-17.333 -31.333 -40.333 -59.333 -69 -84c-12 -10.667 -26 -21 -42 -31s-33.833 -19 -53.5 -27s-41.334 -14.333 -65.001 -19s-49.5 -7 -77.5 -7c-78.667 0 -149.834 14 -213.501 42s-117.834 66.333 -162.501 115s-79 105.334 -103 170.001
s-36 134 -36 208s12 143.333 36 208s58.333 121.334 103 170.001s98.834 87 162.501 115s134.834 42 213.501 42c28 0 53.833 -2.33301 77.5 -7s45.334 -11 65.001 -19s37.5 -17 53.5 -27s30 -20.333 42 -31c28.667 -24.667 51.667 -52.667 69 -84v148h328zM655 231.998
c38.667 0 73.334 7.5 104.001 22.5s56.667 35.167 78 60.5s37.5 55.166 48.5 89.499s16.5 71.166 16.5 110.499c0 38.667 -5.5 75.334 -16.5 110.001s-27.167 64.667 -48.5 90s-47.333 45.5 -78 60.5s-65.334 22.5 -104.001 22.5c-39.333 0 -74.166 -7.5 -104.499 -22.5
s-56.166 -35.167 -77.499 -60.5s-37.5 -55.333 -48.5 -90s-16.5 -71.334 -16.5 -110.001c0 -39.333 5.5 -76.166 16.5 -110.499s27.167 -64.166 48.5 -89.499s47.166 -45.5 77.499 -60.5s65.166 -22.5 104.499 -22.5zM1096 1143h-248l-156 109l-156 -109h-248l301 291h206z
" />
    <glyph glyph-name="atilde" unicode="&#xe3;" horiz-adv-x="1350" 
d="M1230 1030v-1030h-328v148c-17.333 -31.333 -40.333 -59.333 -69 -84c-12 -10.667 -26 -21 -42 -31s-33.833 -19 -53.5 -27s-41.334 -14.333 -65.001 -19s-49.5 -7 -77.5 -7c-78.667 0 -149.834 14 -213.501 42s-117.834 66.333 -162.501 115s-79 105.334 -103 170.001
s-36 134 -36 208s12 143.333 36 208s58.333 121.334 103 170.001s98.834 87 162.501 115s134.834 42 213.501 42c28 0 53.833 -2.33301 77.5 -7s45.334 -11 65.001 -19s37.5 -17 53.5 -27s30 -20.333 42 -31c28.667 -24.667 51.667 -52.667 69 -84v148h328zM655 231.998
c38.667 0 73.334 7.5 104.001 22.5s56.667 35.167 78 60.5s37.5 55.166 48.5 89.499s16.5 71.166 16.5 110.499c0 38.667 -5.5 75.334 -16.5 110.001s-27.167 64.667 -48.5 90s-47.333 45.5 -78 60.5s-65.334 22.5 -104.001 22.5c-39.333 0 -74.166 -7.5 -104.499 -22.5
s-56.166 -35.167 -77.499 -60.5s-37.5 -55.333 -48.5 -90s-16.5 -71.334 -16.5 -110.001c0 -39.333 5.5 -76.166 16.5 -110.499s27.167 -64.166 48.5 -89.499s47.166 -45.5 77.499 -60.5s65.166 -22.5 104.499 -22.5zM673 1207c-19.333 16.667 -36.3359 28.5 -51.0029 35.5
s-28.667 10.5 -42 10.5c-14.667 0 -26.167 -4.16699 -34.5 -12.5s-14.833 -17.166 -19.5 -26.499c-5.33301 -12 -9 -25 -11 -39h-205c2.66699 51.333 13.667 97.666 33 138.999c8 17.333 18.5 34.5 31.5 51.5s28.833 32 47.5 45s40.5 23.5 65.5 31.5s54.167 12 87.5 12
c30.667 0 58.667 -4.66699 84 -14s49 -22.666 71 -39.999c19.333 -16.667 36.333 -28.5 51 -35.5s28.667 -10.5 42 -10.5c14 0 25.333 4 34 12s15.334 17 20.001 27c5.33301 11.333 9 24.333 11 39h205c-3.33301 -52 -14.666 -98.667 -33.999 -140
c-8 -17.333 -18.5 -34.333 -31.5 -51s-28.667 -31.5 -47 -44.5s-40.166 -23.5 -65.499 -31.5s-54.333 -12 -87 -12c-30.667 0 -58.667 4.66699 -84 14s-49 22.666 -71 39.999z" />
    <glyph glyph-name="adieresis" unicode="&#xe4;" horiz-adv-x="1350" 
d="M1230 1030v-1030h-328v148c-17.333 -31.333 -40.333 -59.333 -69 -84c-12 -10.667 -26 -21 -42 -31s-33.833 -19 -53.5 -27s-41.334 -14.333 -65.001 -19s-49.5 -7 -77.5 -7c-78.667 0 -149.834 14 -213.501 42s-117.834 66.333 -162.501 115s-79 105.334 -103 170.001
s-36 134 -36 208s12 143.333 36 208s58.333 121.334 103 170.001s98.834 87 162.501 115s134.834 42 213.501 42c28 0 53.833 -2.33301 77.5 -7s45.334 -11 65.001 -19s37.5 -17 53.5 -27s30 -20.333 42 -31c28.667 -24.667 51.667 -52.667 69 -84v148h328zM655 231.998
c38.667 0 73.334 7.5 104.001 22.5s56.667 35.167 78 60.5s37.5 55.166 48.5 89.499s16.5 71.166 16.5 110.499c0 38.667 -5.5 75.334 -16.5 110.001s-27.167 64.667 -48.5 90s-47.333 45.5 -78 60.5s-65.334 22.5 -104.001 22.5c-39.333 0 -74.166 -7.5 -104.499 -22.5
s-56.166 -35.167 -77.499 -60.5s-37.5 -55.333 -48.5 -90s-16.5 -71.334 -16.5 -110.001c0 -39.333 5.5 -76.166 16.5 -110.499s27.167 -64.166 48.5 -89.499s47.166 -45.5 77.499 -60.5s65.166 -22.5 104.499 -22.5zM294 1334c0 24 4.5 46.333 13.5 67
s21.333 38.834 37 54.501s33.834 28 54.501 37s43 13.5 67 13.5s46.333 -4.5 67 -13.5s38.834 -21.333 54.501 -37s28 -33.834 37 -54.501s13.5 -43 13.5 -67s-4.5 -46.333 -13.5 -67s-21.333 -38.834 -37 -54.501s-33.834 -28 -54.501 -37s-43 -13.5 -67 -13.5
s-46.333 4.5 -67 13.5s-38.834 21.333 -54.501 37s-28 33.834 -37 54.501s-13.5 43 -13.5 67zM771 1334c0 24 4.5 46.333 13.5 67s21.333 38.834 37 54.501s33.834 28 54.501 37s43 13.5 67 13.5s46.333 -4.5 67 -13.5s38.834 -21.333 54.501 -37s28 -33.834 37 -54.501
s13.5 -43 13.5 -67s-4.5 -46.333 -13.5 -67s-21.333 -38.834 -37 -54.501s-33.834 -28 -54.501 -37s-43 -13.5 -67 -13.5s-46.333 4.5 -67 13.5s-38.834 21.333 -54.501 37s-28 33.834 -37 54.501s-13.5 43 -13.5 67z" />
    <glyph glyph-name="aring" unicode="&#xe5;" horiz-adv-x="1350" 
d="M1230 1030v-1030h-328v148c-17.333 -31.333 -40.333 -59.333 -69 -84c-12 -10.667 -26 -21 -42 -31s-33.833 -19 -53.5 -27s-41.334 -14.333 -65.001 -19s-49.5 -7 -77.5 -7c-78.667 0 -149.834 14 -213.501 42s-117.834 66.333 -162.501 115s-79 105.334 -103 170.001
s-36 134 -36 208s12 143.333 36 208s58.333 121.334 103 170.001s98.834 87 162.501 115s134.834 42 213.501 42c28 0 53.833 -2.33301 77.5 -7s45.334 -11 65.001 -19s37.5 -17 53.5 -27s30 -20.333 42 -31c28.667 -24.667 51.667 -52.667 69 -84v148h328zM655 231.998
c38.667 0 73.334 7.5 104.001 22.5s56.667 35.167 78 60.5s37.5 55.166 48.5 89.499s16.5 71.166 16.5 110.499c0 38.667 -5.5 75.334 -16.5 110.001s-27.167 64.667 -48.5 90s-47.333 45.5 -78 60.5s-65.334 22.5 -104.001 22.5c-39.333 0 -74.166 -7.5 -104.499 -22.5
s-56.166 -35.167 -77.499 -60.5s-37.5 -55.333 -48.5 -90s-16.5 -71.334 -16.5 -110.001c0 -39.333 5.5 -76.166 16.5 -110.499s27.167 -64.166 48.5 -89.499s47.166 -45.5 77.499 -60.5s65.166 -22.5 104.499 -22.5zM438 1370c0 34 6.5 66 19.5 96s30.5 56 52.5 78
s48 39.5 78 52.5s62 19.5 96 19.5s66 -6.5 96 -19.5s56 -30.5 78 -52.5s39.5 -48 52.5 -78s19.5 -62 19.5 -96s-6.5 -66 -19.5 -96s-30.5 -56 -52.5 -78s-48 -39.5 -78 -52.5s-62 -19.5 -96 -19.5s-66 6.5 -96 19.5s-56 30.5 -78 52.5s-39.5 48 -52.5 78s-19.5 62 -19.5 96z
M600 1370c0 -23.333 8.16699 -43.166 24.5 -59.499s36.166 -24.5 59.499 -24.5s43.166 8.16699 59.499 24.5s24.5 36.166 24.5 59.499s-8.16699 43.166 -24.5 59.499s-36.166 24.5 -59.499 24.5s-43.166 -8.16699 -59.499 -24.5s-24.5 -36.166 -24.5 -59.499z" />
    <glyph glyph-name="ae" unicode="&#xe6;" horiz-adv-x="2115" 
d="M1230 1030l-0.000976562 -25.0029c35.333 14.667 72.666 25.834 111.999 33.501s81 11.5 125 11.5c84 0 162.167 -14.333 234.5 -43s134.5 -70.834 186.5 -126.501s91.167 -124.334 117.5 -206.001s35.166 -175.167 26.499 -280.5h-784c16 -48 42.333 -87 79 -117
s83.334 -45 140.001 -45c26.667 0 50 1.66699 70 5s36.667 7.33301 50 12c16 4.66699 29.333 10.334 40 17.001h378c-28 -54 -66.333 -101.667 -115 -143c-20.667 -18 -44.667 -35.5 -72 -52.5s-58.5 -32.333 -93.5 -46s-73.833 -24.5 -116.5 -32.5s-89.667 -12 -141 -12
c-44 0 -85.667 3.83301 -125 11.5s-76.666 18.834 -111.999 33.501v-25h-328v147l-19 -29.5c-11.333 -17.667 -29.333 -36.667 -54 -57s-56.167 -38.833 -94.5 -55.5s-84.833 -25 -139.5 -25c-78.667 0 -149.834 14 -213.501 42s-117.834 66.333 -162.501 115
s-79 105.334 -103 170.001s-36 134 -36 208s12 143.333 36 208s58.333 121.334 103 170.001s98.834 87 162.501 115s134.834 42 213.501 42c28 0 53.833 -2.33301 77.5 -7s45.334 -11 65.001 -19s37.5 -17 53.5 -27s30 -20.333 42 -31c28.667 -24.667 51.667 -52.667 69 -84
v148h328zM654.999 231.997c38.667 0 73.334 7.5 104.001 22.5s56.667 35.167 78 60.5s37.5 55.166 48.5 89.499s16.5 71.166 16.5 110.499c0 38.667 -5.5 75.334 -16.5 110.001s-27.167 64.667 -48.5 90s-47.333 45.5 -78 60.5s-65.334 22.5 -104.001 22.5
c-39.333 0 -74.166 -7.5 -104.499 -22.5s-56.166 -35.167 -77.499 -60.5s-37.5 -55.333 -48.5 -90s-16.5 -71.334 -16.5 -110.001c0 -39.333 5.5 -76.166 16.5 -110.499s27.167 -64.166 48.5 -89.499s47.166 -45.5 77.499 -60.5s65.166 -22.5 104.499 -22.5zM1467 797.997
c-31.333 0 -59.498 -4.83301 -84.498 -14.5s-47 -23 -66 -40s-34.833 -37.167 -47.5 -60.5s-22.334 -49 -29.001 -77h454c-6.66699 28 -16.334 53.667 -29.001 77s-28.5 43.5 -47.5 60.5s-41.167 30.333 -66.5 40s-53.333 14.5 -84 14.5z" />
    <glyph glyph-name="ccedilla" unicode="&#xe7;" horiz-adv-x="1245" 
d="M440 -370c12 -5.33301 26.998 -10.335 44.998 -15.002s37.167 -8.33398 57.5 -11.001s40.666 -3.83398 60.999 -3.50098s39 3.33301 56 9s31.167 14.5 42.5 26.5s18 28 20 48c2.66699 23.333 -4.83301 40.166 -22.5 50.499s-40.334 16.5 -68.001 18.5
s-57.667 1.33301 -90 -2s-61.5 -7 -87.5 -11l80 250c-67.333 11.333 -128.833 32.166 -184.5 62.499s-103.5 68.166 -143.5 113.499s-71 97.5 -93 156.5s-33 123.167 -33 192.5c0 78.667 14.167 150.834 42.5 216.501s68 122 119 169s111.667 83.667 182 110
s147.5 39.5 231.5 39.5c54 0 102.833 -5.16699 146.5 -15.5s83 -24 118 -41s65.833 -36.5 92.5 -58.5s50 -44.333 70 -67c46.667 -53.333 81 -114 103 -182h-335c-12 20.667 -27 39.334 -45 56.001c-15.333 14 -35.333 26.833 -60 38.5s-54.667 17.5 -90 17.5
c-39.333 0 -74.166 -7.5 -104.499 -22.5s-56.166 -35.167 -77.499 -60.5s-37.5 -55.333 -48.5 -90s-16.5 -71.334 -16.5 -110.001c0 -39.333 5.5 -76.166 16.5 -110.499s27.167 -64.166 48.5 -89.499s47.166 -45.5 77.499 -60.5s65.166 -22.5 104.499 -22.5
c35.333 0 65.333 5.83301 90 17.5s44.667 24.5 60 38.5c18 16.667 33 35.334 45 56.001h335c-20 -60.667 -50.333 -116.334 -91 -167.001c-17.333 -21.333 -37.666 -42.666 -60.999 -63.999s-50.333 -41 -81 -59s-65.167 -33.333 -103.5 -46s-80.833 -21 -127.5 -25
l-35 -108c30.667 -0.666992 59.834 -5.16699 87.501 -13.5s51.667 -20.666 72 -36.999s36 -36.666 47 -60.999s15.167 -53.166 12.5 -86.499c-3.33301 -43.333 -14.666 -79.5 -33.999 -108.5s-43.833 -52 -73.5 -69s-62.667 -28.833 -99 -35.5
s-73.166 -9.16699 -110.499 -7.5s-73.5 6.66699 -108.5 15s-65.833 18.833 -92.5 31.5z" />
    <glyph glyph-name="egrave" unicode="&#xe8;" horiz-adv-x="1293" 
d="M1183 266c-28 -54 -66.333 -101.668 -115 -143.001c-20.667 -18 -44.667 -35.5 -72 -52.5s-58.5 -32.333 -93.5 -46s-73.833 -24.5 -116.5 -32.5s-89.667 -12 -141 -12c-84 0 -160.667 14 -230 42s-128.833 66.333 -178.5 115s-88.167 105.334 -115.5 170.001
s-41 134 -41 208s13.667 143.333 41 208s65.833 121.334 115.5 170.001s109.167 87 178.5 115s146 42 230 42s162.167 -14.333 234.5 -43s134.5 -70.834 186.5 -126.501s91.167 -124.334 117.5 -206.001s35.166 -175.167 26.499 -280.5h-784c16 -48 42.333 -87 79 -117
s83.334 -45 140.001 -45c26.667 0 50 1.66699 70 5s36.667 7.33301 50 12c16 4.66699 29.333 10.334 40 17.001h378zM645 797.999c-31.333 0 -59.498 -4.83301 -84.498 -14.5s-47 -23 -66 -40s-34.833 -37.167 -47.5 -60.5s-22.334 -49 -29.001 -77h454
c-6.66699 28 -16.334 53.667 -29.001 77s-28.5 43.5 -47.5 60.5s-41.167 30.333 -66.5 40s-53.333 14.5 -84 14.5zM787.002 1124h-270l-314 310h333z" />
    <glyph glyph-name="eacute" unicode="&#xe9;" horiz-adv-x="1293" 
d="M1183 266c-28 -54 -66.333 -101.668 -115 -143.001c-20.667 -18 -44.667 -35.5 -72 -52.5s-58.5 -32.333 -93.5 -46s-73.833 -24.5 -116.5 -32.5s-89.667 -12 -141 -12c-84 0 -160.667 14 -230 42s-128.833 66.333 -178.5 115s-88.167 105.334 -115.5 170.001
s-41 134 -41 208s13.667 143.333 41 208s65.833 121.334 115.5 170.001s109.167 87 178.5 115s146 42 230 42s162.167 -14.333 234.5 -43s134.5 -70.834 186.5 -126.501s91.167 -124.334 117.5 -206.001s35.166 -175.167 26.499 -280.5h-784c16 -48 42.333 -87 79 -117
s83.334 -45 140.001 -45c26.667 0 50 1.66699 70 5s36.667 7.33301 50 12c16 4.66699 29.333 10.334 40 17.001h378zM645 797.999c-31.333 0 -59.498 -4.83301 -84.498 -14.5s-47 -23 -66 -40s-34.833 -37.167 -47.5 -60.5s-22.334 -49 -29.001 -77h454
c-6.66699 28 -16.334 53.667 -29.001 77s-28.5 43.5 -47.5 60.5s-41.167 30.333 -66.5 40s-53.333 14.5 -84 14.5zM748.002 1434h333l-314 -310h-270z" />
    <glyph glyph-name="ecircumflex" unicode="&#xea;" horiz-adv-x="1293" 
d="M1183 266c-28 -54 -66.333 -101.668 -115 -143.001c-20.667 -18 -44.667 -35.5 -72 -52.5s-58.5 -32.333 -93.5 -46s-73.833 -24.5 -116.5 -32.5s-89.667 -12 -141 -12c-84 0 -160.667 14 -230 42s-128.833 66.333 -178.5 115s-88.167 105.334 -115.5 170.001
s-41 134 -41 208s13.667 143.333 41 208s65.833 121.334 115.5 170.001s109.167 87 178.5 115s146 42 230 42s162.167 -14.333 234.5 -43s134.5 -70.834 186.5 -126.501s91.167 -124.334 117.5 -206.001s35.166 -175.167 26.499 -280.5h-784c16 -48 42.333 -87 79 -117
s83.334 -45 140.001 -45c26.667 0 50 1.66699 70 5s36.667 7.33301 50 12c16 4.66699 29.333 10.334 40 17.001h378zM645 797.999c-31.333 0 -59.498 -4.83301 -84.498 -14.5s-47 -23 -66 -40s-34.833 -37.167 -47.5 -60.5s-22.334 -49 -29.001 -77h454
c-6.66699 28 -16.334 53.667 -29.001 77s-28.5 43.5 -47.5 60.5s-41.167 30.333 -66.5 40s-53.333 14.5 -84 14.5zM1046 1143h-248l-156 109l-156 -109h-248l301 291h206z" />
    <glyph glyph-name="edieresis" unicode="&#xeb;" horiz-adv-x="1293" 
d="M1183 266c-28 -54 -66.333 -101.668 -115 -143.001c-20.667 -18 -44.667 -35.5 -72 -52.5s-58.5 -32.333 -93.5 -46s-73.833 -24.5 -116.5 -32.5s-89.667 -12 -141 -12c-84 0 -160.667 14 -230 42s-128.833 66.333 -178.5 115s-88.167 105.334 -115.5 170.001
s-41 134 -41 208s13.667 143.333 41 208s65.833 121.334 115.5 170.001s109.167 87 178.5 115s146 42 230 42s162.167 -14.333 234.5 -43s134.5 -70.834 186.5 -126.501s91.167 -124.334 117.5 -206.001s35.166 -175.167 26.499 -280.5h-784c16 -48 42.333 -87 79 -117
s83.334 -45 140.001 -45c26.667 0 50 1.66699 70 5s36.667 7.33301 50 12c16 4.66699 29.333 10.334 40 17.001h378zM645 797.999c-31.333 0 -59.498 -4.83301 -84.498 -14.5s-47 -23 -66 -40s-34.833 -37.167 -47.5 -60.5s-22.334 -49 -29.001 -77h454
c-6.66699 28 -16.334 53.667 -29.001 77s-28.5 43.5 -47.5 60.5s-41.167 30.333 -66.5 40s-53.333 14.5 -84 14.5zM237.002 1334c0 24 4.5 46.333 13.5 67s21.333 38.834 37 54.501s33.834 28 54.501 37s43 13.5 67 13.5s46.333 -4.5 67 -13.5s38.834 -21.333 54.501 -37
s28 -33.834 37 -54.501s13.5 -43 13.5 -67s-4.5 -46.333 -13.5 -67s-21.333 -38.834 -37 -54.501s-33.834 -28 -54.501 -37s-43 -13.5 -67 -13.5s-46.333 4.5 -67 13.5s-38.834 21.333 -54.501 37s-28 33.834 -37 54.501s-13.5 43 -13.5 67zM714.002 1334
c0 24 4.5 46.333 13.5 67s21.333 38.834 37 54.501s33.834 28 54.501 37s43 13.5 67 13.5s46.333 -4.5 67 -13.5s38.834 -21.333 54.501 -37s28 -33.834 37 -54.501s13.5 -43 13.5 -67s-4.5 -46.333 -13.5 -67s-21.333 -38.834 -37 -54.501s-33.834 -28 -54.501 -37
s-43 -13.5 -67 -13.5s-46.333 4.5 -67 13.5s-38.834 21.333 -54.501 37s-28 33.834 -37 54.501s-13.5 43 -13.5 67z" />
    <glyph glyph-name="igrave" unicode="&#xec;" horiz-adv-x="552" 
d="M404 1124h-270l-314 310h333zM104 0v1030h328v-1030h-328z" />
    <glyph glyph-name="iacute" unicode="&#xed;" horiz-adv-x="556" 
d="M403 1434h333l-314 -310h-270zM120 0v1030h328v-1030h-328z" />
    <glyph glyph-name="icircumflex" unicode="&#xee;" horiz-adv-x="608" 
d="M708 1143h-248l-156 109l-156 -109h-248l301 291h206zM140 0v1030h328v-1030h-328z" />
    <glyph glyph-name="idieresis" unicode="&#xef;" horiz-adv-x="621" 
d="M-100 1334c0 24 4.5 46.333 13.5 67s21.333 38.834 37 54.501s33.834 28 54.501 37s43 13.5 67 13.5s46.333 -4.5 67 -13.5s38.834 -21.333 54.501 -37s28 -33.834 37 -54.501s13.5 -43 13.5 -67s-4.5 -46.333 -13.5 -67s-21.333 -38.834 -37 -54.501
s-33.834 -28 -54.501 -37s-43 -13.5 -67 -13.5s-46.333 4.5 -67 13.5s-38.834 21.333 -54.501 37s-28 33.834 -37 54.501s-13.5 43 -13.5 67zM377 1334c0 24 4.5 46.333 13.5 67s21.333 38.834 37 54.501s33.834 28 54.501 37s43 13.5 67 13.5s46.333 -4.5 67 -13.5
s38.834 -21.333 54.501 -37s28 -33.834 37 -54.501s13.5 -43 13.5 -67s-4.5 -46.333 -13.5 -67s-21.333 -38.834 -37 -54.501s-33.834 -28 -54.501 -37s-43 -13.5 -67 -13.5s-46.333 4.5 -67 13.5s-38.834 21.333 -54.501 37s-28 33.834 -37 54.501s-13.5 43 -13.5 67z
M146 0v1030h328v-1030h-328z" />
    <glyph glyph-name="eth" unicode="&#xf0;" horiz-adv-x="1351" 
d="M350 1516c107.333 1.33301 203.335 -6.83105 288.002 -24.498s160 -44.5 226 -80.5l190 104l82 -148l-123 -68c80.667 -80.667 138 -180.834 172 -300.501s49 -254.167 45 -403.5c-2 -76.667 -11.167 -145.167 -27.5 -205.5s-38 -113.333 -65 -159
s-58.5 -84.334 -94.5 -116.001s-75 -57.5 -117 -77.5s-86 -34.5 -132 -43.5s-92.333 -13.5 -139 -13.5c-94 0 -176.667 14 -248 42s-131.333 66.333 -180 115s-85.334 105.334 -110.001 170.001s-37 134 -37 208s12 143.333 36 208s58.333 121.334 103 170.001
s98.834 87 162.501 115s134.834 42 213.501 42c36.667 0 69.667 -4 99 -12s55.166 -18 77.499 -30s41.666 -25 57.999 -39s29.666 -27.333 39.999 -40s18.166 -23.334 23.499 -32.001s8.33301 -13.667 9 -15c-2 30.667 -9 62 -21 94c-10 27.333 -25.167 56.666 -45.5 87.999
s-49.166 61.333 -86.499 90l-175 -96l-81 149l63 35c-29.333 7.33301 -61 12.833 -95 16.5s-71 5.5 -111 5.5v252zM655.002 232.003c38.667 0 73.334 7.5 104.001 22.5s56.667 35.167 78 60.5s37.5 55.166 48.5 89.499s16.5 71.166 16.5 110.499
c0 38.667 -5.5 75.334 -16.5 110.001s-27.167 64.667 -48.5 90s-47.333 45.5 -78 60.5s-65.334 22.5 -104.001 22.5c-39.333 0 -74.166 -7.5 -104.499 -22.5s-56.166 -35.167 -77.499 -60.5s-37.5 -55.333 -48.5 -90s-16.5 -71.334 -16.5 -110.001
c0 -39.333 5.5 -76.166 16.5 -110.499s27.167 -64.166 48.5 -89.499s47.166 -45.5 77.499 -60.5s65.166 -22.5 104.499 -22.5z" />
    <glyph glyph-name="ntilde" unicode="&#xf1;" 
d="M626 1207c-19.333 16.667 -36.3359 28.5 -51.0029 35.5s-28.667 10.5 -42 10.5c-14.667 0 -26.167 -4.16699 -34.5 -12.5s-14.833 -17.166 -19.5 -26.499c-5.33301 -12 -9 -25 -11 -39h-205c2.66699 51.333 13.667 97.666 33 138.999c8 17.333 18.5 34.5 31.5 51.5
s28.833 32 47.5 45s40.5 23.5 65.5 31.5s54.167 12 87.5 12c30.667 0 58.667 -4.66699 84 -14s49 -22.666 71 -39.999c19.333 -16.667 36.333 -28.5 51 -35.5s28.667 -10.5 42 -10.5c14 0 25.333 4 34 12s15.334 17 20.001 27c5.33301 11.333 9 24.333 11 39h205
c-3.33301 -52 -14.666 -98.667 -33.999 -140c-8 -17.333 -18.5 -34.333 -31.5 -51s-28.667 -31.5 -47 -44.5s-40.166 -23.5 -65.499 -31.5s-54.333 -12 -87 -12c-30.667 0 -58.667 4.66699 -84 14s-49 22.666 -71 39.999zM1188 0h-328.002v503
c0 44.667 -3.33301 85.334 -10 122.001s-18 67.667 -34 93s-37.167 45 -63.5 59s-59.166 21 -98.499 21s-72.166 -7 -98.499 -21s-47.5 -33.667 -63.5 -59s-27.333 -56.333 -34 -93s-10 -77.334 -10 -122.001v-503h-328v1030h328v-141
c0.666992 1.33301 2.83398 6.33301 6.50098 15s9.66699 19 18 31s19.333 24.667 33 38s30.5 25.666 50.5 36.999s43.667 20.833 71 28.5s59 11.5 95 11.5c85.333 0 157.666 -13.667 216.999 -41s107.5 -65.166 144.5 -113.499s63.667 -106 80 -173
s24.5 -140.167 24.5 -219.5v-503z" />
    <glyph glyph-name="ograve" unicode="&#xf2;" horiz-adv-x="1310" 
d="M789 1124h-270l-314 310h333zM655 -20c-84 0 -161.167 13.167 -231.5 39.5s-131 63 -182 110s-90.667 103.333 -119 169s-42.5 137.834 -42.5 216.501s14.167 150.834 42.5 216.501s68 122 119 169s111.667 83.667 182 110s147.5 39.5 231.5 39.5
s161.167 -13.167 231.5 -39.5s131 -63 182 -110s90.667 -103.333 119 -169s42.5 -137.834 42.5 -216.501s-14.167 -150.834 -42.5 -216.501s-68 -122 -119 -169s-111.667 -83.667 -182 -110s-147.5 -39.5 -231.5 -39.5zM655 232c38.667 0 73.334 7.5 104.001 22.5
s56.667 35.167 78 60.5s37.5 55.166 48.5 89.499s16.5 71.166 16.5 110.499c0 38.667 -5.5 75.334 -16.5 110.001s-27.167 64.667 -48.5 90s-47.333 45.5 -78 60.5s-65.334 22.5 -104.001 22.5c-39.333 0 -74.166 -7.5 -104.499 -22.5s-56.166 -35.167 -77.499 -60.5
s-37.5 -55.333 -48.5 -90s-16.5 -71.334 -16.5 -110.001c0 -39.333 5.5 -76.166 16.5 -110.499s27.167 -64.166 48.5 -89.499s47.166 -45.5 77.499 -60.5s65.166 -22.5 104.499 -22.5z" />
    <glyph glyph-name="oacute" unicode="&#xf3;" horiz-adv-x="1310" 
d="M762 1434h333l-314 -310h-270zM655 -20c-84 0 -161.167 13.167 -231.5 39.5s-131 63 -182 110s-90.667 103.333 -119 169s-42.5 137.834 -42.5 216.501s14.167 150.834 42.5 216.501s68 122 119 169s111.667 83.667 182 110s147.5 39.5 231.5 39.5
s161.167 -13.167 231.5 -39.5s131 -63 182 -110s90.667 -103.333 119 -169s42.5 -137.834 42.5 -216.501s-14.167 -150.834 -42.5 -216.501s-68 -122 -119 -169s-111.667 -83.667 -182 -110s-147.5 -39.5 -231.5 -39.5zM655 232c38.667 0 73.334 7.5 104.001 22.5
s56.667 35.167 78 60.5s37.5 55.166 48.5 89.499s16.5 71.166 16.5 110.499c0 38.667 -5.5 75.334 -16.5 110.001s-27.167 64.667 -48.5 90s-47.333 45.5 -78 60.5s-65.334 22.5 -104.001 22.5c-39.333 0 -74.166 -7.5 -104.499 -22.5s-56.166 -35.167 -77.499 -60.5
s-37.5 -55.333 -48.5 -90s-16.5 -71.334 -16.5 -110.001c0 -39.333 5.5 -76.166 16.5 -110.499s27.167 -64.166 48.5 -89.499s47.166 -45.5 77.499 -60.5s65.166 -22.5 104.499 -22.5z" />
    <glyph glyph-name="ocircumflex" unicode="&#xf4;" horiz-adv-x="1310" 
d="M1059 1143h-248l-156 109l-156 -109h-248l301 291h206zM655 -20c-84 0 -161.167 13.167 -231.5 39.5s-131 63 -182 110s-90.667 103.333 -119 169s-42.5 137.834 -42.5 216.501s14.167 150.834 42.5 216.501s68 122 119 169s111.667 83.667 182 110
s147.5 39.5 231.5 39.5s161.167 -13.167 231.5 -39.5s131 -63 182 -110s90.667 -103.333 119 -169s42.5 -137.834 42.5 -216.501s-14.167 -150.834 -42.5 -216.501s-68 -122 -119 -169s-111.667 -83.667 -182 -110s-147.5 -39.5 -231.5 -39.5zM655 232
c38.667 0 73.334 7.5 104.001 22.5s56.667 35.167 78 60.5s37.5 55.166 48.5 89.499s16.5 71.166 16.5 110.499c0 38.667 -5.5 75.334 -16.5 110.001s-27.167 64.667 -48.5 90s-47.333 45.5 -78 60.5s-65.334 22.5 -104.001 22.5c-39.333 0 -74.166 -7.5 -104.499 -22.5
s-56.166 -35.167 -77.499 -60.5s-37.5 -55.333 -48.5 -90s-16.5 -71.334 -16.5 -110.001c0 -39.333 5.5 -76.166 16.5 -110.499s27.167 -64.166 48.5 -89.499s47.166 -45.5 77.499 -60.5s65.166 -22.5 104.499 -22.5z" />
    <glyph glyph-name="otilde" unicode="&#xf5;" horiz-adv-x="1310" 
d="M627 1207c-19.333 16.667 -36.3359 28.5 -51.0029 35.5s-28.667 10.5 -42 10.5c-14.667 0 -26.167 -4.16699 -34.5 -12.5s-14.833 -17.166 -19.5 -26.499c-5.33301 -12 -9 -25 -11 -39h-205c2.66699 51.333 13.667 97.666 33 138.999c8 17.333 18.5 34.5 31.5 51.5
s28.833 32 47.5 45s40.5 23.5 65.5 31.5s54.167 12 87.5 12c30.667 0 58.667 -4.66699 84 -14s49 -22.666 71 -39.999c19.333 -16.667 36.333 -28.5 51 -35.5s28.667 -10.5 42 -10.5c14 0 25.333 4 34 12s15.334 17 20.001 27c5.33301 11.333 9 24.333 11 39h205
c-3.33301 -52 -14.666 -98.667 -33.999 -140c-8 -17.333 -18.5 -34.333 -31.5 -51s-28.667 -31.5 -47 -44.5s-40.166 -23.5 -65.499 -31.5s-54.333 -12 -87 -12c-30.667 0 -58.667 4.66699 -84 14s-49 22.666 -71 39.999zM654.997 -20c-84 0 -161.167 13.167 -231.5 39.5
s-131 63 -182 110s-90.667 103.333 -119 169s-42.5 137.834 -42.5 216.501s14.167 150.834 42.5 216.501s68 122 119 169s111.667 83.667 182 110s147.5 39.5 231.5 39.5s161.167 -13.167 231.5 -39.5s131 -63 182 -110s90.667 -103.333 119 -169
s42.5 -137.834 42.5 -216.501s-14.167 -150.834 -42.5 -216.501s-68 -122 -119 -169s-111.667 -83.667 -182 -110s-147.5 -39.5 -231.5 -39.5zM654.997 232c38.667 0 73.334 7.5 104.001 22.5s56.667 35.167 78 60.5s37.5 55.166 48.5 89.499s16.5 71.166 16.5 110.499
c0 38.667 -5.5 75.334 -16.5 110.001s-27.167 64.667 -48.5 90s-47.333 45.5 -78 60.5s-65.334 22.5 -104.001 22.5c-39.333 0 -74.166 -7.5 -104.499 -22.5s-56.166 -35.167 -77.499 -60.5s-37.5 -55.333 -48.5 -90s-16.5 -71.334 -16.5 -110.001
c0 -39.333 5.5 -76.166 16.5 -110.499s27.167 -64.166 48.5 -89.499s47.166 -45.5 77.499 -60.5s65.166 -22.5 104.499 -22.5z" />
    <glyph glyph-name="odieresis" unicode="&#xf6;" horiz-adv-x="1310" 
d="M245 1334c0 24 4.5 46.333 13.5 67s21.333 38.834 37 54.501s33.834 28 54.501 37s43 13.5 67 13.5s46.333 -4.5 67 -13.5s38.834 -21.333 54.501 -37s28 -33.834 37 -54.501s13.5 -43 13.5 -67s-4.5 -46.333 -13.5 -67s-21.333 -38.834 -37 -54.501
s-33.834 -28 -54.501 -37s-43 -13.5 -67 -13.5s-46.333 4.5 -67 13.5s-38.834 21.333 -54.501 37s-28 33.834 -37 54.501s-13.5 43 -13.5 67zM722 1334c0 24 4.5 46.333 13.5 67s21.333 38.834 37 54.501s33.834 28 54.501 37s43 13.5 67 13.5s46.333 -4.5 67 -13.5
s38.834 -21.333 54.501 -37s28 -33.834 37 -54.501s13.5 -43 13.5 -67s-4.5 -46.333 -13.5 -67s-21.333 -38.834 -37 -54.501s-33.834 -28 -54.501 -37s-43 -13.5 -67 -13.5s-46.333 4.5 -67 13.5s-38.834 21.333 -54.501 37s-28 33.834 -37 54.501s-13.5 43 -13.5 67z
M655 -20c-84 0 -161.167 13.167 -231.5 39.5s-131 63 -182 110s-90.667 103.333 -119 169s-42.5 137.834 -42.5 216.501s14.167 150.834 42.5 216.501s68 122 119 169s111.667 83.667 182 110s147.5 39.5 231.5 39.5s161.167 -13.167 231.5 -39.5s131 -63 182 -110
s90.667 -103.333 119 -169s42.5 -137.834 42.5 -216.501s-14.167 -150.834 -42.5 -216.501s-68 -122 -119 -169s-111.667 -83.667 -182 -110s-147.5 -39.5 -231.5 -39.5zM655 232c38.667 0 73.334 7.5 104.001 22.5s56.667 35.167 78 60.5s37.5 55.166 48.5 89.499
s16.5 71.166 16.5 110.499c0 38.667 -5.5 75.334 -16.5 110.001s-27.167 64.667 -48.5 90s-47.333 45.5 -78 60.5s-65.334 22.5 -104.001 22.5c-39.333 0 -74.166 -7.5 -104.499 -22.5s-56.166 -35.167 -77.499 -60.5s-37.5 -55.333 -48.5 -90s-16.5 -71.334 -16.5 -110.001
c0 -39.333 5.5 -76.166 16.5 -110.499s27.167 -64.166 48.5 -89.499s47.166 -45.5 77.499 -60.5s65.166 -22.5 104.499 -22.5z" />
    <glyph glyph-name="divide" unicode="&#xf7;" horiz-adv-x="1130" 
d="M100 823h930v-289h-930v289zM389 1059c0 24 4.66699 46.667 14 68s22 40 38 56s34.667 28.667 56 38s44 14 68 14s46.667 -4.66699 68 -14s40 -22 56 -38s28.667 -34.667 38 -56s14 -44 14 -68s-4.66699 -46.667 -14 -68s-22 -40 -38 -56s-34.667 -28.667 -56 -38
s-44 -14 -68 -14s-46.667 4.66699 -68 14s-40 22 -56 38s-28.667 34.667 -38 56s-14 44 -14 68zM389 298c0 24 4.66699 46.667 14 68s22 40 38 56s34.667 28.667 56 38s44 14 68 14s46.667 -4.66699 68 -14s40 -22 56 -38s28.667 -34.667 38 -56s14 -44 14 -68
s-4.66699 -46.667 -14 -68s-22 -40 -38 -56s-34.667 -28.667 -56 -38s-44 -14 -68 -14s-46.667 4.66699 -68 14s-40 22 -56 38s-28.667 34.667 -38 56s-14 44 -14 68z" />
    <glyph glyph-name="oslash" unicode="&#xf8;" horiz-adv-x="1310" 
d="M655 -20c-54.667 0 -106.333 5.49805 -155 16.498s-94 27.167 -136 48.5l-38 -45h-225l124 145c-46 46.667 -81.667 101.334 -107 164.001s-38 131.334 -38 206.001c0 78.667 14.167 150.834 42.5 216.501s68 122 119 169s111.667 83.667 182 110s147.5 39.5 231.5 39.5
c54 0 105.333 -5.5 154 -16.5s94 -27.167 136 -48.5l39 45h225l-125 -146c46 -46.667 81.833 -101.167 107.5 -163.5s38.5 -130.833 38.5 -205.5c0 -78.667 -14.167 -150.834 -42.5 -216.501s-68 -122 -119 -169s-111.667 -83.667 -182 -110s-147.5 -39.5 -231.5 -39.5z
M408.001 514.998c0 -47.333 7.66406 -90.332 22.9971 -128.999l333 387c-33.333 16.667 -69.666 25 -108.999 25s-74.166 -7.5 -104.499 -22.5s-56.166 -35.167 -77.499 -60.5s-37.5 -55.333 -48.5 -90s-16.5 -71.334 -16.5 -110.001zM654.998 231.999
c38.667 0 73.334 7.50098 104.001 22.501s56.667 35.167 78 60.5s37.5 55.166 48.5 89.499s16.5 71.166 16.5 110.499c0 46.667 -8 89.667 -24 129l-332 -388c15.333 -7.33301 32.166 -13.166 50.499 -17.499s37.833 -6.5 58.5 -6.5z" />
    <glyph glyph-name="ugrave" unicode="&#xf9;" 
d="M789 1124h-270l-314 310h333zM120 1030l328.002 -0.000976562v-503c0 -45.333 3.33301 -86.166 10 -122.499s18 -67.166 34 -92.499s37.167 -45 63.5 -59s59.166 -21 98.499 -21s72.166 7 98.499 21s47.5 33.667 63.5 59s27.333 56.166 34 92.499s10 77.166 10 122.499
v503h328v-1030h-328v141c-0.666992 -1.33301 -2.83398 -6.33301 -6.50098 -15s-9.66699 -19 -18 -31s-19.333 -24.667 -33 -38s-30.5 -25.666 -50.5 -36.999s-43.667 -20.833 -71 -28.5s-59 -11.5 -95 -11.5c-85.333 0 -157.666 13.5 -216.999 40.5
s-107.5 64.833 -144.5 113.5s-63.667 106.5 -80 173.5s-24.5 140.167 -24.5 219.5v503z" />
    <glyph glyph-name="uacute" unicode="&#xfa;" 
d="M764 1434h333l-314 -310h-270zM120 1030l328.002 -0.000976562v-503c0 -45.333 3.33301 -86.166 10 -122.499s18 -67.166 34 -92.499s37.167 -45 63.5 -59s59.166 -21 98.499 -21s72.166 7 98.499 21s47.5 33.667 63.5 59s27.333 56.166 34 92.499s10 77.166 10 122.499
v503h328v-1030h-328v141c-0.666992 -1.33301 -2.83398 -6.33301 -6.50098 -15s-9.66699 -19 -18 -31s-19.333 -24.667 -33 -38s-30.5 -25.666 -50.5 -36.999s-43.667 -20.833 -71 -28.5s-59 -11.5 -95 -11.5c-85.333 0 -157.666 13.5 -216.999 40.5
s-107.5 64.833 -144.5 113.5s-63.667 106.5 -80 173.5s-24.5 140.167 -24.5 219.5v503z" />
    <glyph glyph-name="ucircumflex" unicode="&#xfb;" 
d="M1058 1143h-248l-156 109l-156 -109h-248l301 291h206zM120 1030l328.002 -0.000976562v-503c0 -45.333 3.33301 -86.166 10 -122.499s18 -67.166 34 -92.499s37.167 -45 63.5 -59s59.166 -21 98.499 -21s72.166 7 98.499 21s47.5 33.667 63.5 59
s27.333 56.166 34 92.499s10 77.166 10 122.499v503h328v-1030h-328v141c-0.666992 -1.33301 -2.83398 -6.33301 -6.50098 -15s-9.66699 -19 -18 -31s-19.333 -24.667 -33 -38s-30.5 -25.666 -50.5 -36.999s-43.667 -20.833 -71 -28.5s-59 -11.5 -95 -11.5
c-85.333 0 -157.666 13.5 -216.999 40.5s-107.5 64.833 -144.5 113.5s-63.667 106.5 -80 173.5s-24.5 140.167 -24.5 219.5v503z" />
    <glyph glyph-name="udieresis" unicode="&#xfc;" 
d="M244 1334c0 24 4.5 46.333 13.5 67s21.333 38.834 37 54.501s33.834 28 54.501 37s43 13.5 67 13.5s46.333 -4.5 67 -13.5s38.834 -21.333 54.501 -37s28 -33.834 37 -54.501s13.5 -43 13.5 -67s-4.5 -46.333 -13.5 -67s-21.333 -38.834 -37 -54.501
s-33.834 -28 -54.501 -37s-43 -13.5 -67 -13.5s-46.333 4.5 -67 13.5s-38.834 21.333 -54.501 37s-28 33.834 -37 54.501s-13.5 43 -13.5 67zM721 1334c0 24 4.5 46.333 13.5 67s21.333 38.834 37 54.501s33.834 28 54.501 37s43 13.5 67 13.5s46.333 -4.5 67 -13.5
s38.834 -21.333 54.501 -37s28 -33.834 37 -54.501s13.5 -43 13.5 -67s-4.5 -46.333 -13.5 -67s-21.333 -38.834 -37 -54.501s-33.834 -28 -54.501 -37s-43 -13.5 -67 -13.5s-46.333 4.5 -67 13.5s-38.834 21.333 -54.501 37s-28 33.834 -37 54.501s-13.5 43 -13.5 67z
M120 1030l328.002 -0.000976562v-503c0 -45.333 3.33301 -86.166 10 -122.499s18 -67.166 34 -92.499s37.167 -45 63.5 -59s59.166 -21 98.499 -21s72.166 7 98.499 21s47.5 33.667 63.5 59s27.333 56.166 34 92.499s10 77.166 10 122.499v503h328v-1030h-328v141
c-0.666992 -1.33301 -2.83398 -6.33301 -6.50098 -15s-9.66699 -19 -18 -31s-19.333 -24.667 -33 -38s-30.5 -25.666 -50.5 -36.999s-43.667 -20.833 -71 -28.5s-59 -11.5 -95 -11.5c-85.333 0 -157.666 13.5 -216.999 40.5s-107.5 64.833 -144.5 113.5
s-63.667 106.5 -80 173.5s-24.5 140.167 -24.5 219.5v503z" />
    <glyph glyph-name="yacute" unicode="&#xfd;" horiz-adv-x="1276" 
d="M756 1434h333l-314 -310h-270zM468 0l-438 1030h332l276 -677l276 677h332l-665 -1562h-340z" />
    <glyph glyph-name="thorn" unicode="&#xfe;" horiz-adv-x="1350" 
d="M448 1516l0.00292969 -633.999c0.666992 1.33301 3.66699 6.33301 9 15s13.166 19.334 23.499 32.001s23.666 26 39.999 40s35.666 27 57.999 39s48.166 22 77.499 30s62.333 12 99 12c78.667 0 149.834 -14 213.501 -42s117.834 -66.333 162.501 -115
s79 -105.334 103 -170.001s36 -134 36 -208s-12 -143.333 -36 -208s-58.333 -121.334 -103 -170.001s-98.834 -87 -162.501 -115s-134.834 -42 -213.501 -42c-55.333 0 -102.166 8.33301 -140.499 25s-69.666 35.167 -93.999 55.5s-42.333 39.333 -54 57
s-17.834 27.5 -18.501 29.5v-679h-328v2048h328zM695.003 232.001c38.667 0 73.334 7.5 104.001 22.5s56.667 35.167 78 60.5s37.5 55.166 48.5 89.499s16.5 71.166 16.5 110.499c0 38.667 -5.5 75.334 -16.5 110.001s-27.167 64.667 -48.5 90s-47.333 45.5 -78 60.5
s-65.334 22.5 -104.001 22.5c-39.333 0 -74.166 -7.5 -104.499 -22.5s-56.166 -35.167 -77.499 -60.5s-37.5 -55.333 -48.5 -90s-16.5 -71.334 -16.5 -110.001c0 -39.333 5.5 -76.166 16.5 -110.499s27.167 -64.166 48.5 -89.499s47.166 -45.5 77.499 -60.5
s65.166 -22.5 104.499 -22.5z" />
    <glyph glyph-name="ydieresis" unicode="&#xff;" horiz-adv-x="1276" 
d="M468 0l-438 1030h332l276 -677l276 677h332l-665 -1562h-340zM228 1334c0 24 4.5 46.333 13.5 67s21.333 38.834 37 54.501s33.834 28 54.501 37s43 13.5 67 13.5s46.333 -4.5 67 -13.5s38.834 -21.333 54.501 -37s28 -33.834 37 -54.501s13.5 -43 13.5 -67
s-4.5 -46.333 -13.5 -67s-21.333 -38.834 -37 -54.501s-33.834 -28 -54.501 -37s-43 -13.5 -67 -13.5s-46.333 4.5 -67 13.5s-38.834 21.333 -54.501 37s-28 33.834 -37 54.501s-13.5 43 -13.5 67zM705 1334c0 24 4.5 46.333 13.5 67s21.333 38.834 37 54.501
s33.834 28 54.501 37s43 13.5 67 13.5s46.333 -4.5 67 -13.5s38.834 -21.333 54.501 -37s28 -33.834 37 -54.501s13.5 -43 13.5 -67s-4.5 -46.333 -13.5 -67s-21.333 -38.834 -37 -54.501s-33.834 -28 -54.501 -37s-43 -13.5 -67 -13.5s-46.333 4.5 -67 13.5
s-38.834 21.333 -54.501 37s-28 33.834 -37 54.501s-13.5 43 -13.5 67z" />
    <glyph glyph-name="Amacron" unicode="&#x100;" horiz-adv-x="1684" 
d="M1153 268h-622l-119 -268h-362l651 1434h282l651 -1434h-362zM659 557h365l-182 410zM405 1808h874v-232h-874v232z" />
    <glyph glyph-name="amacron" unicode="&#x101;" horiz-adv-x="1350" 
d="M1230 1030v-1030h-328v148c-17.333 -31.333 -40.333 -59.333 -69 -84c-12 -10.667 -26 -21 -42 -31s-33.833 -19 -53.5 -27s-41.334 -14.333 -65.001 -19s-49.5 -7 -77.5 -7c-78.667 0 -149.834 14 -213.501 42s-117.834 66.333 -162.501 115s-79 105.334 -103 170.001
s-36 134 -36 208s12 143.333 36 208s58.333 121.334 103 170.001s98.834 87 162.501 115s134.834 42 213.501 42c28 0 53.833 -2.33301 77.5 -7s45.334 -11 65.001 -19s37.5 -17 53.5 -27s30 -20.333 42 -31c28.667 -24.667 51.667 -52.667 69 -84v148h328zM655 231.998
c38.667 0 73.334 7.5 104.001 22.5s56.667 35.167 78 60.5s37.5 55.166 48.5 89.499s16.5 71.166 16.5 110.499c0 38.667 -5.5 75.334 -16.5 110.001s-27.167 64.667 -48.5 90s-47.333 45.5 -78 60.5s-65.334 22.5 -104.001 22.5c-39.333 0 -74.166 -7.5 -104.499 -22.5
s-56.166 -35.167 -77.499 -60.5s-37.5 -55.333 -48.5 -90s-16.5 -71.334 -16.5 -110.001c0 -39.333 5.5 -76.166 16.5 -110.499s27.167 -64.166 48.5 -89.499s47.166 -45.5 77.499 -60.5s65.166 -22.5 104.499 -22.5zM268 1434h874v-232h-874v232z" />
    <glyph glyph-name="Abreve" unicode="&#x102;" horiz-adv-x="1684" 
d="M1153 268h-622l-119 -268h-362l651 1434h282l651 -1434h-362zM659 557h365l-182 410zM842 1566c-62 0 -115.5 8.33301 -160.5 25s-82.5 38 -112.5 64s-53.167 54.667 -69.5 86s-26.833 61.666 -31.5 90.999h192c12 -30 32.5 -53.833 61.5 -71.5s69.167 -26.5 120.5 -26.5
s91.5 8.83301 120.5 26.5s49.5 41.5 61.5 71.5h192c-4.66699 -29.333 -15.167 -59.666 -31.5 -90.999s-39.5 -60 -69.5 -86s-67.5 -47.333 -112.5 -64s-98.5 -25 -160.5 -25z" />
    <glyph glyph-name="abreve" unicode="&#x103;" horiz-adv-x="1350" 
d="M1230 1030v-1030h-328v148c-17.333 -31.333 -40.333 -59.333 -69 -84c-12 -10.667 -26 -21 -42 -31s-33.833 -19 -53.5 -27s-41.334 -14.333 -65.001 -19s-49.5 -7 -77.5 -7c-78.667 0 -149.834 14 -213.501 42s-117.834 66.333 -162.501 115s-79 105.334 -103 170.001
s-36 134 -36 208s12 143.333 36 208s58.333 121.334 103 170.001s98.834 87 162.501 115s134.834 42 213.501 42c28 0 53.833 -2.33301 77.5 -7s45.334 -11 65.001 -19s37.5 -17 53.5 -27s30 -20.333 42 -31c28.667 -24.667 51.667 -52.667 69 -84v148h328zM655 231.998
c38.667 0 73.334 7.5 104.001 22.5s56.667 35.167 78 60.5s37.5 55.166 48.5 89.499s16.5 71.166 16.5 110.499c0 38.667 -5.5 75.334 -16.5 110.001s-27.167 64.667 -48.5 90s-47.333 45.5 -78 60.5s-65.334 22.5 -104.001 22.5c-39.333 0 -74.166 -7.5 -104.499 -22.5
s-56.166 -35.167 -77.499 -60.5s-37.5 -55.333 -48.5 -90s-16.5 -71.334 -16.5 -110.001c0 -39.333 5.5 -76.166 16.5 -110.499s27.167 -64.166 48.5 -89.499s47.166 -45.5 77.499 -60.5s65.166 -22.5 104.499 -22.5zM687 1168c-62 0 -115.5 8.33301 -160.5 25
s-82.5 38 -112.5 64s-53.167 54.667 -69.5 86s-26.833 61.666 -31.5 90.999h192c12 -30 32.5 -53.833 61.5 -71.5s69.167 -26.5 120.5 -26.5s91.5 8.83301 120.5 26.5s49.5 41.5 61.5 71.5h192c-4.66699 -29.333 -15.167 -59.666 -31.5 -90.999s-39.5 -60 -69.5 -86
s-67.5 -47.333 -112.5 -64s-98.5 -25 -160.5 -25z" />
    <glyph glyph-name="Aogonek" unicode="&#x104;" horiz-adv-x="1736" 
d="M1153 268l-622 -0.000976562l-119 -268h-362l651 1434h282l651 -1434c-24.667 -7.33301 -46.334 -17.333 -65.001 -30c-16.667 -11.333 -31.667 -26 -45 -44s-20 -40.333 -20 -67c0 -14 2.5 -26.167 7.5 -36.5s11.833 -19.333 20.5 -27s18.5 -14.167 29.5 -19.5
s22.167 -9.66602 33.5 -12.999c26.667 -8 57 -12.667 91 -14v-247c-28.667 0 -58.834 1.66699 -90.501 5s-63.167 8.83301 -94.5 16.5s-61.166 18.334 -89.499 32.001s-53.333 31 -75 52s-39 45.833 -52 74.5s-19.5 62.334 -19.5 101.001c0 26.667 3.5 50.5 10.5 71.5
s15.667 39.333 26 55s21.5 29.167 33.5 40.5s23.333 20.666 34 27.999s19.834 12.666 27.501 15.999s12.167 5.33301 13.5 6h-138zM659 556.999h365l-182 410z" />
    <glyph glyph-name="aogonek" unicode="&#x105;" horiz-adv-x="1402" 
d="M1230 1030v-1030c-24.667 -7.33301 -46.334 -17.333 -65.001 -30c-16.667 -11.333 -31.667 -26 -45 -44s-20 -40.333 -20 -67c0 -14 2.5 -26.167 7.5 -36.5s11.833 -19.333 20.5 -27s18.5 -14.167 29.5 -19.5s22.167 -9.66602 33.5 -12.999c26.667 -8 57 -12.667 91 -14
v-247c-28.667 0 -58.834 1.66699 -90.501 5s-63.167 8.83301 -94.5 16.5s-61.166 18.334 -89.499 32.001s-53.333 31 -75 52s-39 45.833 -52 74.5s-19.5 62.334 -19.5 101.001c0 26.667 3.5 50.5 10.5 71.5s15.667 39.333 26 55s21.5 29.167 33.5 40.5
s23.333 20.666 34 27.999s19.834 12.666 27.501 15.999s12.167 5.33301 13.5 6h-104v147l-19 -29.5c-11.333 -17.667 -29.333 -36.667 -54 -57s-56.167 -38.833 -94.5 -55.5s-84.833 -25 -139.5 -25c-78.667 0 -149.834 14 -213.501 42s-117.834 66.333 -162.501 115
s-79 105.334 -103 170.001s-36 134 -36 208s12 143.333 36 208s58.333 121.334 103 170.001s98.834 87 162.501 115s134.834 42 213.501 42c54.667 0 101.167 -8.33301 139.5 -25s69.833 -35.334 94.5 -56.001s42.667 -39.834 54 -57.501l19 -29.5v148h328zM655 231.999
c38.667 0 73.334 7.5 104.001 22.5s56.667 35.167 78 60.5s37.5 55.166 48.5 89.499s16.5 71.166 16.5 110.499c0 38.667 -5.5 75.334 -16.5 110.001s-27.167 64.667 -48.5 90s-47.333 45.5 -78 60.5s-65.334 22.5 -104.001 22.5c-39.333 0 -74.166 -7.5 -104.499 -22.5
s-56.166 -35.167 -77.499 -60.5s-37.5 -55.333 -48.5 -90s-16.5 -71.334 -16.5 -110.001c0 -39.333 5.5 -76.166 16.5 -110.499s27.167 -64.166 48.5 -89.499s47.166 -45.5 77.499 -60.5s65.166 -22.5 104.499 -22.5z" />
    <glyph glyph-name="Cacute" unicode="&#x106;" horiz-adv-x="1600" 
d="M844 269c58 0 106.668 8.16797 146.001 24.501s70.666 34.166 93.999 53.499c27.333 22.667 49 49 65 79h371c-28 -83.333 -71.333 -157.666 -130 -222.999c-25.333 -28 -55 -55.333 -89 -82s-73.333 -50.5 -118 -71.5s-95 -37.833 -151 -50.5s-118.667 -19 -188 -19
c-109.333 0 -209.5 18.833 -300.5 56.5s-169.333 89.5 -235 155.5s-116.834 144 -153.501 234s-55 187 -55 291s18.333 201 55 291s87.834 168 153.501 234s144 117.833 235 155.5s191.167 56.5 300.5 56.5c69.333 0 132 -6.33301 188 -19s106.333 -29.5 151 -50.5
s84 -44.833 118 -71.5s63.667 -54 89 -82c58.667 -66 102 -140.333 130 -223h-371c-16 29.333 -37.667 55.333 -65 78c-12 10 -25.667 19.667 -41 29s-33 17.666 -53 24.999s-42.167 13.333 -66.5 18s-50.833 7 -79.5 7c-59.333 0 -114.166 -10.333 -164.499 -31
s-93.666 -50.334 -129.999 -89.001s-64.833 -85.667 -85.5 -141s-31 -117.666 -31 -186.999s10.333 -131.666 31 -186.999s49.167 -102.333 85.5 -141s79.666 -68.334 129.999 -89.001s105.166 -31 164.499 -31zM969.001 1878h333l-314 -310h-270z" />
    <glyph glyph-name="cacute" unicode="&#x107;" horiz-adv-x="1245" 
d="M1185 344c-22 -68 -56.333 -128.672 -103 -182.005c-20 -22.667 -43.333 -45 -70 -67s-57.5 -41.5 -92.5 -58.5s-74.333 -30.667 -118 -41s-92.5 -15.5 -146.5 -15.5c-84 0 -161.167 13.167 -231.5 39.5s-131 63 -182 110s-90.667 103.333 -119 169
s-42.5 137.834 -42.5 216.501s14.167 150.834 42.5 216.501s68 122 119 169s111.667 83.667 182 110s147.5 39.5 231.5 39.5c54 0 102.833 -5.16699 146.5 -15.5s83 -24 118 -41s65.833 -36.5 92.5 -58.5s50 -44.333 70 -67c46.667 -53.333 81 -114 103 -182h-335
c-12 20.667 -27 39.334 -45 56.001c-15.333 14 -35.333 26.833 -60 38.5s-54.667 17.5 -90 17.5c-39.333 0 -74.166 -7.5 -104.499 -22.5s-56.166 -35.167 -77.499 -60.5s-37.5 -55.333 -48.5 -90s-16.5 -71.334 -16.5 -110.001c0 -39.333 5.5 -76.166 16.5 -110.499
s27.167 -64.166 48.5 -89.499s47.166 -45.5 77.499 -60.5s65.166 -22.5 104.499 -22.5c35.333 0 65.333 5.83301 90 17.5s44.667 24.5 60 38.5c18 16.667 33 35.334 45 56.001h335zM765 1434h333l-314 -310h-270z" />
    <glyph glyph-name="Ccircumflex" unicode="&#x108;" horiz-adv-x="1600" 
d="M844 269c58 0 106.668 8.16797 146.001 24.501s70.666 34.166 93.999 53.499c27.333 22.667 49 49 65 79h371c-28 -83.333 -71.333 -157.666 -130 -222.999c-25.333 -28 -55 -55.333 -89 -82s-73.333 -50.5 -118 -71.5s-95 -37.833 -151 -50.5s-118.667 -19 -188 -19
c-109.333 0 -209.5 18.833 -300.5 56.5s-169.333 89.5 -235 155.5s-116.834 144 -153.501 234s-55 187 -55 291s18.333 201 55 291s87.834 168 153.501 234s144 117.833 235 155.5s191.167 56.5 300.5 56.5c69.333 0 132 -6.33301 188 -19s106.333 -29.5 151 -50.5
s84 -44.833 118 -71.5s63.667 -54 89 -82c58.667 -66 102 -140.333 130 -223h-371c-16 29.333 -37.667 55.333 -65 78c-12 10 -25.667 19.667 -41 29s-33 17.666 -53 24.999s-42.167 13.333 -66.5 18s-50.833 7 -79.5 7c-59.333 0 -114.166 -10.333 -164.499 -31
s-93.666 -50.334 -129.999 -89.001s-64.833 -85.667 -85.5 -141s-31 -117.666 -31 -186.999s10.333 -131.666 31 -186.999s49.167 -102.333 85.5 -141s79.666 -68.334 129.999 -89.001s105.166 -31 164.499 -31zM1236 1566h-248l-156 109l-156 -109h-248l301 291h206z" />
    <glyph glyph-name="ccircumflex" unicode="&#x109;" horiz-adv-x="1245" 
d="M1185 344c-22 -68 -56.333 -128.672 -103 -182.005c-20 -22.667 -43.333 -45 -70 -67s-57.5 -41.5 -92.5 -58.5s-74.333 -30.667 -118 -41s-92.5 -15.5 -146.5 -15.5c-84 0 -161.167 13.167 -231.5 39.5s-131 63 -182 110s-90.667 103.333 -119 169
s-42.5 137.834 -42.5 216.501s14.167 150.834 42.5 216.501s68 122 119 169s111.667 83.667 182 110s147.5 39.5 231.5 39.5c54 0 102.833 -5.16699 146.5 -15.5s83 -24 118 -41s65.833 -36.5 92.5 -58.5s50 -44.333 70 -67c46.667 -53.333 81 -114 103 -182h-335
c-12 20.667 -27 39.334 -45 56.001c-15.333 14 -35.333 26.833 -60 38.5s-54.667 17.5 -90 17.5c-39.333 0 -74.166 -7.5 -104.499 -22.5s-56.166 -35.167 -77.499 -60.5s-37.5 -55.333 -48.5 -90s-16.5 -71.334 -16.5 -110.001c0 -39.333 5.5 -76.166 16.5 -110.499
s27.167 -64.166 48.5 -89.499s47.166 -45.5 77.499 -60.5s65.166 -22.5 104.499 -22.5c35.333 0 65.333 5.83301 90 17.5s44.667 24.5 60 38.5c18 16.667 33 35.334 45 56.001h335zM1045 1143h-248l-156 109l-156 -109h-248l301 291h206z" />
    <glyph glyph-name="Cdotaccent" unicode="&#x10a;" horiz-adv-x="1600" 
d="M844 269c58 0 106.668 8.16797 146.001 24.501s70.666 34.166 93.999 53.499c27.333 22.667 49 49 65 79h371c-28 -83.333 -71.333 -157.666 -130 -222.999c-25.333 -28 -55 -55.333 -89 -82s-73.333 -50.5 -118 -71.5s-95 -37.833 -151 -50.5s-118.667 -19 -188 -19
c-109.333 0 -209.5 18.833 -300.5 56.5s-169.333 89.5 -235 155.5s-116.834 144 -153.501 234s-55 187 -55 291s18.333 201 55 291s87.834 168 153.501 234s144 117.833 235 155.5s191.167 56.5 300.5 56.5c69.333 0 132 -6.33301 188 -19s106.333 -29.5 151 -50.5
s84 -44.833 118 -71.5s63.667 -54 89 -82c58.667 -66 102 -140.333 130 -223h-371c-16 29.333 -37.667 55.333 -65 78c-12 10 -25.667 19.667 -41 29s-33 17.666 -53 24.999s-42.167 13.333 -66.5 18s-50.833 7 -79.5 7c-59.333 0 -114.166 -10.333 -164.499 -31
s-93.666 -50.334 -129.999 -89.001s-64.833 -85.667 -85.5 -141s-31 -117.666 -31 -186.999s10.333 -131.666 31 -186.999s49.167 -102.333 85.5 -141s79.666 -68.334 129.999 -89.001s105.166 -31 164.499 -31zM662.001 1738c0 24 4.5 46.333 13.5 67
s21.333 38.834 37 54.501s33.834 28 54.501 37s43 13.5 67 13.5s46.333 -4.5 67 -13.5s38.834 -21.333 54.501 -37s28 -33.834 37 -54.501s13.5 -43 13.5 -67s-4.5 -46.333 -13.5 -67s-21.333 -38.834 -37 -54.501s-33.834 -28 -54.501 -37s-43 -13.5 -67 -13.5
s-46.333 4.5 -67 13.5s-38.834 21.333 -54.501 37s-28 33.834 -37 54.501s-13.5 43 -13.5 67z" />
    <glyph glyph-name="cdotaccent" unicode="&#x10b;" horiz-adv-x="1245" 
d="M1185 344c-22 -68 -56.333 -128.672 -103 -182.005c-20 -22.667 -43.333 -45 -70 -67s-57.5 -41.5 -92.5 -58.5s-74.333 -30.667 -118 -41s-92.5 -15.5 -146.5 -15.5c-84 0 -161.167 13.167 -231.5 39.5s-131 63 -182 110s-90.667 103.333 -119 169
s-42.5 137.834 -42.5 216.501s14.167 150.834 42.5 216.501s68 122 119 169s111.667 83.667 182 110s147.5 39.5 231.5 39.5c54 0 102.833 -5.16699 146.5 -15.5s83 -24 118 -41s65.833 -36.5 92.5 -58.5s50 -44.333 70 -67c46.667 -53.333 81 -114 103 -182h-335
c-12 20.667 -27 39.334 -45 56.001c-15.333 14 -35.333 26.833 -60 38.5s-54.667 17.5 -90 17.5c-39.333 0 -74.166 -7.5 -104.499 -22.5s-56.166 -35.167 -77.499 -60.5s-37.5 -55.333 -48.5 -90s-16.5 -71.334 -16.5 -110.001c0 -39.333 5.5 -76.166 16.5 -110.499
s27.167 -64.166 48.5 -89.499s47.166 -45.5 77.499 -60.5s65.166 -22.5 104.499 -22.5c35.333 0 65.333 5.83301 90 17.5s44.667 24.5 60 38.5c18 16.667 33 35.334 45 56.001h335zM467 1334c0 24 4.5 46.333 13.5 67s21.333 38.834 37 54.501s33.834 28 54.501 37
s43 13.5 67 13.5s46.333 -4.5 67 -13.5s38.834 -21.333 54.501 -37s28 -33.834 37 -54.501s13.5 -43 13.5 -67s-4.5 -46.333 -13.5 -67s-21.333 -38.834 -37 -54.501s-33.834 -28 -54.501 -37s-43 -13.5 -67 -13.5s-46.333 4.5 -67 13.5s-38.834 21.333 -54.501 37
s-28 33.834 -37 54.501s-13.5 43 -13.5 67z" />
    <glyph glyph-name="Ccaron" unicode="&#x10c;" horiz-adv-x="1600" 
d="M844 269c58 0 106.668 8.16797 146.001 24.501s70.666 34.166 93.999 53.499c27.333 22.667 49 49 65 79h371c-28 -83.333 -71.333 -157.666 -130 -222.999c-25.333 -28 -55 -55.333 -89 -82s-73.333 -50.5 -118 -71.5s-95 -37.833 -151 -50.5s-118.667 -19 -188 -19
c-109.333 0 -209.5 18.833 -300.5 56.5s-169.333 89.5 -235 155.5s-116.834 144 -153.501 234s-55 187 -55 291s18.333 201 55 291s87.834 168 153.501 234s144 117.833 235 155.5s191.167 56.5 300.5 56.5c69.333 0 132 -6.33301 188 -19s106.333 -29.5 151 -50.5
s84 -44.833 118 -71.5s63.667 -54 89 -82c58.667 -66 102 -140.333 130 -223h-371c-16 29.333 -37.667 55.333 -65 78c-12 10 -25.667 19.667 -41 29s-33 17.666 -53 24.999s-42.167 13.333 -66.5 18s-50.833 7 -79.5 7c-59.333 0 -114.166 -10.333 -164.499 -31
s-93.666 -50.334 -129.999 -89.001s-64.833 -85.667 -85.5 -141s-31 -117.666 -31 -186.999s10.333 -131.666 31 -186.999s49.167 -102.333 85.5 -141s79.666 -68.334 129.999 -89.001s105.166 -31 164.499 -31zM936.001 1566h-206l-301 291h248l156 -109l156 109h248z" />
    <glyph glyph-name="ccaron" unicode="&#x10d;" horiz-adv-x="1245" 
d="M1185 344c-22 -68 -56.333 -128.672 -103 -182.005c-20 -22.667 -43.333 -45 -70 -67s-57.5 -41.5 -92.5 -58.5s-74.333 -30.667 -118 -41s-92.5 -15.5 -146.5 -15.5c-84 0 -161.167 13.167 -231.5 39.5s-131 63 -182 110s-90.667 103.333 -119 169
s-42.5 137.834 -42.5 216.501s14.167 150.834 42.5 216.501s68 122 119 169s111.667 83.667 182 110s147.5 39.5 231.5 39.5c54 0 102.833 -5.16699 146.5 -15.5s83 -24 118 -41s65.833 -36.5 92.5 -58.5s50 -44.333 70 -67c46.667 -53.333 81 -114 103 -182h-335
c-12 20.667 -27 39.334 -45 56.001c-15.333 14 -35.333 26.833 -60 38.5s-54.667 17.5 -90 17.5c-39.333 0 -74.166 -7.5 -104.499 -22.5s-56.166 -35.167 -77.499 -60.5s-37.5 -55.333 -48.5 -90s-16.5 -71.334 -16.5 -110.001c0 -39.333 5.5 -76.166 16.5 -110.499
s27.167 -64.166 48.5 -89.499s47.166 -45.5 77.499 -60.5s65.166 -22.5 104.499 -22.5c35.333 0 65.333 5.83301 90 17.5s44.667 24.5 60 38.5c18 16.667 33 35.334 45 56.001h335zM753 1143h-206l-301 291h248l156 -109l156 109h248z" />
    <glyph glyph-name="Dcaron" unicode="&#x10e;" horiz-adv-x="1590" 
d="M140 0v1434h619c116 0 219.333 -18.333 310 -55s167.167 -87 229.5 -151s109.833 -139.667 142.5 -227s49 -182 49 -284s-16.333 -196.667 -49 -284s-80.167 -163 -142.5 -227s-138.833 -114.333 -229.5 -151s-194 -55 -310 -55h-619zM759 289
c64 0 120.833 10.333 170.5 31s91.334 49.667 125.001 87s59.167 82.333 76.5 135s26 111 26 175s-8.66699 122.333 -26 175s-42.833 97.667 -76.5 135s-75.334 66.333 -125.001 87s-106.5 31 -170.5 31h-286v-856h286zM792 1566h-206l-301 291h248l156 -109l156 109h248z
" />
    <glyph glyph-name="dcaron" unicode="&#x10f;" horiz-adv-x="1483" 
d="M1344 1516h299l-99 -432h-261zM1230 1516l0.00390625 -1516h-328v147l-19 -29.5c-11.333 -17.667 -29.166 -36.667 -53.499 -57s-55.833 -38.833 -94.5 -55.5s-85.334 -25 -140.001 -25c-78.667 0 -149.834 14 -213.501 42s-117.834 66.333 -162.501 115
s-79 105.334 -103 170.001s-36 134 -36 208s12 143.333 36 208s58.333 121.334 103 170.001s98.834 87 162.501 115s134.834 42 213.501 42c36.667 0 69.667 -4 99 -12s55.166 -18 77.499 -30s41.666 -25 57.999 -39s29.666 -27.333 39.999 -40
s18.166 -23.334 23.499 -32.001s8.33301 -13.667 9 -15v634h328zM655.004 231.999c38.667 0 73.334 7.5 104.001 22.5s56.667 35.167 78 60.5s37.5 55.166 48.5 89.499s16.5 71.166 16.5 110.499c0 38.667 -5.5 75.334 -16.5 110.001s-27.167 64.667 -48.5 90
s-47.333 45.5 -78 60.5s-65.334 22.5 -104.001 22.5c-39.333 0 -74.166 -7.5 -104.499 -22.5s-56.166 -35.167 -77.499 -60.5s-37.5 -55.333 -48.5 -90s-16.5 -71.334 -16.5 -110.001c0 -39.333 5.5 -76.166 16.5 -110.499s27.167 -64.166 48.5 -89.499
s47.166 -45.5 77.499 -60.5s65.166 -22.5 104.499 -22.5z" />
    <glyph glyph-name="Dcroat" unicode="&#x110;" horiz-adv-x="1771" 
d="M321 0v573h-241v289h241v572h619c116 0 219.333 -18.333 310 -55s167.167 -87 229.5 -151s109.833 -139.667 142.5 -227s49 -182 49 -284s-16.333 -196.667 -49 -284s-80.167 -163 -142.5 -227s-138.833 -114.333 -229.5 -151s-194 -55 -310 -55h-619zM940 289
c64 0 120.833 10.333 170.5 31s91.334 49.667 125.001 87s59.167 82.333 76.5 135s26 111 26 175s-8.66699 122.333 -26 175s-42.833 97.667 -76.5 135s-75.334 66.333 -125.001 87s-106.5 31 -170.5 31h-286v-283h296v-289h-296v-284h286z" />
    <glyph glyph-name="dcroat" unicode="&#x111;" horiz-adv-x="1350" 
d="M1230 1516l0.00390625 -154.001h190v-210h-190v-1152h-328v147l-19 -29.5c-11.333 -17.667 -29.166 -36.667 -53.499 -57s-55.833 -38.833 -94.5 -55.5s-85.334 -25 -140.001 -25c-78.667 0 -149.834 14 -213.501 42s-117.834 66.333 -162.501 115
s-79 105.334 -103 170.001s-36 134 -36 208s12 143.333 36 208s58.333 121.334 103 170.001s98.834 87 162.501 115s134.834 42 213.501 42c36.667 0 69.667 -4 99 -12s55.166 -18 77.499 -30s41.666 -25 57.999 -39s29.666 -27.333 39.999 -40
s18.166 -23.334 23.499 -32.001s8.33301 -13.667 9 -15v270h-282v210h282v154h328zM655.004 231.999c38.667 0 73.334 7.5 104.001 22.5s56.667 35.167 78 60.5s37.5 55.166 48.5 89.499s16.5 71.166 16.5 110.499c0 38.667 -5.5 75.334 -16.5 110.001
s-27.167 64.667 -48.5 90s-47.333 45.5 -78 60.5s-65.334 22.5 -104.001 22.5c-39.333 0 -74.166 -7.5 -104.499 -22.5s-56.166 -35.167 -77.499 -60.5s-37.5 -55.333 -48.5 -90s-16.5 -71.334 -16.5 -110.001c0 -39.333 5.5 -76.166 16.5 -110.499
s27.167 -64.166 48.5 -89.499s47.166 -45.5 77.499 -60.5s65.166 -22.5 104.499 -22.5z" />
    <glyph glyph-name="Emacron" unicode="&#x112;" horiz-adv-x="1433" 
d="M1214 876v-289h-741v-298h840v-289h-1173v1434h1165v-289h-832v-269h741zM281 1798h874v-232h-874v232z" />
    <glyph glyph-name="emacron" unicode="&#x113;" horiz-adv-x="1293" 
d="M1183 266c-28 -54 -66.333 -101.668 -115 -143.001c-20.667 -18 -44.667 -35.5 -72 -52.5s-58.5 -32.333 -93.5 -46s-73.833 -24.5 -116.5 -32.5s-89.667 -12 -141 -12c-84 0 -160.667 14 -230 42s-128.833 66.333 -178.5 115s-88.167 105.334 -115.5 170.001
s-41 134 -41 208s13.667 143.333 41 208s65.833 121.334 115.5 170.001s109.167 87 178.5 115s146 42 230 42s162.167 -14.333 234.5 -43s134.5 -70.834 186.5 -126.501s91.167 -124.334 117.5 -206.001s35.166 -175.167 26.499 -280.5h-784c16 -48 42.333 -87 79 -117
s83.334 -45 140.001 -45c26.667 0 50 1.66699 70 5s36.667 7.33301 50 12c16 4.66699 29.333 10.334 40 17.001h378zM645 797.999c-31.333 0 -59.498 -4.83301 -84.498 -14.5s-47 -23 -66 -40s-34.833 -37.167 -47.5 -60.5s-22.334 -49 -29.001 -77h454
c-6.66699 28 -16.334 53.667 -29.001 77s-28.5 43.5 -47.5 60.5s-41.167 30.333 -66.5 40s-53.333 14.5 -84 14.5zM216.002 1434h874v-232h-874v232z" />
    <glyph glyph-name="Ebreve" unicode="&#x114;" horiz-adv-x="1433" 
d="M1214 876v-289h-741v-298h840v-289h-1173v1434h1165v-289h-832v-269h741zM715 1566c-62 0 -115.5 8.33301 -160.5 25s-82.5 38 -112.5 64s-53.167 54.667 -69.5 86s-26.833 61.666 -31.5 90.999h192c12 -30 32.5 -53.833 61.5 -71.5s69.167 -26.5 120.5 -26.5
s91.5 8.83301 120.5 26.5s49.5 41.5 61.5 71.5h192c-4.66699 -29.333 -15.167 -59.666 -31.5 -90.999s-39.5 -60 -69.5 -86s-67.5 -47.333 -112.5 -64s-98.5 -25 -160.5 -25z" />
    <glyph glyph-name="ebreve" unicode="&#x115;" horiz-adv-x="1293" 
d="M1183 266c-28 -54 -66.333 -101.668 -115 -143.001c-20.667 -18 -44.667 -35.5 -72 -52.5s-58.5 -32.333 -93.5 -46s-73.833 -24.5 -116.5 -32.5s-89.667 -12 -141 -12c-84 0 -160.667 14 -230 42s-128.833 66.333 -178.5 115s-88.167 105.334 -115.5 170.001
s-41 134 -41 208s13.667 143.333 41 208s65.833 121.334 115.5 170.001s109.167 87 178.5 115s146 42 230 42s162.167 -14.333 234.5 -43s134.5 -70.834 186.5 -126.501s91.167 -124.334 117.5 -206.001s35.166 -175.167 26.499 -280.5h-784c16 -48 42.333 -87 79 -117
s83.334 -45 140.001 -45c26.667 0 50 1.66699 70 5s36.667 7.33301 50 12c16 4.66699 29.333 10.334 40 17.001h378zM645 797.999c-31.333 0 -59.498 -4.83301 -84.498 -14.5s-47 -23 -66 -40s-34.833 -37.167 -47.5 -60.5s-22.334 -49 -29.001 -77h454
c-6.66699 28 -16.334 53.667 -29.001 77s-28.5 43.5 -47.5 60.5s-41.167 30.333 -66.5 40s-53.333 14.5 -84 14.5zM639.002 1168c-62 0 -115.5 8.33301 -160.5 25s-82.5 38 -112.5 64s-53.167 54.667 -69.5 86s-26.833 61.666 -31.5 90.999h192
c12 -30 32.5 -53.833 61.5 -71.5s69.167 -26.5 120.5 -26.5s91.5 8.83301 120.5 26.5s49.5 41.5 61.5 71.5h192c-4.66699 -29.333 -15.167 -59.666 -31.5 -90.999s-39.5 -60 -69.5 -86s-67.5 -47.333 -112.5 -64s-98.5 -25 -160.5 -25z" />
    <glyph glyph-name="Edotaccent" unicode="&#x116;" horiz-adv-x="1433" 
d="M1214 876v-289h-741v-298h840v-289h-1173v1434h1165v-289h-832v-269h741zM554 1738c0 24 4.5 46.333 13.5 67s21.333 38.834 37 54.501s33.834 28 54.501 37s43 13.5 67 13.5s46.333 -4.5 67 -13.5s38.834 -21.333 54.501 -37s28 -33.834 37 -54.501s13.5 -43 13.5 -67
s-4.5 -46.333 -13.5 -67s-21.333 -38.834 -37 -54.501s-33.834 -28 -54.501 -37s-43 -13.5 -67 -13.5s-46.333 4.5 -67 13.5s-38.834 21.333 -54.501 37s-28 33.834 -37 54.501s-13.5 43 -13.5 67z" />
    <glyph glyph-name="edotaccent" unicode="&#x117;" horiz-adv-x="1293" 
d="M1183 266c-28 -54 -66.333 -101.668 -115 -143.001c-20.667 -18 -44.667 -35.5 -72 -52.5s-58.5 -32.333 -93.5 -46s-73.833 -24.5 -116.5 -32.5s-89.667 -12 -141 -12c-84 0 -160.667 14 -230 42s-128.833 66.333 -178.5 115s-88.167 105.334 -115.5 170.001
s-41 134 -41 208s13.667 143.333 41 208s65.833 121.334 115.5 170.001s109.167 87 178.5 115s146 42 230 42s162.167 -14.333 234.5 -43s134.5 -70.834 186.5 -126.501s91.167 -124.334 117.5 -206.001s35.166 -175.167 26.499 -280.5h-784c16 -48 42.333 -87 79 -117
s83.334 -45 140.001 -45c26.667 0 50 1.66699 70 5s36.667 7.33301 50 12c16 4.66699 29.333 10.334 40 17.001h378zM645 797.999c-31.333 0 -59.498 -4.83301 -84.498 -14.5s-47 -23 -66 -40s-34.833 -37.167 -47.5 -60.5s-22.334 -49 -29.001 -77h454
c-6.66699 28 -16.334 53.667 -29.001 77s-28.5 43.5 -47.5 60.5s-41.167 30.333 -66.5 40s-53.333 14.5 -84 14.5zM473.002 1334c0 24 4.5 46.333 13.5 67s21.333 38.834 37 54.501s33.834 28 54.501 37s43 13.5 67 13.5s46.333 -4.5 67 -13.5s38.834 -21.333 54.501 -37
s28 -33.834 37 -54.501s13.5 -43 13.5 -67s-4.5 -46.333 -13.5 -67s-21.333 -38.834 -37 -54.501s-33.834 -28 -54.501 -37s-43 -13.5 -67 -13.5s-46.333 4.5 -67 13.5s-38.834 21.333 -54.501 37s-28 33.834 -37 54.501s-13.5 43 -13.5 67z" />
    <glyph glyph-name="Eogonek" unicode="&#x118;" horiz-adv-x="1485" 
d="M1214 876v-289.001h-741v-298h840v-289c-24.667 -7.33301 -46.334 -17.333 -65.001 -30c-16.667 -11.333 -31.667 -26 -45 -44s-20 -40.333 -20 -67c0 -14 2.5 -26.167 7.5 -36.5s11.833 -19.333 20.5 -27s18.5 -14.167 29.5 -19.5s22.167 -9.66602 33.5 -12.999
c26.667 -8 57 -12.667 91 -14v-247c-28.667 0 -58.834 1.66699 -90.501 5s-63.167 8.83301 -94.5 16.5s-61.166 18.334 -89.499 32.001s-53.333 31 -75 52s-39 45.833 -52 74.5s-19.5 62.334 -19.5 101.001c0 26.667 3.5 50.5 10.5 71.5s15.667 39.333 26 55
s21.5 29.167 33.5 40.5s23.333 20.666 34 27.999s19.834 12.666 27.501 15.999s12.167 5.33301 13.5 6h-949v1434h1165v-289h-832v-269h741z" />
    <glyph glyph-name="eogonek" unicode="&#x119;" horiz-adv-x="1293" 
d="M1183 266c-20 -38.667 -46.334 -75.002 -79.001 -109.002c-14 -14.667 -30.167 -29.5 -48.5 -44.5s-39.166 -29.5 -62.499 -43.5s-49.166 -27 -77.499 -39s-59.5 -22 -93.5 -30c-24.667 -7.33301 -46.334 -17.333 -65.001 -30c-16.667 -11.333 -31.667 -26 -45 -44
s-20 -40.333 -20 -67c0 -14 2.5 -26.167 7.5 -36.5s11.833 -19.333 20.5 -27s18.5 -14.167 29.5 -19.5s22.167 -9.66602 33.5 -12.999c26.667 -8 57 -12.667 91 -14v-247c-28.667 0 -58.834 1.66699 -90.501 5s-63.167 8.83301 -94.5 16.5s-61.166 18.334 -89.499 32.001
s-53.333 31 -75 52s-39 45.833 -52 74.5s-19.5 62.334 -19.5 101.001c0 28.667 4 54.167 12 76.5s17.833 41.666 29.5 57.999s24.167 30 37.5 41s25.333 19.833 36 26.5c-73.333 8 -140 27.5 -200 58.5s-111.333 70 -154 117s-75.667 100.833 -99 161.5s-35 125 -35 193
c0 74 13.667 143.333 41 208s65.833 121.334 115.5 170.001s109.167 87 178.5 115s146 42 230 42s162.167 -14.333 234.5 -43s134.5 -70.834 186.5 -126.501s91.167 -124.334 117.5 -206.001s35.166 -175.167 26.499 -280.5h-784c16 -48 42.333 -87 79 -117
s83.334 -45 140.001 -45c26.667 0 50 1.66699 70 5s36.667 7.33301 50 12c16 4.66699 29.333 10.334 40 17.001h378zM644.999 797.998c-31.333 0 -59.498 -4.83301 -84.498 -14.5s-47 -23 -66 -40s-34.833 -37.167 -47.5 -60.5s-22.334 -49 -29.001 -77h454
c-6.66699 28 -16.334 53.667 -29.001 77s-28.5 43.5 -47.5 60.5s-41.167 30.333 -66.5 40s-53.333 14.5 -84 14.5z" />
    <glyph glyph-name="Ecaron" unicode="&#x11a;" horiz-adv-x="1433" 
d="M1214 876v-289h-741v-298h840v-289h-1173v1434h1165v-289h-832v-269h741zM826 1566h-206l-301 291h248l156 -109l156 109h248z" />
    <glyph glyph-name="ecaron" unicode="&#x11b;" horiz-adv-x="1293" 
d="M1183 266c-28 -54 -66.333 -101.668 -115 -143.001c-20.667 -18 -44.667 -35.5 -72 -52.5s-58.5 -32.333 -93.5 -46s-73.833 -24.5 -116.5 -32.5s-89.667 -12 -141 -12c-84 0 -160.667 14 -230 42s-128.833 66.333 -178.5 115s-88.167 105.334 -115.5 170.001
s-41 134 -41 208s13.667 143.333 41 208s65.833 121.334 115.5 170.001s109.167 87 178.5 115s146 42 230 42s162.167 -14.333 234.5 -43s134.5 -70.834 186.5 -126.501s91.167 -124.334 117.5 -206.001s35.166 -175.167 26.499 -280.5h-784c16 -48 42.333 -87 79 -117
s83.334 -45 140.001 -45c26.667 0 50 1.66699 70 5s36.667 7.33301 50 12c16 4.66699 29.333 10.334 40 17.001h378zM645 797.999c-31.333 0 -59.498 -4.83301 -84.498 -14.5s-47 -23 -66 -40s-34.833 -37.167 -47.5 -60.5s-22.334 -49 -29.001 -77h454
c-6.66699 28 -16.334 53.667 -29.001 77s-28.5 43.5 -47.5 60.5s-41.167 30.333 -66.5 40s-53.333 14.5 -84 14.5zM755.002 1143h-206l-301 291h248l156 -109l156 109h248z" />
    <glyph glyph-name="Gcircumflex" unicode="&#x11c;" horiz-adv-x="1701" 
d="M1144 1076c-19.333 16.667 -42.665 31.333 -69.998 44c-23.333 11.333 -52.5 21.666 -87.5 30.999s-75.833 14 -122.5 14c-62 0 -119.167 -9.83301 -171.5 -29.5s-97.833 -48.5 -136.5 -86.5s-68.834 -84.833 -90.501 -140.5s-32.5 -119.5 -32.5 -191.5
s10.833 -135.833 32.5 -191.5s51.834 -102.5 90.501 -140.5s84.167 -66.833 136.5 -86.5s109.5 -29.5 171.5 -29.5c61.333 0 115.166 8.5 161.499 25.5s85.666 40 117.999 69s57.5 62.667 75.5 101s29.667 79.166 35 122.499h-422v269h753
c12.667 -137.333 4.5 -260.166 -24.5 -368.499s-75.167 -200 -138.5 -275s-142.333 -132.5 -237 -172.5s-201.667 -60 -321 -60c-72.667 0 -142 7.83301 -208 23.5s-127.333 38.334 -184 68.001s-108 66 -154 109s-85.167 91.833 -117.5 146.5s-57.166 114.667 -74.499 180
s-26 135.333 -26 210s8.66699 144.667 26 210s42.166 125.333 74.499 180s71.5 103.5 117.5 146.5s97.333 79.333 154 109s118 52.334 184 68.001s135.333 23.5 208 23.5c60.667 0 116.834 -5.5 168.501 -16.5s99 -25.333 142 -43s81.667 -37.834 116 -60.501
s65.166 -45.667 92.499 -69c62.667 -56 114 -119 154 -189h-393zM1255 1566h-248l-156 109l-156 -109h-248l301 291h206z" />
    <glyph glyph-name="gcircumflex" unicode="&#x11d;" horiz-adv-x="1350" 
d="M1230 1030l-0.00390625 -980.002c0 -87.333 -10.333 -166.666 -31 -237.999s-54 -132.5 -100 -183.5s-105.667 -90.5 -179 -118.5s-162.333 -42 -267 -42c-52.667 0 -100.167 5.16699 -142.5 15.5s-80 24 -113 41s-61.833 36.167 -86.5 57.5s-46 43.333 -64 66
c-42 52.667 -72.333 113 -91 181h324c8 -20.667 20.667 -39 38 -55c14.667 -13.333 34.334 -25.666 59.001 -36.999s56.667 -17 96 -17c40.667 0 75.334 6.5 104.001 19.5s52.334 33.667 71.001 62s32.334 65.333 41.001 111s13 101.5 13 167.5v67l-19 -29.5
c-11.333 -17.667 -29.333 -36.667 -54 -57s-56.167 -38.833 -94.5 -55.5s-84.833 -25 -139.5 -25c-78.667 0 -149.834 14 -213.501 42s-117.834 66.333 -162.501 115s-79 105.334 -103 170.001s-36 134 -36 208s12 143.333 36 208s58.333 121.334 103 170.001
s98.834 87 162.501 115s134.834 42 213.501 42c54.667 0 101.167 -8.33301 139.5 -25s69.833 -35.334 94.5 -56.001s42.667 -39.834 54 -57.501l19 -29.5v148h328zM654.996 231.998c38.667 0 73.334 7.5 104.001 22.5s56.667 35.167 78 60.5s37.5 55.166 48.5 89.499
s16.5 71.166 16.5 110.499c0 38.667 -5.5 75.334 -16.5 110.001s-27.167 64.667 -48.5 90s-47.333 45.5 -78 60.5s-65.334 22.5 -104.001 22.5c-39.333 0 -74.166 -7.5 -104.499 -22.5s-56.166 -35.167 -77.499 -60.5s-37.5 -55.333 -48.5 -90s-16.5 -71.334 -16.5 -110.001
c0 -39.333 5.5 -76.166 16.5 -110.499s27.167 -64.166 48.5 -89.499s47.166 -45.5 77.499 -60.5s65.166 -22.5 104.499 -22.5zM1089 1143h-248l-156 109l-156 -109h-248l301 291h206z" />
    <glyph glyph-name="Gbreve" unicode="&#x11e;" horiz-adv-x="1701" 
d="M1144 1076c-19.333 16.667 -42.665 31.333 -69.998 44c-23.333 11.333 -52.5 21.666 -87.5 30.999s-75.833 14 -122.5 14c-62 0 -119.167 -9.83301 -171.5 -29.5s-97.833 -48.5 -136.5 -86.5s-68.834 -84.833 -90.501 -140.5s-32.5 -119.5 -32.5 -191.5
s10.833 -135.833 32.5 -191.5s51.834 -102.5 90.501 -140.5s84.167 -66.833 136.5 -86.5s109.5 -29.5 171.5 -29.5c61.333 0 115.166 8.5 161.499 25.5s85.666 40 117.999 69s57.5 62.667 75.5 101s29.667 79.166 35 122.499h-422v269h753
c12.667 -137.333 4.5 -260.166 -24.5 -368.499s-75.167 -200 -138.5 -275s-142.333 -132.5 -237 -172.5s-201.667 -60 -321 -60c-72.667 0 -142 7.83301 -208 23.5s-127.333 38.334 -184 68.001s-108 66 -154 109s-85.167 91.833 -117.5 146.5s-57.166 114.667 -74.499 180
s-26 135.333 -26 210s8.66699 144.667 26 210s42.166 125.333 74.499 180s71.5 103.5 117.5 146.5s97.333 79.333 154 109s118 52.334 184 68.001s135.333 23.5 208 23.5c60.667 0 116.834 -5.5 168.501 -16.5s99 -25.333 142 -43s81.667 -37.834 116 -60.501
s65.166 -45.667 92.499 -69c62.667 -56 114 -119 154 -189h-393zM842.001 1566c-62 0 -115.5 8.33301 -160.5 25s-82.5 38 -112.5 64s-53.167 54.667 -69.5 86s-26.833 61.666 -31.5 90.999h192c12 -30 32.5 -53.833 61.5 -71.5s69.167 -26.5 120.5 -26.5
s91.5 8.83301 120.5 26.5s49.5 41.5 61.5 71.5h192c-4.66699 -29.333 -15.167 -59.666 -31.5 -90.999s-39.5 -60 -69.5 -86s-67.5 -47.333 -112.5 -64s-98.5 -25 -160.5 -25z" />
    <glyph glyph-name="gbreve" unicode="&#x11f;" horiz-adv-x="1350" 
d="M1230 1030l-0.00390625 -980.002c0 -87.333 -10.333 -166.666 -31 -237.999s-54 -132.5 -100 -183.5s-105.667 -90.5 -179 -118.5s-162.333 -42 -267 -42c-52.667 0 -100.167 5.16699 -142.5 15.5s-80 24 -113 41s-61.833 36.167 -86.5 57.5s-46 43.333 -64 66
c-42 52.667 -72.333 113 -91 181h324c8 -20.667 20.667 -39 38 -55c14.667 -13.333 34.334 -25.666 59.001 -36.999s56.667 -17 96 -17c40.667 0 75.334 6.5 104.001 19.5s52.334 33.667 71.001 62s32.334 65.333 41.001 111s13 101.5 13 167.5v67l-19 -29.5
c-11.333 -17.667 -29.333 -36.667 -54 -57s-56.167 -38.833 -94.5 -55.5s-84.833 -25 -139.5 -25c-78.667 0 -149.834 14 -213.501 42s-117.834 66.333 -162.501 115s-79 105.334 -103 170.001s-36 134 -36 208s12 143.333 36 208s58.333 121.334 103 170.001
s98.834 87 162.501 115s134.834 42 213.501 42c54.667 0 101.167 -8.33301 139.5 -25s69.833 -35.334 94.5 -56.001s42.667 -39.834 54 -57.501l19 -29.5v148h328zM654.996 231.998c38.667 0 73.334 7.5 104.001 22.5s56.667 35.167 78 60.5s37.5 55.166 48.5 89.499
s16.5 71.166 16.5 110.499c0 38.667 -5.5 75.334 -16.5 110.001s-27.167 64.667 -48.5 90s-47.333 45.5 -78 60.5s-65.334 22.5 -104.001 22.5c-39.333 0 -74.166 -7.5 -104.499 -22.5s-56.166 -35.167 -77.499 -60.5s-37.5 -55.333 -48.5 -90s-16.5 -71.334 -16.5 -110.001
c0 -39.333 5.5 -76.166 16.5 -110.499s27.167 -64.166 48.5 -89.499s47.166 -45.5 77.499 -60.5s65.166 -22.5 104.499 -22.5zM684.996 1168c-62 0 -115.5 8.33301 -160.5 25s-82.5 38 -112.5 64s-53.167 54.667 -69.5 86s-26.833 61.666 -31.5 90.999h192
c12 -30 32.5 -53.833 61.5 -71.5s69.167 -26.5 120.5 -26.5s91.5 8.83301 120.5 26.5s49.5 41.5 61.5 71.5h192c-4.66699 -29.333 -15.167 -59.666 -31.5 -90.999s-39.5 -60 -69.5 -86s-67.5 -47.333 -112.5 -64s-98.5 -25 -160.5 -25z" />
    <glyph glyph-name="Gdotaccent" unicode="&#x120;" horiz-adv-x="1701" 
d="M1144 1076c-19.333 16.667 -42.665 31.333 -69.998 44c-23.333 11.333 -52.5 21.666 -87.5 30.999s-75.833 14 -122.5 14c-62 0 -119.167 -9.83301 -171.5 -29.5s-97.833 -48.5 -136.5 -86.5s-68.834 -84.833 -90.501 -140.5s-32.5 -119.5 -32.5 -191.5
s10.833 -135.833 32.5 -191.5s51.834 -102.5 90.501 -140.5s84.167 -66.833 136.5 -86.5s109.5 -29.5 171.5 -29.5c61.333 0 115.166 8.5 161.499 25.5s85.666 40 117.999 69s57.5 62.667 75.5 101s29.667 79.166 35 122.499h-422v269h753
c12.667 -137.333 4.5 -260.166 -24.5 -368.499s-75.167 -200 -138.5 -275s-142.333 -132.5 -237 -172.5s-201.667 -60 -321 -60c-72.667 0 -142 7.83301 -208 23.5s-127.333 38.334 -184 68.001s-108 66 -154 109s-85.167 91.833 -117.5 146.5s-57.166 114.667 -74.499 180
s-26 135.333 -26 210s8.66699 144.667 26 210s42.166 125.333 74.499 180s71.5 103.5 117.5 146.5s97.333 79.333 154 109s118 52.334 184 68.001s135.333 23.5 208 23.5c60.667 0 116.834 -5.5 168.501 -16.5s99 -25.333 142 -43s81.667 -37.834 116 -60.501
s65.166 -45.667 92.499 -69c62.667 -56 114 -119 154 -189h-393zM689.001 1738c0 24 4.5 46.333 13.5 67s21.333 38.834 37 54.501s33.834 28 54.501 37s43 13.5 67 13.5s46.333 -4.5 67 -13.5s38.834 -21.333 54.501 -37s28 -33.834 37 -54.501s13.5 -43 13.5 -67
s-4.5 -46.333 -13.5 -67s-21.333 -38.834 -37 -54.501s-33.834 -28 -54.501 -37s-43 -13.5 -67 -13.5s-46.333 4.5 -67 13.5s-38.834 21.333 -54.501 37s-28 33.834 -37 54.501s-13.5 43 -13.5 67z" />
    <glyph glyph-name="gdotaccent" unicode="&#x121;" horiz-adv-x="1350" 
d="M1230 1030l-0.00390625 -980.002c0 -87.333 -10.333 -166.666 -31 -237.999s-54 -132.5 -100 -183.5s-105.667 -90.5 -179 -118.5s-162.333 -42 -267 -42c-52.667 0 -100.167 5.16699 -142.5 15.5s-80 24 -113 41s-61.833 36.167 -86.5 57.5s-46 43.333 -64 66
c-42 52.667 -72.333 113 -91 181h324c8 -20.667 20.667 -39 38 -55c14.667 -13.333 34.334 -25.666 59.001 -36.999s56.667 -17 96 -17c40.667 0 75.334 6.5 104.001 19.5s52.334 33.667 71.001 62s32.334 65.333 41.001 111s13 101.5 13 167.5v67l-19 -29.5
c-11.333 -17.667 -29.333 -36.667 -54 -57s-56.167 -38.833 -94.5 -55.5s-84.833 -25 -139.5 -25c-78.667 0 -149.834 14 -213.501 42s-117.834 66.333 -162.501 115s-79 105.334 -103 170.001s-36 134 -36 208s12 143.333 36 208s58.333 121.334 103 170.001
s98.834 87 162.501 115s134.834 42 213.501 42c54.667 0 101.167 -8.33301 139.5 -25s69.833 -35.334 94.5 -56.001s42.667 -39.834 54 -57.501l19 -29.5v148h328zM654.996 231.998c38.667 0 73.334 7.5 104.001 22.5s56.667 35.167 78 60.5s37.5 55.166 48.5 89.499
s16.5 71.166 16.5 110.499c0 38.667 -5.5 75.334 -16.5 110.001s-27.167 64.667 -48.5 90s-47.333 45.5 -78 60.5s-65.334 22.5 -104.001 22.5c-39.333 0 -74.166 -7.5 -104.499 -22.5s-56.166 -35.167 -77.499 -60.5s-37.5 -55.333 -48.5 -90s-16.5 -71.334 -16.5 -110.001
c0 -39.333 5.5 -76.166 16.5 -110.499s27.167 -64.166 48.5 -89.499s47.166 -45.5 77.499 -60.5s65.166 -22.5 104.499 -22.5zM508.996 1334c0 24 4.5 46.333 13.5 67s21.333 38.834 37 54.501s33.834 28 54.501 37s43 13.5 67 13.5s46.333 -4.5 67 -13.5
s38.834 -21.333 54.501 -37s28 -33.834 37 -54.501s13.5 -43 13.5 -67s-4.5 -46.333 -13.5 -67s-21.333 -38.834 -37 -54.501s-33.834 -28 -54.501 -37s-43 -13.5 -67 -13.5s-46.333 4.5 -67 13.5s-38.834 21.333 -54.501 37s-28 33.834 -37 54.501s-13.5 43 -13.5 67z" />
    <glyph glyph-name="Gcommaaccent" unicode="&#x122;" horiz-adv-x="1701" 
d="M1144 1076c-19.333 16.667 -42.665 31.333 -69.998 44c-23.333 11.333 -52.5 21.666 -87.5 30.999s-75.833 14 -122.5 14c-62 0 -119.167 -9.83301 -171.5 -29.5s-97.833 -48.5 -136.5 -86.5s-68.834 -84.833 -90.501 -140.5s-32.5 -119.5 -32.5 -191.5
s10.833 -135.833 32.5 -191.5s51.834 -102.5 90.501 -140.5s84.167 -66.833 136.5 -86.5s109.5 -29.5 171.5 -29.5c61.333 0 115.166 8.5 161.499 25.5s85.666 40 117.999 69s57.5 62.667 75.5 101s29.667 79.166 35 122.499h-422v269h753
c12.667 -137.333 4.5 -260.166 -24.5 -368.499s-75.167 -200 -138.5 -275s-142.333 -132.5 -237 -172.5s-201.667 -60 -321 -60c-72.667 0 -142 7.83301 -208 23.5s-127.333 38.334 -184 68.001s-108 66 -154 109s-85.167 91.833 -117.5 146.5s-57.166 114.667 -74.499 180
s-26 135.333 -26 210s8.66699 144.667 26 210s42.166 125.333 74.499 180s71.5 103.5 117.5 146.5s97.333 79.333 154 109s118 52.334 184 68.001s135.333 23.5 208 23.5c60.667 0 116.834 -5.5 168.501 -16.5s99 -25.333 142 -43s81.667 -37.834 116 -60.501
s65.166 -45.667 92.499 -69c62.667 -56 114 -119 154 -189h-393zM696.001 -80.001h319l-249 -542h-281z" />
    <glyph glyph-name="gcommaaccent" unicode="&#x123;" horiz-adv-x="1350" 
d="M1230 1030l-0.00390625 -980.002c0 -87.333 -10.333 -166.666 -31 -237.999s-54 -132.5 -100 -183.5s-105.667 -90.5 -179 -118.5s-162.333 -42 -267 -42c-52.667 0 -100.167 5.16699 -142.5 15.5s-80 24 -113 41s-61.833 36.167 -86.5 57.5s-46 43.333 -64 66
c-42 52.667 -72.333 113 -91 181h324c8 -20.667 20.667 -39 38 -55c14.667 -13.333 34.334 -25.666 59.001 -36.999s56.667 -17 96 -17c40.667 0 75.334 6.5 104.001 19.5s52.334 33.667 71.001 62s32.334 65.333 41.001 111s13 101.5 13 167.5v67l-19 -29.5
c-11.333 -17.667 -29.333 -36.667 -54 -57s-56.167 -38.833 -94.5 -55.5s-84.833 -25 -139.5 -25c-78.667 0 -149.834 14 -213.501 42s-117.834 66.333 -162.501 115s-79 105.334 -103 170.001s-36 134 -36 208s12 143.333 36 208s58.333 121.334 103 170.001
s98.834 87 162.501 115s134.834 42 213.501 42c54.667 0 101.167 -8.33301 139.5 -25s69.833 -35.334 94.5 -56.001s42.667 -39.834 54 -57.501l19 -29.5v148h328zM654.996 231.998c38.667 0 73.334 7.5 104.001 22.5s56.667 35.167 78 60.5s37.5 55.166 48.5 89.499
s16.5 71.166 16.5 110.499c0 38.667 -5.5 75.334 -16.5 110.001s-27.167 64.667 -48.5 90s-47.333 45.5 -78 60.5s-65.334 22.5 -104.001 22.5c-39.333 0 -74.166 -7.5 -104.499 -22.5s-56.166 -35.167 -77.499 -60.5s-37.5 -55.333 -48.5 -90s-16.5 -71.334 -16.5 -110.001
c0 -39.333 5.5 -76.166 16.5 -110.499s27.167 -64.166 48.5 -89.499s47.166 -45.5 77.499 -60.5s65.166 -22.5 104.499 -22.5zM1090 1143h-248l-156 109l-156 -109h-248l301 291h206z" />
    <glyph glyph-name="Hcircumflex" unicode="&#x124;" horiz-adv-x="1608" 
d="M1135 1434h333v-1434h-333v587h-662v-587h-333v1434h333v-558h662v558zM1208 1566h-248l-156 109l-156 -109h-248l301 291h206z" />
    <glyph glyph-name="hcircumflex" unicode="&#x125;" 
d="M1188 0h-328.002v503c0 44.667 -3.33301 85.334 -10 122.001s-18 67.667 -34 93s-37.167 45 -63.5 59s-59.166 21 -98.499 21s-72.166 -7 -98.499 -21s-47.5 -33.667 -63.5 -59s-27.333 -56.333 -34 -93s-10 -77.334 -10 -122.001v-503h-328v1516h328v-627
c0.666992 1.33301 2.83398 6.33301 6.50098 15s9.66699 19 18 31s19.333 24.667 33 38s30.5 25.666 50.5 36.999s43.667 20.833 71 28.5s59 11.5 95 11.5c85.333 0 157.666 -13.667 216.999 -41s107.5 -65.166 144.5 -113.499s63.667 -106 80 -173
s24.5 -140.167 24.5 -219.5v-503zM1066 1536h-248l-156 109l-156 -109h-248l301 291h206z" />
    <glyph glyph-name="Hbar" unicode="&#x126;" horiz-adv-x="1752" 
d="M1702 1039h-162v-1039h-333v587h-662v-587h-333v1039h-162v219h162v176h333v-176h662v176h333v-176h162v-219zM1207 1039h-662v-163h662v163z" />
    <glyph glyph-name="hbar" unicode="&#x127;" 
d="M1188 0h-328.002v503c0 44.667 -3.33301 85.334 -10 122.001s-18 67.667 -34 93s-37.167 45 -63.5 59s-59.166 21 -98.499 21s-72.166 -7 -98.499 -21s-47.5 -33.667 -63.5 -59s-27.333 -56.333 -34 -93s-10 -77.334 -10 -122.001v-503h-328v1152h-190v210h190v154h328
v-154h282v-210h-282v-263c0.666992 1.33301 2.83398 6.33301 6.50098 15s9.66699 19 18 31s19.333 24.667 33 38s30.5 25.666 50.5 36.999s43.667 20.833 71 28.5s59 11.5 95 11.5c85.333 0 157.666 -13.667 216.999 -41s107.5 -65.166 144.5 -113.499s63.667 -106 80 -173
s24.5 -140.167 24.5 -219.5v-503z" />
    <glyph glyph-name="Itilde" unicode="&#x128;" horiz-adv-x="583" 
d="M458 0h-333v1434h333v-1434zM263 1616c-19.333 16.667 -36.3359 28.5 -51.0029 35.5s-28.667 10.5 -42 10.5c-14.667 0 -26.167 -4.16699 -34.5 -12.5s-14.833 -17.166 -19.5 -26.499c-5.33301 -12 -9 -25 -11 -39h-205c2.66699 51.333 13.667 97.666 33 138.999
c8 17.333 18.5 34.5 31.5 51.5s28.833 32 47.5 45s40.5 23.5 65.5 31.5s54.167 12 87.5 12c30.667 0 58.667 -4.66699 84 -14s49 -22.666 71 -39.999c19.333 -16.667 36.333 -28.5 51 -35.5s28.667 -10.5 42 -10.5c14 0 25.333 4 34 12s15.334 17 20.001 27
c5.33301 11.333 9 24.333 11 39h205c-3.33301 -52 -14.666 -98.667 -33.999 -140c-8 -17.333 -18.5 -34.333 -31.5 -51s-28.667 -31.5 -47 -44.5s-40.166 -23.5 -65.499 -31.5s-54.333 -12 -87 -12c-30.667 0 -58.667 4.66699 -84 14s-49 22.666 -71 39.999z" />
    <glyph glyph-name="itilde" unicode="&#x129;" horiz-adv-x="583" 
d="M263 1207c-19.333 16.667 -36.3359 28.5 -51.0029 35.5s-28.667 10.5 -42 10.5c-14.667 0 -26.167 -4.16699 -34.5 -12.5s-14.833 -17.166 -19.5 -26.499c-5.33301 -12 -9 -25 -11 -39h-205c2.66699 51.333 13.667 97.666 33 138.999c8 17.333 18.5 34.5 31.5 51.5
s28.833 32 47.5 45s40.5 23.5 65.5 31.5s54.167 12 87.5 12c30.667 0 58.667 -4.66699 84 -14s49 -22.666 71 -39.999c19.333 -16.667 36.333 -28.5 51 -35.5s28.667 -10.5 42 -10.5c14 0 25.333 4 34 12s15.334 17 20.001 27c5.33301 11.333 9 24.333 11 39h205
c-3.33301 -52 -14.666 -98.667 -33.999 -140c-8 -17.333 -18.5 -34.333 -31.5 -51s-28.667 -31.5 -47 -44.5s-40.166 -23.5 -65.499 -31.5s-54.333 -12 -87 -12c-30.667 0 -58.667 4.66699 -84 14s-49 22.666 -71 39.999zM126.997 0v1030h328v-1030h-328z" />
    <glyph glyph-name="uni012A" unicode="&#x12a;" horiz-adv-x="634" 
d="M484 0h-333v1434h333v-1434zM-120 1798h874v-232h-874v232z" />
    <glyph glyph-name="imacron" unicode="&#x12b;" horiz-adv-x="634" 
d="M-120 1434h874v-232h-874v232zM153 0v1030h328v-1030h-328z" />
    <glyph glyph-name="Ibreve" unicode="&#x12c;" horiz-adv-x="548" 
d="M441 0h-333v1434h333v-1434zM274 1566c-62 0 -115.5 8.33301 -160.5 25s-82.5 38 -112.5 64s-53.167 54.667 -69.5 86s-26.833 61.666 -31.5 90.999h192c12 -30 32.5 -53.833 61.5 -71.5s69.167 -26.5 120.5 -26.5s91.5 8.83301 120.5 26.5s49.5 41.5 61.5 71.5h192
c-4.66699 -29.333 -15.167 -59.666 -31.5 -90.999s-39.5 -60 -69.5 -86s-67.5 -47.333 -112.5 -64s-98.5 -25 -160.5 -25z" />
    <glyph glyph-name="ibreve" unicode="&#x12d;" horiz-adv-x="508" 
d="M90 0v1030h328v-1030h-328zM254 1168c-62 0 -115.5 8.33301 -160.5 25s-82.5 38 -112.5 64s-53.167 54.667 -69.5 86s-26.833 61.666 -31.5 90.999h192c12 -30 32.5 -53.833 61.5 -71.5s69.167 -26.5 120.5 -26.5s91.5 8.83301 120.5 26.5s49.5 41.5 61.5 71.5h192
c-4.66699 -29.333 -15.167 -59.666 -31.5 -90.999s-39.5 -60 -69.5 -86s-67.5 -47.333 -112.5 -64s-98.5 -25 -160.5 -25z" />
    <glyph glyph-name="Iogonek" unicode="&#x12e;" horiz-adv-x="581" 
d="M369 0c-24.667 -7.33301 -46.334 -17.334 -65.001 -30.001c-16.667 -11.333 -31.667 -26 -45 -44s-20 -40.333 -20 -67c0 -14 2.5 -26.167 7.5 -36.5s11.833 -19.333 20.5 -27s18.5 -14.167 29.5 -19.5s22.167 -9.66602 33.5 -12.999c26.667 -8 57 -12.667 91 -14v-247
c-28.667 0 -58.834 1.66699 -90.501 5s-63.167 8.83301 -94.5 16.5s-61.166 18.334 -89.499 32.001s-53.333 31 -75 52s-39 45.833 -52 74.5s-19.5 62.334 -19.5 101.001c0 26.667 3.5 50.5 10.5 71.5s15.667 39.333 26 55s21.5 29.167 33.5 40.5s23.333 20.666 34 27.999
s19.834 12.666 27.501 15.999s12.167 5.33301 13.5 6h-109v1434h333v-1434z" />
    <glyph glyph-name="iogonek" unicode="&#x12f;" horiz-adv-x="521" 
d="M21 1030l328 -0.000976562v-1030c-24.667 -7.33301 -46.334 -17.333 -65.001 -30c-16.667 -11.333 -31.667 -26 -45 -44s-20 -40.333 -20 -67c0 -14 2.5 -26.167 7.5 -36.5s11.833 -19.333 20.5 -27s18.5 -14.167 29.5 -19.5s22.167 -9.66602 33.5 -12.999
c26.667 -8 57 -12.667 91 -14v-247c-28.667 0 -58.834 1.66699 -90.501 5s-63.167 8.83301 -94.5 16.5s-61.166 18.334 -89.499 32.001s-53.333 31 -75 52s-39 45.833 -52 74.5s-19.5 62.334 -19.5 101.001c0 26.667 3.5 50.5 10.5 71.5s15.667 39.333 26 55
s21.5 29.167 33.5 40.5s23.333 20.666 34 27.999s19.834 12.666 27.501 15.999s12.167 5.33301 13.5 6h-104v1030zM13 1334c0 24 4.5 46.333 13.5 67s21.333 38.834 37 54.501s33.834 28 54.501 37s43 13.5 67 13.5s46.333 -4.5 67 -13.5s38.834 -21.333 54.501 -37
s28 -33.834 37 -54.501s13.5 -43 13.5 -67s-4.5 -46.333 -13.5 -67s-21.333 -38.834 -37 -54.501s-33.834 -28 -54.501 -37s-43 -13.5 -67 -13.5s-46.333 4.5 -67 13.5s-38.834 21.333 -54.501 37s-28 33.834 -37 54.501s-13.5 43 -13.5 67z" />
    <glyph glyph-name="Idotaccent" unicode="&#x130;" horiz-adv-x="664" 
d="M499 0h-333v1434h333v-1434zM160 1738c0 24 4.5 46.333 13.5 67s21.333 38.834 37 54.501s33.834 28 54.501 37s43 13.5 67 13.5s46.333 -4.5 67 -13.5s38.834 -21.333 54.501 -37s28 -33.834 37 -54.501s13.5 -43 13.5 -67s-4.5 -46.333 -13.5 -67
s-21.333 -38.834 -37 -54.501s-33.834 -28 -54.501 -37s-43 -13.5 -67 -13.5s-46.333 4.5 -67 13.5s-38.834 21.333 -54.501 37s-28 33.834 -37 54.501s-13.5 43 -13.5 67z" />
    <glyph glyph-name="dotlessi" unicode="&#x131;" horiz-adv-x="568" 
d="M120 0v1030h328v-1030h-328z" />
    <glyph glyph-name="IJ" unicode="&#x132;" horiz-adv-x="1944" 
d="M493 0h-333v1434h333v-1434zM982 465c6.66699 -36.667 19.6689 -69.334 39.002 -98.001c8 -12 18 -24 30 -36s26 -22.5 42 -31.5s34.667 -16.333 56 -22s45.666 -8.5 72.999 -8.5c46 0 83.833 7.33301 113.5 22s53 35 70 61s28.833 56.5 35.5 91.5s10 72.5 10 112.5v878
h333v-912c0 -87.333 -12.667 -164.666 -38 -231.999s-62 -124 -110 -170s-106.833 -80.833 -176.5 -104.5s-148.834 -35.5 -237.501 -35.5c-71.333 0 -134 7 -188 21s-101 32.333 -141 55s-73.833 48.5 -101.5 77.5s-50.5 58.5 -68.5 88.5c-42 70.667 -66 151.667 -72 243
h331z" />
    <glyph glyph-name="ij" unicode="&#x133;" horiz-adv-x="1175" 
d="M128 1030h328v-1030h-328v1030zM120 1334c0 24 4.5 46.333 13.5 67s21.333 38.834 37 54.501s33.834 28 54.501 37s43 13.5 67 13.5s46.333 -4.5 67 -13.5s38.834 -21.333 54.501 -37s28 -33.834 37 -54.501s13.5 -43 13.5 -67s-4.5 -46.333 -13.5 -67
s-21.333 -38.834 -37 -54.501s-33.834 -28 -54.501 -37s-43 -13.5 -67 -13.5s-46.333 4.5 -67 13.5s-38.834 21.333 -54.501 37s-28 33.834 -37 54.501s-13.5 43 -13.5 67zM711 1334c0 24 4.5 46.333 13.5 67s21.333 38.834 37 54.501s33.834 28 54.501 37s43 13.5 67 13.5
s46.333 -4.5 67 -13.5s38.834 -21.333 54.501 -37s28 -33.834 37 -54.501s13.5 -43 13.5 -67s-4.5 -46.333 -13.5 -67s-21.333 -38.834 -37 -54.501s-33.834 -28 -54.501 -37s-43 -13.5 -67 -13.5s-46.333 4.5 -67 13.5s-38.834 21.333 -54.501 37s-28 33.834 -37 54.501
s-13.5 43 -13.5 67zM462 -270c10.667 -2 21.9971 -3.66895 33.9971 -5.00195c10.667 -1.33301 22.834 -2.5 36.501 -3.5s28.167 -1.5 43.5 -1.5c30.667 0 55.334 4.16699 74.001 12.5s33.167 21.333 43.5 39s17.166 40.334 20.499 68.001s5 61.167 5 100.5v1090h328v-1090
c0 -76 -5.16699 -143.333 -15.5 -202s-30.166 -108 -59.499 -148s-70 -70.333 -122 -91s-120 -31 -204 -31c-35.333 0 -64.5 0.833008 -87.5 2.5s-41.833 3.83398 -56.5 6.50098c-17.333 2.66699 -30.666 6 -39.999 10v243z" />
    <glyph glyph-name="Jcircumflex" unicode="&#x134;" horiz-adv-x="1594" 
d="M411 465c6.66699 -36.667 19.6689 -69.334 39.002 -98.001c8 -12 18 -24 30 -36s26 -22.5 42 -31.5s34.667 -16.333 56 -22s45.666 -8.5 72.999 -8.5c46 0 83.833 7.33301 113.5 22s53 35 70 61s28.833 56.5 35.5 91.5s10 72.5 10 112.5v878h333v-912
c0 -87.333 -12.667 -164.666 -38 -231.999s-62 -124 -110 -170s-106.833 -80.833 -176.5 -104.5s-148.834 -35.5 -237.501 -35.5c-71.333 0 -134 7 -188 21s-101 32.333 -141 55s-73.833 48.5 -101.5 77.5s-50.5 58.5 -68.5 88.5c-42 70.667 -66 151.667 -72 243h331z
M1454 1566h-248l-156 109l-156 -109h-248l301 291h206z" />
    <glyph glyph-name="jcircumflex" unicode="&#x135;" horiz-adv-x="589" 
d="M-140 -270c10.667 -2 21.9971 -3.66895 33.9971 -5.00195c10.667 -1.33301 22.834 -2.5 36.501 -3.5s28.167 -1.5 43.5 -1.5c30.667 0 55.334 4.16699 74.001 12.5s33.167 21.333 43.5 39s17.166 40.334 20.499 68.001s5 61.167 5 100.5v1090h328v-1090
c0 -76 -5.16699 -143.333 -15.5 -202s-30.166 -108 -59.499 -148s-70 -70.333 -122 -91s-120 -31 -204 -31c-35.333 0 -64.5 0.833008 -87.5 2.5s-41.833 3.83398 -56.5 6.50098c-17.333 2.66699 -30.666 6 -39.999 10v243zM688.997 1143h-248l-156 109l-156 -109h-248
l301 291h206z" />
    <glyph glyph-name="Kcommaaccent" unicode="&#x136;" horiz-adv-x="1530" 
d="M1053 1434h427l-637 -581l637 -853h-407l-472 632l-128 -116v-516h-333v1434h333v-520zM596 -80h319l-249 -542h-281z" />
    <glyph glyph-name="kcommaaccent" unicode="&#x137;" horiz-adv-x="1242" 
d="M789 1030h423l-483 -419l483 -611h-377l-330 416l-58 -50v-366h-327v1516h327v-788zM448 -80h319l-249 -542h-281z" />
    <glyph glyph-name="kgreenlandic" unicode="&#x138;" horiz-adv-x="1530" 
d="M1053 1434h427l-637 -581l637 -853h-407l-472 632l-128 -116v-516h-333v1434h333v-520z" />
    <glyph glyph-name="Lacute" unicode="&#x139;" horiz-adv-x="1359" 
d="M473 289h786v-289h-1119v1434h333v-1145zM419 1876h333l-314 -310h-270z" />
    <glyph glyph-name="lacute" unicode="&#x13a;" horiz-adv-x="573" 
d="M468 1516v-1516h-328v1516h328zM420 1888h333l-314 -310h-270z" />
    <glyph glyph-name="Lcommaaccent" unicode="&#x13b;" horiz-adv-x="1359" 
d="M473 289h786v-289h-1119v1434h333v-1145zM548 -80h319l-249 -542h-281z" />
    <glyph glyph-name="lcommaaccent" unicode="&#x13c;" horiz-adv-x="648" 
d="M508 1516v-1516h-328v1516h328zM181 -80h319l-249 -542h-281z" />
    <glyph glyph-name="Lcaron" unicode="&#x13d;" horiz-adv-x="1359" 
d="M639 1434h299l-99 -432h-261zM473 289h786v-289h-1119v1434h333v-1145z" />
    <glyph glyph-name="lcaron" unicode="&#x13e;" horiz-adv-x="824" 
d="M582 1516h299l-99 -432h-261zM468 1516v-1516h-328v1516h328z" />
    <glyph glyph-name="Ldot" unicode="&#x13f;" horiz-adv-x="1329" 
d="M473 289h786v-289h-1119v1434h333v-1145zM816 845c0 24 4.5 46.5 13.5 67.5s21.333 39.333 37 55s34 28 55 37s43.5 13.5 67.5 13.5s46.5 -4.5 67.5 -13.5s39.333 -21.333 55 -37s28 -34 37 -55s13.5 -43.5 13.5 -67.5s-4.5 -46.5 -13.5 -67.5s-21.333 -39.333 -37 -55
s-34 -28 -55 -37s-43.5 -13.5 -67.5 -13.5s-46.5 4.5 -67.5 13.5s-39.333 21.333 -55 37s-28 34 -37 55s-13.5 43.5 -13.5 67.5z" />
    <glyph glyph-name="ldot" unicode="&#x140;" horiz-adv-x="819" 
d="M468 1516v-1516h-328v1516h328zM533 788c0 24 4.5 46.5 13.5 67.5s21.333 39.333 37 55s34 28 55 37s43.5 13.5 67.5 13.5s46.5 -4.5 67.5 -13.5s39.333 -21.333 55 -37s28 -34 37 -55s13.5 -43.5 13.5 -67.5s-4.5 -46.5 -13.5 -67.5s-21.333 -39.333 -37 -55
s-34 -28 -55 -37s-43.5 -13.5 -67.5 -13.5s-46.5 4.5 -67.5 13.5s-39.333 21.333 -55 37s-28 34 -37 55s-13.5 43.5 -13.5 67.5z" />
    <glyph glyph-name="Lslash" unicode="&#x141;" horiz-adv-x="1473" 
d="M587 1036l204 140v-325l-204 -140v-422h786v-289h-1119v483l-204 -139v323l204 140v627h333v-398z" />
    <glyph glyph-name="lslash" unicode="&#x142;" horiz-adv-x="860" 
d="M594 1516v-446l196 124v-302l-196 -124v-768h-328v561l-196 -124v302l196 124v653h328z" />
    <glyph glyph-name="Nacute" unicode="&#x143;" horiz-adv-x="1613" 
d="M140 1434h376l624 -946v946h333v-1434h-369l-631 952v-952h-333v1434zM909 1878h333l-314 -310h-270z" />
    <glyph glyph-name="nacute" unicode="&#x144;" 
d="M768 1434h333l-314 -310h-270zM1188 0h-328.002v503c0 44.667 -3.33301 85.334 -10 122.001s-18 67.667 -34 93s-37.167 45 -63.5 59s-59.166 21 -98.499 21s-72.166 -7 -98.499 -21s-47.5 -33.667 -63.5 -59s-27.333 -56.333 -34 -93s-10 -77.334 -10 -122.001v-503
h-328v1030h328v-141c0.666992 1.33301 2.83398 6.33301 6.50098 15s9.66699 19 18 31s19.333 24.667 33 38s30.5 25.666 50.5 36.999s43.667 20.833 71 28.5s59 11.5 95 11.5c85.333 0 157.666 -13.667 216.999 -41s107.5 -65.166 144.5 -113.499s63.667 -106 80 -173
s24.5 -140.167 24.5 -219.5v-503z" />
    <glyph glyph-name="Ncommaaccent" unicode="&#x145;" horiz-adv-x="1613" 
d="M140 1434h376l624 -946v946h333v-1434h-369l-631 952v-952h-333v1434zM666 -80h319l-249 -542h-281z" />
    <glyph glyph-name="ncommaaccent" unicode="&#x146;" 
d="M1188 0h-328.002v503c0 44.667 -3.33301 85.334 -10 122.001s-18 67.667 -34 93s-37.167 45 -63.5 59s-59.166 21 -98.499 21s-72.166 -7 -98.499 -21s-47.5 -33.667 -63.5 -59s-27.333 -56.333 -34 -93s-10 -77.334 -10 -122.001v-503h-328v1030h328v-141
c0.666992 1.33301 2.83398 6.33301 6.50098 15s9.66699 19 18 31s19.333 24.667 33 38s30.5 25.666 50.5 36.999s43.667 20.833 71 28.5s59 11.5 95 11.5c85.333 0 157.666 -13.667 216.999 -41s107.5 -65.166 144.5 -113.499s63.667 -106 80 -173
s24.5 -140.167 24.5 -219.5v-503zM497.998 -80h319l-249 -542h-281z" />
    <glyph glyph-name="Ncaron" unicode="&#x147;" horiz-adv-x="1613" 
d="M140 1434h376l624 -946v946h333v-1434h-369l-631 952v-952h-333v1434zM909 1566h-206l-301 291h248l156 -109l156 109h248z" />
    <glyph glyph-name="ncaron" unicode="&#x148;" 
d="M1058 1143h-248l-156 109l-156 -109h-248l301 291h206zM1188 0h-328.002v503c0 44.667 -3.33301 85.334 -10 122.001s-18 67.667 -34 93s-37.167 45 -63.5 59s-59.166 21 -98.499 21s-72.166 -7 -98.499 -21s-47.5 -33.667 -63.5 -59s-27.333 -56.333 -34 -93
s-10 -77.334 -10 -122.001v-503h-328v1030h328v-141c0.666992 1.33301 2.83398 6.33301 6.50098 15s9.66699 19 18 31s19.333 24.667 33 38s30.5 25.666 50.5 36.999s43.667 20.833 71 28.5s59 11.5 95 11.5c85.333 0 157.666 -13.667 216.999 -41
s107.5 -65.166 144.5 -113.499s63.667 -106 80 -173s24.5 -140.167 24.5 -219.5v-503z" />
    <glyph glyph-name="Eng" unicode="&#x14a;" horiz-adv-x="1613" 
d="M671 -47c6.66699 -36.667 19.668 -69.3359 39.001 -98.0029c8 -12 18 -24 30 -36s26 -22.5 42 -31.5s34.667 -16.333 56 -22s45.666 -8.5 72.999 -8.5c42 0 77 6.16699 105 18.5s50.667 29.333 68 51s30.166 47.334 38.499 77.001s13.5 61.834 15.5 96.501h-34l-631 952
v-952h-333v1434h376l624 -946v946h333v-1434c-1.33301 -85.333 -14.833 -161.166 -40.5 -227.499s-62.5 -122 -110.5 -167s-106.667 -79.167 -176 -102.5s-147.666 -35 -234.999 -35c-71.333 0 -134 7 -188 21s-101 32.333 -141 55s-73.833 48.5 -101.5 77.5
s-50.5 58.5 -68.5 88.5c-42 70.667 -66 151.667 -72 243h331z" />
    <glyph glyph-name="eng" unicode="&#x14b;" 
d="M1188 -60c0 -76 -5.17188 -143.335 -15.5049 -202.002s-30.166 -108 -59.499 -148s-70 -70.333 -122 -91s-120 -31 -204 -31c-35.333 0 -64.5 0.833008 -87.5 2.5s-41.833 3.83398 -56.5 6.50098c-17.333 2.66699 -30.666 6 -39.999 10v243c10.667 -2 22 -3.66699 34 -5
c10.667 -1.33301 22.834 -2.5 36.501 -3.5s28.167 -1.5 43.5 -1.5c30.667 0 55.334 4.16699 74.001 12.5s33.167 21.333 43.5 39s17.166 40.334 20.499 68.001s5 61.167 5 100.5v563c0 44.667 -3.33301 85.334 -10 122.001s-18 67.667 -34 93s-37.167 45 -63.5 59
s-59.166 21 -98.499 21s-72.166 -7 -98.499 -21s-47.5 -33.667 -63.5 -59s-27.333 -56.333 -34 -93s-10 -77.334 -10 -122.001v-503h-328v1030h328v-141c0.666992 1.33301 2.83398 6.33301 6.50098 15s9.66699 19 18 31s19.333 24.667 33 38s30.5 25.666 50.5 36.999
s43.667 20.833 71 28.5s59 11.5 95 11.5c85.333 0 157.666 -13.667 216.999 -41s107.5 -65.166 144.5 -113.499s63.667 -106 80 -173s24.5 -140.167 24.5 -219.5v-563z" />
    <glyph glyph-name="Omacron" unicode="&#x14c;" horiz-adv-x="1728" 
d="M100 717c0 74.667 8.66699 144.667 26 210s42.166 125.333 74.499 180s71.5 103.5 117.5 146.5s97.333 79.333 154 109s118 52.334 184 68.001s135.333 23.5 208 23.5s142 -7.83301 208 -23.5s127.333 -38.334 184 -68.001s108 -66 154 -109s85.167 -91.833 117.5 -146.5
s57.166 -114.667 74.499 -180s26 -135.333 26 -210s-8.66699 -144.667 -26 -210s-42.166 -125.333 -74.499 -180s-71.5 -103.5 -117.5 -146.5s-97.333 -79.333 -154 -109s-118 -52.334 -184 -68.001s-135.333 -23.5 -208 -23.5s-142 7.83301 -208 23.5
s-127.333 38.334 -184 68.001s-108 66 -154 109s-85.167 91.833 -117.5 146.5s-57.166 114.667 -74.499 180s-26 135.333 -26 210zM433 717c0 -72 10.833 -135.833 32.5 -191.5s51.834 -102.5 90.501 -140.5s84.167 -66.833 136.5 -86.5s109.5 -29.5 171.5 -29.5
s119.167 9.83301 171.5 29.5s97.833 48.5 136.5 86.5s68.834 84.833 90.501 140.5s32.5 119.5 32.5 191.5s-10.833 135.833 -32.5 191.5s-51.834 102.5 -90.501 140.5s-84.167 66.833 -136.5 86.5s-109.5 29.5 -171.5 29.5s-119.167 -9.83301 -171.5 -29.5
s-97.833 -48.5 -136.5 -86.5s-68.834 -84.833 -90.501 -140.5s-32.5 -119.5 -32.5 -191.5zM427 1798h874v-232h-874v232z" />
    <glyph glyph-name="omacron" unicode="&#x14d;" horiz-adv-x="1310" 
d="M218 1434h874v-232h-874v232zM655 -20c-84 0 -161.167 13.167 -231.5 39.5s-131 63 -182 110s-90.667 103.333 -119 169s-42.5 137.834 -42.5 216.501s14.167 150.834 42.5 216.501s68 122 119 169s111.667 83.667 182 110s147.5 39.5 231.5 39.5
s161.167 -13.167 231.5 -39.5s131 -63 182 -110s90.667 -103.333 119 -169s42.5 -137.834 42.5 -216.501s-14.167 -150.834 -42.5 -216.501s-68 -122 -119 -169s-111.667 -83.667 -182 -110s-147.5 -39.5 -231.5 -39.5zM655 232c38.667 0 73.334 7.5 104.001 22.5
s56.667 35.167 78 60.5s37.5 55.166 48.5 89.499s16.5 71.166 16.5 110.499c0 38.667 -5.5 75.334 -16.5 110.001s-27.167 64.667 -48.5 90s-47.333 45.5 -78 60.5s-65.334 22.5 -104.001 22.5c-39.333 0 -74.166 -7.5 -104.499 -22.5s-56.166 -35.167 -77.499 -60.5
s-37.5 -55.333 -48.5 -90s-16.5 -71.334 -16.5 -110.001c0 -39.333 5.5 -76.166 16.5 -110.499s27.167 -64.166 48.5 -89.499s47.166 -45.5 77.499 -60.5s65.166 -22.5 104.499 -22.5z" />
    <glyph glyph-name="Obreve" unicode="&#x14e;" horiz-adv-x="1728" 
d="M100 717c0 74.667 8.66699 144.667 26 210s42.166 125.333 74.499 180s71.5 103.5 117.5 146.5s97.333 79.333 154 109s118 52.334 184 68.001s135.333 23.5 208 23.5s142 -7.83301 208 -23.5s127.333 -38.334 184 -68.001s108 -66 154 -109s85.167 -91.833 117.5 -146.5
s57.166 -114.667 74.499 -180s26 -135.333 26 -210s-8.66699 -144.667 -26 -210s-42.166 -125.333 -74.499 -180s-71.5 -103.5 -117.5 -146.5s-97.333 -79.333 -154 -109s-118 -52.334 -184 -68.001s-135.333 -23.5 -208 -23.5s-142 7.83301 -208 23.5
s-127.333 38.334 -184 68.001s-108 66 -154 109s-85.167 91.833 -117.5 146.5s-57.166 114.667 -74.499 180s-26 135.333 -26 210zM433 717c0 -72 10.833 -135.833 32.5 -191.5s51.834 -102.5 90.501 -140.5s84.167 -66.833 136.5 -86.5s109.5 -29.5 171.5 -29.5
s119.167 9.83301 171.5 29.5s97.833 48.5 136.5 86.5s68.834 84.833 90.501 140.5s32.5 119.5 32.5 191.5s-10.833 135.833 -32.5 191.5s-51.834 102.5 -90.501 140.5s-84.167 66.833 -136.5 86.5s-109.5 29.5 -171.5 29.5s-119.167 -9.83301 -171.5 -29.5
s-97.833 -48.5 -136.5 -86.5s-68.834 -84.833 -90.501 -140.5s-32.5 -119.5 -32.5 -191.5zM864 1566c-62 0 -115.5 8.33301 -160.5 25s-82.5 38 -112.5 64s-53.167 54.667 -69.5 86s-26.833 61.666 -31.5 90.999h192c12 -30 32.5 -53.833 61.5 -71.5
s69.167 -26.5 120.5 -26.5s91.5 8.83301 120.5 26.5s49.5 41.5 61.5 71.5h192c-4.66699 -29.333 -15.167 -59.666 -31.5 -90.999s-39.5 -60 -69.5 -86s-67.5 -47.333 -112.5 -64s-98.5 -25 -160.5 -25z" />
    <glyph glyph-name="obreve" unicode="&#x14f;" horiz-adv-x="1310" 
d="M655 1168c-62 0 -115.5 8.33301 -160.5 25s-82.5 38 -112.5 64s-53.167 54.667 -69.5 86s-26.833 61.666 -31.5 90.999h192c12 -30 32.5 -53.833 61.5 -71.5s69.167 -26.5 120.5 -26.5s91.5 8.83301 120.5 26.5s49.5 41.5 61.5 71.5h192
c-4.66699 -29.333 -15.167 -59.666 -31.5 -90.999s-39.5 -60 -69.5 -86s-67.5 -47.333 -112.5 -64s-98.5 -25 -160.5 -25zM655 -20c-84 0 -161.167 13.167 -231.5 39.5s-131 63 -182 110s-90.667 103.333 -119 169s-42.5 137.834 -42.5 216.501s14.167 150.834 42.5 216.501
s68 122 119 169s111.667 83.667 182 110s147.5 39.5 231.5 39.5s161.167 -13.167 231.5 -39.5s131 -63 182 -110s90.667 -103.333 119 -169s42.5 -137.834 42.5 -216.501s-14.167 -150.834 -42.5 -216.501s-68 -122 -119 -169s-111.667 -83.667 -182 -110
s-147.5 -39.5 -231.5 -39.5zM655 232c38.667 0 73.334 7.5 104.001 22.5s56.667 35.167 78 60.5s37.5 55.166 48.5 89.499s16.5 71.166 16.5 110.499c0 38.667 -5.5 75.334 -16.5 110.001s-27.167 64.667 -48.5 90s-47.333 45.5 -78 60.5s-65.334 22.5 -104.001 22.5
c-39.333 0 -74.166 -7.5 -104.499 -22.5s-56.166 -35.167 -77.499 -60.5s-37.5 -55.333 -48.5 -90s-16.5 -71.334 -16.5 -110.001c0 -39.333 5.5 -76.166 16.5 -110.499s27.167 -64.166 48.5 -89.499s47.166 -45.5 77.499 -60.5s65.166 -22.5 104.499 -22.5z" />
    <glyph glyph-name="Ohungarumlaut" unicode="&#x150;" horiz-adv-x="1728" 
d="M100 717c0 74.667 8.66699 144.667 26 210s42.166 125.333 74.499 180s71.5 103.5 117.5 146.5s97.333 79.333 154 109s118 52.334 184 68.001s135.333 23.5 208 23.5s142 -7.83301 208 -23.5s127.333 -38.334 184 -68.001s108 -66 154 -109s85.167 -91.833 117.5 -146.5
s57.166 -114.667 74.499 -180s26 -135.333 26 -210s-8.66699 -144.667 -26 -210s-42.166 -125.333 -74.499 -180s-71.5 -103.5 -117.5 -146.5s-97.333 -79.333 -154 -109s-118 -52.334 -184 -68.001s-135.333 -23.5 -208 -23.5s-142 7.83301 -208 23.5
s-127.333 38.334 -184 68.001s-108 66 -154 109s-85.167 91.833 -117.5 146.5s-57.166 114.667 -74.499 180s-26 135.333 -26 210zM433 717c0 -72 10.833 -135.833 32.5 -191.5s51.834 -102.5 90.501 -140.5s84.167 -66.833 136.5 -86.5s109.5 -29.5 171.5 -29.5
s119.167 9.83301 171.5 29.5s97.833 48.5 136.5 86.5s68.834 84.833 90.501 140.5s32.5 119.5 32.5 191.5s-10.833 135.833 -32.5 191.5s-51.834 102.5 -90.501 140.5s-84.167 66.833 -136.5 86.5s-109.5 29.5 -171.5 29.5s-119.167 -9.83301 -171.5 -29.5
s-97.833 -48.5 -136.5 -86.5s-68.834 -84.833 -90.501 -140.5s-32.5 -119.5 -32.5 -191.5zM677 1908h269l-149 -342h-211zM1021 1908h269l-149 -342h-211z" />
    <glyph glyph-name="ohungarumlaut" unicode="&#x151;" horiz-adv-x="1310" 
d="M475 1516h269l-149 -342h-211zM819 1516h269l-149 -342h-211zM655 -20c-84 0 -161.167 13.167 -231.5 39.5s-131 63 -182 110s-90.667 103.333 -119 169s-42.5 137.834 -42.5 216.501s14.167 150.834 42.5 216.501s68 122 119 169s111.667 83.667 182 110
s147.5 39.5 231.5 39.5s161.167 -13.167 231.5 -39.5s131 -63 182 -110s90.667 -103.333 119 -169s42.5 -137.834 42.5 -216.501s-14.167 -150.834 -42.5 -216.501s-68 -122 -119 -169s-111.667 -83.667 -182 -110s-147.5 -39.5 -231.5 -39.5zM655 232
c38.667 0 73.334 7.5 104.001 22.5s56.667 35.167 78 60.5s37.5 55.166 48.5 89.499s16.5 71.166 16.5 110.499c0 38.667 -5.5 75.334 -16.5 110.001s-27.167 64.667 -48.5 90s-47.333 45.5 -78 60.5s-65.334 22.5 -104.001 22.5c-39.333 0 -74.166 -7.5 -104.499 -22.5
s-56.166 -35.167 -77.499 -60.5s-37.5 -55.333 -48.5 -90s-16.5 -71.334 -16.5 -110.001c0 -39.333 5.5 -76.166 16.5 -110.499s27.167 -64.166 48.5 -89.499s47.166 -45.5 77.499 -60.5s65.166 -22.5 104.499 -22.5z" />
    <glyph glyph-name="OE" unicode="&#x152;" horiz-adv-x="2514" 
d="M1221 54c-53.333 -24 -109.668 -42.334 -169.001 -55.001s-122 -19 -188 -19c-72.667 0 -142 7.83301 -208 23.5s-127.333 38.334 -184 68.001s-108 66 -154 109s-85.167 91.833 -117.5 146.5s-57.166 114.667 -74.499 180s-26 135.333 -26 210s8.66699 144.667 26 210
s42.166 125.333 74.499 180s71.5 103.5 117.5 146.5s97.333 79.333 154 109s118 52.334 184 68.001s135.333 23.5 208 23.5c66 0 128.833 -6.33301 188.5 -19s115.834 -31.334 168.501 -56.001v55h1165v-289h-832v-269h741v-289h-741v-298h840v-289h-1173v54z
M863.998 268.999c76.667 0 145.834 14.833 207.501 44.5s111.5 73.5 149.5 131.5v543c-38 58 -87.833 102 -149.5 132s-130.834 45 -207.501 45c-62 0 -119.167 -9.83301 -171.5 -29.5s-97.833 -48.5 -136.5 -86.5s-68.834 -84.833 -90.501 -140.5
s-32.5 -119.5 -32.5 -191.5s10.833 -135.833 32.5 -191.5s51.834 -102.5 90.501 -140.5s84.167 -66.833 136.5 -86.5s109.5 -29.5 171.5 -29.5z" />
    <glyph glyph-name="oe" unicode="&#x153;" horiz-adv-x="2115" 
d="M655 -20c-84 0 -161.167 13.166 -231.5 39.499s-131 63 -182 110s-90.667 103.333 -119 169s-42.5 137.834 -42.5 216.501s14.167 150.834 42.5 216.501s68 122 119 169s111.667 83.667 182 110s147.5 39.5 231.5 39.5s160.833 -13 230.5 -39s130.167 -62.667 181.5 -110
c50 46 108.667 82.333 176 109s142 40 224 40c84 0 162.167 -14.333 234.5 -43s134.5 -70.834 186.5 -126.501s91.167 -124.334 117.5 -206.001s35.166 -175.167 26.499 -280.5h-784c16 -48 42.333 -87 79 -117s83.334 -45 140.001 -45c26.667 0 50 1.66699 70 5
s36.667 7.33301 50 12c16 4.66699 29.333 10.334 40 17.001h378c-28 -54 -66.333 -101.667 -115 -143c-20.667 -18 -44.667 -35.5 -72 -52.5s-58.5 -32.333 -93.5 -46s-73.833 -24.5 -116.5 -32.5s-89.667 -12 -141 -12c-82 0 -156.667 13.333 -224 40s-126 63 -176 109
c-51.333 -47.333 -111.833 -84 -181.5 -110s-146.5 -39 -230.5 -39zM655 231.999c38.667 0 73.334 7.5 104.001 22.5s56.667 35.167 78 60.5s37.5 55.166 48.5 89.499s16.5 71.166 16.5 110.499c0 38.667 -5.5 75.334 -16.5 110.001s-27.167 64.667 -48.5 90
s-47.333 45.5 -78 60.5s-65.334 22.5 -104.001 22.5c-39.333 0 -74.166 -7.5 -104.499 -22.5s-56.166 -35.167 -77.499 -60.5s-37.5 -55.333 -48.5 -90s-16.5 -71.334 -16.5 -110.001c0 -39.333 5.5 -76.166 16.5 -110.499s27.167 -64.166 48.5 -89.499
s47.166 -45.5 77.499 -60.5s65.166 -22.5 104.499 -22.5zM1467 797.999c-31.333 0 -59.498 -4.83301 -84.498 -14.5s-47 -23 -66 -40s-34.833 -37.167 -47.5 -60.5s-22.334 -49 -29.001 -77h454c-6.66699 28 -16.334 53.667 -29.001 77s-28.5 43.5 -47.5 60.5
s-41.167 30.333 -66.5 40s-53.333 14.5 -84 14.5z" />
    <glyph glyph-name="Racute" unicode="&#x154;" horiz-adv-x="1547" 
d="M140 0l-0.000976562 1434h783c74.667 0 141.834 -11 201.501 -33s110.167 -53 151.5 -93s73 -88.5 95 -145.5s33 -120.5 33 -190.5c0 -50 -6.66699 -96.5 -20 -139.5s-32.5 -82 -57.5 -117s-55.167 -65.667 -90.5 -92s-75 -47.833 -119 -64.5l320 -559h-365l-292 511
h-307v-511h-333zM472.999 1145v-344.996h450c22 0 42 4.16699 60 12.5s33.5 20.166 46.5 35.499s23.167 33.5 30.5 54.5s11 44.167 11 69.5s-3.66699 48.666 -11 69.999s-17.5 39.666 -30.5 54.999s-28.5 27.166 -46.5 35.499s-38 12.5 -60 12.5h-450zM818.999 1878h333
l-314 -310h-270z" />
    <glyph glyph-name="racute" unicode="&#x155;" horiz-adv-x="921" 
d="M608 1434h333l-314 -310h-270zM860 755c-27.333 7.33301 -56.332 13.167 -86.999 17.5s-61.334 5.5 -92.001 3.5s-60 -8 -88 -18s-52.667 -25.5 -74 -46.5s-38.5 -48.5 -51.5 -82.5s-19.5 -76 -19.5 -126v-503h-328v1030h328v-141c12.667 38.667 34 70 64 94
s64.333 41.5 103 52.5s79.5 15.833 122.5 14.5s83.833 -8 122.5 -20v-275z" />
    <glyph glyph-name="Rcommaaccent" unicode="&#x156;" horiz-adv-x="1547" 
d="M140 0l-0.000976562 1434h783c74.667 0 141.834 -11 201.501 -33s110.167 -53 151.5 -93s73 -88.5 95 -145.5s33 -120.5 33 -190.5c0 -50 -6.66699 -96.5 -20 -139.5s-32.5 -82 -57.5 -117s-55.167 -65.667 -90.5 -92s-75 -47.833 -119 -64.5l320 -559h-365l-292 511
h-307v-511h-333zM472.999 1145v-344.996h450c22 0 42 4.16699 60 12.5s33.5 20.166 46.5 35.499s23.167 33.5 30.5 54.5s11 44.167 11 69.5s-3.66699 48.666 -11 69.999s-17.5 39.666 -30.5 54.999s-28.5 27.166 -46.5 35.499s-38 12.5 -60 12.5h-450zM595.999 -79.9961h319
l-249 -542h-281z" />
    <glyph glyph-name="rcommaaccent" unicode="&#x157;" horiz-adv-x="987" 
d="M907 755c-27.333 7.33301 -56.332 13.167 -86.999 17.5s-61.334 5.5 -92.001 3.5s-60 -8 -88 -18s-52.667 -25.5 -74 -46.5s-38.5 -48.5 -51.5 -82.5s-19.5 -76 -19.5 -126v-503h-328v1030h328v-141c12.667 38.667 34 70 64 94s64.333 41.5 103 52.5
s79.5 15.833 122.5 14.5s83.833 -8 122.5 -20v-275zM171.001 -79.999h319l-249 -542h-281z" />
    <glyph glyph-name="Rcaron" unicode="&#x158;" horiz-adv-x="1547" 
d="M140 0l-0.000976562 1434h783c74.667 0 141.834 -11 201.501 -33s110.167 -53 151.5 -93s73 -88.5 95 -145.5s33 -120.5 33 -190.5c0 -50 -6.66699 -96.5 -20 -139.5s-32.5 -82 -57.5 -117s-55.167 -65.667 -90.5 -92s-75 -47.833 -119 -64.5l320 -559h-365l-292 511
h-307v-511h-333zM472.999 1145v-344.996h450c22 0 42 4.16699 60 12.5s33.5 20.166 46.5 35.499s23.167 33.5 30.5 54.5s11 44.167 11 69.5s-3.66699 48.666 -11 69.999s-17.5 39.666 -30.5 54.999s-28.5 27.166 -46.5 35.499s-38 12.5 -60 12.5h-450zM820.999 1566h-206
l-301 291h248l156 -109l156 109h248z" />
    <glyph glyph-name="rcaron" unicode="&#x159;" horiz-adv-x="968" 
d="M627 1143h-206l-301 291h248l156 -109l156 109h248zM865 755c-27.333 7.33301 -56.332 13.167 -86.999 17.5s-61.334 5.5 -92.001 3.5s-60 -8 -88 -18s-52.667 -25.5 -74 -46.5s-38.5 -48.5 -51.5 -82.5s-19.5 -76 -19.5 -126v-503h-328v1030h328v-141
c12.667 38.667 34 70 64 94s64.333 41.5 103 52.5s79.5 15.833 122.5 14.5s83.833 -8 122.5 -20v-275z" />
    <glyph glyph-name="Sacute" unicode="&#x15a;" horiz-adv-x="1396" 
d="M795 1878h333l-314 -310h-270zM423 398c7.33301 -24.667 22.0029 -46.3291 44.0029 -64.9961c18.667 -16 45.667 -30.667 81 -44s83 -20 143 -20c52 0 96.5 3.83301 133.5 11.5s67.333 18.5 91 32.5s40.834 30.667 51.501 50s16 40.666 16 63.999
c0 20 -4.5 38.167 -13.5 54.5s-24.833 31.166 -47.5 44.499s-53.334 25.5 -92.001 36.5s-88 21.5 -148 31.5c-100.667 16.667 -187.167 37.667 -259.5 63s-131.666 55.833 -177.999 91.5s-80.5 77.167 -102.5 124.5s-33 101.333 -33 162c0 69.333 14.5 130.166 43.5 182.499
s69.333 96 121 131s113.167 61.333 184.5 79s149 26.5 233 26.5c69.333 0 130.833 -5.66699 184.5 -17s100.5 -26.5 140.5 -45.5s74.167 -40.5 102.5 -64.5s51.833 -48.333 70.5 -73c44 -58.667 70.667 -125 80 -199h-343c-6 20 -18 38.333 -36 55
c-16 13.333 -39.5 25.833 -70.5 37.5s-73.833 17.5 -128.5 17.5c-49.333 0 -90 -3.16699 -122 -9.5s-57.5 -15.166 -76.5 -26.499s-32.167 -25 -39.5 -41s-11 -33.667 -11 -53c0 -16 3.66699 -30.833 11 -44.5s20.666 -26.5 39.999 -38.5s45.666 -23 78.999 -33
s76 -19.333 128 -28c98 -16 185.167 -35.167 261.5 -57.5s140.666 -51.333 192.999 -87s92.333 -79.334 120 -131.001s41.5 -114.5 41.5 -188.5c0 -82 -16.5 -151.333 -49.5 -208s-77.833 -102.667 -134.5 -138s-122.834 -61 -198.501 -77s-156.5 -24 -242.5 -24
c-75.333 0 -141.666 6 -198.999 18s-107.333 27.667 -150 47s-78.834 41.666 -108.501 66.999s-54.167 51 -73.5 77c-46 61.333 -72.667 131 -80 209h343z" />
    </font>
</defs>
</svg>
