<?xml version="1.0" standalone="no"?>
<!DOCTYPE svg PUBLIC "-//W3C//DTD SVG 1.1//EN" "http://www.w3.org/Graphics/SVG/1.1/DTD/svg11.dtd" >
<svg>
<metadata>
Created by FontForge 20090914 at Wed Jan 26 19:20:34 2022
 By www-data
Copyright (c) 2018 by Artegra. All rights reserved.
</metadata>
<defs>
<font id="Suprema-Regular" horiz-adv-x="1202" >
  <font-face 
    font-family="Suprema"
    font-weight="400"
    font-stretch="normal"
    units-per-em="2048"
    panose-1="2 11 5 3 2 0 0 2 0 4"
    ascent="1521"
    descent="-527"
    x-height="1006"
    cap-height="1434"
    bbox="-200 -552 2307 1948"
    underline-thickness="102"
    underline-position="-103"
    unicode-range="U+000D-U+FB04"
  />
<missing-glyph horiz-adv-x="1484" 
d="M160 1434h1164v-1434h-1164v1434zM1224 152v1129l-426 -564zM260 1281v-1129l426 565zM334 100h816l-408 542zM742 792l408 542h-816z" />
    <glyph glyph-name=".notdef" horiz-adv-x="1484" 
d="M160 1434h1164v-1434h-1164v1434zM1224 152v1129l-426 -564zM260 1281v-1129l426 565zM334 100h816l-408 542zM742 792l408 542h-816z" />
    <glyph glyph-name="NULL" horiz-adv-x="0" 
 />
    <glyph glyph-name="NULL" horiz-adv-x="0" 
 />
    <glyph glyph-name="nonmarkingreturn" unicode="&#xd;" horiz-adv-x="580" 
 />
    <glyph glyph-name="space" unicode=" " horiz-adv-x="580" 
 />
    <glyph glyph-name="exclam" unicode="!" horiz-adv-x="566" 
d="M202 1434h163l-10 -1123h-143zM180 93c0 14 2.66699 27.167 8 39.5s12.666 23.333 21.999 33s20.333 17.167 33 22.5s26 8 40 8s27.333 -2.66699 40 -8s23.667 -12.833 33 -22.5s16.666 -20.667 21.999 -33s8 -25.5 8 -39.5s-2.66699 -27.167 -8 -39.5
s-12.666 -23.333 -21.999 -33s-20.333 -17.167 -33 -22.5s-26 -8 -40 -8s-27.333 2.66699 -40 8s-23.667 12.833 -33 22.5s-16.666 20.667 -21.999 33s-8 25.5 -8 39.5z" />
    <glyph glyph-name="quotedbl" unicode="&#x22;" horiz-adv-x="623" 
d="M100 1434h171l-16 -437h-138zM353 1434h170l-15 -437h-139z" />
    <glyph glyph-name="numbersign" unicode="#" horiz-adv-x="1539" 
d="M887 388h-342l-61 -388h-153l61 388h-252v144h275l59 370h-252v144h275l62 388h154l-62 -388h341l62 388h153l-62 -388h254v-144h-276l-60 -370h254v-144h-276l-62 -388h-153zM568 532h342l59 370h-341z" />
    <glyph glyph-name="dollar" unicode="$" horiz-adv-x="1299" 
d="M274 317c13.333 -36.667 35.667 -69.0107 67 -97.0107c13.333 -12 29.166 -23.833 47.499 -35.5s39.666 -22 63.999 -31s52.166 -16.167 83.499 -21.5s66.666 -8 105.999 -8c64.667 0 121.5 6.33301 170.5 19s90 30.5 123 53.5s57.833 50.833 74.5 83.5
s25 69.334 25 110.001c0 36.667 -6.33301 69.334 -19 98.001s-34.167 54.334 -64.5 77.001s-70.666 42.334 -120.999 59.001s-113.166 31.334 -188.499 44.001c-99.333 16.667 -181.833 37.5 -247.5 62.5s-118.167 54.667 -157.5 89s-67 73.333 -83 117s-24 92.5 -24 146.5
c0 52.667 9.83301 100.334 29.5 143.001s48 79.834 85 111.501s82.333 57.167 136 76.5s114.834 31.666 183.501 36.999v230h162v-231c49.333 -4.66699 93.5 -12.667 132.5 -24s73.333 -24.666 103 -39.999s55.167 -32.166 76.5 -50.499s39.666 -36.833 54.999 -55.5
c35.333 -43.333 58.666 -91 69.999 -143h-174c-10 32 -29 60.667 -57 86c-12 10.667 -26.667 21.167 -44 31.5s-37.666 19.666 -60.999 27.999s-50.333 15 -81 20s-65.334 7.5 -104.001 7.5c-53.333 0 -101.5 -4.83301 -144.5 -14.5s-79.5 -24.167 -109.5 -43.5
s-53.167 -43.166 -69.5 -71.499s-24.5 -60.833 -24.5 -97.5c0 -34 5.5 -64.667 16.5 -92s29.833 -51.666 56.5 -72.999s62.334 -40 107.001 -56s100.667 -29.333 168 -40c96.667 -16 180 -35.5 250 -58.5s127.833 -51.5 173.5 -85.5s79.334 -74.5 101.001 -121.5
s32.5 -102.5 32.5 -166.5c0 -61.333 -11.167 -116 -33.5 -164s-54.166 -89 -95.499 -123s-91 -61.167 -149 -81.5s-123 -33.166 -195 -38.499v-230h-162v230c-54 4 -102 11.833 -144 23.5s-79 25.667 -111 42s-59.333 34.333 -82 54s-41.667 39.5 -57 59.5
c-36.667 46.667 -60 98.334 -70 155.001h174z" />
    <glyph glyph-name="uni0025" unicode="%" horiz-adv-x="1542" 
d="M1138 1434h169l-903 -1434h-169zM1442 272c0 -40 -7.16699 -77.833 -21.5 -113.5s-34.333 -66.667 -60 -93s-56.5 -47.166 -92.5 -62.499s-75.333 -23 -118 -23c-43.333 0 -82.833 7.66699 -118.5 23s-66.334 36.166 -92.001 62.499s-45.667 57.333 -60 93
s-21.5 73.5 -21.5 113.5s7.16699 77.667 21.5 113s34.333 66.166 60 92.499s56.334 47.166 92.001 62.499s75.167 23 118.5 23c42.667 0 82 -7.66699 118 -23s66.833 -36.166 92.5 -62.499s45.667 -57.166 60 -92.499s21.5 -73 21.5 -113zM1303 272
c0 20.667 -3.66699 40.167 -11 58.5s-17.666 34.333 -30.999 48s-29.333 24.5 -48 32.5s-39.667 12 -63 12s-44.333 -4 -63 -12s-34.667 -18.833 -48 -32.5s-23.666 -29.667 -30.999 -48s-11 -37.833 -11 -58.5c0 -21.333 3.66699 -41.166 11 -59.499
s17.666 -34.333 30.999 -48s29.333 -24.5 48 -32.5s39.667 -12 63 -12s44.333 4 63 12s34.667 18.833 48 32.5s23.666 29.667 30.999 48s11 38.166 11 59.499zM684 1163c0 -40 -7.16699 -77.833 -21.5 -113.5s-34.333 -66.667 -60 -93s-56.5 -47.166 -92.5 -62.499
s-75.333 -23 -118 -23c-43.333 0 -82.833 7.66699 -118.5 23s-66.334 36.166 -92.001 62.499s-45.667 57.333 -60 93s-21.5 73.5 -21.5 113.5s7.16699 77.667 21.5 113s34.333 66.166 60 92.499s56.334 47.166 92.001 62.499s75.167 23 118.5 23
c42.667 0 82 -7.66699 118 -23s66.833 -36.166 92.5 -62.499s45.667 -57.166 60 -92.499s21.5 -73 21.5 -113zM545 1163c0 20.667 -3.66699 40.167 -11 58.5s-17.666 34.333 -30.999 48s-29.333 24.5 -48 32.5s-39.667 12 -63 12s-44.333 -4 -63 -12
s-34.667 -18.833 -48 -32.5s-23.666 -29.667 -30.999 -48s-11 -37.833 -11 -58.5c0 -21.333 3.66699 -41.166 11 -59.499s17.666 -34.333 30.999 -48s29.333 -24.5 48 -32.5s39.667 -12 63 -12s44.333 4 63 12s34.667 18.833 48 32.5s23.666 29.667 30.999 48
s11 38.166 11 59.499z" />
    <glyph glyph-name="ampersand" unicode="&#x26;" horiz-adv-x="1501" 
d="M616 1454c44 0 85.834 -5.67383 125.501 -17.0068s74.334 -29.166 104.001 -53.499s53.334 -55.666 71.001 -93.999s26.5 -84.166 26.5 -137.499c0 -47.333 -9.5 -89.833 -28.5 -127.5s-44 -72.167 -75 -103.5s-66.667 -60.5 -107 -87.5s-81.833 -53.167 -124.5 -78.5
c23.333 -30.667 49.666 -62.5 78.999 -95.5l92.5 -99.5l98 -99.5l96.5 -94.5c12.667 25.333 24.834 55.333 36.501 90s22.167 67.667 31.5 99c10.667 36.667 20.667 74.334 30 113.001h158c-10 -48 -21.333 -96 -34 -144c-11.333 -41.333 -25.166 -85.5 -41.499 -132.5
s-35.166 -90.5 -56.499 -130.5c15.333 -13.333 32.166 -27.166 50.499 -41.499l57 -43.5l59 -44l56.5 -41l130 -91h-266c-16 9.33301 -33.667 20.333 -53 33c-16.667 10.667 -36.167 23.834 -58.5 39.501s-46.5 33.834 -72.5 54.501c-30 -30 -62.667 -54.667 -98 -74
s-71.833 -34.333 -109.5 -45s-75.5 -18 -113.5 -22s-74.333 -6 -109 -6c-55.333 0 -109.833 6.16699 -163.5 18.5s-102.167 32 -145.5 59s-79.5 62.167 -108.5 105.5s-46.167 96 -51.5 158c-4 52 0.166992 99.667 12.5 143s31.166 84 56.499 122s56.666 73.833 93.999 107.5
s79 66.167 125 97.5c-18 28 -33.833 54.5 -47.5 79.5s-25.334 50.167 -35.001 75.5s-16.834 51.5 -21.501 78.5s-7 56.5 -7 88.5c0 46.667 7.5 90.667 22.5 132s36.667 77.5 65 108.5s63.5 55.5 105.5 73.5s90 27 144 27zM266.001 322.993
c5.33301 -36 17.667 -66.668 37 -92.001s43 -45.833 71 -61.5s58.833 -27 92.5 -34s67.5 -10.5 101.5 -10.5c29.333 0 58.833 2 88.5 6s58.334 10.167 86.001 18.5s53.667 18.833 78 31.5s45.5 28 63.5 46l-216.5 217.5c-69 70.333 -134.167 144.5 -195.5 222.5
c-30 -20 -58.833 -41.5 -86.5 -64.5s-51.334 -48.333 -71.001 -76s-34.167 -58.167 -43.5 -91.5s-11 -70.666 -5 -111.999zM526.002 877.992l106 68.998c31.333 20.667 58 41.167 80 61.5s39 41.833 51 64.5s18 49 18 79c0 52 -14 91.167 -42 117.5s-69 39.5 -123 39.5
c-23.333 0 -45.5 -4.16699 -66.5 -12.5s-39.5 -20.666 -55.5 -36.999s-28.833 -36.666 -38.5 -60.999s-14.5 -52.833 -14.5 -85.5c0 -46 7.83301 -87.833 23.5 -125.5s36.167 -74.167 61.5 -109.5z" />
    <glyph glyph-name="quotesingle" unicode="'" horiz-adv-x="371" 
d="M100 1434h171l-16 -437h-137z" />
    <glyph glyph-name="parenleft" unicode="(" horiz-adv-x="830" 
d="M302 589c0 -83.333 6.16699 -158.17 18.5 -224.503s28.5 -125.333 48.5 -177s42.833 -96.834 68.5 -135.501s51.834 -71.667 78.501 -99c62.667 -64.667 134 -110.334 214 -137.001l-50 -144c-100.667 32 -190.667 86.333 -270 163
c-34 32.667 -67.167 71.834 -99.5 117.501s-61.166 99.334 -86.499 161.001s-45.666 131.667 -60.999 210s-23 166.833 -23 265.5s7.66699 187.167 23 265.5s35.666 148.333 60.999 210s54.166 115.334 86.499 161.001s65.5 84.834 99.5 117.501
c79.333 76.667 169.333 131.334 270 164.001l50 -144c-80 -26.667 -151.333 -72.334 -214 -137.001c-26.667 -27.333 -52.834 -60.333 -78.501 -99s-48.5 -84 -68.5 -136s-36.167 -111.167 -48.5 -177.5s-18.5 -141.166 -18.5 -224.499z" />
    <glyph glyph-name="parenright" unicode=")" horiz-adv-x="830" 
d="M528 589c0 83.333 -6.16699 158.17 -18.5 224.503s-28.5 125.5 -48.5 177.5s-42.833 97.333 -68.5 136s-51.834 71.667 -78.501 99c-62.667 64.667 -134 110.334 -214 137.001l50 144c100.667 -32.667 190.667 -87.334 270 -164.001
c34 -32.667 67.167 -71.834 99.5 -117.501s61.166 -99.334 86.499 -161.001s45.666 -131.667 60.999 -210s23 -166.833 23 -265.5s-7.66699 -187.167 -23 -265.5s-35.666 -148.333 -60.999 -210s-54.166 -115.334 -86.499 -161.001s-65.5 -84.834 -99.5 -117.501
c-79.333 -76.667 -169.333 -131 -270 -163l-50 144c80 26.667 151.333 72.334 214 137.001c26.667 27.333 52.834 60.333 78.501 99s48.5 83.834 68.5 135.501s36.167 110.667 48.5 177s18.5 141.166 18.5 224.499z" />
    <glyph glyph-name="asterisk" unicode="*" horiz-adv-x="843" 
d="M498 1434l-10 -273l262 93l43 -147l-268 -81l175 -210l-123 -91l-156 220l-155 -220l-123 91l175 210l-268 81l43 147l262 -93l-10 273h153z" />
    <glyph glyph-name="plus" unicode="+" horiz-adv-x="1182" 
d="M1062 627h-396v-396h-150v396h-396v149h396v396h150v-396h396v-149z" />
    <glyph glyph-name="comma" unicode="," horiz-adv-x="565" 
d="M267 236h178l-199 -436h-146z" />
    <glyph glyph-name="hyphen" unicode="-" horiz-adv-x="884" 
d="M120 614h644v-132h-644v132z" />
    <glyph glyph-name="period" unicode="." horiz-adv-x="446" 
d="M120 93c0 14 2.66699 27.167 8 39.5s12.666 23.333 21.999 33s20.333 17.167 33 22.5s26 8 40 8s27.333 -2.66699 40 -8s23.667 -12.833 33 -22.5s16.666 -20.667 21.999 -33s8 -25.5 8 -39.5s-2.66699 -27.167 -8 -39.5s-12.666 -23.333 -21.999 -33
s-20.333 -17.167 -33 -22.5s-26 -8 -40 -8s-27.333 2.66699 -40 8s-23.667 12.833 -33 22.5s-16.666 20.667 -21.999 33s-8 25.5 -8 39.5z" />
    <glyph glyph-name="slash" unicode="/" horiz-adv-x="1057" 
d="M778 1434h159l-658 -1434h-159z" />
    <glyph glyph-name="zero" unicode="0" horiz-adv-x="1514" 
d="M757 -20c-104 0 -195.833 19.333 -275.5 58s-146.167 91.334 -199.5 158.001s-93.666 144.667 -120.999 234s-41 185 -41 287s13.667 197.667 41 287s67.666 167.333 120.999 234s119.833 119.334 199.5 158.001s171.5 58 275.5 58s195.833 -19.333 275.5 -58
s146.167 -91.334 199.5 -158.001s93.666 -144.667 120.999 -234s41 -185 41 -287s-13.667 -197.667 -41 -287s-67.666 -167.333 -120.999 -234s-119.833 -119.334 -199.5 -158.001s-171.5 -58 -275.5 -58zM757 124c82 0 152.5 15.5 211.5 46.5s107.833 73.333 146.5 127
s67.167 116.5 85.5 188.5s27.5 149 27.5 231s-9.16699 159 -27.5 231s-46.833 134.833 -85.5 188.5s-87.5 96 -146.5 127s-129.5 46.5 -211.5 46.5s-152.5 -15.5 -211.5 -46.5s-107.833 -73.333 -146.5 -127s-67.167 -116.5 -85.5 -188.5s-27.5 -149 -27.5 -231
s9.16699 -159 27.5 -231s46.833 -134.833 85.5 -188.5s87.5 -96 146.5 -127s129.5 -46.5 211.5 -46.5z" />
    <glyph glyph-name="one" unicode="1" horiz-adv-x="743" 
d="M70 1097l388 337h125v-1434h-162v1190l-241 -209z" />
    <glyph glyph-name="two" unicode="2" horiz-adv-x="1352" 
d="M155 1078c21.333 70 54.999 132.664 100.999 187.997c19.333 23.333 42.5 46.333 69.5 69s58.333 42.834 94 60.501s76.167 31.834 121.5 42.501s96 16 152 16c77.333 0 146.833 -9.5 208.5 -28.5s114 -46 157 -81s76 -77 99 -126s34.5 -103.5 34.5 -163.5
c0 -39.333 -5.5 -77 -16.5 -113s-25.5 -70.333 -43.5 -103s-39 -63.667 -63 -93s-49 -57.166 -75 -83.499s-52.167 -51 -78.5 -74l-73.5 -64.5l-42.5 -36.5l-61 -52.5l-72 -62l-75.5 -65l-190 -164h811v-144h-1072v112l277 241l106 92.5l98 85.5l77.5 67l44.5 39l95.5 85
c33.667 30.667 64.5 63.5 92.5 98.5s51.333 72 70 111s28 80.167 28 123.5c0 36.667 -6.33301 70.5 -19 101.5s-32.5 57.833 -59.5 80.5s-61.833 40.334 -104.5 53.001s-93.667 19 -153 19c-37.333 0 -71.166 -3.33301 -101.499 -10s-57.5 -15.5 -81.5 -26.5
s-45.167 -23.333 -63.5 -37s-34.5 -27.834 -48.5 -42.501c-32 -34 -56 -72.333 -72 -115h-171z" />
    <glyph glyph-name="three" unicode="3" horiz-adv-x="1379" 
d="M313 312c19.333 -35.333 46.3281 -66.667 80.9951 -94c14.667 -12 31.834 -23.5 51.501 -34.5s42 -21 67 -30s53 -16.167 84 -21.5s65.167 -8 102.5 -8c48.667 0 96.834 5.5 144.501 16.5s90 27.667 127 50s67 51 90 86s34.5 76.5 34.5 124.5
c0 52.667 -13.833 96 -41.5 130s-65.167 61 -112.5 81s-102.333 33.833 -165 41.5s-129.334 11.5 -200.001 11.5v144c60.667 0 119.834 4.5 177.501 13.5s109 23.667 154 44s81.333 47.166 109 80.499s41.5 74.666 41.5 123.999c0 38.667 -8.66699 72.834 -26 102.501
s-41.666 54.667 -72.999 75s-69 35.666 -113 45.999s-93 15.5 -147 15.5c-35.333 0 -67.333 -2.66699 -96 -8s-54.334 -12.5 -77.001 -21.5s-42.667 -19 -60 -30s-32.333 -22.5 -45 -34.5c-30 -27.333 -52.667 -58.666 -68 -93.999h-193c22 62 56.333 117.333 103 166
c20 20.667 43.5 41 70.5 61s58.333 37.667 94 53s76 27.833 121 37.5s95.167 14.5 150.5 14.5c74.667 0 143.834 -8.16699 207.501 -24.5s118.834 -40.5 165.501 -72.5s83.334 -72 110.001 -120s40 -103.333 40 -166c0 -46 -8.83301 -87.333 -26.5 -124s-41 -68.667 -70 -96
s-62.333 -50 -100 -68s-76.5 -31.333 -116.5 -40c41.333 -5.33301 82.833 -15.666 124.5 -30.999s79.167 -36.833 112.5 -64.5s60.5 -61.667 81.5 -102s31.5 -88.5 31.5 -144.5c0 -46.667 -7.33301 -89.5 -22 -128.5s-34.834 -74.167 -60.501 -105.5
s-56 -58.666 -91 -81.999s-73.333 -42.833 -115 -58.5s-85.5 -27.334 -131.5 -35.001s-92.667 -11.5 -140 -11.5c-61.333 0 -116.5 4.83301 -165.5 14.5s-92.833 22.167 -131.5 37.5s-72.5 33 -101.5 53s-53.833 40.333 -74.5 61c-49.333 48.667 -84.666 104 -105.999 166
h193z" />
    <glyph glyph-name="four" unicode="4" horiz-adv-x="1528" 
d="M997 0v397h-857v117l864 920h155v-893h249v-144h-249v-397h-162zM997 541v680l-637 -680h637z" />
    <glyph glyph-name="five" unicode="5" horiz-adv-x="1419" 
d="M719 124c70 0 130 9.16797 180 27.501s91 42.666 123 72.999s55.5 65.5 70.5 105.5s22.5 82 22.5 126c0 44.667 -7.5 87.167 -22.5 127.5s-38.5 75.833 -70.5 106.5s-73 55 -123 73s-110 27 -180 27c-67.333 0 -132.5 -6.66699 -195.5 -20s-119.5 -28 -169.5 -44
c-58 -18.667 -112.667 -40 -164 -64l44 772h958v-144h-802l-26 -435c30.667 14 64.667 27 102 39c32 10 69.5 19.167 112.5 27.5s89.833 12.5 140.5 12.5c95.333 0 178.166 -13.167 248.499 -39.5s128.5 -61.5 174.5 -105.5s80.333 -94.833 103 -152.5
s34 -117.834 34 -180.501c0 -62 -11.333 -121.667 -34 -179s-57 -108 -103 -152s-104.167 -79.167 -174.5 -105.5s-153.166 -39.5 -248.499 -39.5c-61.333 0 -116.166 4.5 -164.499 13.5s-91.333 20.833 -129 35.5s-70.334 31.334 -98.001 50.001s-51.5 37.667 -71.5 57
c-46.667 46 -78.667 98 -96 156h193c18 -31.333 43 -59.333 75 -84c14 -10.667 30.167 -21 48.5 -31s39.5 -19 63.5 -27s50.833 -14.333 80.5 -19s62.5 -7 98.5 -7z" />
    <glyph glyph-name="six" unicode="6" horiz-adv-x="1495" 
d="M757 1310c-76 -1.33301 -140.333 -14.6641 -193 -39.9971s-96 -62.833 -130 -112.5s-60 -111 -78 -184s-30.333 -157.5 -37 -253.5c0.666992 2 4.16699 8.5 10.5 19.5s16.166 24.333 29.499 40s31 32.5 53 50.5s48.833 34.5 80.5 49.5s69.167 27.5 112.5 37.5
s93 15 149 15c102.667 0 190.667 -13.667 264 -41s133.5 -63.333 180.5 -108s81.5 -95.5 103.5 -152.5s33 -115.167 33 -174.5c0 -62.667 -11 -122.667 -33 -180s-56.5 -108 -103.5 -152s-107.167 -79 -180.5 -105s-161.333 -39 -264 -39
c-69.333 0 -131.166 6.5 -185.499 19.5s-102.5 30.667 -144.5 53s-78 48.666 -108 78.999s-55 62.833 -75 97.5s-35.5 71 -46.5 109s-18.5 75.667 -22.5 113c-14.667 145.333 -14.5 279.333 0.5 402s46.333 228.5 94 317.5s112 158.5 193 208.5s180.167 75 297.5 75
c48 0 92 -3.83301 132 -11.5s76 -17.834 108 -30.501s60.5 -26.834 85.5 -42.501s46.833 -31.834 65.5 -48.501c44 -39.333 78 -83.666 102 -132.999h-193c-17.333 22.667 -40 43 -68 61c-24 15.333 -55 29.333 -93 42s-84.333 19 -139 19zM1173 456.002
c0 49.333 -9.33301 94.333 -28 135s-45.834 75.667 -81.501 105s-79.5 52 -131.5 68s-111.333 24 -178 24c-67.333 0 -127 -8 -179 -24s-95.833 -38.667 -131.5 -68s-62.834 -64.333 -81.501 -105s-28 -85.667 -28 -135s9.33301 -94.333 28 -135s45.834 -75.667 81.501 -105
s79.5 -52 131.5 -68s111.667 -24 179 -24c66.667 0 126 8 178 24s95.833 38.667 131.5 68s62.834 64.333 81.501 105s28 85.667 28 135z" />
    <glyph glyph-name="seven" unicode="7" horiz-adv-x="1336" 
d="M120 1434h1096v-102l-690 -1332h-177l668 1290h-897v144z" />
    <glyph glyph-name="eight" unicode="8" horiz-adv-x="1436" 
d="M718 -20c-79.333 0 -154.664 8.5 -225.997 25.5s-133.833 42.833 -187.5 77.5s-96.167 78.334 -127.5 131.001s-47 114.667 -47 186c0 48.667 8.33301 92.334 25 131.001s39.5 72.667 68.5 102s63 53.833 102 73.5s80.833 35.167 125.5 46.5
c-42.667 10.667 -81.5 26 -116.5 46s-64.833 43.5 -89.5 70.5s-43.834 57.167 -57.501 90.5s-20.5 68.333 -20.5 105c0 61.333 14.167 116.166 42.5 164.499s67.166 89.166 116.499 122.499s107.5 58.666 174.5 75.999s139.5 26 217.5 26s150.5 -8.66699 217.5 -26
s125.167 -42.666 174.5 -75.999s88.166 -74.166 116.499 -122.499s42.5 -103.166 42.5 -164.499c0 -36.667 -6.83301 -71.667 -20.5 -105s-32.834 -63.5 -57.501 -90.5s-54.5 -50.5 -89.5 -70.5s-73.833 -35.333 -116.5 -46c44.667 -11.333 86.5 -26.833 125.5 -46.5
s73 -44.167 102 -73.5s51.833 -63.333 68.5 -102s25 -82.334 25 -131.001c0 -71.333 -15.667 -133.333 -47 -186s-73.833 -96.334 -127.5 -131.001s-116.167 -60.5 -187.5 -77.5s-146.666 -25.5 -225.999 -25.5zM718.002 124c64.667 0 123 6.16699 175 18.5
s96.5 30.166 133.5 53.499s65.5 52.166 85.5 86.499s30 73.5 30 117.5s-10 83.167 -30 117.5s-48.5 63.166 -85.5 86.499s-81.5 41.166 -133.5 53.499s-110.333 18.5 -175 18.5s-123 -6.16699 -175 -18.5s-96.5 -30.166 -133.5 -53.499s-65.5 -52.166 -85.5 -86.499
s-30 -73.5 -30 -117.5s10 -83.167 30 -117.5s48.5 -63.166 85.5 -86.499s81.5 -41.166 133.5 -53.499s110.333 -18.5 175 -18.5zM718.002 820c56.667 0 108.667 5.16699 156 15.5s88.166 25.833 122.499 46.5s61 46.334 80 77.001s28.5 66 28.5 106s-9.5 75.333 -28.5 106
s-45.667 56.334 -80 77.001s-75.166 36.167 -122.499 46.5s-99.333 15.5 -156 15.5s-108.667 -5.16699 -156 -15.5s-88.166 -25.833 -122.499 -46.5s-61 -46.334 -80 -77.001s-28.5 -66 -28.5 -106s9.5 -75.333 28.5 -106s45.667 -56.334 80 -77.001
s75.166 -36.167 122.499 -46.5s99.333 -15.5 156 -15.5z" />
    <glyph glyph-name="nine" unicode="9" horiz-adv-x="1495" 
d="M738 124c76 0.666992 140.333 13.8301 193 39.4971s96 63.334 130 113.001s60 111 78 184s30.333 157.5 37 253.5c-0.666992 -2 -4.16699 -8.5 -10.5 -19.5s-16.166 -24.333 -29.499 -40s-31 -32.5 -53 -50.5s-48.833 -34.5 -80.5 -49.5s-69.167 -27.5 -112.5 -37.5
s-93 -15 -149 -15c-102.667 0 -190.667 13.667 -264 41s-133.5 63.333 -180.5 108s-81.5 95.5 -103.5 152.5s-33 115.167 -33 174.5c0 62.667 11 122.667 33 180s56.5 108 103.5 152s107.167 79 180.5 105s161.333 39 264 39c69.333 0 131.166 -6.5 185.499 -19.5
s102.5 -30.667 144.5 -53s78 -48.666 108 -78.999s55 -62.833 75 -97.5s35.5 -71 46.5 -109s18.5 -75.667 22.5 -113c14.667 -145.333 14.5 -279.333 -0.5 -402s-46.333 -228.5 -94 -317.5s-112 -158.5 -193 -208.5s-180.167 -75 -297.5 -75c-48 0 -92 3.83301 -132 11.5
s-76 17.667 -108 30s-60.5 26.5 -85.5 42.5s-46.833 32.333 -65.5 49c-44 38.667 -78 83 -102 133h193c17.333 -23.333 40 -43.666 68 -60.999c24 -15.333 55 -29.333 93 -42s84.333 -19 139 -19zM322 977.996c0 -49.333 9.33301 -94.333 28 -135
s45.834 -75.667 81.501 -105s79.5 -52 131.5 -68s111.333 -24 178 -24s126.167 8 178.5 24s96.333 38.667 132 68s62.834 64.333 81.501 105s28 85.667 28 135s-9.33301 94.333 -28 135s-45.834 75.667 -81.501 105s-79.667 52 -132 68s-111.833 24 -178.5 24
s-126 -8 -178 -24s-95.833 -38.667 -131.5 -68s-62.834 -64.333 -81.501 -105s-28 -85.667 -28 -135z" />
    <glyph glyph-name="colon" unicode=":" horiz-adv-x="446" 
d="M120 93c0 14 2.66699 27.167 8 39.5s12.666 23.333 21.999 33s20.333 17.167 33 22.5s26 8 40 8s27.333 -2.66699 40 -8s23.667 -12.833 33 -22.5s16.666 -20.667 21.999 -33s8 -25.5 8 -39.5s-2.66699 -27.167 -8 -39.5s-12.666 -23.333 -21.999 -33
s-20.333 -17.167 -33 -22.5s-26 -8 -40 -8s-27.333 2.66699 -40 8s-23.667 12.833 -33 22.5s-16.666 20.667 -21.999 33s-8 25.5 -8 39.5zM120 913c0 14 2.66699 27.167 8 39.5s12.666 23.333 21.999 33s20.333 17.167 33 22.5s26 8 40 8s27.333 -2.66699 40 -8
s23.667 -12.833 33 -22.5s16.666 -20.667 21.999 -33s8 -25.5 8 -39.5s-2.66699 -27.167 -8 -39.5s-12.666 -23.333 -21.999 -33s-20.333 -17.167 -33 -22.5s-26 -8 -40 -8s-27.333 2.66699 -40 8s-23.667 12.833 -33 22.5s-16.666 20.667 -21.999 33s-8 25.5 -8 39.5z" />
    <glyph glyph-name="semicolon" unicode=";" horiz-adv-x="495" 
d="M169 913c0 14 2.66699 27.167 8 39.5s12.666 23.333 21.999 33s20.333 17.167 33 22.5s26 8 40 8s27.333 -2.66699 40 -8s23.667 -12.833 33 -22.5s16.666 -20.667 21.999 -33s8 -25.5 8 -39.5s-2.66699 -27.167 -8 -39.5s-12.666 -23.333 -21.999 -33
s-20.333 -17.167 -33 -22.5s-26 -8 -40 -8s-27.333 2.66699 -40 8s-23.667 12.833 -33 22.5s-16.666 20.667 -21.999 33s-8 25.5 -8 39.5zM187 236h178l-199 -436h-146z" />
    <glyph glyph-name="less" unicode="&#x3c;" horiz-adv-x="1179" 
d="M1039 1137v-162l-725 -368l725 -368v-162l-919 471v118z" />
    <glyph glyph-name="equal" unicode="=" horiz-adv-x="1033" 
d="M120 643h793v-150h-793v150zM120 910h793v-149h-793v149z" />
    <glyph glyph-name="greater" unicode="&#x3e;" horiz-adv-x="1179" 
d="M1059 666v-118l-919 -471v162l725 368l-725 368v162z" />
    <glyph glyph-name="question" unicode="?" horiz-adv-x="1368" 
d="M685 1454c102 0 188.665 -12.168 259.998 -36.501s129.5 -56 174.5 -95s77.667 -83.333 98 -133s30.5 -99.834 30.5 -150.501c0 -62 -12.333 -118.167 -37 -168.5s-59.667 -94.166 -105 -131.499s-99.666 -67.666 -162.999 -90.999s-133.333 -39 -210 -47v-290h-162v406
c77.333 1.33301 147.666 9.16602 210.999 23.499s117.333 35 162 62s79.167 60.333 103.5 100s36.5 85.167 36.5 136.5c0 38.667 -7.66699 74.5 -23 107.5s-39.166 61.667 -71.499 86s-73.666 43.333 -123.999 57s-110.5 20.5 -180.5 20.5
c-34.667 0 -66.5 -2.33301 -95.5 -7s-55.5 -11 -79.5 -19s-45.5 -17 -64.5 -27s-35.833 -20.333 -50.5 -31c-34 -24.667 -61.333 -52.667 -82 -84h-193c28 58 67.333 110 118 156c21.333 19.333 46.333 38.333 75 57s61.334 35.334 98.001 50.001s77.667 26.5 123 35.5
s95.666 13.5 150.999 13.5zM548.998 92.999c0 14 2.66699 27.167 8 39.5s12.666 23.333 21.999 33s20.333 17.167 33 22.5s26 8 40 8s27.333 -2.66699 40 -8s23.667 -12.833 33 -22.5s16.666 -20.667 21.999 -33s8 -25.5 8 -39.5s-2.66699 -27.167 -8 -39.5
s-12.666 -23.333 -21.999 -33s-20.333 -17.167 -33 -22.5s-26 -8 -40 -8s-27.333 2.66699 -40 8s-23.667 12.833 -33 22.5s-16.666 20.667 -21.999 33s-8 25.5 -8 39.5z" />
    <glyph glyph-name="at" unicode="@" horiz-adv-x="1794" 
d="M1499 92c-39.333 -50.667 -88 -96.0068 -146 -136.007c-24.667 -17.333 -52.667 -34 -84 -50s-65.833 -30.5 -103.5 -43.5s-78.834 -23.333 -123.501 -31s-93 -11.5 -145 -11.5c-68 0 -133.333 8.83301 -196 26.5s-121.334 42.5 -176.001 74.5
s-104.334 70.333 -149.001 115s-83 94.334 -115 149.001s-56.833 113.334 -74.5 176.001s-26.5 128 -26.5 196s8.83301 133.333 26.5 196s42.5 121.334 74.5 176.001s70.333 104.334 115 149.001s94.334 83 149.001 115s113.334 56.833 176.001 74.5s128 26.5 196 26.5
s133.333 -8.83301 196 -26.5s121.334 -42.5 176.001 -74.5s104.334 -70.333 149.001 -115s83 -94.334 115 -149.001s56.833 -113.334 74.5 -176.001s26.5 -128 26.5 -196c0 -55.333 -7.33301 -104.333 -22 -147s-35.167 -78.5 -61.5 -107.5s-58 -51.167 -95 -66.5
s-77.833 -23 -122.5 -23c-33.333 0 -62.333 5.83301 -87 17.5s-45.5 27.167 -62.5 46.5s-30.167 41.5 -39.5 66.5s-15.666 50.833 -18.999 77.5c-5.33301 -40 -15 -77.333 -29 -112s-32.667 -64.667 -56 -90s-52 -45.166 -86 -59.499s-73.333 -21.5 -118 -21.5
c-60 0 -112.333 11.333 -157 34s-81.167 53.334 -109.5 92.001s-48.5 83.834 -60.5 135.501s-15.333 106.167 -10 163.5c6 56 17.833 105 35.5 147s39.167 78.167 64.5 108.5s53.166 55.5 83.499 75.5s60.833 36 91.5 48s60.5 20.333 89.5 25s55.167 7 78.5 7
c49.333 0 98.666 -6.66699 147.999 -20s95.333 -36.666 138 -69.999c-3.33301 -58 -6.16602 -113.5 -8.49902 -166.5s-3.5 -104.833 -3.5 -155.5c0 -29.333 1.83301 -56.5 5.5 -81.5s10 -46.667 19 -65s20.833 -32.666 35.5 -42.999s33.667 -15.5 57 -15.5
c46 0 80 17.667 102 53s33 84.333 33 147c0 82 -14.333 159 -43 231s-68.5 134.833 -119.5 188.5s-111.333 96 -181 127s-145.5 46.5 -227.5 46.5s-157.833 -15.5 -227.5 -46.5s-130 -73.333 -181 -127s-90.833 -116.5 -119.5 -188.5s-43 -149 -43 -231s14.333 -159 43 -231
s68.5 -134.833 119.5 -188.5s111.333 -96 181 -127s145.5 -46.5 227.5 -46.5c68.667 0 127.667 6.66699 177 20s90.666 28 123.999 44c38 18.667 70.333 40 97 64h204zM942 829.993c-26 0 -53.498 -3.5 -82.498 -10.5s-56.833 -20.333 -83.5 -40s-50.334 -47 -71.001 -82
s-35.334 -80.5 -44.001 -136.5c-4 -37.333 -3.66699 -72.833 1 -106.5s14.5 -63.334 29.5 -89.001s35.5 -46 61.5 -61s57.667 -22.5 95 -22.5c64.667 0 113.5 24 146.5 72s52.833 117.667 59.5 209l18 246c-14.667 6.66699 -32.5 11.834 -53.5 15.501s-46.5 5.5 -76.5 5.5z
" />
    <glyph glyph-name="A" unicode="A" horiz-adv-x="1592" 
d="M1154 422h-717l-194 -422h-173l661 1434h130l661 -1434h-173zM504 566h584l-292 634z" />
    <glyph glyph-name="B" unicode="B" horiz-adv-x="1416" 
d="M160 0l-0.00390625 1434h596c64 0 120.333 -5 169 -15s90.834 -24 126.501 -42s65.5 -39.167 89.5 -63.5s43.167 -50.666 57.5 -78.999s24.5 -58 30.5 -89s9 -62.167 9 -93.5c0 -34 -4.66699 -66.667 -14 -98s-22.666 -60 -39.999 -86s-38.166 -48.5 -62.499 -67.5
s-51.5 -33.5 -81.5 -43.5c42 -12.667 79 -30 111 -52s58.667 -47.833 80 -77.5s37.5 -62.5 48.5 -98.5s16.5 -74.667 16.5 -116c0 -50.667 -8.66699 -100.667 -26 -150s-46.166 -93.5 -86.499 -132.5s-93.833 -70.5 -160.5 -94.5s-149 -36 -247 -36h-616zM775.996 143.999
c68.667 0 125.833 7.66699 171.5 23s82 35.5 109 60.5s46 53.667 57 86s16.5 65.5 16.5 99.5c0 34.667 -5.33301 67.834 -16 99.501s-27.167 59.667 -49.5 84s-50.5 43.666 -84.5 57.999s-74.333 21.5 -121 21.5h-537v-532h454zM858.995 819.999
c34.667 0 65.167 5.83301 91.5 17.5s48.5 27.834 66.5 48.501s31.667 45.167 41 73.5s14 59.166 14 92.499c0 32 -4 62.333 -12 91s-23.5 54 -46.5 76s-55 39.333 -96 52s-94.833 19 -161.5 19h-434v-470h537z" />
    <glyph glyph-name="C" unicode="C" horiz-adv-x="1522" 
d="M286 717c0 -82 13.333 -159.002 40 -231.002s64.334 -134.833 113.001 -188.5s106.667 -96 174 -127s142 -46.5 224 -46.5c34 0 65.833 2.33301 95.5 7s57.167 11 82.5 19s48.333 17 69 27s39.334 20.333 56.001 31c38.667 24.667 71 52.667 97 84h185
c-32 -58 -74.667 -110 -128 -156c-22.667 -19.333 -49 -38.333 -79 -57s-63.833 -35.334 -101.5 -50.001s-79.5 -26.5 -125.5 -35.5s-96.333 -13.5 -151 -13.5c-68 0 -132.833 8.83301 -194.5 26.5s-119 42.5 -172 74.5s-101.167 70.333 -144.5 115
s-80.166 94.334 -110.499 149.001s-53.833 113.334 -70.5 176.001s-25 128 -25 196s8.33301 133.333 25 196s40.167 121.334 70.5 176.001s67.166 104.334 110.499 149.001s91.5 83 144.5 115s110.333 56.833 172 74.5s126.5 26.5 194.5 26.5c54.667 0 105 -4.5 151 -13.5
s87.833 -20.833 125.5 -35.5s71.5 -31.334 101.5 -50.001s56.333 -37.667 79 -57c53.333 -46 96 -98 128 -156h-185c-26 31.333 -58.333 59.333 -97 84c-16.667 10.667 -35.334 21 -56.001 31s-43.667 19 -69 27s-52.833 14.333 -82.5 19s-61.5 7 -95.5 7
c-82 0 -156.667 -15.5 -224 -46.5s-125.333 -73.333 -174 -127s-86.334 -116.5 -113.001 -188.5s-40 -149 -40 -231z" />
    <glyph glyph-name="D" unicode="D" horiz-adv-x="1468" 
d="M160 0v1434h491c113.333 0 213.333 -18.333 300 -55s159.5 -87 218.5 -151s103.5 -139.667 133.5 -227s45 -182 45 -284s-15 -196.667 -45 -284s-74.5 -163 -133.5 -227s-131.833 -114.333 -218.5 -151s-186.667 -55 -300 -55h-491zM651 144c92 0 171.333 14.5 238 43.5
s121.667 69.167 165 120.5s75.5 111.833 96.5 181.5s31.5 145.5 31.5 227.5s-10.5 157.833 -31.5 227.5s-53.167 130.167 -96.5 181.5s-98.333 91.5 -165 120.5s-146 43.5 -238 43.5h-329v-1146h329z" />
    <glyph glyph-name="E" unicode="E" horiz-adv-x="1334" 
d="M1077 805v-144h-755v-517h872v-144h-1034v1434h1024v-144h-862v-485h755z" />
    <glyph glyph-name="F" unicode="F" horiz-adv-x="1324" 
d="M1077 805v-144h-755v-661h-162v1434h1024v-144h-862v-485h755z" />
    <glyph glyph-name="G" unicode="G" horiz-adv-x="1672" 
d="M286 717c0 -82 14.333 -159.004 43 -231.004s68.5 -134.833 119.5 -188.5s111.333 -96 181 -127s145.5 -46.5 227.5 -46.5c76.667 0 147 13.833 211 41.5s118.833 65.5 164.5 113.5s81.167 104.667 106.5 170s38 136 38 212h-490v144h650
c8 -89.333 5.5 -171.666 -7.5 -246.999s-34.333 -143.5 -64 -204.5s-66.167 -114.833 -109.5 -161.5s-91.5 -85.667 -144.5 -117s-109.667 -55 -170 -71s-121.833 -24 -184.5 -24c-68 0 -133.333 8.83301 -196 26.5s-121.334 42.5 -176.001 74.5
s-104.334 70.333 -149.001 115s-83 94.334 -115 149.001s-56.833 113.334 -74.5 176.001s-26.5 128 -26.5 196s8.83301 133.333 26.5 196s42.5 121.334 74.5 176.001s70.333 104.334 115 149.001s94.334 83 149.001 115s113.334 56.833 176.001 74.5s128 26.5 196 26.5
c54 0 104 -4.5 150 -13.5s88.167 -20.833 126.5 -35.5s73 -31.334 104 -50.001s58.5 -37.667 82.5 -57c56 -46 102 -98 138 -156h-187c-28 31.333 -62.333 59.333 -103 84c-17.333 10.667 -36.833 21 -58.5 31s-45.5 19 -71.5 27s-54 14.333 -84 19s-62.333 7 -97 7
c-82 0 -157.833 -15.5 -227.5 -46.5s-130 -73.333 -181 -127s-90.833 -116.5 -119.5 -188.5s-43 -149 -43 -231z" />
    <glyph glyph-name="H" unicode="H" horiz-adv-x="1480" 
d="M1158 1434h162v-1434h-162v661h-836v-661h-162v1434h162v-629h836v629z" />
    <glyph glyph-name="I" unicode="I" horiz-adv-x="522" 
d="M180 1434h162v-1434h-162v1434z" />
    <glyph glyph-name="J" unicode="J" horiz-adv-x="1217" 
d="M278 327c12 -38 30.6641 -71.999 55.9971 -101.999c10.667 -12.667 23.334 -25 38.001 -37s31.5 -22.833 50.5 -32.5s40.5 -17.334 64.5 -23.001s51 -8.5 81 -8.5c112.667 0 195.334 32 248.001 96s79 158.667 79 284v930h162v-970c0 -81.333 -11.667 -152.333 -35 -213
s-56.333 -111 -99 -151s-94.167 -70 -154.5 -90s-127.166 -30 -200.499 -30c-52 0 -98.667 5 -140 15s-77.833 23 -109.5 39s-59.167 34.333 -82.5 55s-43 42 -59 64c-38 51.333 -63.667 109.333 -77 174h178z" />
    <glyph glyph-name="K" unicode="K" horiz-adv-x="1414" 
d="M1130 1434h214l-683 -599l683 -835h-189l-604 739l-229 -201v-538h-162v1434h162v-707z" />
    <glyph glyph-name="L" unicode="L" horiz-adv-x="1245" 
d="M322 144h803v-144h-965v1434h162v-1290z" />
    <glyph glyph-name="M" unicode="M" horiz-adv-x="1818" 
d="M909 210l523 1224h226v-1434h-162v1205l-515 -1205h-144l-515 1205v-1205h-162v1434h226z" />
    <glyph glyph-name="N" unicode="N" horiz-adv-x="1484" 
d="M160 1434h190l812 -1205v1205h162v-1434h-190l-812 1205v-1205h-162v1434z" />
    <glyph glyph-name="O" unicode="O" horiz-adv-x="1714" 
d="M120 717c0 68 8.83301 133.333 26.5 196s42.5 121.334 74.5 176.001s70.333 104.334 115 149.001s94.334 83 149.001 115s113.334 56.833 176.001 74.5s128 26.5 196 26.5s133.333 -8.83301 196 -26.5s121.334 -42.5 176.001 -74.5s104.334 -70.333 149.001 -115
s83 -94.334 115 -149.001s56.833 -113.334 74.5 -176.001s26.5 -128 26.5 -196s-8.83301 -133.333 -26.5 -196s-42.5 -121.334 -74.5 -176.001s-70.333 -104.334 -115 -149.001s-94.334 -83 -149.001 -115s-113.334 -56.833 -176.001 -74.5s-128 -26.5 -196 -26.5
s-133.333 8.83301 -196 26.5s-121.334 42.5 -176.001 74.5s-104.334 70.333 -149.001 115s-83 94.334 -115 149.001s-56.833 113.334 -74.5 176.001s-26.5 128 -26.5 196zM286 717c0 -82 14.333 -159 43 -231s68.5 -134.833 119.5 -188.5s111.333 -96 181 -127
s145.5 -46.5 227.5 -46.5s157.833 15.5 227.5 46.5s130 73.333 181 127s90.833 116.5 119.5 188.5s43 149 43 231s-14.333 159 -43 231s-68.5 134.833 -119.5 188.5s-111.333 96 -181 127s-145.5 46.5 -227.5 46.5s-157.833 -15.5 -227.5 -46.5s-130 -73.333 -181 -127
s-90.833 -116.5 -119.5 -188.5s-43 -149 -43 -231z" />
    <glyph glyph-name="P" unicode="P" horiz-adv-x="1406" 
d="M322 1290v-609.999h467c52.667 0 98.667 7.66699 138 23s72 36.666 98 63.999s45.333 60 58 98s19 79.667 19 125s-6.33301 86.5 -19 123.5s-32 68.5 -58 94.5s-58.667 46.167 -98 60.5s-85.333 21.5 -138 21.5h-467zM160 0.000976562v1434h629
c75.333 0 142.666 -10.167 201.999 -30.5s109.333 -49.666 150 -87.999s71.667 -85 93 -140s32 -116.833 32 -185.5c0 -69.333 -10.667 -131.833 -32 -187.5s-52.333 -103.334 -93 -143.001s-90.667 -70.167 -150 -91.5s-126.666 -32 -201.999 -32h-467v-536h-162z" />
    <glyph glyph-name="Q" unicode="Q" horiz-adv-x="1714" 
d="M120 717c0 68 8.83105 133.331 26.498 195.998s42.5 121.334 74.5 176.001s70.333 104.334 115 149.001s94.334 83 149.001 115s113.334 56.833 176.001 74.5s128 26.5 196 26.5s133.333 -8.83301 196 -26.5s121.334 -42.5 176.001 -74.5s104.334 -70.333 149.001 -115
s83 -94.334 115 -149.001s56.833 -113.334 74.5 -176.001s26.5 -128 26.5 -196c0 -61.333 -7.16699 -120.333 -21.5 -177s-34.5 -110.334 -60.5 -161.001s-57.5 -97.667 -94.5 -141s-78.167 -81.666 -123.5 -114.999l236 -279h-207l-171 197
c-46 -19.333 -93.5 -34.333 -142.5 -45s-99.833 -16 -152.5 -16c-68 0 -133.333 8.83301 -196 26.5s-121.334 42.5 -176.001 74.5s-104.334 70.333 -149.001 115s-83 94.334 -115 149.001s-56.833 113.334 -74.5 176.001s-26.5 128 -26.5 196zM285.998 716.998
c0 -82 14.333 -159 43 -231s68.5 -134.833 119.5 -188.5s111.333 -96 181 -127s145.5 -46.5 227.5 -46.5s157.833 15.5 227.5 46.5s130 73.333 181 127s90.833 116.5 119.5 188.5s43 149 43 231s-14.333 159 -43 231s-68.5 134.833 -119.5 188.5s-111.333 96 -181 127
s-145.5 46.5 -227.5 46.5s-157.833 -15.5 -227.5 -46.5s-130 -73.333 -181 -127s-90.833 -116.5 -119.5 -188.5s-43 -149 -43 -231z" />
    <glyph glyph-name="R" unicode="R" horiz-adv-x="1396" 
d="M160 0l-0.000976562 1434h663c68.667 0 130.334 -9.83301 185.001 -29.5s101.167 -47.667 139.5 -84s67.666 -80.166 87.999 -131.499s30.5 -108.333 30.5 -171c0 -56 -9.33301 -107 -28 -153s-44 -86.333 -76 -121s-69.667 -63.167 -113 -85.5
s-89.666 -37.833 -138.999 -46.5l351 -612h-177l-345 602h-417v-602h-162zM321.999 1290v-543.998h501c48 0 89.5 6.83301 124.5 20.5s64 32.5 87 56.5s40 52.667 51 86s16.5 69.666 16.5 108.999s-5.5 75.666 -16.5 108.999s-28 62 -51 86s-52 42.833 -87 56.5
s-76.5 20.5 -124.5 20.5h-501z" />
    <glyph glyph-name="S" unicode="S" horiz-adv-x="1299" 
d="M274 317c13.333 -36.667 35.6689 -69.0049 67.002 -97.0049c13.333 -12 29.166 -23.833 47.499 -35.5s39.666 -22 63.999 -31s52.166 -16.167 83.499 -21.5s66.666 -8 105.999 -8c64.667 0 121.5 6.33301 170.5 19s90 30.5 123 53.5s57.833 50.833 74.5 83.5
s25 69.334 25 110.001c0 36.667 -6.33301 69.334 -19 98.001s-34.167 54.334 -64.5 77.001s-70.666 42.334 -120.999 59.001s-113.166 31.334 -188.499 44.001c-99.333 16.667 -181.833 37.5 -247.5 62.5s-118.167 54.667 -157.5 89s-67 73.333 -83 117s-24 92.5 -24 146.5
c0 57.333 11.667 108.833 35 154.5s57 84.5 101 116.5s97.667 56.667 161 74s135 26 215 26c59.333 0 112.333 -4.5 159 -13.5s87.667 -21 123 -36s65.833 -32 91.5 -51s47.5 -38.5 65.5 -58.5c41.333 -46.667 68.666 -99.334 81.999 -158.001h-174
c-10 32 -29 60.667 -57 86c-12 10.667 -26.667 21.167 -44 31.5s-37.666 19.666 -60.999 27.999s-50.333 15 -81 20s-65.334 7.5 -104.001 7.5c-53.333 0 -101.5 -4.83301 -144.5 -14.5s-79.5 -24.167 -109.5 -43.5s-53.167 -43.166 -69.5 -71.499
s-24.5 -60.833 -24.5 -97.5c0 -34 5.5 -64.667 16.5 -92s29.833 -51.666 56.5 -72.999s62.334 -40 107.001 -56s100.667 -29.333 168 -40c96.667 -16 180 -35.5 250 -58.5s127.833 -51.5 173.5 -85.5s79.334 -74.5 101.001 -121.5s32.5 -102.5 32.5 -166.5
c0 -67.333 -13.333 -126.5 -40 -177.5s-64.334 -93.667 -113.001 -128s-107.167 -60.333 -175.5 -78s-144.5 -26.5 -228.5 -26.5c-63.333 0 -119.5 4.83301 -168.5 14.5s-92.167 22.334 -129.5 38.001s-69.333 33.5 -96 53.5s-49 40.667 -67 62
c-42 49.333 -69 105.666 -81 168.999h174z" />
    <glyph glyph-name="T" unicode="T" horiz-adv-x="1422" 
d="M1322 1434v-144h-530v-1290h-162v1290h-530v144h1222z" />
    <glyph glyph-name="U" unicode="U" horiz-adv-x="1464" 
d="M732 -20c-189.333 0 -332.002 54.5 -428.002 163.5s-144 265.833 -144 470.5v820h162v-780c0 -86 7.83301 -162 23.5 -228s40 -121.333 73 -166s75.333 -78.5 127 -101.5s113.834 -34.5 186.501 -34.5s134.834 11.5 186.501 34.5s94 56.833 127 101.5s57.333 100 73 166
s23.5 142 23.5 228v780h162v-820c0 -204.667 -48 -361.5 -144 -470.5s-238.667 -163.5 -428 -163.5z" />
    <glyph glyph-name="V" unicode="V" horiz-adv-x="1532" 
d="M1289 1434h173l-631 -1434h-130l-631 1434h173l523 -1198z" />
    <glyph glyph-name="W" unicode="W" horiz-adv-x="2080" 
d="M953 1434h174l337 -1135l378 1135h168l-480 -1434h-137l-353 1195l-353 -1195h-137l-480 1434h168l378 -1135z" />
    <glyph glyph-name="X" unicode="X" horiz-adv-x="1484" 
d="M120 1434h190l432 -564l432 564h190l-522 -685l572 -749h-190l-482 627l-482 -627h-190l572 749z" />
    <glyph glyph-name="Y" unicode="Y" horiz-adv-x="1474" 
d="M737 744l477 690h190l-586 -845v-589h-162v589l-586 845h190z" />
    <glyph glyph-name="Z" unicode="Z" horiz-adv-x="1387" 
d="M1247 144v-144h-1107v91l872 1199h-869v144h1100v-91l-872 -1199h876z" />
    <glyph glyph-name="bracketleft" unicode="[" horiz-adv-x="634" 
d="M318 -104h186v-140h-334v1678h334v-140h-186v-1398z" />
    <glyph glyph-name="backslash" unicode="\" horiz-adv-x="1077" 
d="M947 0h-159l-658 1434h159z" />
    <glyph glyph-name="bracketright" unicode="]" horiz-adv-x="634" 
d="M316 1294h-186v140h334v-1678h-334v140h186v1398z" />
    <glyph glyph-name="asciicircum" unicode="^" horiz-adv-x="1056" 
d="M528 1219l-236 -370h-172l351 585h114l351 -585h-172z" />
    <glyph glyph-name="underscore" unicode="_" horiz-adv-x="1070" 
d="M100 -134h870v-118h-870v118z" />
    <glyph glyph-name="grave" unicode="`" horiz-adv-x="682" 
d="M582 1129h-173l-309 305h209z" />
    <glyph glyph-name="a" unicode="a" horiz-adv-x="1286" 
d="M992 1006l154 0.00390625v-1006h-154v211c-22.667 -43.333 -52 -82 -88 -116c-15.333 -14.667 -32.666 -28.834 -51.999 -42.501s-41 -25.834 -65 -36.501s-50.5 -19.334 -79.5 -26.001s-60.5 -10 -94.5 -10c-70 0 -136 13.167 -198 39.5s-116.333 62.833 -163 109.5
s-83.667 102 -111 166s-41 133.333 -41 208s13.667 144 41 208s64.333 119.333 111 166s101 83.167 163 109.5s128 39.5 198 39.5c34 0 65.5 -3.33301 94.5 -10s55.5 -15.5 79.5 -26.5s45.667 -23.333 65 -37s36.666 -27.834 51.999 -42.501c36 -34 65.333 -72.333 88 -115
v211zM992 503.004c0 56.667 -9.66699 108.834 -29 156.501s-45.666 88.834 -78.999 123.501s-72.5 61.834 -117.5 81.501s-92.833 29.5 -143.5 29.5c-51.333 0 -99.333 -9.83301 -144 -29.5s-83.667 -46.834 -117 -81.501s-59.666 -75.834 -78.999 -123.501
s-29 -99.834 -29 -156.501s9.66699 -108.834 29 -156.501s45.666 -88.834 78.999 -123.501s72.333 -61.834 117 -81.501s92.667 -29.5 144 -29.5c50.667 0 98.5 9.83301 143.5 29.5s84.167 46.834 117.5 81.501s59.666 75.834 78.999 123.501s29 99.834 29 156.501z" />
    <glyph glyph-name="b" unicode="b" horiz-adv-x="1286" 
d="M294 795c0.666992 2 4.5 9.00098 11.5 21.001s17.167 26.5 30.5 43.5s30 35.333 50 55s44 37.667 72 54s59.833 30 95.5 41s75.5 16.5 119.5 16.5c70 0 136 -13.167 198 -39.5s116.333 -62.833 163 -109.5s83.667 -102 111 -166s41 -133.333 41 -208
s-13.667 -144 -41 -208s-64.333 -119.333 -111 -166s-101 -83.167 -163 -109.5s-128 -39.5 -198 -39.5c-44 0 -83.833 5.5 -119.5 16.5s-67.5 24.667 -95.5 41s-52 34.166 -72 53.499s-36.667 37.5 -50 54.5s-23.5 31.5 -30.5 43.5s-10.833 19 -11.5 21v-210h-154v1516h154
v-721zM294 503.001c0 -56.667 9.66699 -108.834 29 -156.501s45.666 -88.834 78.999 -123.501s72.333 -61.834 117 -81.501s92.667 -29.5 144 -29.5c50.667 0 98.5 9.83301 143.5 29.5s84.167 46.834 117.5 81.501s59.666 75.834 78.999 123.501s29 99.834 29 156.501
s-9.66699 108.834 -29 156.501s-45.666 88.834 -78.999 123.501s-72.5 61.834 -117.5 81.501s-92.833 29.5 -143.5 29.5c-51.333 0 -99.333 -9.83301 -144 -29.5s-83.667 -46.834 -117 -81.501s-59.666 -75.834 -78.999 -123.501s-29 -99.834 -29 -156.501z" />
    <glyph glyph-name="c" unicode="c" horiz-adv-x="1163" 
d="M910 754c-18 26 -40.333 49.3389 -67 70.0059c-23.333 17.333 -53.166 33.333 -89.499 48s-79.833 22 -130.5 22c-51.333 0 -99.333 -9.83301 -144 -29.5s-83.667 -46.834 -117 -81.501s-59.666 -75.834 -78.999 -123.501s-29 -99.834 -29 -156.501
s9.66699 -108.834 29 -156.501s45.666 -88.834 78.999 -123.501s72.333 -61.834 117 -81.501s92.667 -29.5 144 -29.5c50.667 0 94.167 7.33301 130.5 22s66.166 30.667 89.499 48c26.667 20.667 49 44 67 70h173c-24 -50.667 -56.667 -96 -98 -136
c-18 -17.333 -38.667 -34 -62 -50s-49.833 -30.5 -79.5 -43.5s-62.834 -23.333 -99.501 -31s-77 -11.5 -121 -11.5c-72 0 -139.833 13.167 -203.5 39.5s-119.167 62.833 -166.5 109.5s-84.666 102 -111.999 166s-41 133.333 -41 208s13.667 144 41 208
s64.666 119.333 111.999 166s102.833 83.167 166.5 109.5s131.5 39.5 203.5 39.5c44 0 84.333 -3.83301 121 -11.5s69.834 -18 99.501 -31s56.167 -27.667 79.5 -44s44 -32.833 62 -49.5c41.333 -40 74 -85.333 98 -136h-173z" />
    <glyph glyph-name="d" unicode="d" horiz-adv-x="1286" 
d="M992 1516l154 -0.000976562v-1516h-154v210c-0.666992 -2 -4.5 -9 -11.5 -21s-17.167 -26.5 -30.5 -43.5s-30 -35.167 -50 -54.5s-44 -37.166 -72 -53.499s-59.833 -30 -95.5 -41s-75.5 -16.5 -119.5 -16.5c-70 0 -136 13.167 -198 39.5s-116.333 62.833 -163 109.5
s-83.667 102 -111 166s-41 133.333 -41 208s13.667 144 41 208s64.333 119.333 111 166s101 83.167 163 109.5s128 39.5 198 39.5c44 0 83.833 -5.5 119.5 -16.5s67.5 -24.667 95.5 -41s52 -34.333 72 -54s36.667 -38 50 -55s23.5 -31.5 30.5 -43.5s10.833 -19 11.5 -21v721
zM992 502.999c0 56.667 -9.66699 108.834 -29 156.501s-45.666 88.834 -78.999 123.501s-72.5 61.834 -117.5 81.501s-92.833 29.5 -143.5 29.5c-51.333 0 -99.333 -9.83301 -144 -29.5s-83.667 -46.834 -117 -81.501s-59.666 -75.834 -78.999 -123.501
s-29 -99.834 -29 -156.501s9.66699 -108.834 29 -156.501s45.666 -88.834 78.999 -123.501s72.333 -61.834 117 -81.501s92.667 -29.5 144 -29.5c50.667 0 98.5 9.83301 143.5 29.5s84.167 46.834 117.5 81.501s59.666 75.834 78.999 123.501s29 99.834 29 156.501z" />
    <glyph glyph-name="e" unicode="e" horiz-adv-x="1251" 
d="M623 -20c-72 0 -139.829 12.833 -203.496 38.5s-119.167 61.5 -166.5 107.5s-84.666 101 -111.999 165s-41 134.667 -41 212s13.667 148 41 212s64.666 119 111.999 165s102.833 81.833 166.5 107.5s131.5 38.5 203.5 38.5s140.833 -13.333 206.5 -40
s123 -65.5 172 -116.5s87.167 -113.167 114.5 -186.5s38.666 -156.333 33.999 -249h-891c7.33301 -47.333 21.833 -90.833 43.5 -130.5s48.667 -73.667 81 -102s68.833 -50.333 109.5 -66s84 -23.5 130 -23.5c53.333 0 99.166 7.33301 137.499 22s70.166 30.667 95.499 48
c29.333 20.667 54 44 74 70h173c-25.333 -50.667 -60 -96 -104 -136c-18.667 -17.333 -40.334 -34 -65.001 -50s-52.5 -30.5 -83.5 -43.5s-65.333 -23.333 -103 -31s-79.167 -11.5 -124.5 -11.5zM623.004 894c-46 0 -89.666 -8 -130.999 -24s-78.166 -38.5 -110.499 -67.5
s-59.333 -63.667 -81 -104s-35.834 -84.5 -42.501 -132.5h729c-6.66699 48 -20.834 92.167 -42.501 132.5s-48.667 75 -81 104s-69 51.5 -110 67.5s-84.5 24 -130.5 24z" />
    <glyph glyph-name="f" unicode="f" horiz-adv-x="928" 
d="M778 1006l0.00195312 -132h-319v-874h-154v874h-225v132h225v63c0 153.333 27.5 269.5 82.5 348.5s142.167 118.5 261.5 118.5c22.667 0 43.167 -1 61.5 -3s34.166 -4.33301 47.499 -7c15.333 -2.66699 28.666 -6 39.999 -10v-126c-13.333 2 -27.333 4.33301 -42 7
l-42 4.5c-15.333 1.66699 -30.333 2.5 -45 2.5c-38 0 -70.167 -5.66699 -96.5 -17s-48 -30.166 -65 -56.499s-29.333 -60.833 -37 -103.5s-11.5 -95.334 -11.5 -158.001v-63h319z" />
    <glyph glyph-name="g" unicode="g" horiz-adv-x="1286" 
d="M992 210c-1.33301 -2 -5.33008 -9.00098 -11.9971 -21.001s-16.667 -26.5 -30 -43.5s-30.166 -35.167 -50.499 -54.5s-44.333 -37.166 -72 -53.499s-59.334 -30 -95.001 -41s-75.5 -16.5 -119.5 -16.5c-70 0 -136 13.167 -198 39.5s-116.333 62.833 -163 109.5
s-83.667 102 -111 166s-41 133.333 -41 208s13.667 144 41 208s64.333 119.333 111 166s101 83.167 163 109.5s128 39.5 198 39.5c44 0 83.833 -5.5 119.5 -16.5s67.334 -24.667 95.001 -41s51.667 -34.333 72 -54s37.166 -38 50.499 -55s23.333 -31.5 30 -43.5
s10.667 -19 12 -21v211h154v-956c0 -87.333 -9.66699 -166.666 -29 -237.999s-49.5 -132.5 -90.5 -183.5s-93.667 -90.5 -158 -118.5s-141.5 -42 -231.5 -42c-46 0 -87.333 3.66699 -124 11s-69.334 17.166 -98.001 29.499s-53.834 26.333 -75.501 42
s-40.167 31.834 -55.5 48.501c-36.667 38 -62.667 81.667 -78 131h170c12.667 -24.667 30.667 -46.334 54 -65.001c20 -16.667 46.667 -31.667 80 -45s75.666 -20 126.999 -20c74 0 134 12.667 180 38s82 59.833 108 103.5s43.667 94.5 53 152.5s14 120 14 186v130z
M992.003 502.999c0 56.667 -9.66699 108.834 -29 156.501s-45.666 88.834 -78.999 123.501s-72.5 61.834 -117.5 81.501s-92.833 29.5 -143.5 29.5c-51.333 0 -99.333 -9.83301 -144 -29.5s-83.667 -46.834 -117 -81.501s-59.666 -75.834 -78.999 -123.501
s-29 -99.834 -29 -156.501s9.66699 -108.834 29 -156.501s45.666 -88.834 78.999 -123.501s72.333 -61.834 117 -81.501s92.667 -29.5 144 -29.5c50.667 0 98.5 9.83301 143.5 29.5s84.167 46.834 117.5 81.501s59.666 75.834 78.999 123.501s29 99.834 29 156.501z" />
    <glyph glyph-name="h" unicode="h" 
d="M1062 0l-154 -0.000976562v503c0 54 -5.5 104.667 -16.5 152s-28.667 88.666 -53 123.999s-56 63.333 -95 84s-86.5 31 -142.5 31s-103.5 -10.333 -142.5 -31s-70.667 -48.667 -95 -84s-42 -76.666 -53 -123.999s-16.5 -98 -16.5 -152v-503h-154v1516h154v-702
c0.666992 2 3.16699 8.5 7.5 19.5s11.333 24.333 21 40s22.5 32.5 38.5 50.5s35.833 34.5 59.5 49.5s52 27.5 85 37.5s71.5 15 115.5 15c74 0 138.667 -12.333 194 -37s101.333 -59.667 138 -105s64 -100.166 82 -164.499s27 -136.5 27 -216.5v-503z" />
    <glyph glyph-name="i" unicode="i" horiz-adv-x="486" 
d="M166 1006h154v-1006h-154v1006zM140 1290c0 14 2.66699 27.167 8 39.5s12.833 23.166 22.5 32.499s20.667 16.666 33 21.999s25.5 8 39.5 8s27.167 -2.66699 39.5 -8s23.333 -12.666 33 -21.999s17.167 -20.166 22.5 -32.499s8 -25.5 8 -39.5s-2.66699 -27.333 -8 -40
s-12.833 -23.5 -22.5 -32.5s-20.667 -16.167 -33 -21.5s-25.5 -8 -39.5 -8s-27.167 2.66699 -39.5 8s-23.333 12.5 -33 21.5s-17.167 19.833 -22.5 32.5s-8 26 -8 40z" />
    <glyph glyph-name="j" unicode="j" horiz-adv-x="509" 
d="M189 1006l154.001 -0.00195312v-1071c0 -76.667 -6.16699 -144.167 -18.5 -202.5s-31.833 -107 -58.5 -146s-61.167 -68.5 -103.5 -88.5s-93.5 -30 -153.5 -30c-32.667 0 -61.834 1.83301 -87.501 5.5s-47.5 7.83398 -65.5 12.501c-21.333 5.33301 -40 11.666 -56 18.999
l56 120c13.333 -5.33301 28 -9.66602 44 -12.999c13.333 -3.33301 28.5 -6.16602 45.5 -8.49902s34.833 -3.5 53.5 -3.5c34 0 63 5.66699 87 17s43.667 30.166 59 56.499s26.5 60.833 33.5 103.5s10.5 95.334 10.5 158.001v1071zM163.001 1290c0 14 2.66699 27.167 8 39.5
s12.833 23.166 22.5 32.499s20.667 16.666 33 21.999s25.5 8 39.5 8s27.167 -2.66699 39.5 -8s23.333 -12.666 33 -21.999s17.167 -20.166 22.5 -32.499s8 -25.5 8 -39.5s-2.66699 -27.333 -8 -40s-12.833 -23.5 -22.5 -32.5s-20.667 -16.167 -33 -21.5s-25.5 -8 -39.5 -8
s-27.167 2.66699 -39.5 8s-23.333 12.5 -33 21.5s-17.167 19.833 -22.5 32.5s-8 26 -8 40z" />
    <glyph glyph-name="k" unicode="k" horiz-adv-x="1080" 
d="M817 1006h213l-472 -399l472 -607h-183l-397 515l-156 -133v-382h-154v1516h154v-953z" />
    <glyph glyph-name="l" unicode="l" horiz-adv-x="474" 
d="M160 0v1516h154v-1516h-154z" />
    <glyph glyph-name="m" unicode="m" horiz-adv-x="1866" 
d="M1726 0l-154 0.000976562v503c0 54 -4.5 104.5 -13.5 151.5s-24.333 88.167 -46 123.5s-50.5 63.166 -86.5 83.499s-81 30.5 -135 30.5s-99 -10.167 -135 -30.5s-64.833 -48.166 -86.5 -83.499s-37 -76.5 -46 -123.5s-13.5 -97.5 -13.5 -151.5v-503h-154v503
c0 54 -4.5 104.5 -13.5 151.5s-24.333 88.167 -46 123.5s-50.5 63.166 -86.5 83.499s-81 30.5 -135 30.5s-99 -10.167 -135 -30.5s-64.833 -48.166 -86.5 -83.499s-37 -76.5 -46 -123.5s-13.5 -97.5 -13.5 -151.5v-503h-154v1006h154v-172c0.666992 2 3.33398 8 8.00098 18
s11.667 22.167 21 36.5s21.5 29.5 36.5 45.5s33.5 30.833 55.5 44.5s47.667 25 77 34s63 13.5 101 13.5c36.667 0 70 -3.33301 100 -10s57.167 -15.334 81.5 -26.001s45.666 -22.834 63.999 -36.501s34.5 -27.5 48.5 -41.5c32 -33.333 56.667 -71.333 74 -114
c18 42.667 43 80.667 75 114c13.333 14 28.833 27.833 46.5 41.5s37.834 25.834 60.501 36.501s47.667 19.334 75 26.001s57.666 10 90.999 10c74 0 137.5 -12.667 190.5 -38s96.167 -60.333 129.5 -105s57.833 -97.834 73.5 -159.501s23.5 -128.5 23.5 -200.5v-523z" />
    <glyph glyph-name="n" unicode="n" 
d="M1062 0l-154 -0.000976562v503c0 54 -5.5 104.667 -16.5 152s-28.667 88.666 -53 123.999s-56 63.333 -95 84s-86.5 31 -142.5 31s-103.5 -10.333 -142.5 -31s-70.667 -48.667 -95 -84s-42 -76.666 -53 -123.999s-16.5 -98 -16.5 -152v-503h-154v1006h154v-192
c0.666992 2 3.16699 8.5 7.5 19.5s11.333 24.333 21 40s22.5 32.5 38.5 50.5s35.833 34.5 59.5 49.5s52 27.5 85 37.5s71.5 15 115.5 15c74 0 138.667 -12.333 194 -37s101.333 -59.667 138 -105s64 -100.166 82 -164.499s27 -136.5 27 -216.5v-503z" />
    <glyph glyph-name="o" unicode="o" horiz-adv-x="1246" 
d="M100 503c0 77.333 13.667 148 41 212s64.666 119 111.999 165s102.833 81.833 166.5 107.5s131.5 38.5 203.5 38.5s139.833 -12.833 203.5 -38.5s119.167 -61.5 166.5 -107.5s84.666 -101 111.999 -165s41 -134.667 41 -212s-13.667 -148 -41 -212
s-64.666 -119 -111.999 -165s-102.833 -81.833 -166.5 -107.5s-131.5 -38.5 -203.5 -38.5s-139.833 12.833 -203.5 38.5s-119.167 61.5 -166.5 107.5s-84.666 101 -111.999 165s-41 134.667 -41 212zM254 503c0 -56.667 9.66699 -108.834 29 -156.501
s45.666 -88.834 78.999 -123.501s72.333 -61.834 117 -81.501s92.667 -29.5 144 -29.5c50.667 0 98.5 9.83301 143.5 29.5s84.167 46.834 117.5 81.501s59.666 75.834 78.999 123.501s29 99.834 29 156.501s-9.66699 108.834 -29 156.501s-45.666 88.834 -78.999 123.501
s-72.5 61.834 -117.5 81.501s-92.833 29.5 -143.5 29.5c-51.333 0 -99.333 -9.83301 -144 -29.5s-83.667 -46.834 -117 -81.501s-59.666 -75.834 -78.999 -123.501s-29 -99.834 -29 -156.501z" />
    <glyph glyph-name="p" unicode="p" horiz-adv-x="1286" 
d="M294 795c0.666992 2 4.5 9.00098 11.5 21.001s17.167 26.5 30.5 43.5s30 35.333 50 55s44 37.667 72 54s59.833 30 95.5 41s75.5 16.5 119.5 16.5c70 0 136 -13.167 198 -39.5s116.333 -62.833 163 -109.5s83.667 -102 111 -166s41 -133.333 41 -208
s-13.667 -144 -41 -208s-64.333 -119.333 -111 -166s-101 -83.167 -163 -109.5s-128 -39.5 -198 -39.5c-44 0 -83.833 5.5 -119.5 16.5s-67.5 24.667 -95.5 41s-52 34.166 -72 53.499s-36.667 37.5 -50 54.5s-23.5 31.5 -30.5 43.5s-10.833 19 -11.5 21v-742h-154v1538h154
v-211zM294 503.001c0 -56.667 9.66699 -108.834 29 -156.501s45.666 -88.834 78.999 -123.501s72.333 -61.834 117 -81.501s92.667 -29.5 144 -29.5c50.667 0 98.5 9.83301 143.5 29.5s84.167 46.834 117.5 81.501s59.666 75.834 78.999 123.501s29 99.834 29 156.501
s-9.66699 108.834 -29 156.501s-45.666 88.834 -78.999 123.501s-72.5 61.834 -117.5 81.501s-92.833 29.5 -143.5 29.5c-51.333 0 -99.333 -9.83301 -144 -29.5s-83.667 -46.834 -117 -81.501s-59.666 -75.834 -78.999 -123.501s-29 -99.834 -29 -156.501z" />
    <glyph glyph-name="q" unicode="q" horiz-adv-x="1286" 
d="M992 1006l154 -0.000976562v-1538h-154v742c-0.666992 -2 -4.5 -9 -11.5 -21s-17.167 -26.5 -30.5 -43.5s-30 -35.167 -50 -54.5s-44 -37.166 -72 -53.499s-59.833 -30 -95.5 -41s-75.5 -16.5 -119.5 -16.5c-70 0 -136 13.167 -198 39.5s-116.333 62.833 -163 109.5
s-83.667 102 -111 166s-41 133.333 -41 208s13.667 144 41 208s64.333 119.333 111 166s101 83.167 163 109.5s128 39.5 198 39.5c44 0 83.833 -5.5 119.5 -16.5s67.5 -24.667 95.5 -41s52 -34.333 72 -54s36.667 -38 50 -55s23.5 -31.5 30.5 -43.5s10.833 -19 11.5 -21v211
zM992 502.999c0 56.667 -9.66699 108.834 -29 156.501s-45.666 88.834 -78.999 123.501s-72.5 61.834 -117.5 81.501s-92.833 29.5 -143.5 29.5c-51.333 0 -99.333 -9.83301 -144 -29.5s-83.667 -46.834 -117 -81.501s-59.666 -75.834 -78.999 -123.501
s-29 -99.834 -29 -156.501s9.66699 -108.834 29 -156.501s45.666 -88.834 78.999 -123.501s72.333 -61.834 117 -81.501s92.667 -29.5 144 -29.5c50.667 0 98.5 9.83301 143.5 29.5s84.167 46.834 117.5 81.501s59.666 75.834 78.999 123.501s29 99.834 29 156.501z" />
    <glyph glyph-name="r" unicode="r" horiz-adv-x="833" 
d="M733 877l-43.998 8.00195c-13.333 2 -28.333 4 -45 6s-33.667 3 -51 3c-54 0 -100 -10.167 -138 -30.5s-68.833 -48 -92.5 -83s-41 -76.333 -52 -124s-16.5 -98.834 -16.5 -153.501v-503h-154v1006h154v-192c9.33301 31.333 23.166 60.166 41.499 86.499
s40.333 48.833 66 67.5s54.667 33 87 43s67.5 15 105.5 15c16.667 0 33.167 -1 49.5 -3s31.166 -4.33301 44.499 -7c15.333 -2.66699 30.333 -6 45 -10v-129z" />
    <glyph glyph-name="s" unicode="s" horiz-adv-x="1010" 
d="M502 112c42 0 79.667 3.50098 113 10.501s61.666 17.333 84.999 31s41.166 30.5 53.499 50.5s18.5 43 18.5 69s-3.83301 48.333 -11.5 67s-21.667 35 -42 49s-48 25.667 -83 35s-79.5 17.333 -133.5 24c-64.667 8 -122 19.5 -172 34.5s-92.167 34.333 -126.5 58
s-60.333 52.167 -78 85.5s-26.5 72.666 -26.5 117.999c0 37.333 8 73 24 107s40.5 64 73.5 90s74.833 46.667 125.5 62s110.667 23 180 23c44.667 0 84.667 -3.66699 120 -11s66.666 -16.833 93.999 -28.5s50.833 -25 70.5 -40s36.5 -30.5 50.5 -46.5
c32 -36.667 53.667 -78.667 65 -126h-160c-8.66699 22.667 -23.334 42.667 -44.001 60c-17.333 15.333 -41.666 29.166 -72.999 41.499s-72.333 18.5 -123 18.5c-44 0 -81.667 -3.83301 -113 -11.5s-56.666 -18.334 -75.999 -32.001s-33.5 -29.667 -42.5 -48
s-13.5 -37.833 -13.5 -58.5c0 -43.333 18.833 -77.833 56.5 -103.5s100.5 -43.5 188.5 -53.5c65.333 -7.33301 124.333 -18.166 177 -32.499s97.667 -33.833 135 -58.5s66 -55.167 86 -91.5s30 -80.166 30 -131.499c0 -48 -10 -90.167 -30 -126.5s-48.5 -66.833 -85.5 -91.5
s-82 -43.334 -135 -56.001s-112.167 -19 -177.5 -19c-49.333 0 -93.166 3.66699 -131.499 11s-72 16.833 -101 28.5s-53.833 25 -74.5 40s-38 30.5 -52 46.5c-32.667 36.667 -53.667 78.667 -63 126h160c11.333 -22.667 28 -42.667 50 -60
c19.333 -15.333 45.833 -29.166 79.5 -41.499s77.834 -18.5 132.501 -18.5z" />
    <glyph glyph-name="t" unicode="t" horiz-adv-x="879" 
d="M80 1006l225 0.000976562v294h154v-294h320v-132h-320v-433c0 -55.333 2.33301 -103.5 7 -144.5s13.667 -75.167 27 -102.5s32 -47.833 56 -61.5s55.333 -20.5 94 -20.5c16 0 32 0.5 48 1.5s30.667 2.16699 44 3.5l44 6v-127
c-13.333 -2.66699 -28.333 -5.33398 -45 -8.00098c-14 -2 -30.5 -3.83301 -49.5 -5.5s-39.5 -2.5 -61.5 -2.5c-64 0 -116.5 9.66699 -157.5 29s-73.333 48.166 -97 86.499s-40.167 86.333 -49.5 144s-14 124.834 -14 201.501v433h-225v132z" />
    <glyph glyph-name="u" unicode="u" 
d="M140 1006l154 0.000976562v-503c0 -54 5.5 -104.667 16.5 -152s28.667 -88.666 53 -123.999s56 -63.333 95 -84s86.5 -31 142.5 -31s103.5 10.333 142.5 31s70.667 48.667 95 84s42 76.666 53 123.999s16.5 98 16.5 152v503h154v-1006h-154v192
c-0.666992 -2 -3.16699 -8.5 -7.5 -19.5s-11.333 -24.333 -21 -40s-22.5 -32.5 -38.5 -50.5s-35.833 -34.5 -59.5 -49.5s-52 -27.5 -85 -37.5s-71.5 -15 -115.5 -15c-74 0 -138.667 12.333 -194 37s-101.333 59.667 -138 105s-64 100.166 -82 164.499s-27 136.5 -27 216.5
v503z" />
    <glyph glyph-name="v" unicode="v" horiz-adv-x="1134" 
d="M913 1006h171l-438 -1006h-158l-438 1006h171l346 -820z" />
    <glyph glyph-name="w" unicode="w" horiz-adv-x="1538" 
d="M697 1006h144l240 -768l238 768h169l-334 -1006h-144l-241 771l-241 -771h-144l-334 1006h169l238 -768z" />
    <glyph glyph-name="x" unicode="x" horiz-adv-x="1128" 
d="M235 0h-185l416 532l-375 474h185l288 -365l288 365h185l-375 -474l416 -532h-185l-329 421z" />
    <glyph glyph-name="y" unicode="y" horiz-adv-x="1134" 
d="M488 0l-438 1006h171l346 -820l346 820h171l-670 -1538h-158z" />
    <glyph glyph-name="z" unicode="z" horiz-adv-x="1053" 
d="M100 78l623 796h-600v132h830v-78l-623 -796h623v-132h-853v78z" />
    <glyph glyph-name="braceleft" unicode="{" horiz-adv-x="869" 
d="M120 666c39.333 6.66699 74.999 16.502 106.999 29.502s59.333 32.333 82 58s40.167 58.834 52.5 99.501s18.5 92 18.5 154c0 70.667 8.33301 133.667 25 189s40.834 102.166 72.501 140.499s70.334 67.5 116.001 87.5s97.5 30 155.5 30v-145
c-35.333 0 -65.833 -7 -91.5 -21s-47.167 -34.167 -64.5 -60.5s-30.166 -58.5 -38.499 -96.5s-12.5 -81.333 -12.5 -130c0 -61.333 -5.66699 -115 -17 -161s-26.666 -85.5 -45.999 -118.5s-41.833 -59.833 -67.5 -80.5s-52.5 -36.334 -80.5 -47.001
c28 -10.667 54.833 -26.334 80.5 -47.001s48.167 -47.5 67.5 -80.5s34.666 -72.5 45.999 -118.5s17 -99.667 17 -161c0 -97.333 17 -173 51 -227s86 -81 156 -81v-145c-58 0 -109.833 10 -155.5 30s-84.334 49.167 -116.001 87.5s-55.834 85.166 -72.501 140.499
s-25 118.333 -25 189c0 62 -6.16699 113.333 -18.5 154s-29.833 73.834 -52.5 99.501s-50 45 -82 58s-67.667 22.833 -107 29.5v144v0z" />
    <glyph glyph-name="bar" unicode="|" horiz-adv-x="442" 
d="M140 1434h162v-1966h-162v1966z" />
    <glyph glyph-name="braceright" unicode="}" horiz-adv-x="869" 
d="M749 522c-39.333 -6.66699 -75.001 -16.502 -107.001 -29.502s-59.333 -32.333 -82 -58s-40.167 -58.834 -52.5 -99.501s-18.5 -92 -18.5 -154c0 -70.667 -8.33301 -133.667 -25 -189s-40.834 -102.166 -72.501 -140.499s-70.334 -67.5 -116.001 -87.5
s-97.5 -30 -155.5 -30v145c70 0 122 27 156 81s51 129.667 51 227c0 61.333 5.66699 115 17 161s26.666 85.5 45.999 118.5s41.833 59.833 67.5 80.5s52.5 36.334 80.5 47.001c-28 10.667 -54.833 26.334 -80.5 47.001s-48.167 47.5 -67.5 80.5s-34.666 72.5 -45.999 118.5
s-17 99.667 -17 161c0 48.667 -4.16699 92 -12.5 130s-21.166 70.167 -38.499 96.5s-39 46.5 -65 60.5s-56.333 21 -91 21v145c58 0 109.833 -10 155.5 -30s84.334 -49.167 116.001 -87.5s55.834 -85.166 72.501 -140.499s25 -118.333 25 -189
c0 -62 6.16699 -113.333 18.5 -154s29.833 -73.834 52.5 -99.501s50 -45 82 -58s67.667 -22.833 107 -29.5v-144z" />
    <glyph glyph-name="asciitilde" unicode="~" horiz-adv-x="1072" 
d="M497 686l-40.5 41.499c-11.667 11.667 -22.834 21.167 -33.501 28.5s-21 12.833 -31 16.5s-21.333 5.5 -34 5.5c-20.667 0 -36.667 -6.66699 -48 -20s-19.666 -27.666 -24.999 -42.999c-6.66699 -18.667 -10.667 -39.667 -12 -63h-152c2 49.333 11.667 93.666 29 132.999
c7.33301 16.667 16.666 33 27.999 49s25.333 30.333 42 43s36.334 22.834 59.001 30.501s49 11.5 79 11.5c26 0 49.167 -3.16699 69.5 -9.5s39.166 -14.833 56.499 -25.5s33.333 -22.5 48 -35.5s29 -26.5 43 -40.5l40.5 -41.5c11.667 -11.667 22.834 -21.167 33.501 -28.5
s21 -12.833 31 -16.5s21.333 -5.5 34 -5.5c20.667 0 36.667 6.5 48 19.5s19.666 27.5 24.999 43.5c6.66699 18 10.667 39 12 63h152c-2 -50 -11.667 -94.667 -29 -134c-7.33301 -16.667 -16.666 -33 -27.999 -49s-25.333 -30.167 -42 -42.5s-36.334 -22.333 -59.001 -30
s-49 -11.5 -79 -11.5c-26 0 -49.167 3.16699 -69.5 9.5s-39.166 14.833 -56.499 25.5s-33.333 22.5 -48 35.5s-29 26.5 -43 40.5z" />
    <glyph glyph-name="uni00A0" unicode="&#xa0;" horiz-adv-x="573" 
 />
    <glyph glyph-name="exclamdown" unicode="&#xa1;" horiz-adv-x="486" 
d="M172 591h143l10 -1123h-163zM140 809c0 14 2.66699 27.167 8 39.5s12.666 23.333 21.999 33s20.333 17.167 33 22.5s26 8 40 8s27.333 -2.66699 40 -8s23.667 -12.833 33 -22.5s16.666 -20.667 21.999 -33s8 -25.5 8 -39.5s-2.66699 -27.167 -8 -39.5
s-12.666 -23.333 -21.999 -33s-20.333 -17.167 -33 -22.5s-26 -8 -40 -8s-27.333 2.66699 -40 8s-23.667 12.833 -33 22.5s-16.666 20.667 -21.999 33s-8 25.5 -8 39.5z" />
    <glyph glyph-name="cent" unicode="&#xa2;" horiz-adv-x="1163" 
d="M910 754c-18 26 -40.333 49.3408 -67 70.0078c-23.333 17.333 -53.166 33.333 -89.499 48s-79.833 22 -130.5 22c-51.333 0 -99.333 -9.83301 -144 -29.5s-83.667 -46.834 -117 -81.501s-59.666 -75.834 -78.999 -123.501s-29 -99.834 -29 -156.501
s9.66699 -108.834 29 -156.501s45.666 -88.834 78.999 -123.501s72.333 -61.834 117 -81.501s92.667 -29.5 144 -29.5c50.667 0 94.167 7.33301 130.5 22s66.166 30.667 89.499 48c26.667 20.667 49 44 67 70h173c-20.667 -44.667 -48.667 -85.334 -84 -122.001
c-15.333 -16 -32.833 -31.833 -52.5 -47.5s-42.167 -30.167 -67.5 -43.5s-53.5 -24.833 -84.5 -34.5s-64.833 -16.5 -101.5 -20.5v-212h-146v213c-63.333 8.66699 -122.166 27.667 -176.499 57s-101.5 66.833 -141.5 112.5s-71.5 98.167 -94.5 157.5s-34.5 123 -34.5 191
s11.5 131.5 34.5 190.5s54.5 111.333 94.5 157s87.167 83.167 141.5 112.5s113.166 48.666 176.499 57.999v217h146v-216c36.667 -4 70.5 -11 101.5 -21s59.167 -21.667 84.5 -35s47.833 -27.666 67.5 -42.999s37.167 -31 52.5 -47
c35.333 -36.667 63.333 -77.334 84 -122.001h-173z" />
    <glyph glyph-name="sterling" unicode="&#xa3;" horiz-adv-x="1490" 
d="M160 785h183.001c-2 10.667 -3.66699 23.334 -5 38.001s-2.5 30.167 -3.5 46.5s-1.66699 32.833 -2 49.5s-0.5 32 -0.5 46c0 32 3.33301 66.333 10 103s17.834 73 33.501 109s36.167 70.833 61.5 104.5s56.5 63.167 93.5 88.5s80.5 45.666 130.5 60.999
s107.667 23 173 23c54.667 0 104 -4.83301 148 -14.5s83.167 -22.167 117.5 -37.5s64.333 -33 90 -53s47.834 -40.333 66.501 -61c43.333 -48.667 74.666 -104 93.999 -166h-169c-12.667 35.333 -33.334 66.666 -62.001 93.999c-12.667 12 -27.667 23.5 -45 34.5
s-37.5 21 -60.5 30s-49.333 16.167 -79 21.5s-63.167 8 -100.5 8c-63.333 0 -116.666 -10.167 -159.999 -30.5s-78.333 -46.833 -105 -79.5s-45.834 -69.667 -57.501 -111s-17.5 -82.666 -17.5 -123.999c0 -29.333 1.16699 -60.833 3.5 -94.5s5.16602 -62.167 8.49902 -85.5
h520v-144h-495l22 -121.5c7.33301 -41 11.666 -84.167 12.999 -129.5c0.666992 -38 -4.66602 -72 -15.999 -102s-24.333 -55.667 -39 -77c-17.333 -25.333 -36.666 -47.666 -57.999 -66.999h870v-144h-1039v114c22.667 25.333 42.667 52.666 60 81.999
c15.333 25.333 29.166 54.5 41.499 87.5s18.5 68.5 18.5 106.5c0 24 -2.83301 57.167 -8.5 99.5s-14.5 92.833 -26.5 151.5h-209v144z" />
    <glyph glyph-name="currency" unicode="&#xa4;" horiz-adv-x="1102" 
d="M1001 704l-99 -97.999l-125 124c-32 -21.333 -67.667 -38.5 -107 -51.5s-79.333 -19.5 -120 -19.5c-41.333 0 -81.5 6.5 -120.5 19.5s-74.5 30.167 -106.5 51.5l-124 -124l-99 98l125 124c-21.333 32 -38.666 67.667 -51.999 107s-20 79.666 -20 120.999
c0 40.667 6.66699 80.834 20 120.501s30.666 75.5 51.999 107.5l-125 124l99 98l124 -123c32 21.333 67.5 38.5 106.5 51.5s79.167 19.5 120.5 19.5s81.5 -6.5 120.5 -19.5s74.5 -30.5 106.5 -52.5l126 125l99 -99l-125 -124c21.333 -32 38.666 -67.833 51.999 -107.5
s20 -79.834 20 -120.501c0 -41.333 -6.66699 -81.5 -20 -120.5s-30.666 -74.5 -51.999 -106.5zM285 1056c0 -36.667 7 -71.167 21 -103.5s33 -60.5 57 -84.5s52.167 -43 84.5 -57s66.833 -21 103.5 -21s71.167 7 103.5 21s60.5 33 84.5 57s43 52.167 57 84.5
s21 66.833 21 103.5s-7 71.167 -21 103.5s-33 60.5 -57 84.5s-52.167 43 -84.5 57s-66.833 21 -103.5 21s-71.167 -7 -103.5 -21s-60.5 -33 -84.5 -57s-43 -52.167 -57 -84.5s-21 -66.833 -21 -103.5z" />
    <glyph glyph-name="yen" unicode="&#xa5;" horiz-adv-x="1474" 
d="M737 744l477 690h190l-586 -845h325v-138h-325v-95h325v-139h-325v-217h-162v217h-324v139h324v95h-324v138h324l-586 845h190z" />
    <glyph glyph-name="brokenbar" unicode="&#xa6;" horiz-adv-x="442" 
d="M140 1434h162v-822h-162v822zM140 290h162v-822h-162v822z" />
    <glyph glyph-name="section" unicode="&#xa7;" horiz-adv-x="1299" 
d="M1199 390c0 -62.667 -11.666 -118.166 -34.999 -166.499s-56.333 -89.833 -99 -124.5c38 -34 64.833 -72.333 80.5 -115s23.5 -91 23.5 -145c0 -57.333 -11.667 -108.833 -35 -154.5s-57 -84.5 -101 -116.5s-97.667 -56.667 -161 -74s-135 -26 -215 -26
c-59.333 0 -112.333 4.5 -159 13.5s-87.667 21 -123 36s-65.833 31.833 -91.5 50.5s-47.5 38 -65.5 58c-41.333 46.667 -68.666 99.667 -81.999 159h174c10 -32.667 29 -61.667 57 -87c12 -10.667 26.5 -21.167 43.5 -31.5s37.333 -19.5 61 -27.5s50.667 -14.5 81 -19.5
s65.166 -7.5 104.499 -7.5c53.333 0 101.5 4.83301 144.5 14.5s79.5 24.167 109.5 43.5s53.167 43 69.5 71s24.5 60.667 24.5 98c0 34 -5.5 64.667 -16.5 92s-29.833 51.666 -56.5 72.999s-62.334 39.833 -107.001 55.5s-100.667 29.167 -168 40.5
c-96.667 16 -180 35.5 -250 58.5s-127.833 51.5 -173.5 85.5s-79.334 74.5 -101.001 121.5s-32.5 102.5 -32.5 166.5c0 62.667 11.5 118.167 34.5 166.5s55.833 89.833 98.5 124.5c-38 34 -64.667 72.5 -80 115.5s-23 91.167 -23 144.5c0 57.333 11.667 108.833 35 154.5
s57 84.5 101 116.5s97.667 56.667 161 74s135 26 215 26c59.333 0 112.333 -4.5 159 -13.5s87.667 -21 123 -36s65.833 -32 91.5 -51s47.5 -38.5 65.5 -58.5c41.333 -46.667 68.666 -99.334 81.999 -158.001h-174c-10 32 -29 60.667 -57 86
c-12 10.667 -26.667 21.167 -44 31.5s-37.666 19.666 -60.999 27.999s-50.333 15 -81 20s-65.334 7.5 -104.001 7.5c-53.333 0 -101.5 -4.83301 -144.5 -14.5s-79.5 -24.167 -109.5 -43.5s-53.167 -43.166 -69.5 -71.499s-24.5 -60.833 -24.5 -97.5
c0 -34 5.5 -64.667 16.5 -92s29.833 -51.666 56.5 -72.999s62.334 -40 107.001 -56s100.667 -29.333 168 -40c96.667 -16 180 -35.5 250 -58.5s127.833 -51.5 173.5 -85.5s79.334 -74.5 101.001 -121.5s32.5 -102.5 32.5 -166.5zM642.001 668.001
c-54 9.33301 -102.499 19.5 -145.499 30.5s-82.167 23.5 -117.5 37.5c-38.667 -23.333 -67.5 -52.166 -86.5 -86.499s-28.5 -73.5 -28.5 -117.5c0 -36.667 6.33301 -69.334 19 -98.001s34.167 -54.334 64.5 -77.001s70.666 -42.334 120.999 -59.001
s113.166 -31.334 188.499 -44.001c107.333 -18 194.666 -40.667 261.999 -68c38.667 23.333 67.667 52.166 87 86.499s29 73.5 29 117.5c0 36.667 -6.33301 69.334 -19 98.001s-34.167 54.334 -64.5 77.001s-70.666 42.334 -120.999 59.001s-113.166 31.334 -188.499 44.001
z" />
    <glyph glyph-name="dieresis" unicode="&#xa8;" horiz-adv-x="816" 
d="M120 1290c0 14 2.66699 27.167 8 39.5s12.833 23.166 22.5 32.499s20.667 16.666 33 21.999s25.5 8 39.5 8s27.167 -2.66699 39.5 -8s23.333 -12.666 33 -21.999s17.167 -20.166 22.5 -32.499s8 -25.5 8 -39.5s-2.66699 -27.333 -8 -40s-12.833 -23.5 -22.5 -32.5
s-20.667 -16.167 -33 -21.5s-25.5 -8 -39.5 -8s-27.167 2.66699 -39.5 8s-23.333 12.5 -33 21.5s-17.167 19.833 -22.5 32.5s-8 26 -8 40zM490 1290c0 14 2.66699 27.167 8 39.5s12.833 23.166 22.5 32.499s20.667 16.666 33 21.999s25.5 8 39.5 8s27.167 -2.66699 39.5 -8
s23.333 -12.666 33 -21.999s17.167 -20.166 22.5 -32.499s8 -25.5 8 -39.5s-2.66699 -27.333 -8 -40s-12.833 -23.5 -22.5 -32.5s-20.667 -16.167 -33 -21.5s-25.5 -8 -39.5 -8s-27.167 2.66699 -39.5 8s-23.333 12.5 -33 21.5s-17.167 19.833 -22.5 32.5s-8 26 -8 40z" />
    <glyph glyph-name="copyright" unicode="&#xa9;" horiz-adv-x="1713" 
d="M120 717c0 67.333 8.83398 132.5 26.501 195.5s42.5 121.667 74.5 176s70.333 104 115 149s94.334 83.5 149.001 115.5s113.167 56.833 175.5 74.5s127.5 26.5 195.5 26.5s133.333 -8.83301 196 -26.5s121.334 -42.5 176.001 -74.5s104.334 -70.5 149.001 -115.5
s83 -94.667 115 -149s56.833 -113 74.5 -176s26.5 -128.167 26.5 -195.5s-8.83301 -132.5 -26.5 -195.5s-42.5 -121.667 -74.5 -176s-70.333 -104 -115 -149s-94.334 -83.5 -149.001 -115.5s-113.334 -56.833 -176.001 -74.5s-128 -26.5 -196 -26.5
c-67.333 0 -132.333 8.83301 -195 26.5s-121.334 42.5 -176.001 74.5s-104.334 70.5 -149.001 115.5s-83 94.667 -115 149s-56.833 112.833 -74.5 175.5s-26.5 128 -26.5 196zM264.001 717c0 -82 15.5 -158.833 46.5 -230.5s73.333 -134.334 127 -188.001
s116.334 -96 188.001 -127s148.5 -46.5 230.5 -46.5s159 15.5 231 46.5s134.833 73.333 188.5 127s96 116.334 127 188.001s46.5 148.5 46.5 230.5s-15.5 158.833 -46.5 230.5s-73.333 134.334 -127 188.001s-116.5 96 -188.5 127s-149 46.5 -231 46.5
s-158.833 -15.5 -230.5 -46.5s-134.334 -73.333 -188.001 -127s-96 -116.334 -127 -188.001s-46.5 -148.5 -46.5 -230.5zM437.001 717c0 60.667 9.83301 117.669 29.5 171.002s47.834 99.5 84.501 138.5s81.334 69.833 134.001 92.5s111.667 34 177 34
c33.333 0 63.666 -3 90.999 -9s52.333 -14 75 -24s42.667 -21.333 60 -34s32.666 -25.334 45.999 -38.001c31.333 -30.667 55.666 -65.334 72.999 -104.001h-171c-7.33301 14 -18.333 26.667 -33 38c-13.333 9.33301 -31.166 18.166 -53.499 26.499s-51.5 12.5 -87.5 12.5
c-46.667 0 -87 -8 -121 -24s-62 -37.667 -84 -65s-38.333 -59.5 -49 -96.5s-16 -76.5 -16 -118.5s5.33301 -81.5 16 -118.5s27 -69.167 49 -96.5s50 -49 84 -65s74.333 -24 121 -24c36 0 65.167 4 87.5 12s40.166 16.667 53.499 26c14.667 11.333 25.667 24.333 33 39h171
c-17.333 -39.333 -41.666 -74.333 -72.999 -105c-13.333 -13.333 -28.666 -26.166 -45.999 -38.499s-37.333 -23.333 -60 -33s-47.667 -17.5 -75 -23.5s-57.666 -9 -90.999 -9c-65.333 0 -124.333 11.333 -177 34s-97.334 53.5 -134.001 92.5s-64.834 85 -84.501 138
s-29.5 110.167 -29.5 171.5z" />
    <glyph glyph-name="ordfeminine" unicode="&#xaa;" horiz-adv-x="840" 
d="M50 1074c0 50.667 9.66699 98.4971 29 143.497s45.833 84.333 79.5 118s72.834 60.167 117.501 79.5s92.667 29 144 29c43.333 0 79.666 -7.16699 108.999 -21.5s53.333 -30.166 72 -47.499c22 -20.667 39.667 -43.667 53 -69v128h136v-720h-136v128
c-13.333 -26 -31 -49 -53 -69c-18.667 -17.333 -42.667 -33.166 -72 -47.499s-65.666 -21.5 -108.999 -21.5c-51.333 0 -99.333 9.66699 -144 29s-83.834 45.833 -117.501 79.5s-60.167 72.834 -79.5 117.501s-29 92.667 -29 144zM186 1074
c0 -33.333 5.83301 -64.666 17.5 -93.999s28 -55 49 -77s45.833 -39.333 74.5 -52s59.667 -19 93 -19s64.333 6.33301 93 19s53.5 30 74.5 52s37.333 47.667 49 77s17.5 60.666 17.5 93.999s-5.83301 64.666 -17.5 93.999s-28 55 -49 77s-45.833 39.333 -74.5 52
s-59.667 19 -93 19s-64.333 -6.33301 -93 -19s-53.5 -30 -74.5 -52s-37.333 -47.667 -49 -77s-17.5 -60.666 -17.5 -93.999z" />
    <glyph glyph-name="guillemotleft" unicode="&#xab;" horiz-adv-x="1428" 
d="M290 607l471 -364v-187l-641 498v106l641 498v-187zM817 607l471 -364v-187l-641 498v106l641 498v-187z" />
    <glyph glyph-name="logicalnot" unicode="&#xac;" horiz-adv-x="1200" 
d="M120 806h960v-531h-161v386h-799v145z" />
    <glyph glyph-name="uni00AD" unicode="&#xad;" horiz-adv-x="1015" 
d="M120 704h775v-144h-775v144z" />
    <glyph glyph-name="registered" unicode="&#xae;" horiz-adv-x="1050" 
d="M173 1009c0 -48.667 9.16699 -94.334 27.5 -137.001s43.5 -80 75.5 -112s69.333 -57.167 112 -75.5s88.334 -27.5 137.001 -27.5s94.334 9.16699 137.001 27.5s80 43.5 112 75.5s57.167 69.333 75.5 112s27.5 88.334 27.5 137.001s-9.16699 94.334 -27.5 137.001
s-43.5 80 -75.5 112s-69.333 57.167 -112 75.5s-88.334 27.5 -137.001 27.5s-94.334 -9.16699 -137.001 -27.5s-80 -43.5 -112 -75.5s-57.167 -69.333 -75.5 -112s-27.5 -88.334 -27.5 -137.001zM80 1009c0 61.333 11.667 119 35 173s55.166 101.167 95.499 141.5
s87.5 72.166 141.5 95.499s111.667 35 173 35s119 -11.667 173 -35s101.167 -55.166 141.5 -95.499s72.166 -87.5 95.499 -141.5s35 -111.667 35 -173s-11.667 -119 -35 -173s-55.166 -101.167 -95.499 -141.5s-87.5 -72.166 -141.5 -95.499s-111.667 -35 -173 -35
s-119 11.667 -173 35s-101.167 55.166 -141.5 95.499s-72.166 87.5 -95.499 141.5s-35 111.667 -35 173zM371 771l0.00195312 483.999h192c26.667 0 49.334 -4.33301 68.001 -13s33.667 -20.167 45 -34.5s19.666 -30.666 24.999 -48.999s8 -36.833 8 -55.5
c0 -14 -1.5 -28.333 -4.5 -43s-7.83301 -28.5 -14.5 -41.5s-15.334 -24.5 -26.001 -34.5s-23.334 -17.333 -38.001 -22l81 -191h-93l-76 181h-76v-181h-91zM462.002 1173v-139h101c20 0 34.167 7 42.5 21s12.5 30 12.5 48c0 18.667 -4.16699 35 -12.5 49s-22.5 21 -42.5 21
h-101z" />
    <glyph glyph-name="macron" unicode="&#xaf;" horiz-adv-x="904" 
d="M100 1434h704v-133h-704v133z" />
    <glyph glyph-name="degree" unicode="&#xb0;" horiz-adv-x="638" 
d="M50 1192c0 36 6.83301 70 20.5 102s32.167 59.833 55.5 83.5s51 42.334 83 56.001s66 20.5 102 20.5s70 -6.83301 102 -20.5s59.833 -32.334 83.5 -56.001s42.334 -51.5 56.001 -83.5s20.5 -66 20.5 -102s-6.83301 -70 -20.5 -102s-32.334 -59.667 -56.001 -83
s-51.5 -41.833 -83.5 -55.5s-66 -20.5 -102 -20.5s-70 6.83301 -102 20.5s-59.667 32.167 -83 55.5s-41.833 51 -55.5 83s-20.5 66 -20.5 102zM170 1192c0 -19.333 3.66699 -37.666 11 -54.999s17.333 -32.333 30 -45s27.667 -22.667 45 -30s35.666 -11 54.999 -11
s37.666 3.66699 54.999 11s32.333 17.333 45 30s22.667 27.667 30 45s11 35.666 11 54.999s-3.66699 37.666 -11 54.999s-17.333 32.333 -30 45s-27.667 22.667 -45 30s-35.666 11 -54.999 11s-37.666 -3.66699 -54.999 -11s-32.333 -17.333 -45 -30
s-22.667 -27.667 -30 -45s-11 -35.666 -11 -54.999z" />
    <glyph glyph-name="plusminus" unicode="&#xb1;" horiz-adv-x="856" 
d="M786 147h-716v135h716v-135zM786 763h-290v-290h-136v290h-290v135h290v290h136v-290h290v-135z" />
    <glyph glyph-name="twosuperior" unicode="&#xb2;" horiz-adv-x="656" 
d="M50 1216c10.667 42.667 28.334 80.668 53.001 114.001c10.667 14 23.167 27.833 37.5 41.5s31 25.834 50 36.501s40.667 19.334 65 26.001s51.833 10 82.5 10c34.667 0 67.667 -4.83301 99 -14.5s58.666 -23.834 81.999 -42.501s42 -41.167 56 -67.5s21 -56.5 21 -90.5
c0 -32 -5.16699 -60.667 -15.5 -86s-23.5 -48.333 -39.5 -69s-33.333 -39.5 -52 -56.5l-53 -48.5l-140 -127h310v-128h-547v90l287 260l47 44.5c14 13.667 26 26.834 36 39.501s17.667 25.5 23 38.5s8 27.167 8 42.5c0 10 -2.5 20.167 -7.5 30.5s-12.5 19.666 -22.5 27.999
s-22.667 15.166 -38 20.499s-33.333 8 -54 8c-28 0 -51 -5.16699 -69 -15.5s-32.333 -21.833 -43 -34.5c-12 -14.667 -21.667 -31.334 -29 -50.001h-147z" />
    <glyph glyph-name="threesuperior" unicode="&#xb3;" horiz-adv-x="679" 
d="M207 892c6.66699 -11.333 16.002 -21.3359 28.002 -30.0029c10.667 -7.33301 25 -14.166 43 -20.499s41.333 -9.5 70 -9.5c20 0 38.667 1.83301 56 5.5s32.666 9.5 45.999 17.5s23.833 17.833 31.5 29.5s11.5 25.5 11.5 41.5c0 18 -5.5 32.667 -16.5 44
s-26.667 20.333 -47 27s-45.333 11.334 -75 14.001s-62.834 4 -99.501 4v124c30.667 0 59.5 1.66699 86.5 5s50.5 8.83301 70.5 16.5s35.667 17.834 47 30.501s17 28.667 17 48c0 24 -11.833 42.833 -35.5 56.5s-54.5 20.5 -92.5 20.5c-27.333 0 -49.5 -3.66699 -66.5 -11
s-30.167 -15.333 -39.5 -24c-11.333 -10 -19.666 -21.333 -24.999 -34h-157c12 36.667 30.333 69.334 55 98.001c10.667 12 23.167 24 37.5 36s31 22.667 50 32s40.5 16.833 64.5 22.5s51 8.5 81 8.5c36 0 70 -4.5 102 -13.5s60 -22.167 84 -39.5s43 -38.666 57 -63.999
s21 -54.666 21 -87.999c0 -38 -12 -70.5 -36 -97.5s-55.667 -45.833 -95 -56.5c16.667 -2.66699 33.834 -7.5 51.501 -14.5s33.667 -16.833 48 -29.5s26 -28.334 35 -47.001s13.5 -41.334 13.5 -68.001c0 -39.333 -8 -73 -24 -101s-37.167 -51 -63.5 -69
s-56.333 -31.167 -90 -39.5s-68.167 -12.5 -103.5 -12.5c-32 0 -60.833 2.66699 -86.5 8s-48.5 12.5 -68.5 21.5s-37.333 19 -52 30s-27.334 22.5 -38.001 34.5c-24.667 27.333 -42.334 58.666 -53.001 93.999h157z" />
    <glyph glyph-name="acute" unicode="&#xb4;" horiz-adv-x="682" 
d="M373 1434h209l-310 -305h-172z" />
    <glyph glyph-name="mu" unicode="&#xb5;" 
d="M601 -20c-42 0 -78.667 5 -110 15s-58.333 22.5 -81 37.5s-41.167 31.5 -55.5 49.5s-25.833 34.833 -34.5 50.5s-15 29 -19 40s-6.33301 17.5 -7 19.5v-724h-154v1538h154v-503c0 -54 5.5 -104.667 16.5 -152s28.667 -88.666 53 -123.999s56 -63.333 95 -84
s86.5 -31 142.5 -31s103.5 10.333 142.5 31s70.667 48.667 95 84s42 76.666 53 123.999s16.5 98 16.5 152v503h154v-1006h-154v192c-0.666992 -2 -3 -8.5 -7 -19.5s-10.333 -24.333 -19 -40s-20.167 -32.5 -34.5 -50.5s-32.833 -34.5 -55.5 -49.5s-49.667 -27.5 -81 -37.5
s-68 -15 -110 -15z" />
    <glyph glyph-name="paragraph" unicode="&#xb6;" horiz-adv-x="1269" 
d="M1169 1434v-144h-125v-1290h-162v1290h-98v-1290h-162v617h-139c-67.333 0 -126.333 11.5 -177 34.5s-92.667 53.5 -126 91.5s-58.333 81.5 -75 130.5s-25 99.5 -25 151.5s8.33301 102.5 25 151.5s41.667 92.667 75 131s75.333 69 126 92s109.667 34.5 177 34.5h686z
M483 1290c-45.333 0 -83.333 -7.83398 -114 -23.501s-55.5 -36.167 -74.5 -61.5s-32.5 -53.666 -40.5 -84.999s-12 -63 -12 -95s4 -63.667 12 -95s21.5 -59.5 40.5 -84.5s43.833 -45.333 74.5 -61s68.667 -23.5 114 -23.5h139v529h-139z" />
    <glyph glyph-name="periodcentered" unicode="&#xb7;" horiz-adv-x="446" 
d="M120 660c0 14 2.66699 27.167 8 39.5s12.666 23.333 21.999 33s20.333 17.167 33 22.5s26 8 40 8s27.333 -2.66699 40 -8s23.667 -12.833 33 -22.5s16.666 -20.667 21.999 -33s8 -25.5 8 -39.5s-2.66699 -27.167 -8 -39.5s-12.666 -23.333 -21.999 -33
s-20.333 -17.167 -33 -22.5s-26 -8 -40 -8s-27.333 2.66699 -40 8s-23.667 12.833 -33 22.5s-16.666 20.667 -21.999 33s-8 25.5 -8 39.5z" />
    <glyph glyph-name="cedilla" unicode="&#xb8;" horiz-adv-x="630" 
d="M154 -318c12.667 -6 27 -11.3301 43 -15.9971c13.333 -4 28.833 -7.5 46.5 -10.5s36.834 -4.5 57.501 -4.5c26 0 48.833 5.16699 68.5 15.5s31.5 29.5 35.5 57.5c2 17.333 -0.833008 31.166 -8.5 41.499s-18.334 18 -32.001 23s-29.5 8 -47.5 9s-36 1 -54 0
s-35 -2.66699 -51 -5s-29 -4.16602 -39 -5.49902l97 274h130l-58 -164c28 -0.666992 53.833 -4.83398 77.5 -12.501s44 -18.834 61 -33.501s29.833 -32.834 38.5 -54.501s12 -46.5 10 -74.5c-3.33301 -32 -11.666 -59.667 -24.999 -83s-30.5 -42.5 -51.5 -57.5
s-44.833 -26.167 -71.5 -33.5s-55.334 -11 -86.001 -11s-58 2.5 -82 7.5s-44.333 10.5 -61 16.5c-20 7.33301 -37.333 15.333 -52 24z" />
    <glyph glyph-name="onesuperior" unicode="&#xb9;" horiz-adv-x="417" 
d="M50 1240l219 194h98v-720h-136v506l-88 -78z" />
    <glyph glyph-name="ordmasculine" unicode="&#xba;" horiz-adv-x="840" 
d="M50 1074c0 50.667 9.66699 98.5 29 143.5s45.833 84.333 79.5 118s72.834 60.167 117.501 79.5s92.667 29 144 29c50.667 0 98.5 -9.66699 143.5 -29s84.333 -45.833 118 -79.5s60.167 -73 79.5 -118s29 -92.833 29 -143.5c0 -51.333 -9.66699 -99.333 -29 -144
s-45.833 -83.834 -79.5 -117.501s-73 -60.167 -118 -79.5s-92.833 -29 -143.5 -29c-51.333 0 -99.333 9.66699 -144 29s-83.834 45.833 -117.501 79.5s-60.167 72.834 -79.5 117.501s-29 92.667 -29 144zM186 1074c0 -33.333 5.83301 -64.666 17.5 -93.999s28 -55 49 -77
s45.833 -39.333 74.5 -52s59.667 -19 93 -19s64.333 6.33301 93 19s53.5 30 74.5 52s37.333 47.667 49 77s17.5 60.666 17.5 93.999s-5.83301 64.666 -17.5 93.999s-28 55 -49 77s-45.833 39.333 -74.5 52s-59.667 19 -93 19s-64.333 -6.33301 -93 -19s-53.5 -30 -74.5 -52
s-37.333 -47.667 -49 -77s-17.5 -60.666 -17.5 -93.999z" />
    <glyph glyph-name="guillemotright" unicode="&#xbb;" horiz-adv-x="1428" 
d="M667 971v187l641 -498v-106l-641 -498v187l471 364zM140 971v187l641 -498v-106l-641 -498v187l471 364z" />
    <glyph glyph-name="onequarter" unicode="&#xbc;" horiz-adv-x="1563" 
d="M1066 1434h169l-823 -1434h-169zM160 1240l219 194h98v-720h-136v506l-88 -78zM1147 0v175h-373v96l400 449h109v-417h120v-128h-120v-175h-136zM1147 303v209l-186 -209h186z" />
    <glyph glyph-name="onehalf" unicode="&#xbd;" horiz-adv-x="1606" 
d="M1066 1434h169l-823 -1434h-169zM160 1240l219 194h98v-720h-136v506l-88 -78zM890 502c10.667 42.667 28.334 80.668 53.001 114.001c10.667 14 23.167 27.833 37.5 41.5s31 25.834 50 36.501s40.667 19.334 65 26.001s51.833 10 82.5 10
c34.667 0 67.667 -4.83301 99 -14.5s58.666 -23.834 81.999 -42.501s42 -41.167 56 -67.5s21 -56.5 21 -90.5c0 -32 -5.16699 -60.667 -15.5 -86s-23.5 -48.333 -39.5 -69s-33.333 -39.5 -52 -56.5l-53 -48.5l-140 -127h310v-128h-547v90l287 260l47 44.5
c14 13.667 26 26.834 36 39.501s17.667 25.5 23 38.5s8 27.167 8 42.5c0 10 -2.5 20.167 -7.5 30.5s-12.5 19.666 -22.5 27.999s-22.667 15.166 -38 20.499s-33.333 8 -54 8c-28 0 -51 -5.16699 -69 -15.5s-32.333 -21.833 -43 -34.5
c-12 -14.667 -21.667 -31.334 -29 -50.001h-147z" />
    <glyph glyph-name="threequarters" unicode="&#xbe;" horiz-adv-x="1726" 
d="M1229 1434h169l-823 -1434h-169zM317 892c6.66699 -11.333 16.002 -21.3359 28.002 -30.0029c10.667 -7.33301 25 -14.166 43 -20.499s41.333 -9.5 70 -9.5c20 0 38.667 1.83301 56 5.5s32.666 9.5 45.999 17.5s23.833 17.833 31.5 29.5s11.5 25.5 11.5 41.5
c0 18 -5.5 32.667 -16.5 44s-26.667 20.333 -47 27s-45.333 11.334 -75 14.001s-62.834 4 -99.501 4v124c30.667 0 59.5 1.66699 86.5 5s50.5 8.83301 70.5 16.5s35.667 17.834 47 30.501s17 28.667 17 48c0 24 -11.833 42.833 -35.5 56.5s-54.5 20.5 -92.5 20.5
c-27.333 0 -49.5 -3.66699 -66.5 -11s-30.167 -15.333 -39.5 -24c-11.333 -10 -19.666 -21.333 -24.999 -34h-157c12 36.667 30.333 69.334 55 98.001c10.667 12 23.167 24 37.5 36s31 22.667 50 32s40.5 16.833 64.5 22.5s51 8.5 81 8.5c36 0 70 -4.5 102 -13.5
s60 -22.167 84 -39.5s43 -38.666 57 -63.999s21 -54.666 21 -87.999c0 -38 -12 -70.5 -36 -97.5s-55.667 -45.833 -95 -56.5c16.667 -2.66699 33.834 -7.5 51.501 -14.5s33.667 -16.833 48 -29.5s26 -28.334 35 -47.001s13.5 -41.334 13.5 -68.001
c0 -39.333 -8 -73 -24 -101s-37.167 -51 -63.5 -69s-56.333 -31.167 -90 -39.5s-68.167 -12.5 -103.5 -12.5c-32 0 -60.833 2.66699 -86.5 8s-48.5 12.5 -68.5 21.5s-37.333 19 -52 30s-27.334 22.5 -38.001 34.5c-24.667 27.333 -42.334 58.666 -53.001 93.999h157z
M1310 -0.00292969v175h-373v96l400 449h109v-417h120v-128h-120v-175h-136zM1310 302.997v209l-186 -209h186z" />
    <glyph glyph-name="questiondown" unicode="&#xbf;" horiz-adv-x="778" 
d="M413 -552c-102 0 -188.666 12.168 -259.999 36.501s-129.5 56 -174.5 95s-77.667 83.333 -98 133s-30.5 99.834 -30.5 150.501c0 62 12.333 118.167 37 168.5s59.667 94.166 105 131.499s99.5 67.666 162.5 90.999s133.167 39 210.5 47v290h162v-406
c-77.333 -1.33301 -147.666 -9.16602 -210.999 -23.499s-117.333 -35 -162 -62s-79.167 -60.333 -103.5 -100s-36.5 -85.167 -36.5 -136.5c0 -38.667 7.66699 -74.5 23 -107.5s39.166 -61.667 71.499 -86s73.666 -43.333 123.999 -57s110.5 -20.5 180.5 -20.5
c34.667 0 66.5 2.33301 95.5 7s55.5 11 79.5 19s45.5 17 64.5 27s35.833 20.333 50.5 31c34 24.667 61.333 52.667 82 84h193c-28 -58 -67.333 -110 -118 -156c-21.333 -19.333 -46.333 -38.333 -75 -57s-61.5 -35.334 -98.5 -50.001s-78.167 -26.5 -123.5 -35.5
s-95.333 -13.5 -150 -13.5zM549.001 809.001c0 -14 -2.66699 -27.167 -8 -39.5s-12.666 -23.333 -21.999 -33s-20.333 -17.167 -33 -22.5s-26 -8 -40 -8s-27.333 2.66699 -40 8s-23.667 12.833 -33 22.5s-16.666 20.667 -21.999 33s-8 25.5 -8 39.5s2.66699 27.167 8 39.5
s12.666 23.333 21.999 33s20.333 17.167 33 22.5s26 8 40 8s27.333 -2.66699 40 -8s23.667 -12.833 33 -22.5s16.666 -20.667 21.999 -33s8 -25.5 8 -39.5z" />
    <glyph glyph-name="Agrave" unicode="&#xc0;" horiz-adv-x="1592" 
d="M1154 422h-717l-194 -422h-173l661 1434h130l661 -1434h-173zM504 566h584l-292 634zM873 1573h-173l-309 305h209z" />
    <glyph glyph-name="Aacute" unicode="&#xc1;" horiz-adv-x="1592" 
d="M1154 422h-717l-194 -422h-173l661 1434h130l661 -1434h-173zM504 566h584l-292 634zM984 1878h209l-310 -305h-172z" />
    <glyph glyph-name="Acircumflex" unicode="&#xc2;" horiz-adv-x="1592" 
d="M1154 422h-717l-194 -422h-173l661 1434h130l661 -1434h-173zM504 566h584l-292 634zM747 1888h98l281 -324h-158l-172 180l-172 -180h-158z" />
    <glyph glyph-name="Atilde" unicode="&#xc3;" horiz-adv-x="1592" 
d="M1154 422h-717l-194 -422h-173l661 1434h130l661 -1434h-173zM504 566h584l-292 634zM751 1659c-12.667 13.333 -25.501 24.5 -38.501 33.5s-27.167 13.5 -42.5 13.5s-27.166 -4.33301 -35.499 -13s-14.5 -18.334 -18.5 -29.001c-4.66699 -12 -7.66699 -25.667 -9 -41
h-145c4 41.333 14 78 30 110c6.66699 14 15 27.5 25 40.5s22.333 24.667 37 35s31.5 18.666 50.5 24.999s40.833 9.5 65.5 9.5c22.667 0 42.834 -2.66699 60.501 -8s33.167 -12.333 46.5 -21s25.166 -18 35.499 -28l28.5 -28c12.667 -13.333 25.5 -24.5 38.5 -33.5
s27.167 -13.5 42.5 -13.5s27.166 4.16699 35.499 12.5s14.5 17.833 18.5 28.5c4.66699 12 7.66699 26 9 42h145c-4 -41.333 -14 -78 -30 -110c-6.66699 -14 -15 -27.5 -25 -40.5s-22.333 -24.667 -37 -35s-31.5 -18.666 -50.5 -24.999s-40.833 -9.5 -65.5 -9.5
c-23.333 0 -43.666 2.66699 -60.999 8s-32.833 12.333 -46.5 21s-25.5 17.834 -35.5 27.501s-19.333 19.167 -28 28.5z" />
    <glyph glyph-name="Adieresis" unicode="&#xc4;" horiz-adv-x="1592" 
d="M1154 422h-717l-194 -422h-173l661 1434h130l661 -1434h-173zM504 566h584l-292 634zM508 1679c0 14 2.66699 27.167 8 39.5s12.833 23.166 22.5 32.499s20.667 16.666 33 21.999s25.5 8 39.5 8s27.167 -2.66699 39.5 -8s23.333 -12.666 33 -21.999
s17.167 -20.166 22.5 -32.499s8 -25.5 8 -39.5s-2.66699 -27.333 -8 -40s-12.833 -23.5 -22.5 -32.5s-20.667 -16.167 -33 -21.5s-25.5 -8 -39.5 -8s-27.167 2.66699 -39.5 8s-23.333 12.5 -33 21.5s-17.167 19.833 -22.5 32.5s-8 26 -8 40zM878 1679
c0 14 2.66699 27.167 8 39.5s12.833 23.166 22.5 32.499s20.667 16.666 33 21.999s25.5 8 39.5 8s27.167 -2.66699 39.5 -8s23.333 -12.666 33 -21.999s17.167 -20.166 22.5 -32.499s8 -25.5 8 -39.5s-2.66699 -27.333 -8 -40s-12.833 -23.5 -22.5 -32.5
s-20.667 -16.167 -33 -21.5s-25.5 -8 -39.5 -8s-27.167 2.66699 -39.5 8s-23.333 12.5 -33 21.5s-17.167 19.833 -22.5 32.5s-8 26 -8 40z" />
    <glyph glyph-name="Aring" unicode="&#xc5;" horiz-adv-x="1592" 
d="M1154 422h-717l-194 -422h-173l661 1434h130l661 -1434h-173zM504 566h584l-292 634zM605 1757c0 26 5.16699 50.5 15.5 73.5s24.166 43.333 41.499 61s37.5 31.5 60.5 41.5s47.5 15 73.5 15s50.5 -5 73.5 -15s43.167 -23.833 60.5 -41.5s31.166 -38 41.499 -61
s15.5 -47.5 15.5 -73.5s-5.16699 -50.5 -15.5 -73.5s-24.166 -43.167 -41.499 -60.5s-37.5 -31.166 -60.5 -41.499s-47.5 -15.5 -73.5 -15.5s-50.5 5.16699 -73.5 15.5s-43.167 24.166 -60.5 41.499s-31.166 37.5 -41.499 60.5s-15.5 47.5 -15.5 73.5zM716 1757
c0 -22.667 7.66699 -41.667 23 -57s34.333 -23 57 -23s41.667 7.66699 57 23s23 34.333 23 57c0 22 -7.66699 40.833 -23 56.5s-34.333 23.5 -57 23.5s-41.667 -7.83301 -57 -23.5s-23 -34.5 -23 -56.5z" />
    <glyph glyph-name="AE" unicode="&#xc6;" horiz-adv-x="2310" 
d="M2053 805v-144h-755v-517h872v-144h-1034v422h-593l-294 -422h-179l1001 1434h1089v-144h-862v-485h755zM644 566h492v705z" />
    <glyph glyph-name="Ccedilla" unicode="&#xc7;" horiz-adv-x="1522" 
d="M665 -318c12.667 -6 26.998 -11.3301 42.998 -15.9971c13.333 -4 28.833 -7.5 46.5 -10.5s36.834 -4.5 57.501 -4.5c26 0 48.833 5.16699 68.5 15.5s31.5 29.5 35.5 57.5c2.66699 17.333 0 31.166 -8 41.499s-18.833 18 -32.5 23s-29.5 8 -47.5 9s-36 1 -54 0
s-35 -2.66699 -51 -5s-29 -4.16602 -39 -5.49902l70 198c-91.333 10 -175.833 36 -253.5 78s-144.667 95.667 -201 161s-100.333 140.166 -132 224.499s-47.5 173.833 -47.5 268.5c0 68 8.33301 133.333 25 196s40.167 121.334 70.5 176.001s67.166 104.334 110.499 149.001
s91.5 83 144.5 115s110.333 56.833 172 74.5s126.5 26.5 194.5 26.5c54.667 0 105 -4.5 151 -13.5s87.833 -20.833 125.5 -35.5s71.5 -31.334 101.5 -50.001s56.333 -37.667 79 -57c53.333 -46 96 -98 128 -156h-185c-26 31.333 -58.333 59.333 -97 84
c-16.667 10.667 -35.334 21 -56.001 31s-43.667 19 -69 27s-52.833 14.333 -82.5 19s-61.5 7 -95.5 7c-82 0 -156.667 -15.5 -224 -46.5s-125.333 -73.333 -174 -127s-86.334 -116.5 -113.001 -188.5s-40 -149 -40 -231s13.333 -159 40 -231s64.334 -134.833 113.001 -188.5
s106.667 -96 174 -127s142 -46.5 224 -46.5c34 0 65.833 2.33301 95.5 7s57.167 11 82.5 19s48.333 17 69 27s39.334 20.333 56.001 31c38.667 24.667 71 52.667 97 84h185c-29.333 -54.667 -68.666 -104 -117.999 -148c-21.333 -18.667 -45.666 -37.167 -72.999 -55.5
s-58.5 -35 -93.5 -50s-73.667 -27.5 -116 -37.5s-88.5 -16.333 -138.5 -19l-30 -85c28 -0.666992 53.833 -4.83398 77.5 -12.501s44 -18.834 61 -33.501s29.833 -32.834 38.5 -54.501s12 -46.5 10 -74.5c-3.33301 -32 -11.666 -59.667 -24.999 -83s-30.5 -42.5 -51.5 -57.5
s-44.833 -26.167 -71.5 -33.5s-55.334 -11 -86.001 -11s-58 2.5 -82 7.5s-44.333 10.5 -61 16.5c-20 7.33301 -37.333 15.333 -52 24z" />
    <glyph glyph-name="Egrave" unicode="&#xc8;" horiz-adv-x="1334" 
d="M1077 805v-144h-755v-517h872v-144h-1034v1434h1024v-144h-862v-485h755zM766 1573h-173l-309 305h209z" />
    <glyph glyph-name="Eacute" unicode="&#xc9;" horiz-adv-x="1334" 
d="M1077 805v-144h-755v-517h872v-144h-1034v1434h1024v-144h-862v-485h755zM857 1878h209l-310 -305h-172z" />
    <glyph glyph-name="Ecircumflex" unicode="&#xca;" horiz-adv-x="1334" 
d="M1077 805v-144h-755v-517h872v-144h-1034v1434h1024v-144h-862v-485h755zM608 1888h98l281 -324h-158l-172 180l-172 -180h-158z" />
    <glyph glyph-name="Edieresis" unicode="&#xcb;" horiz-adv-x="1334" 
d="M1077 805v-144h-755v-517h872v-144h-1034v1434h1024v-144h-862v-485h755zM385 1679c0 14 2.66699 27.167 8 39.5s12.833 23.166 22.5 32.499s20.667 16.666 33 21.999s25.5 8 39.5 8s27.167 -2.66699 39.5 -8s23.333 -12.666 33 -21.999s17.167 -20.166 22.5 -32.499
s8 -25.5 8 -39.5s-2.66699 -27.333 -8 -40s-12.833 -23.5 -22.5 -32.5s-20.667 -16.167 -33 -21.5s-25.5 -8 -39.5 -8s-27.167 2.66699 -39.5 8s-23.333 12.5 -33 21.5s-17.167 19.833 -22.5 32.5s-8 26 -8 40zM755 1679c0 14 2.66699 27.167 8 39.5
s12.833 23.166 22.5 32.499s20.667 16.666 33 21.999s25.5 8 39.5 8s27.167 -2.66699 39.5 -8s23.333 -12.666 33 -21.999s17.167 -20.166 22.5 -32.499s8 -25.5 8 -39.5s-2.66699 -27.333 -8 -40s-12.833 -23.5 -22.5 -32.5s-20.667 -16.167 -33 -21.5s-25.5 -8 -39.5 -8
s-27.167 2.66699 -39.5 8s-23.333 12.5 -33 21.5s-17.167 19.833 -22.5 32.5s-8 26 -8 40z" />
    <glyph glyph-name="Igrave" unicode="&#xcc;" horiz-adv-x="532" 
d="M188 1434h162v-1434h-162v1434zM352 1573h-173l-309 305h209z" />
    <glyph glyph-name="Iacute" unicode="&#xcd;" horiz-adv-x="532" 
d="M183 1434h162v-1434h-162v1434zM453 1878h209l-310 -305h-172z" />
    <glyph glyph-name="Icircumflex" unicode="&#xce;" horiz-adv-x="500" 
d="M169 1434h162v-1434h-162v1434zM201 1888h98l281 -324h-158l-172 180l-172 -180h-158z" />
    <glyph glyph-name="Idieresis" unicode="&#xcf;" horiz-adv-x="516" 
d="M177 1434h162v-1434h-162v1434zM-30 1679c0 14 2.66699 27.167 8 39.5s12.833 23.166 22.5 32.499s20.667 16.666 33 21.999s25.5 8 39.5 8s27.167 -2.66699 39.5 -8s23.333 -12.666 33 -21.999s17.167 -20.166 22.5 -32.499s8 -25.5 8 -39.5s-2.66699 -27.333 -8 -40
s-12.833 -23.5 -22.5 -32.5s-20.667 -16.167 -33 -21.5s-25.5 -8 -39.5 -8s-27.167 2.66699 -39.5 8s-23.333 12.5 -33 21.5s-17.167 19.833 -22.5 32.5s-8 26 -8 40zM340 1679c0 14 2.66699 27.167 8 39.5s12.833 23.166 22.5 32.499s20.667 16.666 33 21.999
s25.5 8 39.5 8s27.167 -2.66699 39.5 -8s23.333 -12.666 33 -21.999s17.167 -20.166 22.5 -32.499s8 -25.5 8 -39.5s-2.66699 -27.333 -8 -40s-12.833 -23.5 -22.5 -32.5s-20.667 -16.167 -33 -21.5s-25.5 -8 -39.5 -8s-27.167 2.66699 -39.5 8s-23.333 12.5 -33 21.5
s-17.167 19.833 -22.5 32.5s-8 26 -8 40z" />
    <glyph glyph-name="Eth" unicode="&#xd0;" horiz-adv-x="1647" 
d="M339 0v652h-239v126h239v656h491c113.333 0 213.333 -18.333 300 -55s159.5 -87 218.5 -151s103.5 -139.667 133.5 -227s45 -182 45 -284s-15 -196.667 -45 -284s-74.5 -163 -133.5 -227s-131.833 -114.333 -218.5 -151s-186.667 -55 -300 -55h-491zM830 144
c92 0 171.333 14.5 238 43.5s121.667 69.167 165 120.5s75.5 111.833 96.5 181.5s31.5 145.5 31.5 227.5s-10.5 157.833 -31.5 227.5s-53.167 130.167 -96.5 181.5s-98.333 91.5 -165 120.5s-146 43.5 -238 43.5h-329v-512h310v-126h-310v-508h329z" />
    <glyph glyph-name="Ntilde" unicode="&#xd1;" horiz-adv-x="1484" 
d="M160 1434h190l812 -1205v1205h162v-1434h-190l-812 1205v-1205h-162v1434zM697 1659c-12.667 13.333 -25.501 24.5 -38.501 33.5s-27.167 13.5 -42.5 13.5s-27.166 -4.33301 -35.499 -13s-14.5 -18.334 -18.5 -29.001c-4.66699 -12 -7.66699 -25.667 -9 -41h-145
c4 41.333 14 78 30 110c6.66699 14 15 27.5 25 40.5s22.333 24.667 37 35s31.5 18.666 50.5 24.999s40.833 9.5 65.5 9.5c22.667 0 42.834 -2.66699 60.501 -8s33.167 -12.333 46.5 -21s25.166 -18 35.499 -28l28.5 -28c12.667 -13.333 25.5 -24.5 38.5 -33.5
s27.167 -13.5 42.5 -13.5s27.166 4.16699 35.499 12.5s14.5 17.833 18.5 28.5c4.66699 12 7.66699 26 9 42h145c-4 -41.333 -14 -78 -30 -110c-6.66699 -14 -15 -27.5 -25 -40.5s-22.333 -24.667 -37 -35s-31.5 -18.666 -50.5 -24.999s-40.833 -9.5 -65.5 -9.5
c-23.333 0 -43.666 2.66699 -60.999 8s-32.833 12.333 -46.5 21s-25.5 17.834 -35.5 27.501s-19.333 19.167 -28 28.5z" />
    <glyph glyph-name="Ograve" unicode="&#xd2;" horiz-adv-x="1714" 
d="M120 717c0 68 8.83301 133.333 26.5 196s42.5 121.334 74.5 176.001s70.333 104.334 115 149.001s94.334 83 149.001 115s113.334 56.833 176.001 74.5s128 26.5 196 26.5s133.333 -8.83301 196 -26.5s121.334 -42.5 176.001 -74.5s104.334 -70.333 149.001 -115
s83 -94.334 115 -149.001s56.833 -113.334 74.5 -176.001s26.5 -128 26.5 -196s-8.83301 -133.333 -26.5 -196s-42.5 -121.334 -74.5 -176.001s-70.333 -104.334 -115 -149.001s-94.334 -83 -149.001 -115s-113.334 -56.833 -176.001 -74.5s-128 -26.5 -196 -26.5
s-133.333 8.83301 -196 26.5s-121.334 42.5 -176.001 74.5s-104.334 70.333 -149.001 115s-83 94.334 -115 149.001s-56.833 113.334 -74.5 176.001s-26.5 128 -26.5 196zM286 717c0 -82 14.333 -159 43 -231s68.5 -134.833 119.5 -188.5s111.333 -96 181 -127
s145.5 -46.5 227.5 -46.5s157.833 15.5 227.5 46.5s130 73.333 181 127s90.833 116.5 119.5 188.5s43 149 43 231s-14.333 159 -43 231s-68.5 134.833 -119.5 188.5s-111.333 96 -181 127s-145.5 46.5 -227.5 46.5s-157.833 -15.5 -227.5 -46.5s-130 -73.333 -181 -127
s-90.833 -116.5 -119.5 -188.5s-43 -149 -43 -231zM935 1573h-173l-309 305h209z" />
    <glyph glyph-name="Oacute" unicode="&#xd3;" horiz-adv-x="1714" 
d="M120 717c0 68 8.83301 133.333 26.5 196s42.5 121.334 74.5 176.001s70.333 104.334 115 149.001s94.334 83 149.001 115s113.334 56.833 176.001 74.5s128 26.5 196 26.5s133.333 -8.83301 196 -26.5s121.334 -42.5 176.001 -74.5s104.334 -70.333 149.001 -115
s83 -94.334 115 -149.001s56.833 -113.334 74.5 -176.001s26.5 -128 26.5 -196s-8.83301 -133.333 -26.5 -196s-42.5 -121.334 -74.5 -176.001s-70.333 -104.334 -115 -149.001s-94.334 -83 -149.001 -115s-113.334 -56.833 -176.001 -74.5s-128 -26.5 -196 -26.5
s-133.333 8.83301 -196 26.5s-121.334 42.5 -176.001 74.5s-104.334 70.333 -149.001 115s-83 94.334 -115 149.001s-56.833 113.334 -74.5 176.001s-26.5 128 -26.5 196zM286 717c0 -82 14.333 -159 43 -231s68.5 -134.833 119.5 -188.5s111.333 -96 181 -127
s145.5 -46.5 227.5 -46.5s157.833 15.5 227.5 46.5s130 73.333 181 127s90.833 116.5 119.5 188.5s43 149 43 231s-14.333 159 -43 231s-68.5 134.833 -119.5 188.5s-111.333 96 -181 127s-145.5 46.5 -227.5 46.5s-157.833 -15.5 -227.5 -46.5s-130 -73.333 -181 -127
s-90.833 -116.5 -119.5 -188.5s-43 -149 -43 -231zM1039 1878h209l-310 -305h-172z" />
    <glyph glyph-name="Ocircumflex" unicode="&#xd4;" horiz-adv-x="1714" 
d="M120 717c0 68 8.83301 133.333 26.5 196s42.5 121.334 74.5 176.001s70.333 104.334 115 149.001s94.334 83 149.001 115s113.334 56.833 176.001 74.5s128 26.5 196 26.5s133.333 -8.83301 196 -26.5s121.334 -42.5 176.001 -74.5s104.334 -70.333 149.001 -115
s83 -94.334 115 -149.001s56.833 -113.334 74.5 -176.001s26.5 -128 26.5 -196s-8.83301 -133.333 -26.5 -196s-42.5 -121.334 -74.5 -176.001s-70.333 -104.334 -115 -149.001s-94.334 -83 -149.001 -115s-113.334 -56.833 -176.001 -74.5s-128 -26.5 -196 -26.5
s-133.333 8.83301 -196 26.5s-121.334 42.5 -176.001 74.5s-104.334 70.333 -149.001 115s-83 94.334 -115 149.001s-56.833 113.334 -74.5 176.001s-26.5 128 -26.5 196zM286 717c0 -82 14.333 -159 43 -231s68.5 -134.833 119.5 -188.5s111.333 -96 181 -127
s145.5 -46.5 227.5 -46.5s157.833 15.5 227.5 46.5s130 73.333 181 127s90.833 116.5 119.5 188.5s43 149 43 231s-14.333 159 -43 231s-68.5 134.833 -119.5 188.5s-111.333 96 -181 127s-145.5 46.5 -227.5 46.5s-157.833 -15.5 -227.5 -46.5s-130 -73.333 -181 -127
s-90.833 -116.5 -119.5 -188.5s-43 -149 -43 -231zM808 1888h98l281 -324h-158l-172 180l-172 -180h-158z" />
    <glyph glyph-name="Otilde" unicode="&#xd5;" horiz-adv-x="1714" 
d="M120 717c0 68 8.83301 133.333 26.5 196s42.5 121.334 74.5 176.001s70.333 104.334 115 149.001s94.334 83 149.001 115s113.334 56.833 176.001 74.5s128 26.5 196 26.5s133.333 -8.83301 196 -26.5s121.334 -42.5 176.001 -74.5s104.334 -70.333 149.001 -115
s83 -94.334 115 -149.001s56.833 -113.334 74.5 -176.001s26.5 -128 26.5 -196s-8.83301 -133.333 -26.5 -196s-42.5 -121.334 -74.5 -176.001s-70.333 -104.334 -115 -149.001s-94.334 -83 -149.001 -115s-113.334 -56.833 -176.001 -74.5s-128 -26.5 -196 -26.5
s-133.333 8.83301 -196 26.5s-121.334 42.5 -176.001 74.5s-104.334 70.333 -149.001 115s-83 94.334 -115 149.001s-56.833 113.334 -74.5 176.001s-26.5 128 -26.5 196zM286 717c0 -82 14.333 -159 43 -231s68.5 -134.833 119.5 -188.5s111.333 -96 181 -127
s145.5 -46.5 227.5 -46.5s157.833 15.5 227.5 46.5s130 73.333 181 127s90.833 116.5 119.5 188.5s43 149 43 231s-14.333 159 -43 231s-68.5 134.833 -119.5 188.5s-111.333 96 -181 127s-145.5 46.5 -227.5 46.5s-157.833 -15.5 -227.5 -46.5s-130 -73.333 -181 -127
s-90.833 -116.5 -119.5 -188.5s-43 -149 -43 -231zM812 1659c-12.667 13.333 -25.501 24.5 -38.501 33.5s-27.167 13.5 -42.5 13.5s-27.166 -4.33301 -35.499 -13s-14.5 -18.334 -18.5 -29.001c-4.66699 -12 -7.66699 -25.667 -9 -41h-145c4 41.333 14 78 30 110
c6.66699 14 15 27.5 25 40.5s22.333 24.667 37 35s31.5 18.666 50.5 24.999s40.833 9.5 65.5 9.5c22.667 0 42.834 -2.66699 60.501 -8s33.167 -12.333 46.5 -21s25.166 -18 35.499 -28l28.5 -28c12.667 -13.333 25.5 -24.5 38.5 -33.5s27.167 -13.5 42.5 -13.5
s27.166 4.16699 35.499 12.5s14.5 17.833 18.5 28.5c4.66699 12 7.66699 26 9 42h145c-4 -41.333 -14 -78 -30 -110c-6.66699 -14 -15 -27.5 -25 -40.5s-22.333 -24.667 -37 -35s-31.5 -18.666 -50.5 -24.999s-40.833 -9.5 -65.5 -9.5c-23.333 0 -43.666 2.66699 -60.999 8
s-32.833 12.333 -46.5 21s-25.5 17.834 -35.5 27.501s-19.333 19.167 -28 28.5z" />
    <glyph glyph-name="Odieresis" unicode="&#xd6;" horiz-adv-x="1714" 
d="M120 717c0 68 8.83301 133.333 26.5 196s42.5 121.334 74.5 176.001s70.333 104.334 115 149.001s94.334 83 149.001 115s113.334 56.833 176.001 74.5s128 26.5 196 26.5s133.333 -8.83301 196 -26.5s121.334 -42.5 176.001 -74.5s104.334 -70.333 149.001 -115
s83 -94.334 115 -149.001s56.833 -113.334 74.5 -176.001s26.5 -128 26.5 -196s-8.83301 -133.333 -26.5 -196s-42.5 -121.334 -74.5 -176.001s-70.333 -104.334 -115 -149.001s-94.334 -83 -149.001 -115s-113.334 -56.833 -176.001 -74.5s-128 -26.5 -196 -26.5
s-133.333 8.83301 -196 26.5s-121.334 42.5 -176.001 74.5s-104.334 70.333 -149.001 115s-83 94.334 -115 149.001s-56.833 113.334 -74.5 176.001s-26.5 128 -26.5 196zM286 717c0 -82 14.333 -159 43 -231s68.5 -134.833 119.5 -188.5s111.333 -96 181 -127
s145.5 -46.5 227.5 -46.5s157.833 15.5 227.5 46.5s130 73.333 181 127s90.833 116.5 119.5 188.5s43 149 43 231s-14.333 159 -43 231s-68.5 134.833 -119.5 188.5s-111.333 96 -181 127s-145.5 46.5 -227.5 46.5s-157.833 -15.5 -227.5 -46.5s-130 -73.333 -181 -127
s-90.833 -116.5 -119.5 -188.5s-43 -149 -43 -231zM569 1679c0 14 2.66699 27.167 8 39.5s12.833 23.166 22.5 32.499s20.667 16.666 33 21.999s25.5 8 39.5 8s27.167 -2.66699 39.5 -8s23.333 -12.666 33 -21.999s17.167 -20.166 22.5 -32.499s8 -25.5 8 -39.5
s-2.66699 -27.333 -8 -40s-12.833 -23.5 -22.5 -32.5s-20.667 -16.167 -33 -21.5s-25.5 -8 -39.5 -8s-27.167 2.66699 -39.5 8s-23.333 12.5 -33 21.5s-17.167 19.833 -22.5 32.5s-8 26 -8 40zM939 1679c0 14 2.66699 27.167 8 39.5s12.833 23.166 22.5 32.499
s20.667 16.666 33 21.999s25.5 8 39.5 8s27.167 -2.66699 39.5 -8s23.333 -12.666 33 -21.999s17.167 -20.166 22.5 -32.499s8 -25.5 8 -39.5s-2.66699 -27.333 -8 -40s-12.833 -23.5 -22.5 -32.5s-20.667 -16.167 -33 -21.5s-25.5 -8 -39.5 -8s-27.167 2.66699 -39.5 8
s-23.333 12.5 -33 21.5s-17.167 19.833 -22.5 32.5s-8 26 -8 40z" />
    <glyph glyph-name="multiply" unicode="&#xd7;" horiz-adv-x="1013" 
d="M893 942l-280 -279l280 -279l-106 -107l-281 280l-280 -280l-106 107l279 279l-279 279l107 108l279 -280l280 280z" />
    <glyph glyph-name="Oslash" unicode="&#xd8;" horiz-adv-x="1714" 
d="M120 717c0 68 8.83301 133.331 26.5 195.998s42.5 121.334 74.5 176.001s70.333 104.334 115 149.001s94.334 83 149.001 115s113.334 56.833 176.001 74.5s128 26.5 196 26.5c62.667 0 123 -7.5 181 -22.5s113 -36.5 165 -64.5l43 67h149l-87 -135
c43.333 -34 82.666 -72.333 117.999 -115s65.5 -88.667 90.5 -138s44.167 -101.666 57.5 -156.999s20 -112.666 20 -171.999c0 -68 -8.83301 -133.333 -26.5 -196s-42.5 -121.334 -74.5 -176.001s-70.333 -104.334 -115 -149.001s-94.334 -83 -149.001 -115
s-113.334 -56.833 -176.001 -74.5s-128 -26.5 -196 -26.5c-62.667 0 -123 7.33301 -181 22s-113 36 -165 64l-43 -66h-149l87 134c-43.333 34 -82.666 72.333 -117.999 115s-65.5 88.834 -90.5 138.501s-44.167 102.167 -57.5 157.5s-20 112.666 -20 171.999zM1428 716.998
c0 92 -17.999 177.331 -53.999 255.998s-85.333 145.334 -148 200.001l-636 -983c40 -21.333 82.167 -37.666 126.5 -48.999s91.166 -17 140.499 -17c82 0 157.833 15.5 227.5 46.5s130 73.333 181 127s90.833 116.5 119.5 188.5s43 149 43 231zM286.001 716.996
c0 -92 17.832 -177.331 53.499 -255.998s84.834 -145.334 147.501 -200.001l636 983c-40 21.333 -82.167 37.666 -126.5 48.999s-90.833 17 -139.5 17c-82 0 -157.833 -15.5 -227.5 -46.5s-130 -73.333 -181 -127s-90.833 -116.5 -119.5 -188.5s-43 -149 -43 -231z" />
    <glyph glyph-name="Ugrave" unicode="&#xd9;" horiz-adv-x="1464" 
d="M732 -20c-189.333 0 -332.002 54.5 -428.002 163.5s-144 265.833 -144 470.5v820h162v-780c0 -86 7.83301 -162 23.5 -228s40 -121.333 73 -166s75.333 -78.5 127 -101.5s113.834 -34.5 186.501 -34.5s134.834 11.5 186.501 34.5s94 56.833 127 101.5s57.333 100 73 166
s23.5 142 23.5 228v780h162v-820c0 -204.667 -48 -361.5 -144 -470.5s-238.667 -163.5 -428 -163.5zM806.998 1573h-173l-309 305h209z" />
    <glyph glyph-name="Uacute" unicode="&#xda;" horiz-adv-x="1464" 
d="M732 -20c-189.333 0 -332.002 54.5 -428.002 163.5s-144 265.833 -144 470.5v820h162v-780c0 -86 7.83301 -162 23.5 -228s40 -121.333 73 -166s75.333 -78.5 127 -101.5s113.834 -34.5 186.501 -34.5s134.834 11.5 186.501 34.5s94 56.833 127 101.5s57.333 100 73 166
s23.5 142 23.5 228v780h162v-820c0 -204.667 -48 -361.5 -144 -470.5s-238.667 -163.5 -428 -163.5zM886.998 1878h209l-310 -305h-172z" />
    <glyph glyph-name="Ucircumflex" unicode="&#xdb;" horiz-adv-x="1464" 
d="M732 -20c-189.333 0 -332.002 54.5 -428.002 163.5s-144 265.833 -144 470.5v820h162v-780c0 -86 7.83301 -162 23.5 -228s40 -121.333 73 -166s75.333 -78.5 127 -101.5s113.834 -34.5 186.501 -34.5s134.834 11.5 186.501 34.5s94 56.833 127 101.5s57.333 100 73 166
s23.5 142 23.5 228v780h162v-820c0 -204.667 -48 -361.5 -144 -470.5s-238.667 -163.5 -428 -163.5zM682.998 1888h98l281 -324h-158l-172 180l-172 -180h-158z" />
    <glyph glyph-name="Udieresis" unicode="&#xdc;" horiz-adv-x="1464" 
d="M732 -20c-189.333 0 -332.002 54.5 -428.002 163.5s-144 265.833 -144 470.5v820h162v-780c0 -86 7.83301 -162 23.5 -228s40 -121.333 73 -166s75.333 -78.5 127 -101.5s113.834 -34.5 186.501 -34.5s134.834 11.5 186.501 34.5s94 56.833 127 101.5s57.333 100 73 166
s23.5 142 23.5 228v780h162v-820c0 -204.667 -48 -361.5 -144 -470.5s-238.667 -163.5 -428 -163.5zM443.998 1679c0 14 2.66699 27.167 8 39.5s12.833 23.166 22.5 32.499s20.667 16.666 33 21.999s25.5 8 39.5 8s27.167 -2.66699 39.5 -8s23.333 -12.666 33 -21.999
s17.167 -20.166 22.5 -32.499s8 -25.5 8 -39.5s-2.66699 -27.333 -8 -40s-12.833 -23.5 -22.5 -32.5s-20.667 -16.167 -33 -21.5s-25.5 -8 -39.5 -8s-27.167 2.66699 -39.5 8s-23.333 12.5 -33 21.5s-17.167 19.833 -22.5 32.5s-8 26 -8 40zM813.998 1679
c0 14 2.66699 27.167 8 39.5s12.833 23.166 22.5 32.499s20.667 16.666 33 21.999s25.5 8 39.5 8s27.167 -2.66699 39.5 -8s23.333 -12.666 33 -21.999s17.167 -20.166 22.5 -32.499s8 -25.5 8 -39.5s-2.66699 -27.333 -8 -40s-12.833 -23.5 -22.5 -32.5
s-20.667 -16.167 -33 -21.5s-25.5 -8 -39.5 -8s-27.167 2.66699 -39.5 8s-23.333 12.5 -33 21.5s-17.167 19.833 -22.5 32.5s-8 26 -8 40z" />
    <glyph glyph-name="Yacute" unicode="&#xdd;" horiz-adv-x="1474" 
d="M737 744l477 690h190l-586 -845v-589h-162v589l-586 845h190zM911 1878h209l-310 -305h-172z" />
    <glyph glyph-name="Thorn" unicode="&#xde;" horiz-adv-x="1348" 
d="M160 1434h162v-313h536c66 0 123.5 -10 172.5 -30s89.5 -48 121.5 -84s56 -78.667 72 -128s24 -103.333 24 -162c0 -58 -8 -111.667 -24 -161s-40 -92 -72 -128s-72.5 -64.167 -121.5 -84.5s-106.5 -30.5 -172.5 -30.5h-536v-313h-162v1434zM322 977v-519.999h536
c38.667 0 72.167 6.16699 100.5 18.5s52 29.833 71 52.5s33.167 50 42.5 82s14 67.667 14 107c0 40 -4.66699 76 -14 108s-23.5 59.167 -42.5 81.5s-42.667 39.666 -71 51.999s-61.833 18.5 -100.5 18.5h-536z" />
    <glyph glyph-name="germandbls" unicode="&#xdf;" horiz-adv-x="1416" 
d="M454 197c30.667 -14 64.3311 -26.3311 100.998 -36.998c31.333 -9.33301 67 -17.666 107 -24.999s83 -11 129 -11c107.333 0 191 23.333 251 70s90 113.667 90 201c0 48 -9.16699 89.667 -27.5 125s-43.5 64.5 -75.5 87.5s-70 40.167 -114 51.5s-91.333 17 -142 17h-254
v144h252c48.667 0 92 5.83301 130 17.5s70 27.834 96 48.501s45.833 45.5 59.5 74.5s20.5 60.5 20.5 94.5c0 37.333 -7.33301 71.666 -22 102.999s-37.5 58.166 -68.5 80.499s-70.5 39.833 -118.5 52.5s-105.333 19 -172 19c-30 0 -60 -1.83301 -90 -5.5
s-59 -10.834 -87 -21.501s-53.833 -25.834 -77.5 -45.501s-44.5 -45.334 -62.5 -77.001s-32 -70.167 -42 -115.5s-15 -99.333 -15 -162v-883h-162v883c0 86 8.83301 159.667 26.5 221s41.167 113.166 70.5 155.499s62.666 76.333 99.999 102s76 45.334 116 59.001
s79.333 22.667 118 27s73.667 6.5 105 6.5c88 0 166 -10.5 234 -31.5s125 -49.5 171 -85.5s80.833 -78.167 104.5 -126.5s35.5 -100.166 35.5 -155.499c0 -40 -7.16699 -76.667 -21.5 -110s-33.166 -63 -56.499 -89s-50 -47.667 -80 -65s-60.667 -29.666 -92 -36.999
c42.667 -8.66699 82.5 -22.5 119.5 -41.5s69.333 -43.5 97 -73.5s49.334 -65.333 65.001 -106s23.5 -86.667 23.5 -138c0 -64 -11.667 -121.667 -35 -173s-56.666 -95 -99.999 -131s-96.166 -63.5 -158.499 -82.5s-132.833 -28.5 -211.5 -28.5
c-55.333 0 -103.833 3.16699 -145.5 9.5s-76.834 13.166 -105.501 20.499c-33.333 8.66699 -62 18.667 -86 30v157z" />
    <glyph glyph-name="agrave" unicode="&#xe0;" horiz-adv-x="1286" 
d="M992 1006l154 0.00390625v-1006h-154v211c-22.667 -43.333 -52 -82 -88 -116c-15.333 -14.667 -32.666 -28.834 -51.999 -42.501s-41 -25.834 -65 -36.501s-50.5 -19.334 -79.5 -26.001s-60.5 -10 -94.5 -10c-70 0 -136 13.167 -198 39.5s-116.333 62.833 -163 109.5
s-83.667 102 -111 166s-41 133.333 -41 208s13.667 144 41 208s64.333 119.333 111 166s101 83.167 163 109.5s128 39.5 198 39.5c34 0 65.5 -3.33301 94.5 -10s55.5 -15.5 79.5 -26.5s45.667 -23.333 65 -37s36.666 -27.834 51.999 -42.501c36 -34 65.333 -72.333 88 -115
v211zM992 503.004c0 56.667 -9.66699 108.834 -29 156.501s-45.666 88.834 -78.999 123.501s-72.5 61.834 -117.5 81.501s-92.833 29.5 -143.5 29.5c-51.333 0 -99.333 -9.83301 -144 -29.5s-83.667 -46.834 -117 -81.501s-59.666 -75.834 -78.999 -123.501
s-29 -99.834 -29 -156.501s9.66699 -108.834 29 -156.501s45.666 -88.834 78.999 -123.501s72.333 -61.834 117 -81.501s92.667 -29.5 144 -29.5c50.667 0 98.5 9.83301 143.5 29.5s84.167 46.834 117.5 81.501s59.666 75.834 78.999 123.501s29 99.834 29 156.501z
M705 1129h-173l-309 305h209z" />
    <glyph glyph-name="aacute" unicode="&#xe1;" horiz-adv-x="1286" 
d="M992 1006l154 0.00390625v-1006h-154v211c-22.667 -43.333 -52 -82 -88 -116c-15.333 -14.667 -32.666 -28.834 -51.999 -42.501s-41 -25.834 -65 -36.501s-50.5 -19.334 -79.5 -26.001s-60.5 -10 -94.5 -10c-70 0 -136 13.167 -198 39.5s-116.333 62.833 -163 109.5
s-83.667 102 -111 166s-41 133.333 -41 208s13.667 144 41 208s64.333 119.333 111 166s101 83.167 163 109.5s128 39.5 198 39.5c34 0 65.5 -3.33301 94.5 -10s55.5 -15.5 79.5 -26.5s45.667 -23.333 65 -37s36.666 -27.834 51.999 -42.501c36 -34 65.333 -72.333 88 -115
v211zM992 503.004c0 56.667 -9.66699 108.834 -29 156.501s-45.666 88.834 -78.999 123.501s-72.5 61.834 -117.5 81.501s-92.833 29.5 -143.5 29.5c-51.333 0 -99.333 -9.83301 -144 -29.5s-83.667 -46.834 -117 -81.501s-59.666 -75.834 -78.999 -123.501
s-29 -99.834 -29 -156.501s9.66699 -108.834 29 -156.501s45.666 -88.834 78.999 -123.501s72.333 -61.834 117 -81.501s92.667 -29.5 144 -29.5c50.667 0 98.5 9.83301 143.5 29.5s84.167 46.834 117.5 81.501s59.666 75.834 78.999 123.501s29 99.834 29 156.501z
M810 1434h209l-310 -305h-172z" />
    <glyph glyph-name="acircumflex" unicode="&#xe2;" horiz-adv-x="1286" 
d="M992 1006l154 0.00390625v-1006h-154v211c-22.667 -43.333 -52 -82 -88 -116c-15.333 -14.667 -32.666 -28.834 -51.999 -42.501s-41 -25.834 -65 -36.501s-50.5 -19.334 -79.5 -26.001s-60.5 -10 -94.5 -10c-70 0 -136 13.167 -198 39.5s-116.333 62.833 -163 109.5
s-83.667 102 -111 166s-41 133.333 -41 208s13.667 144 41 208s64.333 119.333 111 166s101 83.167 163 109.5s128 39.5 198 39.5c34 0 65.5 -3.33301 94.5 -10s55.5 -15.5 79.5 -26.5s45.667 -23.333 65 -37s36.666 -27.834 51.999 -42.501c36 -34 65.333 -72.333 88 -115
v211zM992 503.004c0 56.667 -9.66699 108.834 -29 156.501s-45.666 88.834 -78.999 123.501s-72.5 61.834 -117.5 81.501s-92.833 29.5 -143.5 29.5c-51.333 0 -99.333 -9.83301 -144 -29.5s-83.667 -46.834 -117 -81.501s-59.666 -75.834 -78.999 -123.501
s-29 -99.834 -29 -156.501s9.66699 -108.834 29 -156.501s45.666 -88.834 78.999 -123.501s72.333 -61.834 117 -81.501s92.667 -29.5 144 -29.5c50.667 0 98.5 9.83301 143.5 29.5s84.167 46.834 117.5 81.501s59.666 75.834 78.999 123.501s29 99.834 29 156.501z
M579 1434h98l281 -324h-158l-172 180l-172 -180h-158z" />
    <glyph glyph-name="atilde" unicode="&#xe3;" horiz-adv-x="1286" 
d="M992 1006l154 0.00390625v-1006h-154v211c-22.667 -43.333 -52 -82 -88 -116c-15.333 -14.667 -32.666 -28.834 -51.999 -42.501s-41 -25.834 -65 -36.501s-50.5 -19.334 -79.5 -26.001s-60.5 -10 -94.5 -10c-70 0 -136 13.167 -198 39.5s-116.333 62.833 -163 109.5
s-83.667 102 -111 166s-41 133.333 -41 208s13.667 144 41 208s64.333 119.333 111 166s101 83.167 163 109.5s128 39.5 198 39.5c34 0 65.5 -3.33301 94.5 -10s55.5 -15.5 79.5 -26.5s45.667 -23.333 65 -37s36.666 -27.834 51.999 -42.501c36 -34 65.333 -72.333 88 -115
v211zM992 503.004c0 56.667 -9.66699 108.834 -29 156.501s-45.666 88.834 -78.999 123.501s-72.5 61.834 -117.5 81.501s-92.833 29.5 -143.5 29.5c-51.333 0 -99.333 -9.83301 -144 -29.5s-83.667 -46.834 -117 -81.501s-59.666 -75.834 -78.999 -123.501
s-29 -99.834 -29 -156.501s9.66699 -108.834 29 -156.501s45.666 -88.834 78.999 -123.501s72.333 -61.834 117 -81.501s92.667 -29.5 144 -29.5c50.667 0 98.5 9.83301 143.5 29.5s84.167 46.834 117.5 81.501s59.666 75.834 78.999 123.501s29 99.834 29 156.501z
M594 1250c-12.667 13.333 -25.501 24.5 -38.501 33.5s-27.167 13.5 -42.5 13.5s-27.166 -4.33301 -35.499 -13s-14.5 -18.334 -18.5 -29.001c-4.66699 -12 -7.66699 -25.667 -9 -41h-145c4 41.333 14 78 30 110c6.66699 14 15 27.5 25 40.5s22.333 24.667 37 35
s31.5 18.666 50.5 24.999s40.833 9.5 65.5 9.5c22.667 0 42.834 -2.66699 60.501 -8s33.167 -12.333 46.5 -21s25.166 -18 35.499 -28l28.5 -28c12.667 -13.333 25.5 -24.5 38.5 -33.5s27.167 -13.5 42.5 -13.5s27.166 4.16699 35.499 12.5s14.5 17.833 18.5 28.5
c4.66699 12 7.66699 26 9 42h145c-4 -41.333 -14 -78 -30 -110c-6.66699 -14 -15 -27.5 -25 -40.5s-22.333 -24.667 -37 -35s-31.5 -18.666 -50.5 -24.999s-40.833 -9.5 -65.5 -9.5c-23.333 0 -43.666 2.66699 -60.999 8s-32.833 12.333 -46.5 21s-25.5 17.834 -35.5 27.501
s-19.333 19.167 -28 28.5z" />
    <glyph glyph-name="adieresis" unicode="&#xe4;" horiz-adv-x="1286" 
d="M992 1006l154 0.00390625v-1006h-154v211c-22.667 -43.333 -52 -82 -88 -116c-15.333 -14.667 -32.666 -28.834 -51.999 -42.501s-41 -25.834 -65 -36.501s-50.5 -19.334 -79.5 -26.001s-60.5 -10 -94.5 -10c-70 0 -136 13.167 -198 39.5s-116.333 62.833 -163 109.5
s-83.667 102 -111 166s-41 133.333 -41 208s13.667 144 41 208s64.333 119.333 111 166s101 83.167 163 109.5s128 39.5 198 39.5c34 0 65.5 -3.33301 94.5 -10s55.5 -15.5 79.5 -26.5s45.667 -23.333 65 -37s36.666 -27.834 51.999 -42.501c36 -34 65.333 -72.333 88 -115
v211zM992 503.004c0 56.667 -9.66699 108.834 -29 156.501s-45.666 88.834 -78.999 123.501s-72.5 61.834 -117.5 81.501s-92.833 29.5 -143.5 29.5c-51.333 0 -99.333 -9.83301 -144 -29.5s-83.667 -46.834 -117 -81.501s-59.666 -75.834 -78.999 -123.501
s-29 -99.834 -29 -156.501s9.66699 -108.834 29 -156.501s45.666 -88.834 78.999 -123.501s72.333 -61.834 117 -81.501s92.667 -29.5 144 -29.5c50.667 0 98.5 9.83301 143.5 29.5s84.167 46.834 117.5 81.501s59.666 75.834 78.999 123.501s29 99.834 29 156.501z
M354 1290c0 14 2.66699 27.167 8 39.5s12.833 23.166 22.5 32.499s20.667 16.666 33 21.999s25.5 8 39.5 8s27.167 -2.66699 39.5 -8s23.333 -12.666 33 -21.999s17.167 -20.166 22.5 -32.499s8 -25.5 8 -39.5s-2.66699 -27.333 -8 -40s-12.833 -23.5 -22.5 -32.5
s-20.667 -16.167 -33 -21.5s-25.5 -8 -39.5 -8s-27.167 2.66699 -39.5 8s-23.333 12.5 -33 21.5s-17.167 19.833 -22.5 32.5s-8 26 -8 40zM724 1290c0 14 2.66699 27.167 8 39.5s12.833 23.166 22.5 32.499s20.667 16.666 33 21.999s25.5 8 39.5 8s27.167 -2.66699 39.5 -8
s23.333 -12.666 33 -21.999s17.167 -20.166 22.5 -32.499s8 -25.5 8 -39.5s-2.66699 -27.333 -8 -40s-12.833 -23.5 -22.5 -32.5s-20.667 -16.167 -33 -21.5s-25.5 -8 -39.5 -8s-27.167 2.66699 -39.5 8s-23.333 12.5 -33 21.5s-17.167 19.833 -22.5 32.5s-8 26 -8 40z" />
    <glyph glyph-name="aring" unicode="&#xe5;" horiz-adv-x="1286" 
d="M992 1006l154 0.00390625v-1006h-154v211c-22.667 -43.333 -52 -82 -88 -116c-15.333 -14.667 -32.666 -28.834 -51.999 -42.501s-41 -25.834 -65 -36.501s-50.5 -19.334 -79.5 -26.001s-60.5 -10 -94.5 -10c-70 0 -136 13.167 -198 39.5s-116.333 62.833 -163 109.5
s-83.667 102 -111 166s-41 133.333 -41 208s13.667 144 41 208s64.333 119.333 111 166s101 83.167 163 109.5s128 39.5 198 39.5c34 0 65.5 -3.33301 94.5 -10s55.5 -15.5 79.5 -26.5s45.667 -23.333 65 -37s36.666 -27.834 51.999 -42.501c36 -34 65.333 -72.333 88 -115
v211zM992 503.004c0 56.667 -9.66699 108.834 -29 156.501s-45.666 88.834 -78.999 123.501s-72.5 61.834 -117.5 81.501s-92.833 29.5 -143.5 29.5c-51.333 0 -99.333 -9.83301 -144 -29.5s-83.667 -46.834 -117 -81.501s-59.666 -75.834 -78.999 -123.501
s-29 -99.834 -29 -156.501s9.66699 -108.834 29 -156.501s45.666 -88.834 78.999 -123.501s72.333 -61.834 117 -81.501s92.667 -29.5 144 -29.5c50.667 0 98.5 9.83301 143.5 29.5s84.167 46.834 117.5 81.501s59.666 75.834 78.999 123.501s29 99.834 29 156.501z
M456 1297c0 26 5.16699 50.5 15.5 73.5s24.166 43.333 41.499 61s37.5 31.5 60.5 41.5s47.5 15 73.5 15s50.5 -5 73.5 -15s43.167 -23.833 60.5 -41.5s31.166 -38 41.499 -61s15.5 -47.5 15.5 -73.5s-5.16699 -50.5 -15.5 -73.5s-24.166 -43.167 -41.499 -60.5
s-37.5 -31.166 -60.5 -41.499s-47.5 -15.5 -73.5 -15.5s-50.5 5.16699 -73.5 15.5s-43.167 24.166 -60.5 41.499s-31.166 37.5 -41.499 60.5s-15.5 47.5 -15.5 73.5zM567 1297c0 -22.667 7.66699 -41.667 23 -57s34.333 -23 57 -23s41.667 7.66699 57 23s23 34.333 23 57
c0 22 -7.66699 40.833 -23 56.5s-34.333 23.5 -57 23.5s-41.667 -7.83301 -57 -23.5s-23 -34.5 -23 -56.5z" />
    <glyph glyph-name="ae" unicode="&#xe6;" horiz-adv-x="2143" 
d="M992 1006h154.005v-125c47.333 46 102.5 81.667 165.5 107s130.833 38 203.5 38c72 0 140.833 -13.333 206.5 -40s123 -65.5 172 -116.5s87.167 -113.167 114.5 -186.5s38.666 -156.333 33.999 -249h-891c7.33301 -47.333 21.833 -90.833 43.5 -130.5
s48.667 -73.667 81 -102s68.833 -50.333 109.5 -66s84 -23.5 130 -23.5c53.333 0 99.166 7.33301 137.499 22s70.166 30.667 95.499 48c29.333 20.667 54 44 74 70h173c-25.333 -50.667 -60 -96 -104 -136c-18.667 -17.333 -40.334 -34 -65.001 -50s-52.5 -30.5 -83.5 -43.5
s-65.333 -23.333 -103 -31s-79.167 -11.5 -124.5 -11.5c-72.667 0 -140.5 12.5 -203.5 37.5s-118.167 60.5 -165.5 106.5v-124h-154v210c-1.33301 -2 -5.33301 -9 -12 -21s-16.667 -26.5 -30 -43.5s-30.166 -35.167 -50.499 -54.5s-44.333 -37.166 -72 -53.499
s-59.334 -30 -95.001 -41s-75.5 -16.5 -119.5 -16.5c-70 0 -136 13.167 -198 39.5s-116.333 62.833 -163 109.5s-83.667 102 -111 166s-41 133.333 -41 208s13.667 144 41 208s64.333 119.333 111 166s101 83.167 163 109.5s128 39.5 198 39.5c34 0 65.5 -3.33301 94.5 -10
s55.5 -15.5 79.5 -26.5s45.667 -23.333 65 -37s36.666 -27.834 51.999 -42.501c36 -34 65.333 -72.333 88 -115v211zM992.005 503c0 56.667 -9.66699 108.834 -29 156.501s-45.666 88.834 -78.999 123.501s-72.5 61.834 -117.5 81.501s-92.833 29.5 -143.5 29.5
c-51.333 0 -99.333 -9.83301 -144 -29.5s-83.667 -46.834 -117 -81.501s-59.666 -75.834 -78.999 -123.501s-29 -99.834 -29 -156.501s9.66699 -108.834 29 -156.501s45.666 -88.834 78.999 -123.501s72.333 -61.834 117 -81.501s92.667 -29.5 144 -29.5
c50.667 0 98.5 9.83301 143.5 29.5s84.167 46.834 117.5 81.501s59.666 75.834 78.999 123.501s29 99.834 29 156.501zM1515 894c-46 0 -89.666 -8 -130.999 -24s-78.166 -38.5 -110.499 -67.5s-59.333 -63.667 -81 -104s-35.834 -84.5 -42.501 -132.5h729
c-6.66699 48 -20.834 92.167 -42.501 132.5s-48.667 75 -81 104s-69 51.5 -110 67.5s-84.5 24 -130.5 24z" />
    <glyph glyph-name="ccedilla" unicode="&#xe7;" horiz-adv-x="1163" 
d="M447 -318c12.667 -6 27 -11.3223 43 -15.9893c13.333 -4 28.833 -7.5 46.5 -10.5s36.834 -4.5 57.501 -4.5c26 0 48.833 5.16699 68.5 15.5s31.5 29.5 35.5 57.5c2 17.333 -0.833008 31.166 -8.5 41.499s-18.334 18 -32.001 23s-29.5 8 -47.5 9s-36 1 -54 0
s-35 -2.66699 -51 -5s-29 -4.16602 -39 -5.49902l70 200c-62 10 -119.667 29.833 -173 59.5s-99.5 67.167 -138.5 112.5s-69.5 97.166 -91.5 155.499s-33 121.166 -33 188.499c0 74.667 13.667 144 41 208s64.666 119.333 111.999 166s102.833 83.167 166.5 109.5
s131.5 39.5 203.5 39.5c44 0 84.333 -3.83301 121 -11.5s69.834 -18 99.501 -31s56.167 -27.667 79.5 -44s44 -32.833 62 -49.5c41.333 -40 74 -85.333 98 -136h-173c-18 26 -40.333 49.333 -67 70c-23.333 17.333 -53.166 33.333 -89.499 48s-79.833 22 -130.5 22
c-51.333 0 -99.333 -9.83301 -144 -29.5s-83.667 -46.834 -117 -81.501s-59.666 -75.834 -78.999 -123.501s-29 -99.834 -29 -156.501s9.66699 -108.834 29 -156.501s45.666 -88.834 78.999 -123.501s72.333 -61.834 117 -81.501s92.667 -29.5 144 -29.5
c50.667 0 94.167 7.33301 130.5 22s66.166 30.667 89.499 48c26.667 20.667 49 44 67 70h173c-21.333 -47.333 -51 -90 -89 -128c-16 -16 -34.833 -32 -56.5 -48s-46 -30.5 -73 -43.5s-57 -24 -90 -33s-69.5 -14.833 -109.5 -17.5l-30 -85
c28 -0.666992 53.833 -4.83398 77.5 -12.501s44 -18.834 61 -33.501s29.833 -32.834 38.5 -54.501s12 -46.5 10 -74.5c-3.33301 -32 -11.666 -59.667 -24.999 -83s-30.5 -42.5 -51.5 -57.5s-44.833 -26.167 -71.5 -33.5s-55.334 -11 -86.001 -11s-58 2.5 -82 7.5
s-44.333 10.5 -61 16.5c-20 7.33301 -37.333 15.333 -52 24z" />
    <glyph glyph-name="egrave" unicode="&#xe8;" horiz-adv-x="1251" 
d="M623 -20c-72 0 -139.829 12.833 -203.496 38.5s-119.167 61.5 -166.5 107.5s-84.666 101 -111.999 165s-41 134.667 -41 212s13.667 148 41 212s64.666 119 111.999 165s102.833 81.833 166.5 107.5s131.5 38.5 203.5 38.5s140.833 -13.333 206.5 -40
s123 -65.5 172 -116.5s87.167 -113.167 114.5 -186.5s38.666 -156.333 33.999 -249h-891c7.33301 -47.333 21.833 -90.833 43.5 -130.5s48.667 -73.667 81 -102s68.833 -50.333 109.5 -66s84 -23.5 130 -23.5c53.333 0 99.166 7.33301 137.499 22s70.166 30.667 95.499 48
c29.333 20.667 54 44 74 70h173c-25.333 -50.667 -60 -96 -104 -136c-18.667 -17.333 -40.334 -34 -65.001 -50s-52.5 -30.5 -83.5 -43.5s-65.333 -23.333 -103 -31s-79.167 -11.5 -124.5 -11.5zM623.004 894c-46 0 -89.666 -8 -130.999 -24s-78.166 -38.5 -110.499 -67.5
s-59.333 -63.667 -81 -104s-35.834 -84.5 -42.501 -132.5h729c-6.66699 48 -20.834 92.167 -42.501 132.5s-48.667 75 -81 104s-69 51.5 -110 67.5s-84.5 24 -130.5 24zM710.005 1129h-173l-309 305h209z" />
    <glyph glyph-name="eacute" unicode="&#xe9;" horiz-adv-x="1251" 
d="M623 -20c-72 0 -139.829 12.833 -203.496 38.5s-119.167 61.5 -166.5 107.5s-84.666 101 -111.999 165s-41 134.667 -41 212s13.667 148 41 212s64.666 119 111.999 165s102.833 81.833 166.5 107.5s131.5 38.5 203.5 38.5s140.833 -13.333 206.5 -40
s123 -65.5 172 -116.5s87.167 -113.167 114.5 -186.5s38.666 -156.333 33.999 -249h-891c7.33301 -47.333 21.833 -90.833 43.5 -130.5s48.667 -73.667 81 -102s68.833 -50.333 109.5 -66s84 -23.5 130 -23.5c53.333 0 99.166 7.33301 137.499 22s70.166 30.667 95.499 48
c29.333 20.667 54 44 74 70h173c-25.333 -50.667 -60 -96 -104 -136c-18.667 -17.333 -40.334 -34 -65.001 -50s-52.5 -30.5 -83.5 -43.5s-65.333 -23.333 -103 -31s-79.167 -11.5 -124.5 -11.5zM623.004 894c-46 0 -89.666 -8 -130.999 -24s-78.166 -38.5 -110.499 -67.5
s-59.333 -63.667 -81 -104s-35.834 -84.5 -42.501 -132.5h729c-6.66699 48 -20.834 92.167 -42.501 132.5s-48.667 75 -81 104s-69 51.5 -110 67.5s-84.5 24 -130.5 24zM793.005 1434h209l-310 -305h-172z" />
    <glyph glyph-name="ecircumflex" unicode="&#xea;" horiz-adv-x="1251" 
d="M623 -20c-72 0 -139.829 12.833 -203.496 38.5s-119.167 61.5 -166.5 107.5s-84.666 101 -111.999 165s-41 134.667 -41 212s13.667 148 41 212s64.666 119 111.999 165s102.833 81.833 166.5 107.5s131.5 38.5 203.5 38.5s140.833 -13.333 206.5 -40
s123 -65.5 172 -116.5s87.167 -113.167 114.5 -186.5s38.666 -156.333 33.999 -249h-891c7.33301 -47.333 21.833 -90.833 43.5 -130.5s48.667 -73.667 81 -102s68.833 -50.333 109.5 -66s84 -23.5 130 -23.5c53.333 0 99.166 7.33301 137.499 22s70.166 30.667 95.499 48
c29.333 20.667 54 44 74 70h173c-25.333 -50.667 -60 -96 -104 -136c-18.667 -17.333 -40.334 -34 -65.001 -50s-52.5 -30.5 -83.5 -43.5s-65.333 -23.333 -103 -31s-79.167 -11.5 -124.5 -11.5zM623.004 894c-46 0 -89.666 -8 -130.999 -24s-78.166 -38.5 -110.499 -67.5
s-59.333 -63.667 -81 -104s-35.834 -84.5 -42.501 -132.5h729c-6.66699 48 -20.834 92.167 -42.501 132.5s-48.667 75 -81 104s-69 51.5 -110 67.5s-84.5 24 -130.5 24zM569.005 1434h98l281 -324h-158l-172 180l-172 -180h-158z" />
    <glyph glyph-name="edieresis" unicode="&#xeb;" horiz-adv-x="1251" 
d="M623 -20c-72 0 -139.829 12.833 -203.496 38.5s-119.167 61.5 -166.5 107.5s-84.666 101 -111.999 165s-41 134.667 -41 212s13.667 148 41 212s64.666 119 111.999 165s102.833 81.833 166.5 107.5s131.5 38.5 203.5 38.5s140.833 -13.333 206.5 -40
s123 -65.5 172 -116.5s87.167 -113.167 114.5 -186.5s38.666 -156.333 33.999 -249h-891c7.33301 -47.333 21.833 -90.833 43.5 -130.5s48.667 -73.667 81 -102s68.833 -50.333 109.5 -66s84 -23.5 130 -23.5c53.333 0 99.166 7.33301 137.499 22s70.166 30.667 95.499 48
c29.333 20.667 54 44 74 70h173c-25.333 -50.667 -60 -96 -104 -136c-18.667 -17.333 -40.334 -34 -65.001 -50s-52.5 -30.5 -83.5 -43.5s-65.333 -23.333 -103 -31s-79.167 -11.5 -124.5 -11.5zM623.004 894c-46 0 -89.666 -8 -130.999 -24s-78.166 -38.5 -110.499 -67.5
s-59.333 -63.667 -81 -104s-35.834 -84.5 -42.501 -132.5h729c-6.66699 48 -20.834 92.167 -42.501 132.5s-48.667 75 -81 104s-69 51.5 -110 67.5s-84.5 24 -130.5 24zM335.005 1290c0 14 2.66699 27.167 8 39.5s12.833 23.166 22.5 32.499s20.667 16.666 33 21.999
s25.5 8 39.5 8s27.167 -2.66699 39.5 -8s23.333 -12.666 33 -21.999s17.167 -20.166 22.5 -32.499s8 -25.5 8 -39.5s-2.66699 -27.333 -8 -40s-12.833 -23.5 -22.5 -32.5s-20.667 -16.167 -33 -21.5s-25.5 -8 -39.5 -8s-27.167 2.66699 -39.5 8s-23.333 12.5 -33 21.5
s-17.167 19.833 -22.5 32.5s-8 26 -8 40zM705.005 1290c0 14 2.66699 27.167 8 39.5s12.833 23.166 22.5 32.499s20.667 16.666 33 21.999s25.5 8 39.5 8s27.167 -2.66699 39.5 -8s23.333 -12.666 33 -21.999s17.167 -20.166 22.5 -32.499s8 -25.5 8 -39.5
s-2.66699 -27.333 -8 -40s-12.833 -23.5 -22.5 -32.5s-20.667 -16.167 -33 -21.5s-25.5 -8 -39.5 -8s-27.167 2.66699 -39.5 8s-23.333 12.5 -33 21.5s-17.167 19.833 -22.5 32.5s-8 26 -8 40z" />
    <glyph glyph-name="igrave" unicode="&#xec;" horiz-adv-x="462" 
d="M322 1129h-173l-309 305h209zM168 0v1006h142v-1006h-142z" />
    <glyph glyph-name="iacute" unicode="&#xed;" horiz-adv-x="462" 
d="M413 1434h209l-310 -305h-172zM156 0v1006h142v-1006h-142z" />
    <glyph glyph-name="icircumflex" unicode="&#xee;" horiz-adv-x="500" 
d="M201 1434h98l281 -324h-158l-172 180l-172 -180h-158zM179 0v1006h142v-1006h-142z" />
    <glyph glyph-name="idieresis" unicode="&#xef;" horiz-adv-x="416" 
d="M-80 1290c0 14 2.66699 27.167 8 39.5s12.833 23.166 22.5 32.499s20.667 16.666 33 21.999s25.5 8 39.5 8s27.167 -2.66699 39.5 -8s23.333 -12.666 33 -21.999s17.167 -20.166 22.5 -32.499s8 -25.5 8 -39.5s-2.66699 -27.333 -8 -40s-12.833 -23.5 -22.5 -32.5
s-20.667 -16.167 -33 -21.5s-25.5 -8 -39.5 -8s-27.167 2.66699 -39.5 8s-23.333 12.5 -33 21.5s-17.167 19.833 -22.5 32.5s-8 26 -8 40zM290 1290c0 14 2.66699 27.167 8 39.5s12.833 23.166 22.5 32.499s20.667 16.666 33 21.999s25.5 8 39.5 8s27.167 -2.66699 39.5 -8
s23.333 -12.666 33 -21.999s17.167 -20.166 22.5 -32.499s8 -25.5 8 -39.5s-2.66699 -27.333 -8 -40s-12.833 -23.5 -22.5 -32.5s-20.667 -16.167 -33 -21.5s-25.5 -8 -39.5 -8s-27.167 2.66699 -39.5 8s-23.333 12.5 -33 21.5s-17.167 19.833 -22.5 32.5s-8 26 -8 40z
M137 0v1006h142v-1006h-142z" />
    <glyph glyph-name="eth" unicode="&#xf0;" horiz-adv-x="1287" 
d="M992 795c-0.666992 47.333 -6.66602 95.334 -17.999 144.001c-9.33301 42 -24.833 87.167 -46.5 135.5s-52.5 94.5 -92.5 138.5l-254 -129l-60 117l201 103c-42 24 -90.333 43.333 -145 58s-117.667 22 -189 22v132c91.333 -2 176.166 -14.5 254.499 -37.5
s148.833 -58.5 211.5 -106.5l231 118l60 -118l-191 -98c32.667 -40 61.5 -85.667 86.5 -137s45.667 -108.833 62 -172.5s28.333 -133.834 36 -210.501s10.167 -160.334 7.5 -251.001c0 -77.333 -15.333 -148.166 -46 -212.499s-71 -119.5 -121 -165.5
s-107 -81.667 -171 -107s-129 -38 -195 -38c-70 0 -136 13.167 -198 39.5s-116.333 62.833 -163 109.5s-83.667 102 -111 166s-41 133.333 -41 208s13.667 144 41 208s64.333 119.333 111 166s101 83.167 163 109.5s128 39.5 198 39.5c44 0 83.833 -5.5 119.5 -16.5
s67.5 -24.667 95.5 -41s52 -34.333 72 -54s36.667 -38 50 -55s23.5 -31.5 30.5 -43.5s10.833 -19 11.5 -21zM992.001 503.001c0 56.667 -9.66699 108.834 -29 156.501s-45.666 88.834 -78.999 123.501s-72.5 61.834 -117.5 81.501s-92.833 29.5 -143.5 29.5
c-51.333 0 -99.333 -9.83301 -144 -29.5s-83.667 -46.834 -117 -81.501s-59.666 -75.834 -78.999 -123.501s-29 -99.834 -29 -156.501s9.66699 -108.834 29 -156.501s45.666 -88.834 78.999 -123.501s72.333 -61.834 117 -81.501s92.667 -29.5 144 -29.5
c50.667 0 98.5 9.83301 143.5 29.5s84.167 46.834 117.5 81.501s59.666 75.834 78.999 123.501s29 99.834 29 156.501z" />
    <glyph glyph-name="ntilde" unicode="&#xf1;" 
d="M556 1250c-12.667 13.333 -25.501 24.5 -38.501 33.5s-27.167 13.5 -42.5 13.5s-27.166 -4.33301 -35.499 -13s-14.5 -18.334 -18.5 -29.001c-4.66699 -12 -7.66699 -25.667 -9 -41h-145c4 41.333 14 78 30 110c6.66699 14 15 27.5 25 40.5s22.333 24.667 37 35
s31.5 18.666 50.5 24.999s40.833 9.5 65.5 9.5c22.667 0 42.834 -2.66699 60.501 -8s33.167 -12.333 46.5 -21s25.166 -18 35.499 -28l28.5 -28c12.667 -13.333 25.5 -24.5 38.5 -33.5s27.167 -13.5 42.5 -13.5s27.166 4.16699 35.499 12.5s14.5 17.833 18.5 28.5
c4.66699 12 7.66699 26 9 42h145c-4 -41.333 -14 -78 -30 -110c-6.66699 -14 -15 -27.5 -25 -40.5s-22.333 -24.667 -37 -35s-31.5 -18.666 -50.5 -24.999s-40.833 -9.5 -65.5 -9.5c-23.333 0 -43.666 2.66699 -60.999 8s-32.833 12.333 -46.5 21s-25.5 17.834 -35.5 27.501
s-19.333 19.167 -28 28.5zM1062 0l-154 -0.000976562v503c0 54 -5.5 104.667 -16.5 152s-28.667 88.666 -53 123.999s-56 63.333 -95 84s-86.5 31 -142.5 31s-103.5 -10.333 -142.5 -31s-70.667 -48.667 -95 -84s-42 -76.666 -53 -123.999s-16.5 -98 -16.5 -152v-503h-154
v1006h154v-192c0.666992 2 3.16699 8.5 7.5 19.5s11.333 24.333 21 40s22.5 32.5 38.5 50.5s35.833 34.5 59.5 49.5s52 27.5 85 37.5s71.5 15 115.5 15c74 0 138.667 -12.333 194 -37s101.333 -59.667 138 -105s64 -100.166 82 -164.499s27 -136.5 27 -216.5v-503z" />
    <glyph glyph-name="ograve" unicode="&#xf2;" horiz-adv-x="1246" 
d="M701 1129h-173l-309 305h209zM100 503c0 77.333 13.667 148 41 212s64.666 119 111.999 165s102.833 81.833 166.5 107.5s131.5 38.5 203.5 38.5s139.833 -12.833 203.5 -38.5s119.167 -61.5 166.5 -107.5s84.666 -101 111.999 -165s41 -134.667 41 -212
s-13.667 -148 -41 -212s-64.666 -119 -111.999 -165s-102.833 -81.833 -166.5 -107.5s-131.5 -38.5 -203.5 -38.5s-139.833 12.833 -203.5 38.5s-119.167 61.5 -166.5 107.5s-84.666 101 -111.999 165s-41 134.667 -41 212zM254 503c0 -56.667 9.66699 -108.834 29 -156.501
s45.666 -88.834 78.999 -123.501s72.333 -61.834 117 -81.501s92.667 -29.5 144 -29.5c50.667 0 98.5 9.83301 143.5 29.5s84.167 46.834 117.5 81.501s59.666 75.834 78.999 123.501s29 99.834 29 156.501s-9.66699 108.834 -29 156.501s-45.666 88.834 -78.999 123.501
s-72.5 61.834 -117.5 81.501s-92.833 29.5 -143.5 29.5c-51.333 0 -99.333 -9.83301 -144 -29.5s-83.667 -46.834 -117 -81.501s-59.666 -75.834 -78.999 -123.501s-29 -99.834 -29 -156.501z" />
    <glyph glyph-name="oacute" unicode="&#xf3;" horiz-adv-x="1246" 
d="M814 1434h209l-310 -305h-172zM100 503c0 77.333 13.667 148 41 212s64.666 119 111.999 165s102.833 81.833 166.5 107.5s131.5 38.5 203.5 38.5s139.833 -12.833 203.5 -38.5s119.167 -61.5 166.5 -107.5s84.666 -101 111.999 -165s41 -134.667 41 -212
s-13.667 -148 -41 -212s-64.666 -119 -111.999 -165s-102.833 -81.833 -166.5 -107.5s-131.5 -38.5 -203.5 -38.5s-139.833 12.833 -203.5 38.5s-119.167 61.5 -166.5 107.5s-84.666 101 -111.999 165s-41 134.667 -41 212zM254 503c0 -56.667 9.66699 -108.834 29 -156.501
s45.666 -88.834 78.999 -123.501s72.333 -61.834 117 -81.501s92.667 -29.5 144 -29.5c50.667 0 98.5 9.83301 143.5 29.5s84.167 46.834 117.5 81.501s59.666 75.834 78.999 123.501s29 99.834 29 156.501s-9.66699 108.834 -29 156.501s-45.666 88.834 -78.999 123.501
s-72.5 61.834 -117.5 81.501s-92.833 29.5 -143.5 29.5c-51.333 0 -99.333 -9.83301 -144 -29.5s-83.667 -46.834 -117 -81.501s-59.666 -75.834 -78.999 -123.501s-29 -99.834 -29 -156.501z" />
    <glyph glyph-name="ocircumflex" unicode="&#xf4;" horiz-adv-x="1246" 
d="M574 1434h98l281 -324h-158l-172 180l-172 -180h-158zM100 503c0 77.333 13.667 148 41 212s64.666 119 111.999 165s102.833 81.833 166.5 107.5s131.5 38.5 203.5 38.5s139.833 -12.833 203.5 -38.5s119.167 -61.5 166.5 -107.5s84.666 -101 111.999 -165
s41 -134.667 41 -212s-13.667 -148 -41 -212s-64.666 -119 -111.999 -165s-102.833 -81.833 -166.5 -107.5s-131.5 -38.5 -203.5 -38.5s-139.833 12.833 -203.5 38.5s-119.167 61.5 -166.5 107.5s-84.666 101 -111.999 165s-41 134.667 -41 212zM254 503
c0 -56.667 9.66699 -108.834 29 -156.501s45.666 -88.834 78.999 -123.501s72.333 -61.834 117 -81.501s92.667 -29.5 144 -29.5c50.667 0 98.5 9.83301 143.5 29.5s84.167 46.834 117.5 81.501s59.666 75.834 78.999 123.501s29 99.834 29 156.501
s-9.66699 108.834 -29 156.501s-45.666 88.834 -78.999 123.501s-72.5 61.834 -117.5 81.501s-92.833 29.5 -143.5 29.5c-51.333 0 -99.333 -9.83301 -144 -29.5s-83.667 -46.834 -117 -81.501s-59.666 -75.834 -78.999 -123.501s-29 -99.834 -29 -156.501z" />
    <glyph glyph-name="otilde" unicode="&#xf5;" horiz-adv-x="1246" 
d="M578 1250c-12.667 13.333 -25.501 24.5 -38.501 33.5s-27.167 13.5 -42.5 13.5s-27.166 -4.33301 -35.499 -13s-14.5 -18.334 -18.5 -29.001c-4.66699 -12 -7.66699 -25.667 -9 -41h-145c4 41.333 14 78 30 110c6.66699 14 15 27.5 25 40.5s22.333 24.667 37 35
s31.5 18.666 50.5 24.999s40.833 9.5 65.5 9.5c22.667 0 42.834 -2.66699 60.501 -8s33.167 -12.333 46.5 -21s25.166 -18 35.499 -28l28.5 -28c12.667 -13.333 25.5 -24.5 38.5 -33.5s27.167 -13.5 42.5 -13.5s27.166 4.16699 35.499 12.5s14.5 17.833 18.5 28.5
c4.66699 12 7.66699 26 9 42h145c-4 -41.333 -14 -78 -30 -110c-6.66699 -14 -15 -27.5 -25 -40.5s-22.333 -24.667 -37 -35s-31.5 -18.666 -50.5 -24.999s-40.833 -9.5 -65.5 -9.5c-23.333 0 -43.666 2.66699 -60.999 8s-32.833 12.333 -46.5 21s-25.5 17.834 -35.5 27.501
s-19.333 19.167 -28 28.5zM99.999 503c0 77.333 13.667 148 41 212s64.666 119 111.999 165s102.833 81.833 166.5 107.5s131.5 38.5 203.5 38.5s139.833 -12.833 203.5 -38.5s119.167 -61.5 166.5 -107.5s84.666 -101 111.999 -165s41 -134.667 41 -212
s-13.667 -148 -41 -212s-64.666 -119 -111.999 -165s-102.833 -81.833 -166.5 -107.5s-131.5 -38.5 -203.5 -38.5s-139.833 12.833 -203.5 38.5s-119.167 61.5 -166.5 107.5s-84.666 101 -111.999 165s-41 134.667 -41 212zM253.999 503
c0 -56.667 9.66699 -108.834 29 -156.501s45.666 -88.834 78.999 -123.501s72.333 -61.834 117 -81.501s92.667 -29.5 144 -29.5c50.667 0 98.5 9.83301 143.5 29.5s84.167 46.834 117.5 81.501s59.666 75.834 78.999 123.501s29 99.834 29 156.501
s-9.66699 108.834 -29 156.501s-45.666 88.834 -78.999 123.501s-72.5 61.834 -117.5 81.501s-92.833 29.5 -143.5 29.5c-51.333 0 -99.333 -9.83301 -144 -29.5s-83.667 -46.834 -117 -81.501s-59.666 -75.834 -78.999 -123.501s-29 -99.834 -29 -156.501z" />
    <glyph glyph-name="odieresis" unicode="&#xf6;" horiz-adv-x="1246" 
d="M335 1290c0 14 2.66699 27.167 8 39.5s12.833 23.166 22.5 32.499s20.667 16.666 33 21.999s25.5 8 39.5 8s27.167 -2.66699 39.5 -8s23.333 -12.666 33 -21.999s17.167 -20.166 22.5 -32.499s8 -25.5 8 -39.5s-2.66699 -27.333 -8 -40s-12.833 -23.5 -22.5 -32.5
s-20.667 -16.167 -33 -21.5s-25.5 -8 -39.5 -8s-27.167 2.66699 -39.5 8s-23.333 12.5 -33 21.5s-17.167 19.833 -22.5 32.5s-8 26 -8 40zM705 1290c0 14 2.66699 27.167 8 39.5s12.833 23.166 22.5 32.499s20.667 16.666 33 21.999s25.5 8 39.5 8s27.167 -2.66699 39.5 -8
s23.333 -12.666 33 -21.999s17.167 -20.166 22.5 -32.499s8 -25.5 8 -39.5s-2.66699 -27.333 -8 -40s-12.833 -23.5 -22.5 -32.5s-20.667 -16.167 -33 -21.5s-25.5 -8 -39.5 -8s-27.167 2.66699 -39.5 8s-23.333 12.5 -33 21.5s-17.167 19.833 -22.5 32.5s-8 26 -8 40z
M100 503c0 77.333 13.667 148 41 212s64.666 119 111.999 165s102.833 81.833 166.5 107.5s131.5 38.5 203.5 38.5s139.833 -12.833 203.5 -38.5s119.167 -61.5 166.5 -107.5s84.666 -101 111.999 -165s41 -134.667 41 -212s-13.667 -148 -41 -212
s-64.666 -119 -111.999 -165s-102.833 -81.833 -166.5 -107.5s-131.5 -38.5 -203.5 -38.5s-139.833 12.833 -203.5 38.5s-119.167 61.5 -166.5 107.5s-84.666 101 -111.999 165s-41 134.667 -41 212zM254 503c0 -56.667 9.66699 -108.834 29 -156.501
s45.666 -88.834 78.999 -123.501s72.333 -61.834 117 -81.501s92.667 -29.5 144 -29.5c50.667 0 98.5 9.83301 143.5 29.5s84.167 46.834 117.5 81.501s59.666 75.834 78.999 123.501s29 99.834 29 156.501s-9.66699 108.834 -29 156.501s-45.666 88.834 -78.999 123.501
s-72.5 61.834 -117.5 81.501s-92.833 29.5 -143.5 29.5c-51.333 0 -99.333 -9.83301 -144 -29.5s-83.667 -46.834 -117 -81.501s-59.666 -75.834 -78.999 -123.501s-29 -99.834 -29 -156.501z" />
    <glyph glyph-name="divide" unicode="&#xf7;" horiz-adv-x="1006" 
d="M120 776h766v-149h-766v149zM396 966c0 14.667 2.83301 28.667 8.5 42s13.167 24.666 22.5 33.999s20.5 16.833 33.5 22.5s27.167 8.5 42.5 8.5c14.667 0 28.667 -2.83301 42 -8.5s24.666 -13.167 33.999 -22.5s16.833 -20.666 22.5 -33.999s8.5 -27.333 8.5 -42
c0 -15.333 -2.83301 -29.5 -8.5 -42.5s-13.167 -24.167 -22.5 -33.5s-20.666 -16.833 -33.999 -22.5s-27.333 -8.5 -42 -8.5c-15.333 0 -29.5 2.83301 -42.5 8.5s-24.167 13.167 -33.5 22.5s-16.833 20.5 -22.5 33.5s-8.5 27.167 -8.5 42.5zM610 437
c0 -15.333 -2.83301 -29.5 -8.5 -42.5s-13.167 -24.167 -22.5 -33.5s-20.666 -16.833 -33.999 -22.5s-27.333 -8.5 -42 -8.5c-15.333 0 -29.5 2.83301 -42.5 8.5s-24.167 13.167 -33.5 22.5s-16.833 20.5 -22.5 33.5s-8.5 27.167 -8.5 42.5c0 14.667 2.83301 28.667 8.5 42
s13.167 24.666 22.5 33.999s20.5 16.833 33.5 22.5s27.167 8.5 42.5 8.5c14.667 0 28.667 -2.83301 42 -8.5s24.666 -13.167 33.999 -22.5s16.833 -20.666 22.5 -33.999s8.5 -27.333 8.5 -42z" />
    <glyph glyph-name="oslash" unicode="&#xf8;" horiz-adv-x="1246" 
d="M100 503c0 77.333 13.665 148.001 40.998 212.001s64.666 119 111.999 165s102.833 81.833 166.5 107.5s131.5 38.5 203.5 38.5c53.333 0 104 -7 152 -21s92.667 -34 134 -60l50 61h153l-110 -135c44.667 -46 79.834 -100.167 105.501 -162.5s38.5 -130.833 38.5 -205.5
c0 -77.333 -13.667 -148 -41 -212s-64.666 -119 -111.999 -165s-102.833 -81.833 -166.5 -107.5s-131.5 -38.5 -203.5 -38.5c-53.333 0 -104 7 -152 21s-93 33.667 -135 59l-49 -60h-153l110 134c-45.333 46 -80.666 100.167 -105.999 162.5s-38 131.166 -38 206.499z
M991.998 503.001c0 50 -7.49902 96.165 -22.499 138.498s-35.833 80.5 -62.5 114.5l-481 -587c28.667 -18.667 59.5 -32.834 92.5 -42.501s67.833 -14.5 104.5 -14.5c50.667 0 98.5 9.83301 143.5 29.5s84.167 46.834 117.5 81.501s59.666 75.834 78.999 123.501
s29 99.834 29 156.501zM253.999 502.999c0 -50 7.33105 -96.1641 21.998 -138.497s35.334 -80.5 62.001 -114.5l482 586c-28.667 18.667 -59.667 33 -93 43s-68 15 -104 15c-51.333 0 -99.333 -9.83301 -144 -29.5s-83.667 -46.834 -117 -81.501
s-59.666 -75.834 -78.999 -123.501s-29 -99.834 -29 -156.501z" />
    <glyph glyph-name="ugrave" unicode="&#xf9;" 
d="M679 1129h-173l-309 305h209zM140 1006l154 0.000976562v-503c0 -54 5.5 -104.667 16.5 -152s28.667 -88.666 53 -123.999s56 -63.333 95 -84s86.5 -31 142.5 -31s103.5 10.333 142.5 31s70.667 48.667 95 84s42 76.666 53 123.999s16.5 98 16.5 152v503h154v-1006h-154
v192c-0.666992 -2 -3.16699 -8.5 -7.5 -19.5s-11.333 -24.333 -21 -40s-22.5 -32.5 -38.5 -50.5s-35.833 -34.5 -59.5 -49.5s-52 -27.5 -85 -37.5s-71.5 -15 -115.5 -15c-74 0 -138.667 12.333 -194 37s-101.333 59.667 -138 105s-64 100.166 -82 164.499
s-27 136.5 -27 216.5v503z" />
    <glyph glyph-name="uacute" unicode="&#xfa;" 
d="M792 1434h209l-310 -305h-172zM140 1006l154 0.000976562v-503c0 -54 5.5 -104.667 16.5 -152s28.667 -88.666 53 -123.999s56 -63.333 95 -84s86.5 -31 142.5 -31s103.5 10.333 142.5 31s70.667 48.667 95 84s42 76.666 53 123.999s16.5 98 16.5 152v503h154v-1006h-154
v192c-0.666992 -2 -3.16699 -8.5 -7.5 -19.5s-11.333 -24.333 -21 -40s-22.5 -32.5 -38.5 -50.5s-35.833 -34.5 -59.5 -49.5s-52 -27.5 -85 -37.5s-71.5 -15 -115.5 -15c-74 0 -138.667 12.333 -194 37s-101.333 59.667 -138 105s-64 100.166 -82 164.499
s-27 136.5 -27 216.5v503z" />
    <glyph glyph-name="ucircumflex" unicode="&#xfb;" 
d="M552 1434h98l281 -324h-158l-172 180l-172 -180h-158zM140 1006l154 0.000976562v-503c0 -54 5.5 -104.667 16.5 -152s28.667 -88.666 53 -123.999s56 -63.333 95 -84s86.5 -31 142.5 -31s103.5 10.333 142.5 31s70.667 48.667 95 84s42 76.666 53 123.999
s16.5 98 16.5 152v503h154v-1006h-154v192c-0.666992 -2 -3.16699 -8.5 -7.5 -19.5s-11.333 -24.333 -21 -40s-22.5 -32.5 -38.5 -50.5s-35.833 -34.5 -59.5 -49.5s-52 -27.5 -85 -37.5s-71.5 -15 -115.5 -15c-74 0 -138.667 12.333 -194 37s-101.333 59.667 -138 105
s-64 100.166 -82 164.499s-27 136.5 -27 216.5v503z" />
    <glyph glyph-name="udieresis" unicode="&#xfc;" 
d="M313 1290c0 14 2.66699 27.167 8 39.5s12.833 23.166 22.5 32.499s20.667 16.666 33 21.999s25.5 8 39.5 8s27.167 -2.66699 39.5 -8s23.333 -12.666 33 -21.999s17.167 -20.166 22.5 -32.499s8 -25.5 8 -39.5s-2.66699 -27.333 -8 -40s-12.833 -23.5 -22.5 -32.5
s-20.667 -16.167 -33 -21.5s-25.5 -8 -39.5 -8s-27.167 2.66699 -39.5 8s-23.333 12.5 -33 21.5s-17.167 19.833 -22.5 32.5s-8 26 -8 40zM683 1290c0 14 2.66699 27.167 8 39.5s12.833 23.166 22.5 32.499s20.667 16.666 33 21.999s25.5 8 39.5 8s27.167 -2.66699 39.5 -8
s23.333 -12.666 33 -21.999s17.167 -20.166 22.5 -32.499s8 -25.5 8 -39.5s-2.66699 -27.333 -8 -40s-12.833 -23.5 -22.5 -32.5s-20.667 -16.167 -33 -21.5s-25.5 -8 -39.5 -8s-27.167 2.66699 -39.5 8s-23.333 12.5 -33 21.5s-17.167 19.833 -22.5 32.5s-8 26 -8 40z
M140 1006l154 0.000976562v-503c0 -54 5.5 -104.667 16.5 -152s28.667 -88.666 53 -123.999s56 -63.333 95 -84s86.5 -31 142.5 -31s103.5 10.333 142.5 31s70.667 48.667 95 84s42 76.666 53 123.999s16.5 98 16.5 152v503h154v-1006h-154v192
c-0.666992 -2 -3.16699 -8.5 -7.5 -19.5s-11.333 -24.333 -21 -40s-22.5 -32.5 -38.5 -50.5s-35.833 -34.5 -59.5 -49.5s-52 -27.5 -85 -37.5s-71.5 -15 -115.5 -15c-74 0 -138.667 12.333 -194 37s-101.333 59.667 -138 105s-64 100.166 -82 164.499s-27 136.5 -27 216.5
v503z" />
    <glyph glyph-name="yacute" unicode="&#xfd;" horiz-adv-x="1134" 
d="M778 1434h209l-310 -305h-172zM488 0l-438 1006h171l346 -820l346 820h171l-670 -1538h-158z" />
    <glyph glyph-name="thorn" unicode="&#xfe;" horiz-adv-x="1286" 
d="M294 805c0.666992 2 4.5 8.83008 11.5 20.4971s17.167 25.667 30.5 42s30 33.833 50 52.5s43.5 35.834 70.5 51.501s57.667 28.667 92 39s72.5 15.5 114.5 15.5c72 0 139.833 -13.667 203.5 -41s119.167 -64.666 166.5 -111.999s84.666 -102.833 111.999 -166.5
s41 -131.5 41 -203.5s-13.667 -139.833 -41 -203.5s-64.666 -119.167 -111.999 -166.5s-102.833 -84.666 -166.5 -111.999s-131.5 -41 -203.5 -41c-42 0 -80.167 5.16699 -114.5 15.5s-65 23.333 -92 39s-50.5 32.834 -70.5 51.501s-36.667 36.167 -50 52.5
s-23.5 30.166 -30.5 41.499s-10.833 18 -11.5 20v-732h-154v2048h154v-711zM294 502.997c0 -56.667 9.66699 -108.834 29 -156.501s45.666 -88.834 78.999 -123.501s72.333 -61.834 117 -81.501s92.667 -29.5 144 -29.5c50.667 0 98.5 9.83301 143.5 29.5
s84.167 46.834 117.5 81.501s59.666 75.834 78.999 123.501s29 99.834 29 156.501s-9.66699 108.834 -29 156.501s-45.666 88.834 -78.999 123.501s-72.5 61.834 -117.5 81.501s-92.833 29.5 -143.5 29.5c-51.333 0 -99.333 -9.83301 -144 -29.5
s-83.667 -46.834 -117 -81.501s-59.666 -75.834 -78.999 -123.501s-29 -99.834 -29 -156.501z" />
    <glyph glyph-name="ydieresis" unicode="&#xff;" horiz-adv-x="1134" 
d="M488 0l-438 1006h171l346 -820l346 820h171l-670 -1538h-158zM279 1290c0 14 2.66699 27.167 8 39.5s12.833 23.166 22.5 32.499s20.667 16.666 33 21.999s25.5 8 39.5 8s27.167 -2.66699 39.5 -8s23.333 -12.666 33 -21.999s17.167 -20.166 22.5 -32.499
s8 -25.5 8 -39.5s-2.66699 -27.333 -8 -40s-12.833 -23.5 -22.5 -32.5s-20.667 -16.167 -33 -21.5s-25.5 -8 -39.5 -8s-27.167 2.66699 -39.5 8s-23.333 12.5 -33 21.5s-17.167 19.833 -22.5 32.5s-8 26 -8 40zM649 1290c0 14 2.66699 27.167 8 39.5
s12.833 23.166 22.5 32.499s20.667 16.666 33 21.999s25.5 8 39.5 8s27.167 -2.66699 39.5 -8s23.333 -12.666 33 -21.999s17.167 -20.166 22.5 -32.499s8 -25.5 8 -39.5s-2.66699 -27.333 -8 -40s-12.833 -23.5 -22.5 -32.5s-20.667 -16.167 -33 -21.5s-25.5 -8 -39.5 -8
s-27.167 2.66699 -39.5 8s-23.333 12.5 -33 21.5s-17.167 19.833 -22.5 32.5s-8 26 -8 40z" />
    <glyph glyph-name="Amacron" unicode="&#x100;" horiz-adv-x="1592" 
d="M1154 422h-717l-194 -422h-173l661 1434h130l661 -1434h-173zM504 566h584l-292 634zM444 1724h704v-133h-704v133z" />
    <glyph glyph-name="amacron" unicode="&#x101;" horiz-adv-x="1286" 
d="M992 1006l154 0.00390625v-1006h-154v211c-22.667 -43.333 -52 -82 -88 -116c-15.333 -14.667 -32.666 -28.834 -51.999 -42.501s-41 -25.834 -65 -36.501s-50.5 -19.334 -79.5 -26.001s-60.5 -10 -94.5 -10c-70 0 -136 13.167 -198 39.5s-116.333 62.833 -163 109.5
s-83.667 102 -111 166s-41 133.333 -41 208s13.667 144 41 208s64.333 119.333 111 166s101 83.167 163 109.5s128 39.5 198 39.5c34 0 65.5 -3.33301 94.5 -10s55.5 -15.5 79.5 -26.5s45.667 -23.333 65 -37s36.666 -27.834 51.999 -42.501c36 -34 65.333 -72.333 88 -115
v211zM992 503.004c0 56.667 -9.66699 108.834 -29 156.501s-45.666 88.834 -78.999 123.501s-72.5 61.834 -117.5 81.501s-92.833 29.5 -143.5 29.5c-51.333 0 -99.333 -9.83301 -144 -29.5s-83.667 -46.834 -117 -81.501s-59.666 -75.834 -78.999 -123.501
s-29 -99.834 -29 -156.501s9.66699 -108.834 29 -156.501s45.666 -88.834 78.999 -123.501s72.333 -61.834 117 -81.501s92.667 -29.5 144 -29.5c50.667 0 98.5 9.83301 143.5 29.5s84.167 46.834 117.5 81.501s59.666 75.834 78.999 123.501s29 99.834 29 156.501z
M288 1434h704v-133h-704v133z" />
    <glyph glyph-name="Abreve" unicode="&#x102;" horiz-adv-x="1592" 
d="M1154 422h-717l-194 -422h-173l661 1434h130l661 -1434h-173zM504 566h584l-292 634zM796 1586c-37.333 0 -70.834 3.5 -100.501 10.5s-56 16.167 -79 27.5s-42.833 24.5 -59.5 39.5s-31 30.167 -43 45.5c-28 36.667 -47.333 78 -58 124h121c10.667 -24 26 -45 46 -63
c16.667 -16 39 -30.5 67 -43.5s63.333 -19.5 106 -19.5s77.834 6.5 105.501 19.5s50.167 27.5 67.5 43.5c19.333 18 34.666 39 45.999 63h121c-10.667 -46 -30 -87.333 -58 -124c-12 -15.333 -26.5 -30.5 -43.5 -45.5s-37 -28.167 -60 -39.5s-49.167 -20.5 -78.5 -27.5
s-62.666 -10.5 -99.999 -10.5z" />
    <glyph glyph-name="abreve" unicode="&#x103;" horiz-adv-x="1286" 
d="M992 1006l154 0.00390625v-1006h-154v211c-22.667 -43.333 -52 -82 -88 -116c-15.333 -14.667 -32.666 -28.834 -51.999 -42.501s-41 -25.834 -65 -36.501s-50.5 -19.334 -79.5 -26.001s-60.5 -10 -94.5 -10c-70 0 -136 13.167 -198 39.5s-116.333 62.833 -163 109.5
s-83.667 102 -111 166s-41 133.333 -41 208s13.667 144 41 208s64.333 119.333 111 166s101 83.167 163 109.5s128 39.5 198 39.5c34 0 65.5 -3.33301 94.5 -10s55.5 -15.5 79.5 -26.5s45.667 -23.333 65 -37s36.666 -27.834 51.999 -42.501c36 -34 65.333 -72.333 88 -115
v211zM992 503.004c0 56.667 -9.66699 108.834 -29 156.501s-45.666 88.834 -78.999 123.501s-72.5 61.834 -117.5 81.501s-92.833 29.5 -143.5 29.5c-51.333 0 -99.333 -9.83301 -144 -29.5s-83.667 -46.834 -117 -81.501s-59.666 -75.834 -78.999 -123.501
s-29 -99.834 -29 -156.501s9.66699 -108.834 29 -156.501s45.666 -88.834 78.999 -123.501s72.333 -61.834 117 -81.501s92.667 -29.5 144 -29.5c50.667 0 98.5 9.83301 143.5 29.5s84.167 46.834 117.5 81.501s59.666 75.834 78.999 123.501s29 99.834 29 156.501z
M659 1187c-37.333 0 -70.834 3.5 -100.501 10.5s-56 16.167 -79 27.5s-42.833 24.5 -59.5 39.5s-31 30.167 -43 45.5c-28 36.667 -47.333 78 -58 124h121c10.667 -24 26 -45 46 -63c16.667 -16 39 -30.5 67 -43.5s63.333 -19.5 106 -19.5s77.834 6.5 105.501 19.5
s50.167 27.5 67.5 43.5c19.333 18 34.666 39 45.999 63h121c-10.667 -46 -30 -87.333 -58 -124c-12 -15.333 -26.5 -30.5 -43.5 -45.5s-37 -28.167 -60 -39.5s-49.167 -20.5 -78.5 -27.5s-62.666 -10.5 -99.999 -10.5z" />
    <glyph glyph-name="Aogonek" unicode="&#x104;" horiz-adv-x="1592" 
d="M1522 0c-4 -0.666992 -14.667 -3.50098 -32 -8.50098s-35.5 -13 -54.5 -24s-36.167 -25.667 -51.5 -44s-23 -41.5 -23 -69.5c0 -22 5.5 -39.333 16.5 -52s24.5 -22 40.5 -28s33.167 -9.66699 51.5 -11s34.833 -2 49.5 -2v-138c-30.667 -3.33301 -63 -2.83301 -97 1.5
s-65.5 13.833 -94.5 28.5s-53.167 34.834 -72.5 60.501s-29.666 58.167 -30.999 97.5c-0.666992 27.333 4.66602 52 15.999 74s25.833 41 43.5 57s37 28.833 58 38.5s40.5 16.167 58.5 19.5h-51l-195 422h-717l-194 -422h-173l661 1434h130zM504 565.999h584l-292 634z" />
    <glyph glyph-name="aogonek" unicode="&#x105;" horiz-adv-x="1286" 
d="M992 0v209.998c-1.33301 -2 -5.33301 -9 -12 -21s-16.667 -26.5 -30 -43.5s-30.166 -35.167 -50.499 -54.5s-44.333 -37.166 -72 -53.499s-59.334 -30 -95.001 -41s-75.5 -16.5 -119.5 -16.5c-70 0 -136 13.167 -198 39.5s-116.333 62.833 -163 109.5
s-83.667 102 -111 166s-41 133.333 -41 208s13.667 144 41 208s64.333 119.333 111 166s101 83.167 163 109.5s128 39.5 198 39.5c44 0 83.833 -5.5 119.5 -16.5s67.334 -24.667 95.001 -41s51.667 -34.333 72 -54s37.166 -38 50.499 -55s23.333 -31.5 30 -43.5
s10.667 -19 12 -21v211h154v-1006c-4 -0.666992 -14.667 -3.5 -32 -8.5s-35.5 -13 -54.5 -24s-36.167 -25.667 -51.5 -44s-23 -41.5 -23 -69.5c0 -22 5.5 -39.333 16.5 -52s24.5 -22 40.5 -28s33.167 -9.66699 51.5 -11s34.833 -2 49.5 -2v-138
c-30.667 -3.33301 -63 -2.83301 -97 1.5s-65.5 13.833 -94.5 28.5s-53.167 34.834 -72.5 60.501s-29.666 58.167 -30.999 97.5c-0.666992 27.333 4.66602 52 15.999 74s25.833 41 43.5 57s37 28.833 58 38.5s40.5 16.167 58.5 19.5h-32zM992 502.998
c0 56.667 -9.66699 108.834 -29 156.501s-45.666 88.834 -78.999 123.501s-72.5 61.834 -117.5 81.501s-92.833 29.5 -143.5 29.5c-51.333 0 -99.333 -9.83301 -144 -29.5s-83.667 -46.834 -117 -81.501s-59.666 -75.834 -78.999 -123.501s-29 -99.834 -29 -156.501
s9.66699 -108.834 29 -156.501s45.666 -88.834 78.999 -123.501s72.333 -61.834 117 -81.501s92.667 -29.5 144 -29.5c50.667 0 98.5 9.83301 143.5 29.5s84.167 46.834 117.5 81.501s59.666 75.834 78.999 123.501s29 99.834 29 156.501z" />
    <glyph glyph-name="Cacute" unicode="&#x106;" horiz-adv-x="1522" 
d="M286 717c0 -82 13.333 -159.002 40 -231.002s64.334 -134.833 113.001 -188.5s106.667 -96 174 -127s142 -46.5 224 -46.5c34 0 65.833 2.33301 95.5 7s57.167 11 82.5 19s48.333 17 69 27s39.334 20.333 56.001 31c38.667 24.667 71 52.667 97 84h185
c-32 -58 -74.667 -110 -128 -156c-22.667 -19.333 -49 -38.333 -79 -57s-63.833 -35.334 -101.5 -50.001s-79.5 -26.5 -125.5 -35.5s-96.333 -13.5 -151 -13.5c-68 0 -132.833 8.83301 -194.5 26.5s-119 42.5 -172 74.5s-101.167 70.333 -144.5 115
s-80.166 94.334 -110.499 149.001s-53.833 113.334 -70.5 176.001s-25 128 -25 196s8.33301 133.333 25 196s40.167 121.334 70.5 176.001s67.166 104.334 110.499 149.001s91.5 83 144.5 115s110.333 56.833 172 74.5s126.5 26.5 194.5 26.5c54.667 0 105 -4.5 151 -13.5
s87.833 -20.833 125.5 -35.5s71.5 -31.334 101.5 -50.001s56.333 -37.667 79 -57c53.333 -46 96 -98 128 -156h-185c-26 31.333 -58.333 59.333 -97 84c-16.667 10.667 -35.334 21 -56.001 31s-43.667 19 -69 27s-52.833 14.333 -82.5 19s-61.5 7 -95.5 7
c-82 0 -156.667 -15.5 -224 -46.5s-125.333 -73.333 -174 -127s-86.334 -116.5 -113.001 -188.5s-40 -149 -40 -231zM1011 1878h209l-310 -305h-172z" />
    <glyph glyph-name="cacute" unicode="&#x107;" horiz-adv-x="1163" 
d="M910 754c-18 26 -40.333 49.3389 -67 70.0059c-23.333 17.333 -53.166 33.333 -89.499 48s-79.833 22 -130.5 22c-51.333 0 -99.333 -9.83301 -144 -29.5s-83.667 -46.834 -117 -81.501s-59.666 -75.834 -78.999 -123.501s-29 -99.834 -29 -156.501
s9.66699 -108.834 29 -156.501s45.666 -88.834 78.999 -123.501s72.333 -61.834 117 -81.501s92.667 -29.5 144 -29.5c50.667 0 94.167 7.33301 130.5 22s66.166 30.667 89.499 48c26.667 20.667 49 44 67 70h173c-24 -50.667 -56.667 -96 -98 -136
c-18 -17.333 -38.667 -34 -62 -50s-49.833 -30.5 -79.5 -43.5s-62.834 -23.333 -99.501 -31s-77 -11.5 -121 -11.5c-72 0 -139.833 13.167 -203.5 39.5s-119.167 62.833 -166.5 109.5s-84.666 102 -111.999 166s-41 133.333 -41 208s13.667 144 41 208
s64.666 119.333 111.999 166s102.833 83.167 166.5 109.5s131.5 39.5 203.5 39.5c44 0 84.333 -3.83301 121 -11.5s69.834 -18 99.501 -31s56.167 -27.667 79.5 -44s44 -32.833 62 -49.5c41.333 -40 74 -85.333 98 -136h-173zM807 1434.01h209l-310 -305h-172z" />
    <glyph glyph-name="Ccircumflex" unicode="&#x108;" horiz-adv-x="1522" 
d="M286 717c0 -82 13.333 -159.002 40 -231.002s64.334 -134.833 113.001 -188.5s106.667 -96 174 -127s142 -46.5 224 -46.5c34 0 65.833 2.33301 95.5 7s57.167 11 82.5 19s48.333 17 69 27s39.334 20.333 56.001 31c38.667 24.667 71 52.667 97 84h185
c-32 -58 -74.667 -110 -128 -156c-22.667 -19.333 -49 -38.333 -79 -57s-63.833 -35.334 -101.5 -50.001s-79.5 -26.5 -125.5 -35.5s-96.333 -13.5 -151 -13.5c-68 0 -132.833 8.83301 -194.5 26.5s-119 42.5 -172 74.5s-101.167 70.333 -144.5 115
s-80.166 94.334 -110.499 149.001s-53.833 113.334 -70.5 176.001s-25 128 -25 196s8.33301 133.333 25 196s40.167 121.334 70.5 176.001s67.166 104.334 110.499 149.001s91.5 83 144.5 115s110.333 56.833 172 74.5s126.5 26.5 194.5 26.5c54.667 0 105 -4.5 151 -13.5
s87.833 -20.833 125.5 -35.5s71.5 -31.334 101.5 -50.001s56.333 -37.667 79 -57c53.333 -46 96 -98 128 -156h-185c-26 31.333 -58.333 59.333 -97 84c-16.667 10.667 -35.334 21 -56.001 31s-43.667 19 -69 27s-52.833 14.333 -82.5 19s-61.5 7 -95.5 7
c-82 0 -156.667 -15.5 -224 -46.5s-125.333 -73.333 -174 -127s-86.334 -116.5 -113.001 -188.5s-40 -149 -40 -231zM783 1888h98l281 -324h-158l-172 180l-172 -180h-158z" />
    <glyph glyph-name="ccircumflex" unicode="&#x109;" horiz-adv-x="1163" 
d="M910 754c-18 26 -40.333 49.3389 -67 70.0059c-23.333 17.333 -53.166 33.333 -89.499 48s-79.833 22 -130.5 22c-51.333 0 -99.333 -9.83301 -144 -29.5s-83.667 -46.834 -117 -81.501s-59.666 -75.834 -78.999 -123.501s-29 -99.834 -29 -156.501
s9.66699 -108.834 29 -156.501s45.666 -88.834 78.999 -123.501s72.333 -61.834 117 -81.501s92.667 -29.5 144 -29.5c50.667 0 94.167 7.33301 130.5 22s66.166 30.667 89.499 48c26.667 20.667 49 44 67 70h173c-24 -50.667 -56.667 -96 -98 -136
c-18 -17.333 -38.667 -34 -62 -50s-49.833 -30.5 -79.5 -43.5s-62.834 -23.333 -99.501 -31s-77 -11.5 -121 -11.5c-72 0 -139.833 13.167 -203.5 39.5s-119.167 62.833 -166.5 109.5s-84.666 102 -111.999 166s-41 133.333 -41 208s13.667 144 41 208
s64.666 119.333 111.999 166s102.833 83.167 166.5 109.5s131.5 39.5 203.5 39.5c44 0 84.333 -3.83301 121 -11.5s69.834 -18 99.501 -31s56.167 -27.667 79.5 -44s44 -32.833 62 -49.5c41.333 -40 74 -85.333 98 -136h-173zM568 1434.01h98l281 -324h-158l-172 180
l-172 -180h-158z" />
    <glyph glyph-name="Cdotaccent" unicode="&#x10a;" horiz-adv-x="1522" 
d="M286 717c0 -82 13.333 -159.002 40 -231.002s64.334 -134.833 113.001 -188.5s106.667 -96 174 -127s142 -46.5 224 -46.5c34 0 65.833 2.33301 95.5 7s57.167 11 82.5 19s48.333 17 69 27s39.334 20.333 56.001 31c38.667 24.667 71 52.667 97 84h185
c-32 -58 -74.667 -110 -128 -156c-22.667 -19.333 -49 -38.333 -79 -57s-63.833 -35.334 -101.5 -50.001s-79.5 -26.5 -125.5 -35.5s-96.333 -13.5 -151 -13.5c-68 0 -132.833 8.83301 -194.5 26.5s-119 42.5 -172 74.5s-101.167 70.333 -144.5 115
s-80.166 94.334 -110.499 149.001s-53.833 113.334 -70.5 176.001s-25 128 -25 196s8.33301 133.333 25 196s40.167 121.334 70.5 176.001s67.166 104.334 110.499 149.001s91.5 83 144.5 115s110.333 56.833 172 74.5s126.5 26.5 194.5 26.5c54.667 0 105 -4.5 151 -13.5
s87.833 -20.833 125.5 -35.5s71.5 -31.334 101.5 -50.001s56.333 -37.667 79 -57c53.333 -46 96 -98 128 -156h-185c-26 31.333 -58.333 59.333 -97 84c-16.667 10.667 -35.334 21 -56.001 31s-43.667 19 -69 27s-52.833 14.333 -82.5 19s-61.5 7 -95.5 7
c-82 0 -156.667 -15.5 -224 -46.5s-125.333 -73.333 -174 -127s-86.334 -116.5 -113.001 -188.5s-40 -149 -40 -231zM730 1679c0 14 2.66699 27.167 8 39.5s12.833 23.166 22.5 32.499s20.667 16.666 33 21.999s25.5 8 39.5 8s27.167 -2.66699 39.5 -8
s23.333 -12.666 33 -21.999s17.167 -20.166 22.5 -32.499s8 -25.5 8 -39.5s-2.66699 -27.333 -8 -40s-12.833 -23.5 -22.5 -32.5s-20.667 -16.167 -33 -21.5s-25.5 -8 -39.5 -8s-27.167 2.66699 -39.5 8s-23.333 12.5 -33 21.5s-17.167 19.833 -22.5 32.5s-8 26 -8 40z" />
    <glyph glyph-name="cdotaccent" unicode="&#x10b;" horiz-adv-x="1163" 
d="M910 754c-18 26 -40.333 49.3389 -67 70.0059c-23.333 17.333 -53.166 33.333 -89.499 48s-79.833 22 -130.5 22c-51.333 0 -99.333 -9.83301 -144 -29.5s-83.667 -46.834 -117 -81.501s-59.666 -75.834 -78.999 -123.501s-29 -99.834 -29 -156.501
s9.66699 -108.834 29 -156.501s45.666 -88.834 78.999 -123.501s72.333 -61.834 117 -81.501s92.667 -29.5 144 -29.5c50.667 0 94.167 7.33301 130.5 22s66.166 30.667 89.499 48c26.667 20.667 49 44 67 70h173c-24 -50.667 -56.667 -96 -98 -136
c-18 -17.333 -38.667 -34 -62 -50s-49.833 -30.5 -79.5 -43.5s-62.834 -23.333 -99.501 -31s-77 -11.5 -121 -11.5c-72 0 -139.833 13.167 -203.5 39.5s-119.167 62.833 -166.5 109.5s-84.666 102 -111.999 166s-41 133.333 -41 208s13.667 144 41 208
s64.666 119.333 111.999 166s102.833 83.167 166.5 109.5s131.5 39.5 203.5 39.5c44 0 84.333 -3.83301 121 -11.5s69.834 -18 99.501 -31s56.167 -27.667 79.5 -44s44 -32.833 62 -49.5c41.333 -40 74 -85.333 98 -136h-173zM515 1290.01c0 14 2.66699 27.167 8 39.5
s12.833 23.166 22.5 32.499s20.667 16.666 33 21.999s25.5 8 39.5 8s27.167 -2.66699 39.5 -8s23.333 -12.666 33 -21.999s17.167 -20.166 22.5 -32.499s8 -25.5 8 -39.5s-2.66699 -27.333 -8 -40s-12.833 -23.5 -22.5 -32.5s-20.667 -16.167 -33 -21.5s-25.5 -8 -39.5 -8
s-27.167 2.66699 -39.5 8s-23.333 12.5 -33 21.5s-17.167 19.833 -22.5 32.5s-8 26 -8 40z" />
    <glyph glyph-name="Ccaron" unicode="&#x10c;" horiz-adv-x="1522" 
d="M286 717c0 -82 13.333 -159.002 40 -231.002s64.334 -134.833 113.001 -188.5s106.667 -96 174 -127s142 -46.5 224 -46.5c34 0 65.833 2.33301 95.5 7s57.167 11 82.5 19s48.333 17 69 27s39.334 20.333 56.001 31c38.667 24.667 71 52.667 97 84h185
c-32 -58 -74.667 -110 -128 -156c-22.667 -19.333 -49 -38.333 -79 -57s-63.833 -35.334 -101.5 -50.001s-79.5 -26.5 -125.5 -35.5s-96.333 -13.5 -151 -13.5c-68 0 -132.833 8.83301 -194.5 26.5s-119 42.5 -172 74.5s-101.167 70.333 -144.5 115
s-80.166 94.334 -110.499 149.001s-53.833 113.334 -70.5 176.001s-25 128 -25 196s8.33301 133.333 25 196s40.167 121.334 70.5 176.001s67.166 104.334 110.499 149.001s91.5 83 144.5 115s110.333 56.833 172 74.5s126.5 26.5 194.5 26.5c54.667 0 105 -4.5 151 -13.5
s87.833 -20.833 125.5 -35.5s71.5 -31.334 101.5 -50.001s56.333 -37.667 79 -57c53.333 -46 96 -98 128 -156h-185c-26 31.333 -58.333 59.333 -97 84c-16.667 10.667 -35.334 21 -56.001 31s-43.667 19 -69 27s-52.833 14.333 -82.5 19s-61.5 7 -95.5 7
c-82 0 -156.667 -15.5 -224 -46.5s-125.333 -73.333 -174 -127s-86.334 -116.5 -113.001 -188.5s-40 -149 -40 -231zM511 1888h158l172 -180l172 180h158l-281 -324h-98z" />
    <glyph glyph-name="ccaron" unicode="&#x10d;" horiz-adv-x="1163" 
d="M910 754c-18 26 -40.333 49.3389 -67 70.0059c-23.333 17.333 -53.166 33.333 -89.499 48s-79.833 22 -130.5 22c-51.333 0 -99.333 -9.83301 -144 -29.5s-83.667 -46.834 -117 -81.501s-59.666 -75.834 -78.999 -123.501s-29 -99.834 -29 -156.501
s9.66699 -108.834 29 -156.501s45.666 -88.834 78.999 -123.501s72.333 -61.834 117 -81.501s92.667 -29.5 144 -29.5c50.667 0 94.167 7.33301 130.5 22s66.166 30.667 89.499 48c26.667 20.667 49 44 67 70h173c-24 -50.667 -56.667 -96 -98 -136
c-18 -17.333 -38.667 -34 -62 -50s-49.833 -30.5 -79.5 -43.5s-62.834 -23.333 -99.501 -31s-77 -11.5 -121 -11.5c-72 0 -139.833 13.167 -203.5 39.5s-119.167 62.833 -166.5 109.5s-84.666 102 -111.999 166s-41 133.333 -41 208s13.667 144 41 208
s64.666 119.333 111.999 166s102.833 83.167 166.5 109.5s131.5 39.5 203.5 39.5c44 0 84.333 -3.83301 121 -11.5s69.834 -18 99.501 -31s56.167 -27.667 79.5 -44s44 -32.833 62 -49.5c41.333 -40 74 -85.333 98 -136h-173zM295 1434.01h158l172 -180l172 180h158
l-281 -324h-98z" />
    <glyph glyph-name="Dcaron" unicode="&#x10e;" horiz-adv-x="1468" 
d="M160 0v1434h491c113.333 0 213.333 -18.333 300 -55s159.5 -87 218.5 -151s103.5 -139.667 133.5 -227s45 -182 45 -284s-15 -196.667 -45 -284s-74.5 -163 -133.5 -227s-131.833 -114.333 -218.5 -151s-186.667 -55 -300 -55h-491zM651 144c92 0 171.333 14.5 238 43.5
s121.667 69.167 165 120.5s75.5 111.833 96.5 181.5s31.5 145.5 31.5 227.5s-10.5 157.833 -31.5 227.5s-53.167 130.167 -96.5 181.5s-98.333 91.5 -165 120.5s-146 43.5 -238 43.5h-329v-1146h329zM305 1888h158l172 -180l172 180h158l-281 -324h-98z" />
    <glyph glyph-name="dcaron" unicode="&#x10f;" horiz-adv-x="1297" 
d="M1259 1516h178l-99 -436h-146zM992 1516l154 -0.000976562v-1516h-154v210c-0.666992 -2 -4.5 -9 -11.5 -21s-17.167 -26.5 -30.5 -43.5s-30 -35.167 -50 -54.5s-44 -37.166 -72 -53.499s-59.833 -30 -95.5 -41s-75.5 -16.5 -119.5 -16.5c-70 0 -136 13.167 -198 39.5
s-116.333 62.833 -163 109.5s-83.667 102 -111 166s-41 133.333 -41 208s13.667 144 41 208s64.333 119.333 111 166s101 83.167 163 109.5s128 39.5 198 39.5c44 0 83.833 -5.5 119.5 -16.5s67.5 -24.667 95.5 -41s52 -34.333 72 -54s36.667 -38 50 -55
s23.5 -31.5 30.5 -43.5s10.833 -19 11.5 -21v721zM992 502.999c0 56.667 -9.66699 108.834 -29 156.501s-45.666 88.834 -78.999 123.501s-72.5 61.834 -117.5 81.501s-92.833 29.5 -143.5 29.5c-51.333 0 -99.333 -9.83301 -144 -29.5s-83.667 -46.834 -117 -81.501
s-59.666 -75.834 -78.999 -123.501s-29 -99.834 -29 -156.501s9.66699 -108.834 29 -156.501s45.666 -88.834 78.999 -123.501s72.333 -61.834 117 -81.501s92.667 -29.5 144 -29.5c50.667 0 98.5 9.83301 143.5 29.5s84.167 46.834 117.5 81.501
s59.666 75.834 78.999 123.501s29 99.834 29 156.501z" />
    <glyph glyph-name="Dcroat" unicode="&#x110;" horiz-adv-x="1647" 
d="M339 0v652h-239v126h239v656h491c113.333 0 213.333 -18.333 300 -55s159.5 -87 218.5 -151s103.5 -139.667 133.5 -227s45 -182 45 -284s-15 -196.667 -45 -284s-74.5 -163 -133.5 -227s-131.833 -114.333 -218.5 -151s-186.667 -55 -300 -55h-491zM830 144
c92 0 171.333 14.5 238 43.5s121.667 69.167 165 120.5s75.5 111.833 96.5 181.5s31.5 145.5 31.5 227.5s-10.5 157.833 -31.5 227.5s-53.167 130.167 -96.5 181.5s-98.333 91.5 -165 120.5s-146 43.5 -238 43.5h-329v-512h310v-126h-310v-508h329z" />
    <glyph glyph-name="dcroat" unicode="&#x111;" horiz-adv-x="1304" 
d="M992 1182l-272 -0.000976562v132h272v202h154v-202h208v-132h-208v-1182h-154v210c-0.666992 -2 -4.5 -9 -11.5 -21s-17.167 -26.5 -30.5 -43.5s-30 -35.167 -50 -54.5s-44 -37.166 -72 -53.499s-59.833 -30 -95.5 -41s-75.5 -16.5 -119.5 -16.5
c-70 0 -136 13.167 -198 39.5s-116.333 62.833 -163 109.5s-83.667 102 -111 166s-41 133.333 -41 208s13.667 144 41 208s64.333 119.333 111 166s101 83.167 163 109.5s128 39.5 198 39.5c44 0 83.833 -5.5 119.5 -16.5s67.5 -24.667 95.5 -41s52 -34.333 72 -54
s36.667 -38 50 -55s23.5 -31.5 30.5 -43.5s10.833 -19 11.5 -21v387zM992 502.999c0 56.667 -9.66699 108.834 -29 156.501s-45.666 88.834 -78.999 123.501s-72.5 61.834 -117.5 81.501s-92.833 29.5 -143.5 29.5c-51.333 0 -99.333 -9.83301 -144 -29.5
s-83.667 -46.834 -117 -81.501s-59.666 -75.834 -78.999 -123.501s-29 -99.834 -29 -156.501s9.66699 -108.834 29 -156.501s45.666 -88.834 78.999 -123.501s72.333 -61.834 117 -81.501s92.667 -29.5 144 -29.5c50.667 0 98.5 9.83301 143.5 29.5
s84.167 46.834 117.5 81.501s59.666 75.834 78.999 123.501s29 99.834 29 156.501z" />
    <glyph glyph-name="Emacron" unicode="&#x112;" horiz-adv-x="1334" 
d="M1077 805v-144h-755v-517h872v-144h-1034v1434h1024v-144h-862v-485h755zM314 1724h704v-133h-704v133z" />
    <glyph glyph-name="emacron" unicode="&#x113;" horiz-adv-x="1251" 
d="M623 -20c-72 0 -139.829 12.833 -203.496 38.5s-119.167 61.5 -166.5 107.5s-84.666 101 -111.999 165s-41 134.667 -41 212s13.667 148 41 212s64.666 119 111.999 165s102.833 81.833 166.5 107.5s131.5 38.5 203.5 38.5s140.833 -13.333 206.5 -40
s123 -65.5 172 -116.5s87.167 -113.167 114.5 -186.5s38.666 -156.333 33.999 -249h-891c7.33301 -47.333 21.833 -90.833 43.5 -130.5s48.667 -73.667 81 -102s68.833 -50.333 109.5 -66s84 -23.5 130 -23.5c53.333 0 99.166 7.33301 137.499 22s70.166 30.667 95.499 48
c29.333 20.667 54 44 74 70h173c-25.333 -50.667 -60 -96 -104 -136c-18.667 -17.333 -40.334 -34 -65.001 -50s-52.5 -30.5 -83.5 -43.5s-65.333 -23.333 -103 -31s-79.167 -11.5 -124.5 -11.5zM623.004 894c-46 0 -89.666 -8 -130.999 -24s-78.166 -38.5 -110.499 -67.5
s-59.333 -63.667 -81 -104s-35.834 -84.5 -42.501 -132.5h729c-6.66699 48 -20.834 92.167 -42.501 132.5s-48.667 75 -81 104s-69 51.5 -110 67.5s-84.5 24 -130.5 24zM275.005 1434h704v-133h-704v133z" />
    <glyph glyph-name="Ebreve" unicode="&#x114;" horiz-adv-x="1334" 
d="M1077 805v-144h-755v-517h872v-144h-1034v1434h1024v-144h-862v-485h755zM665 1582c-37.333 0 -70.834 3.5 -100.501 10.5s-56 16.167 -79 27.5s-42.833 24.5 -59.5 39.5s-31 30.167 -43 45.5c-28 36.667 -47.333 78 -58 124h121c10.667 -24 26 -45 46 -63
c16.667 -16 39 -30.5 67 -43.5s63.333 -19.5 106 -19.5s77.834 6.5 105.501 19.5s50.167 27.5 67.5 43.5c19.333 18 34.666 39 45.999 63h121c-10.667 -46 -30 -87.333 -58 -124c-12 -15.333 -26.5 -30.5 -43.5 -45.5s-37 -28.167 -60 -39.5s-49.167 -20.5 -78.5 -27.5
s-62.666 -10.5 -99.999 -10.5z" />
    <glyph glyph-name="ebreve" unicode="&#x115;" horiz-adv-x="1251" 
d="M623 -20c-72 0 -139.829 12.833 -203.496 38.5s-119.167 61.5 -166.5 107.5s-84.666 101 -111.999 165s-41 134.667 -41 212s13.667 148 41 212s64.666 119 111.999 165s102.833 81.833 166.5 107.5s131.5 38.5 203.5 38.5s140.833 -13.333 206.5 -40
s123 -65.5 172 -116.5s87.167 -113.167 114.5 -186.5s38.666 -156.333 33.999 -249h-891c7.33301 -47.333 21.833 -90.833 43.5 -130.5s48.667 -73.667 81 -102s68.833 -50.333 109.5 -66s84 -23.5 130 -23.5c53.333 0 99.166 7.33301 137.499 22s70.166 30.667 95.499 48
c29.333 20.667 54 44 74 70h173c-25.333 -50.667 -60 -96 -104 -136c-18.667 -17.333 -40.334 -34 -65.001 -50s-52.5 -30.5 -83.5 -43.5s-65.333 -23.333 -103 -31s-79.167 -11.5 -124.5 -11.5zM623.004 894c-46 0 -89.666 -8 -130.999 -24s-78.166 -38.5 -110.499 -67.5
s-59.333 -63.667 -81 -104s-35.834 -84.5 -42.501 -132.5h729c-6.66699 48 -20.834 92.167 -42.501 132.5s-48.667 75 -81 104s-69 51.5 -110 67.5s-84.5 24 -130.5 24zM629.005 1187c-37.333 0 -70.834 3.5 -100.501 10.5s-56 16.167 -79 27.5s-42.833 24.5 -59.5 39.5
s-31 30.167 -43 45.5c-28 36.667 -47.333 78 -58 124h121c10.667 -24 26 -45 46 -63c16.667 -16 39 -30.5 67 -43.5s63.333 -19.5 106 -19.5s77.834 6.5 105.501 19.5s50.167 27.5 67.5 43.5c19.333 18 34.666 39 45.999 63h121c-10.667 -46 -30 -87.333 -58 -124
c-12 -15.333 -26.5 -30.5 -43.5 -45.5s-37 -28.167 -60 -39.5s-49.167 -20.5 -78.5 -27.5s-62.666 -10.5 -99.999 -10.5z" />
    <glyph glyph-name="Edotaccent" unicode="&#x116;" horiz-adv-x="1334" 
d="M1077 805v-144h-755v-517h872v-144h-1034v1434h1024v-144h-862v-485h755zM571 1679c0 14 2.66699 27.167 8 39.5s12.833 23.166 22.5 32.499s20.667 16.666 33 21.999s25.5 8 39.5 8s27.167 -2.66699 39.5 -8s23.333 -12.666 33 -21.999s17.167 -20.166 22.5 -32.499
s8 -25.5 8 -39.5s-2.66699 -27.333 -8 -40s-12.833 -23.5 -22.5 -32.5s-20.667 -16.167 -33 -21.5s-25.5 -8 -39.5 -8s-27.167 2.66699 -39.5 8s-23.333 12.5 -33 21.5s-17.167 19.833 -22.5 32.5s-8 26 -8 40z" />
    <glyph glyph-name="edotaccent" unicode="&#x117;" horiz-adv-x="1251" 
d="M623 -20c-72 0 -139.829 12.833 -203.496 38.5s-119.167 61.5 -166.5 107.5s-84.666 101 -111.999 165s-41 134.667 -41 212s13.667 148 41 212s64.666 119 111.999 165s102.833 81.833 166.5 107.5s131.5 38.5 203.5 38.5s140.833 -13.333 206.5 -40
s123 -65.5 172 -116.5s87.167 -113.167 114.5 -186.5s38.666 -156.333 33.999 -249h-891c7.33301 -47.333 21.833 -90.833 43.5 -130.5s48.667 -73.667 81 -102s68.833 -50.333 109.5 -66s84 -23.5 130 -23.5c53.333 0 99.166 7.33301 137.499 22s70.166 30.667 95.499 48
c29.333 20.667 54 44 74 70h173c-25.333 -50.667 -60 -96 -104 -136c-18.667 -17.333 -40.334 -34 -65.001 -50s-52.5 -30.5 -83.5 -43.5s-65.333 -23.333 -103 -31s-79.167 -11.5 -124.5 -11.5zM623.004 894c-46 0 -89.666 -8 -130.999 -24s-78.166 -38.5 -110.499 -67.5
s-59.333 -63.667 -81 -104s-35.834 -84.5 -42.501 -132.5h729c-6.66699 48 -20.834 92.167 -42.501 132.5s-48.667 75 -81 104s-69 51.5 -110 67.5s-84.5 24 -130.5 24zM523.005 1290c0 14 2.66699 27.167 8 39.5s12.833 23.166 22.5 32.499s20.667 16.666 33 21.999
s25.5 8 39.5 8s27.167 -2.66699 39.5 -8s23.333 -12.666 33 -21.999s17.167 -20.166 22.5 -32.499s8 -25.5 8 -39.5s-2.66699 -27.333 -8 -40s-12.833 -23.5 -22.5 -32.5s-20.667 -16.167 -33 -21.5s-25.5 -8 -39.5 -8s-27.167 2.66699 -39.5 8s-23.333 12.5 -33 21.5
s-17.167 19.833 -22.5 32.5s-8 26 -8 40z" />
    <glyph glyph-name="Eogonek" unicode="&#x118;" horiz-adv-x="1334" 
d="M160 0v1434h1024v-144h-862v-485h755v-144h-755v-517h872v-144c-4 -0.666992 -14.667 -3.5 -32 -8.5s-35.5 -13 -54.5 -24s-36.167 -25.667 -51.5 -44s-23 -41.5 -23 -69.5c0 -22 5.5 -39.333 16.5 -52s24.5 -22 40.5 -28s33.167 -9.66699 51.5 -11s34.833 -2 49.5 -2
v-138c-30.667 -3.33301 -63 -2.83301 -97 1.5s-65.5 13.833 -94.5 28.5s-53.167 34.834 -72.5 60.501s-29.666 58.167 -30.999 97.5c-0.666992 27.333 4.66602 52 15.999 74s25.833 41 43.5 57s37 28.833 58 38.5s40.5 16.167 58.5 19.5h-912z" />
    <glyph glyph-name="eogonek" unicode="&#x119;" horiz-adv-x="1251" 
d="M1103 252c-18.667 -38 -43.9961 -73.998 -75.9961 -107.998c-13.333 -14.667 -28.833 -29.334 -46.5 -44.001s-37.667 -28.834 -60 -42.501s-47 -26 -74 -37s-56.5 -19.833 -88.5 -26.5c-11.333 -3.33301 -24.833 -8.5 -40.5 -15.5s-30.5 -16 -44.5 -27
s-26 -24.5 -36 -40.5s-15 -35 -15 -57s5.5 -39.333 16.5 -52s24.5 -22 40.5 -28s33.167 -9.66699 51.5 -11s34.833 -2 49.5 -2v-138c-30.667 -3.33301 -63 -2.83301 -97 1.5s-65.5 13.833 -94.5 28.5s-53.167 34.834 -72.5 60.501s-29.666 58.167 -30.999 97.5
c-0.666992 20.667 2.16602 39.667 8.49902 57s15 33.166 26 47.499s23.5 27 37.5 38s28.667 20.167 44 27.5c-70 2.66699 -135.333 17.167 -196 43.5s-113.667 62.333 -159 108s-81 100 -107 163s-39 132.167 -39 207.5c0 77.333 13.667 148 41 212s64.666 119 111.999 165
s102.833 81.833 166.5 107.5s131.5 38.5 203.5 38.5s140.833 -13.333 206.5 -40s123 -65.5 172 -116.5s87.167 -113.167 114.5 -186.5s38.666 -156.333 33.999 -249h-891c7.33301 -47.333 21.833 -90.833 43.5 -130.5s48.667 -73.667 81 -102s68.833 -50.333 109.5 -66
s84 -23.5 130 -23.5c53.333 0 99.166 7.33301 137.499 22s70.166 30.667 95.499 48c29.333 20.667 54 44 74 70h173zM623.004 894.002c-46 0 -89.666 -8 -130.999 -24s-78.166 -38.5 -110.499 -67.5s-59.333 -63.667 -81 -104s-35.834 -84.5 -42.501 -132.5h729
c-6.66699 48 -20.834 92.167 -42.501 132.5s-48.667 75 -81 104s-69 51.5 -110 67.5s-84.5 24 -130.5 24z" />
    <glyph glyph-name="Ecaron" unicode="&#x11a;" horiz-adv-x="1334" 
d="M1077 805v-144h-755v-517h872v-144h-1034v1434h1024v-144h-862v-485h755zM349 1888h158l172 -180l172 180h158l-281 -324h-98z" />
    <glyph glyph-name="ecaron" unicode="&#x11b;" horiz-adv-x="1251" 
d="M623 -20c-72 0 -139.829 12.833 -203.496 38.5s-119.167 61.5 -166.5 107.5s-84.666 101 -111.999 165s-41 134.667 -41 212s13.667 148 41 212s64.666 119 111.999 165s102.833 81.833 166.5 107.5s131.5 38.5 203.5 38.5s140.833 -13.333 206.5 -40
s123 -65.5 172 -116.5s87.167 -113.167 114.5 -186.5s38.666 -156.333 33.999 -249h-891c7.33301 -47.333 21.833 -90.833 43.5 -130.5s48.667 -73.667 81 -102s68.833 -50.333 109.5 -66s84 -23.5 130 -23.5c53.333 0 99.166 7.33301 137.499 22s70.166 30.667 95.499 48
c29.333 20.667 54 44 74 70h173c-25.333 -50.667 -60 -96 -104 -136c-18.667 -17.333 -40.334 -34 -65.001 -50s-52.5 -30.5 -83.5 -43.5s-65.333 -23.333 -103 -31s-79.167 -11.5 -124.5 -11.5zM623.004 894c-46 0 -89.666 -8 -130.999 -24s-78.166 -38.5 -110.499 -67.5
s-59.333 -63.667 -81 -104s-35.834 -84.5 -42.501 -132.5h729c-6.66699 48 -20.834 92.167 -42.501 132.5s-48.667 75 -81 104s-69 51.5 -110 67.5s-84.5 24 -130.5 24zM288.005 1434h158l172 -180l172 180h158l-281 -324h-98z" />
    <glyph glyph-name="Gcircumflex" unicode="&#x11c;" horiz-adv-x="1672" 
d="M286 717c0 -82 14.333 -159.004 43 -231.004s68.5 -134.833 119.5 -188.5s111.333 -96 181 -127s145.5 -46.5 227.5 -46.5c76.667 0 147 13.833 211 41.5s118.833 65.5 164.5 113.5s81.167 104.667 106.5 170s38 136 38 212h-490v144h650
c8 -89.333 5.5 -171.666 -7.5 -246.999s-34.333 -143.5 -64 -204.5s-66.167 -114.833 -109.5 -161.5s-91.5 -85.667 -144.5 -117s-109.667 -55 -170 -71s-121.833 -24 -184.5 -24c-68 0 -133.333 8.83301 -196 26.5s-121.334 42.5 -176.001 74.5
s-104.334 70.333 -149.001 115s-83 94.334 -115 149.001s-56.833 113.334 -74.5 176.001s-26.5 128 -26.5 196s8.83301 133.333 26.5 196s42.5 121.334 74.5 176.001s70.333 104.334 115 149.001s94.334 83 149.001 115s113.334 56.833 176.001 74.5s128 26.5 196 26.5
c54 0 104 -4.5 150 -13.5s88.167 -20.833 126.5 -35.5s73 -31.334 104 -50.001s58.5 -37.667 82.5 -57c56 -46 102 -98 138 -156h-187c-28 31.333 -62.333 59.333 -103 84c-17.333 10.667 -36.833 21 -58.5 31s-45.5 19 -71.5 27s-54 14.333 -84 19s-62.333 7 -97 7
c-82 0 -157.833 -15.5 -227.5 -46.5s-130 -73.333 -181 -127s-90.833 -116.5 -119.5 -188.5s-43 -149 -43 -231zM797 1888h98l281 -324h-158l-172 180l-172 -180h-158z" />
    <glyph glyph-name="gcircumflex" unicode="&#x11d;" horiz-adv-x="1286" 
d="M992 210c-1.33301 -2 -5.33008 -9.00098 -11.9971 -21.001s-16.667 -26.5 -30 -43.5s-30.166 -35.167 -50.499 -54.5s-44.333 -37.166 -72 -53.499s-59.334 -30 -95.001 -41s-75.5 -16.5 -119.5 -16.5c-70 0 -136 13.167 -198 39.5s-116.333 62.833 -163 109.5
s-83.667 102 -111 166s-41 133.333 -41 208s13.667 144 41 208s64.333 119.333 111 166s101 83.167 163 109.5s128 39.5 198 39.5c44 0 83.833 -5.5 119.5 -16.5s67.334 -24.667 95.001 -41s51.667 -34.333 72 -54s37.166 -38 50.499 -55s23.333 -31.5 30 -43.5
s10.667 -19 12 -21v211h154v-956c0 -87.333 -9.66699 -166.666 -29 -237.999s-49.5 -132.5 -90.5 -183.5s-93.667 -90.5 -158 -118.5s-141.5 -42 -231.5 -42c-46 0 -87.333 3.66699 -124 11s-69.334 17.166 -98.001 29.499s-53.834 26.333 -75.501 42
s-40.167 31.834 -55.5 48.501c-36.667 38 -62.667 81.667 -78 131h170c12.667 -24.667 30.667 -46.334 54 -65.001c20 -16.667 46.667 -31.667 80 -45s75.666 -20 126.999 -20c74 0 134 12.667 180 38s82 59.833 108 103.5s43.667 94.5 53 152.5s14 120 14 186v130z
M992.003 502.999c0 56.667 -9.66699 108.834 -29 156.501s-45.666 88.834 -78.999 123.501s-72.5 61.834 -117.5 81.501s-92.833 29.5 -143.5 29.5c-51.333 0 -99.333 -9.83301 -144 -29.5s-83.667 -46.834 -117 -81.501s-59.666 -75.834 -78.999 -123.501
s-29 -99.834 -29 -156.501s9.66699 -108.834 29 -156.501s45.666 -88.834 78.999 -123.501s72.333 -61.834 117 -81.501s92.667 -29.5 144 -29.5c50.667 0 98.5 9.83301 143.5 29.5s84.167 46.834 117.5 81.501s59.666 75.834 78.999 123.501s29 99.834 29 156.501z
M602.003 1434h98l281 -324h-158l-172 180l-172 -180h-158z" />
    <glyph glyph-name="Gbreve" unicode="&#x11e;" horiz-adv-x="1672" 
d="M286 717c0 -82 14.333 -159.004 43 -231.004s68.5 -134.833 119.5 -188.5s111.333 -96 181 -127s145.5 -46.5 227.5 -46.5c76.667 0 147 13.833 211 41.5s118.833 65.5 164.5 113.5s81.167 104.667 106.5 170s38 136 38 212h-490v144h650
c8 -89.333 5.5 -171.666 -7.5 -246.999s-34.333 -143.5 -64 -204.5s-66.167 -114.833 -109.5 -161.5s-91.5 -85.667 -144.5 -117s-109.667 -55 -170 -71s-121.833 -24 -184.5 -24c-68 0 -133.333 8.83301 -196 26.5s-121.334 42.5 -176.001 74.5
s-104.334 70.333 -149.001 115s-83 94.334 -115 149.001s-56.833 113.334 -74.5 176.001s-26.5 128 -26.5 196s8.83301 133.333 26.5 196s42.5 121.334 74.5 176.001s70.333 104.334 115 149.001s94.334 83 149.001 115s113.334 56.833 176.001 74.5s128 26.5 196 26.5
c54 0 104 -4.5 150 -13.5s88.167 -20.833 126.5 -35.5s73 -31.334 104 -50.001s58.5 -37.667 82.5 -57c56 -46 102 -98 138 -156h-187c-28 31.333 -62.333 59.333 -103 84c-17.333 10.667 -36.833 21 -58.5 31s-45.5 19 -71.5 27s-54 14.333 -84 19s-62.333 7 -97 7
c-82 0 -157.833 -15.5 -227.5 -46.5s-130 -73.333 -181 -127s-90.833 -116.5 -119.5 -188.5s-43 -149 -43 -231zM839 1582c-37.333 0 -70.834 3.5 -100.501 10.5s-56 16.167 -79 27.5s-42.833 24.5 -59.5 39.5s-31 30.167 -43 45.5c-28 36.667 -47.333 78 -58 124h121
c10.667 -24 26 -45 46 -63c16.667 -16 39 -30.5 67 -43.5s63.333 -19.5 106 -19.5s77.834 6.5 105.501 19.5s50.167 27.5 67.5 43.5c19.333 18 34.666 39 45.999 63h121c-10.667 -46 -30 -87.333 -58 -124c-12 -15.333 -26.5 -30.5 -43.5 -45.5s-37 -28.167 -60 -39.5
s-49.167 -20.5 -78.5 -27.5s-62.666 -10.5 -99.999 -10.5z" />
    <glyph glyph-name="gbreve" unicode="&#x11f;" horiz-adv-x="1286" 
d="M992 210c-1.33301 -2 -5.33008 -9.00098 -11.9971 -21.001s-16.667 -26.5 -30 -43.5s-30.166 -35.167 -50.499 -54.5s-44.333 -37.166 -72 -53.499s-59.334 -30 -95.001 -41s-75.5 -16.5 -119.5 -16.5c-70 0 -136 13.167 -198 39.5s-116.333 62.833 -163 109.5
s-83.667 102 -111 166s-41 133.333 -41 208s13.667 144 41 208s64.333 119.333 111 166s101 83.167 163 109.5s128 39.5 198 39.5c44 0 83.833 -5.5 119.5 -16.5s67.334 -24.667 95.001 -41s51.667 -34.333 72 -54s37.166 -38 50.499 -55s23.333 -31.5 30 -43.5
s10.667 -19 12 -21v211h154v-956c0 -87.333 -9.66699 -166.666 -29 -237.999s-49.5 -132.5 -90.5 -183.5s-93.667 -90.5 -158 -118.5s-141.5 -42 -231.5 -42c-46 0 -87.333 3.66699 -124 11s-69.334 17.166 -98.001 29.499s-53.834 26.333 -75.501 42
s-40.167 31.834 -55.5 48.501c-36.667 38 -62.667 81.667 -78 131h170c12.667 -24.667 30.667 -46.334 54 -65.001c20 -16.667 46.667 -31.667 80 -45s75.666 -20 126.999 -20c74 0 134 12.667 180 38s82 59.833 108 103.5s43.667 94.5 53 152.5s14 120 14 186v130z
M992.003 502.999c0 56.667 -9.66699 108.834 -29 156.501s-45.666 88.834 -78.999 123.501s-72.5 61.834 -117.5 81.501s-92.833 29.5 -143.5 29.5c-51.333 0 -99.333 -9.83301 -144 -29.5s-83.667 -46.834 -117 -81.501s-59.666 -75.834 -78.999 -123.501
s-29 -99.834 -29 -156.501s9.66699 -108.834 29 -156.501s45.666 -88.834 78.999 -123.501s72.333 -61.834 117 -81.501s92.667 -29.5 144 -29.5c50.667 0 98.5 9.83301 143.5 29.5s84.167 46.834 117.5 81.501s59.666 75.834 78.999 123.501s29 99.834 29 156.501z
M641.003 1187c-37.333 0 -70.834 3.5 -100.501 10.5s-56 16.167 -79 27.5s-42.833 24.5 -59.5 39.5s-31 30.167 -43 45.5c-28 36.667 -47.333 78 -58 124h121c10.667 -24 26 -45 46 -63c16.667 -16 39 -30.5 67 -43.5s63.333 -19.5 106 -19.5s77.834 6.5 105.501 19.5
s50.167 27.5 67.5 43.5c19.333 18 34.666 39 45.999 63h121c-10.667 -46 -30 -87.333 -58 -124c-12 -15.333 -26.5 -30.5 -43.5 -45.5s-37 -28.167 -60 -39.5s-49.167 -20.5 -78.5 -27.5s-62.666 -10.5 -99.999 -10.5z" />
    <glyph glyph-name="Gdotaccent" unicode="&#x120;" horiz-adv-x="1672" 
d="M286 717c0 -82 14.333 -159.004 43 -231.004s68.5 -134.833 119.5 -188.5s111.333 -96 181 -127s145.5 -46.5 227.5 -46.5c76.667 0 147 13.833 211 41.5s118.833 65.5 164.5 113.5s81.167 104.667 106.5 170s38 136 38 212h-490v144h650
c8 -89.333 5.5 -171.666 -7.5 -246.999s-34.333 -143.5 -64 -204.5s-66.167 -114.833 -109.5 -161.5s-91.5 -85.667 -144.5 -117s-109.667 -55 -170 -71s-121.833 -24 -184.5 -24c-68 0 -133.333 8.83301 -196 26.5s-121.334 42.5 -176.001 74.5
s-104.334 70.333 -149.001 115s-83 94.334 -115 149.001s-56.833 113.334 -74.5 176.001s-26.5 128 -26.5 196s8.83301 133.333 26.5 196s42.5 121.334 74.5 176.001s70.333 104.334 115 149.001s94.334 83 149.001 115s113.334 56.833 176.001 74.5s128 26.5 196 26.5
c54 0 104 -4.5 150 -13.5s88.167 -20.833 126.5 -35.5s73 -31.334 104 -50.001s58.5 -37.667 82.5 -57c56 -46 102 -98 138 -156h-187c-28 31.333 -62.333 59.333 -103 84c-17.333 10.667 -36.833 21 -58.5 31s-45.5 19 -71.5 27s-54 14.333 -84 19s-62.333 7 -97 7
c-82 0 -157.833 -15.5 -227.5 -46.5s-130 -73.333 -181 -127s-90.833 -116.5 -119.5 -188.5s-43 -149 -43 -231zM750 1679c0 14 2.66699 27.167 8 39.5s12.833 23.166 22.5 32.499s20.667 16.666 33 21.999s25.5 8 39.5 8s27.167 -2.66699 39.5 -8
s23.333 -12.666 33 -21.999s17.167 -20.166 22.5 -32.499s8 -25.5 8 -39.5s-2.66699 -27.333 -8 -40s-12.833 -23.5 -22.5 -32.5s-20.667 -16.167 -33 -21.5s-25.5 -8 -39.5 -8s-27.167 2.66699 -39.5 8s-23.333 12.5 -33 21.5s-17.167 19.833 -22.5 32.5s-8 26 -8 40z" />
    <glyph glyph-name="gdotaccent" unicode="&#x121;" horiz-adv-x="1286" 
d="M992 210c-1.33301 -2 -5.33008 -9.00098 -11.9971 -21.001s-16.667 -26.5 -30 -43.5s-30.166 -35.167 -50.499 -54.5s-44.333 -37.166 -72 -53.499s-59.334 -30 -95.001 -41s-75.5 -16.5 -119.5 -16.5c-70 0 -136 13.167 -198 39.5s-116.333 62.833 -163 109.5
s-83.667 102 -111 166s-41 133.333 -41 208s13.667 144 41 208s64.333 119.333 111 166s101 83.167 163 109.5s128 39.5 198 39.5c44 0 83.833 -5.5 119.5 -16.5s67.334 -24.667 95.001 -41s51.667 -34.333 72 -54s37.166 -38 50.499 -55s23.333 -31.5 30 -43.5
s10.667 -19 12 -21v211h154v-956c0 -87.333 -9.66699 -166.666 -29 -237.999s-49.5 -132.5 -90.5 -183.5s-93.667 -90.5 -158 -118.5s-141.5 -42 -231.5 -42c-46 0 -87.333 3.66699 -124 11s-69.334 17.166 -98.001 29.499s-53.834 26.333 -75.501 42
s-40.167 31.834 -55.5 48.501c-36.667 38 -62.667 81.667 -78 131h170c12.667 -24.667 30.667 -46.334 54 -65.001c20 -16.667 46.667 -31.667 80 -45s75.666 -20 126.999 -20c74 0 134 12.667 180 38s82 59.833 108 103.5s43.667 94.5 53 152.5s14 120 14 186v130z
M992.003 502.999c0 56.667 -9.66699 108.834 -29 156.501s-45.666 88.834 -78.999 123.501s-72.5 61.834 -117.5 81.501s-92.833 29.5 -143.5 29.5c-51.333 0 -99.333 -9.83301 -144 -29.5s-83.667 -46.834 -117 -81.501s-59.666 -75.834 -78.999 -123.501
s-29 -99.834 -29 -156.501s9.66699 -108.834 29 -156.501s45.666 -88.834 78.999 -123.501s72.333 -61.834 117 -81.501s92.667 -29.5 144 -29.5c50.667 0 98.5 9.83301 143.5 29.5s84.167 46.834 117.5 81.501s59.666 75.834 78.999 123.501s29 99.834 29 156.501z
M549.003 1290c0 14 2.66699 27.167 8 39.5s12.833 23.166 22.5 32.499s20.667 16.666 33 21.999s25.5 8 39.5 8s27.167 -2.66699 39.5 -8s23.333 -12.666 33 -21.999s17.167 -20.166 22.5 -32.499s8 -25.5 8 -39.5s-2.66699 -27.333 -8 -40s-12.833 -23.5 -22.5 -32.5
s-20.667 -16.167 -33 -21.5s-25.5 -8 -39.5 -8s-27.167 2.66699 -39.5 8s-23.333 12.5 -33 21.5s-17.167 19.833 -22.5 32.5s-8 26 -8 40z" />
    <glyph glyph-name="Gcommaaccent" unicode="&#x122;" horiz-adv-x="1672" 
d="M286 717c0 -82 14.333 -159.004 43 -231.004s68.5 -134.833 119.5 -188.5s111.333 -96 181 -127s145.5 -46.5 227.5 -46.5c76.667 0 147 13.833 211 41.5s118.833 65.5 164.5 113.5s81.167 104.667 106.5 170s38 136 38 212h-490v144h650
c8 -89.333 5.5 -171.666 -7.5 -246.999s-34.333 -143.5 -64 -204.5s-66.167 -114.833 -109.5 -161.5s-91.5 -85.667 -144.5 -117s-109.667 -55 -170 -71s-121.833 -24 -184.5 -24c-68 0 -133.333 8.83301 -196 26.5s-121.334 42.5 -176.001 74.5
s-104.334 70.333 -149.001 115s-83 94.334 -115 149.001s-56.833 113.334 -74.5 176.001s-26.5 128 -26.5 196s8.83301 133.333 26.5 196s42.5 121.334 74.5 176.001s70.333 104.334 115 149.001s94.334 83 149.001 115s113.334 56.833 176.001 74.5s128 26.5 196 26.5
c54 0 104 -4.5 150 -13.5s88.167 -20.833 126.5 -35.5s73 -31.334 104 -50.001s58.5 -37.667 82.5 -57c56 -46 102 -98 138 -156h-187c-28 31.333 -62.333 59.333 -103 84c-17.333 10.667 -36.833 21 -58.5 31s-45.5 19 -71.5 27s-54 14.333 -84 19s-62.333 7 -97 7
c-82 0 -157.833 -15.5 -227.5 -46.5s-130 -73.333 -181 -127s-90.833 -116.5 -119.5 -188.5s-43 -149 -43 -231zM758 -96.0039h178l-199 -436h-146z" />
    <glyph glyph-name="gcommaaccent" unicode="&#x123;" horiz-adv-x="1286" 
d="M992 210c-1.33301 -2 -5.33008 -9.00098 -11.9971 -21.001s-16.667 -26.5 -30 -43.5s-30.166 -35.167 -50.499 -54.5s-44.333 -37.166 -72 -53.499s-59.334 -30 -95.001 -41s-75.5 -16.5 -119.5 -16.5c-70 0 -136 13.167 -198 39.5s-116.333 62.833 -163 109.5
s-83.667 102 -111 166s-41 133.333 -41 208s13.667 144 41 208s64.333 119.333 111 166s101 83.167 163 109.5s128 39.5 198 39.5c44 0 83.833 -5.5 119.5 -16.5s67.334 -24.667 95.001 -41s51.667 -34.333 72 -54s37.166 -38 50.499 -55s23.333 -31.5 30 -43.5
s10.667 -19 12 -21v211h154v-956c0 -87.333 -9.66699 -166.666 -29 -237.999s-49.5 -132.5 -90.5 -183.5s-93.667 -90.5 -158 -118.5s-141.5 -42 -231.5 -42c-46 0 -87.333 3.66699 -124 11s-69.334 17.166 -98.001 29.499s-53.834 26.333 -75.501 42
s-40.167 31.834 -55.5 48.501c-36.667 38 -62.667 81.667 -78 131h170c12.667 -24.667 30.667 -46.334 54 -65.001c20 -16.667 46.667 -31.667 80 -45s75.666 -20 126.999 -20c74 0 134 12.667 180 38s82 59.833 108 103.5s43.667 94.5 53 152.5s14 120 14 186v130z
M992.003 502.999c0 56.667 -9.66699 108.834 -29 156.501s-45.666 88.834 -78.999 123.501s-72.5 61.834 -117.5 81.501s-92.833 29.5 -143.5 29.5c-51.333 0 -99.333 -9.83301 -144 -29.5s-83.667 -46.834 -117 -81.501s-59.666 -75.834 -78.999 -123.501
s-29 -99.834 -29 -156.501s9.66699 -108.834 29 -156.501s45.666 -88.834 78.999 -123.501s72.333 -61.834 117 -81.501s92.667 -29.5 144 -29.5c50.667 0 98.5 9.83301 143.5 29.5s84.167 46.834 117.5 81.501s59.666 75.834 78.999 123.501s29 99.834 29 156.501z
M591.003 1434h98l281 -324h-158l-172 180l-172 -180h-158z" />
    <glyph glyph-name="Hcircumflex" unicode="&#x124;" horiz-adv-x="1480" 
d="M1158 1434h162v-1434h-162v661h-836v-661h-162v1434h162v-629h836v629zM691 1888h98l281 -324h-158l-172 180l-172 -180h-158z" />
    <glyph glyph-name="hcircumflex" unicode="&#x125;" 
d="M1062 0l-154 -0.000976562v503c0 54 -5.5 104.667 -16.5 152s-28.667 88.666 -53 123.999s-56 63.333 -95 84s-86.5 31 -142.5 31s-103.5 -10.333 -142.5 -31s-70.667 -48.667 -95 -84s-42 -76.666 -53 -123.999s-16.5 -98 -16.5 -152v-503h-154v1516h154v-702
c0.666992 2 3.16699 8.5 7.5 19.5s11.333 24.333 21 40s22.5 32.5 38.5 50.5s35.833 34.5 59.5 49.5s52 27.5 85 37.5s71.5 15 115.5 15c74 0 138.667 -12.333 194 -37s101.333 -59.667 138 -105s64 -100.166 82 -164.499s27 -136.5 27 -216.5v-503zM546 1858h98l281 -324
h-158l-172 180l-172 -180h-158z" />
    <glyph glyph-name="Hbar" unicode="&#x126;" horiz-adv-x="1696" 
d="M1626 1036h-198v-1036h-162v661h-836v-661h-162v1036h-198v120h198v278h162v-278h836v278h162v-278h198v-120zM1266 1036h-836v-231h836v231z" />
    <glyph glyph-name="hbar" unicode="&#x127;" horiz-adv-x="1220" 
d="M1080 0l-154 -0.000976562v503c0 54 -5.5 104.667 -16.5 152s-28.667 88.666 -53 123.999s-56 63.333 -95 84s-86.5 31 -142.5 31s-103.5 -10.333 -142.5 -31s-70.667 -48.667 -95 -84s-42 -76.666 -53 -123.999s-16.5 -98 -16.5 -152v-503h-154v1182h-208v132h208v202
h154v-202h272v-132h-272v-368c0.666992 2 3.16699 8.5 7.5 19.5s11.333 24.333 21 40s22.5 32.5 38.5 50.5s35.833 34.5 59.5 49.5s52 27.5 85 37.5s71.5 15 115.5 15c74 0 138.667 -12.333 194 -37s101.333 -59.667 138 -105s64 -100.166 82 -164.499s27 -136.5 27 -216.5
v-503z" />
    <glyph glyph-name="Itilde" unicode="&#x128;" horiz-adv-x="508" 
d="M173 1434h162v-1434h-162v1434zM209 1659c-12.667 13.333 -25.501 24.5 -38.501 33.5s-27.167 13.5 -42.5 13.5s-27.166 -4.33301 -35.499 -13s-14.5 -18.334 -18.5 -29.001c-4.66699 -12 -7.66699 -25.667 -9 -41h-145c4 41.333 14 78 30 110
c6.66699 14 15 27.5 25 40.5s22.333 24.667 37 35s31.5 18.666 50.5 24.999s40.833 9.5 65.5 9.5c22.667 0 42.834 -2.66699 60.501 -8s33.167 -12.333 46.5 -21s25.166 -18 35.499 -28l28.5 -28c12.667 -13.333 25.5 -24.5 38.5 -33.5s27.167 -13.5 42.5 -13.5
s27.166 4.16699 35.499 12.5s14.5 17.833 18.5 28.5c4.66699 12 7.66699 26 9 42h145c-4 -41.333 -14 -78 -30 -110c-6.66699 -14 -15 -27.5 -25 -40.5s-22.333 -24.667 -37 -35s-31.5 -18.666 -50.5 -24.999s-40.833 -9.5 -65.5 -9.5c-23.333 0 -43.666 2.66699 -60.999 8
s-32.833 12.333 -46.5 21s-25.5 17.834 -35.5 27.501s-19.333 19.167 -28 28.5z" />
    <glyph glyph-name="itilde" unicode="&#x129;" horiz-adv-x="508" 
d="M209 1250c-12.667 13.333 -25.501 24.5 -38.501 33.5s-27.167 13.5 -42.5 13.5s-27.166 -4.33301 -35.499 -13s-14.5 -18.334 -18.5 -29.001c-4.66699 -12 -7.66699 -25.667 -9 -41h-145c4 41.333 14 78 30 110c6.66699 14 15 27.5 25 40.5s22.333 24.667 37 35
s31.5 18.666 50.5 24.999s40.833 9.5 65.5 9.5c22.667 0 42.834 -2.66699 60.501 -8s33.167 -12.333 46.5 -21s25.166 -18 35.499 -28l28.5 -28c12.667 -13.333 25.5 -24.5 38.5 -33.5s27.167 -13.5 42.5 -13.5s27.166 4.16699 35.499 12.5s14.5 17.833 18.5 28.5
c4.66699 12 7.66699 26 9 42h145c-4 -41.333 -14 -78 -30 -110c-6.66699 -14 -15 -27.5 -25 -40.5s-22.333 -24.667 -37 -35s-31.5 -18.666 -50.5 -24.999s-40.833 -9.5 -65.5 -9.5c-23.333 0 -43.666 2.66699 -60.999 8s-32.833 12.333 -46.5 21s-25.5 17.834 -35.5 27.501
s-19.333 19.167 -28 28.5zM182.999 0v1006h142v-1006h-142z" />
    <glyph glyph-name="uni012A" unicode="&#x12a;" horiz-adv-x="504" 
d="M171 1434h162v-1434h-162v1434zM-100 1724h704v-133h-704v133z" />
    <glyph glyph-name="imacron" unicode="&#x12b;" horiz-adv-x="504" 
d="M-100 1434h704v-133h-704v133zM181 0v1006h142v-1006h-142z" />
    <glyph glyph-name="Ibreve" unicode="&#x12c;" horiz-adv-x="520" 
d="M179 1434h162v-1434h-162v1434zM260 1582c-37.333 0 -70.834 3.5 -100.501 10.5s-56 16.167 -79 27.5s-42.833 24.5 -59.5 39.5s-31 30.167 -43 45.5c-28 36.667 -47.333 78 -58 124h121c10.667 -24 26 -45 46 -63c16.667 -16 39 -30.5 67 -43.5s63.333 -19.5 106 -19.5
s77.834 6.5 105.501 19.5s50.167 27.5 67.5 43.5c19.333 18 34.666 39 45.999 63h121c-10.667 -46 -30 -87.333 -58 -124c-12 -15.333 -26.5 -30.5 -43.5 -45.5s-37 -28.167 -60 -39.5s-49.167 -20.5 -78.5 -27.5s-62.666 -10.5 -99.999 -10.5z" />
    <glyph glyph-name="ibreve" unicode="&#x12d;" horiz-adv-x="480" 
d="M169 0v1006h142v-1006h-142zM240 1187c-37.333 0 -70.834 3.5 -100.501 10.5s-56 16.167 -79 27.5s-42.833 24.5 -59.5 39.5s-31 30.167 -43 45.5c-28 36.667 -47.333 78 -58 124h121c10.667 -24 26 -45 46 -63c16.667 -16 39 -30.5 67 -43.5s63.333 -19.5 106 -19.5
s77.834 6.5 105.501 19.5s50.167 27.5 67.5 43.5c19.333 18 34.666 39 45.999 63h121c-10.667 -46 -30 -87.333 -58 -124c-12 -15.333 -26.5 -30.5 -43.5 -45.5s-37 -28.167 -60 -39.5s-49.167 -20.5 -78.5 -27.5s-62.666 -10.5 -99.999 -10.5z" />
    <glyph glyph-name="Iogonek" unicode="&#x12e;" horiz-adv-x="499" 
d="M157 1434l162 -0.000976562v-1434c-4 -0.666992 -14.667 -3.5 -32 -8.5s-35.5 -13 -54.5 -24s-36.167 -25.667 -51.5 -44s-23 -41.5 -23 -69.5c0 -22 5.5 -39.333 16.5 -52s24.5 -22 40.5 -28s33.167 -9.66699 51.5 -11s34.833 -2 49.5 -2v-138
c-30.667 -3.33301 -63 -2.83301 -97 1.5s-65.5 13.833 -94.5 28.5s-53.167 34.834 -72.5 60.501s-29.666 58.167 -30.999 97.5c-0.666992 27.333 4.66602 52 15.999 74s25.833 41 43.5 57s37 28.833 58 38.5s40.5 16.167 58.5 19.5h-40v1434z" />
    <glyph glyph-name="iogonek" unicode="&#x12f;" horiz-adv-x="465" 
d="M145 1006l154 -0.000976562v-1006c-4 -0.666992 -14.667 -3.5 -32 -8.5s-35.5 -13 -54.5 -24s-36.167 -25.667 -51.5 -44s-23 -41.5 -23 -69.5c0 -22 5.5 -39.333 16.5 -52s24.5 -22 40.5 -28s33.167 -9.66699 51.5 -11s34.833 -2 49.5 -2v-138
c-30.667 -3.33301 -63 -2.83301 -97 1.5s-65.5 13.833 -94.5 28.5s-53.167 34.834 -72.5 60.501s-29.666 58.167 -30.999 97.5c-0.666992 27.333 4.66602 52 15.999 74s25.833 41 43.5 57s37 28.833 58 38.5s40.5 16.167 58.5 19.5h-32v1006zM119 1290
c0 14 2.66699 27.167 8 39.5s12.833 23.166 22.5 32.499s20.667 16.666 33 21.999s25.5 8 39.5 8s27.167 -2.66699 39.5 -8s23.333 -12.666 33 -21.999s17.167 -20.166 22.5 -32.499s8 -25.5 8 -39.5s-2.66699 -27.333 -8 -40s-12.833 -23.5 -22.5 -32.5
s-20.667 -16.167 -33 -21.5s-25.5 -8 -39.5 -8s-27.167 2.66699 -39.5 8s-23.333 12.5 -33 21.5s-17.167 19.833 -22.5 32.5s-8 26 -8 40z" />
    <glyph glyph-name="Idotaccent" unicode="&#x130;" horiz-adv-x="566" 
d="M202 1434h162v-1434h-162v1434zM180 1679c0 14 2.66699 27.167 8 39.5s12.833 23.166 22.5 32.499s20.667 16.666 33 21.999s25.5 8 39.5 8s27.167 -2.66699 39.5 -8s23.333 -12.666 33 -21.999s17.167 -20.166 22.5 -32.499s8 -25.5 8 -39.5s-2.66699 -27.333 -8 -40
s-12.833 -23.5 -22.5 -32.5s-20.667 -16.167 -33 -21.5s-25.5 -8 -39.5 -8s-27.167 2.66699 -39.5 8s-23.333 12.5 -33 21.5s-17.167 19.833 -22.5 32.5s-8 26 -8 40z" />
    <glyph glyph-name="dotlessi" unicode="&#x131;" horiz-adv-x="422" 
d="M140 0v1006h142v-1006h-142z" />
    <glyph glyph-name="IJ" unicode="&#x132;" horiz-adv-x="1705" 
d="M180 1434h162v-1434h-162v1434zM746 327c12 -38 30.6641 -71.999 55.9971 -101.999c10.667 -12.667 23.334 -25 38.001 -37s31.5 -22.833 50.5 -32.5s40.5 -17.334 64.5 -23.001s51 -8.5 81 -8.5c112.667 0 195.334 32 248.001 96s79 158.667 79 284v930h162v-970
c0 -81.333 -11.667 -152.333 -35 -213s-56.333 -111 -99 -151s-94.167 -70 -154.5 -90s-127.166 -30 -200.499 -30c-52 0 -98.667 5 -140 15s-77.833 23 -109.5 39s-59.167 34.333 -82.5 55s-43 42 -59 64c-38 51.333 -63.667 109.333 -77 174h178z" />
    <glyph glyph-name="ij" unicode="&#x133;" horiz-adv-x="951" 
d="M166 1006h154v-1006h-154v1006zM140 1290c0 14 2.66699 27.167 8 39.5s12.833 23.166 22.5 32.499s20.667 16.666 33 21.999s25.5 8 39.5 8s27.167 -2.66699 39.5 -8s23.333 -12.666 33 -21.999s17.167 -20.166 22.5 -32.499s8 -25.5 8 -39.5s-2.66699 -27.333 -8 -40
s-12.833 -23.5 -22.5 -32.5s-20.667 -16.167 -33 -21.5s-25.5 -8 -39.5 -8s-27.167 2.66699 -39.5 8s-23.333 12.5 -33 21.5s-17.167 19.833 -22.5 32.5s-8 26 -8 40zM631 1006l154.001 -0.00195312v-1071c0 -76.667 -6.16699 -144.167 -18.5 -202.5
s-31.833 -107 -58.5 -146s-61.167 -68.5 -103.5 -88.5s-93.5 -30 -153.5 -30c-32.667 0 -61.834 1.83301 -87.501 5.5s-47.5 7.83398 -65.5 12.501c-21.333 5.33301 -40 11.666 -56 18.999l56 120c13.333 -5.33301 28 -9.66602 44 -12.999
c13.333 -3.33301 28.5 -6.16602 45.5 -8.49902s34.833 -3.5 53.5 -3.5c34 0 63 5.66699 87 17s43.667 30.166 59 56.499s26.5 60.833 33.5 103.5s10.5 95.334 10.5 158.001v1071zM605.001 1290c0 14 2.66699 27.167 8 39.5s12.833 23.166 22.5 32.499
s20.667 16.666 33 21.999s25.5 8 39.5 8s27.167 -2.66699 39.5 -8s23.333 -12.666 33 -21.999s17.167 -20.166 22.5 -32.499s8 -25.5 8 -39.5s-2.66699 -27.333 -8 -40s-12.833 -23.5 -22.5 -32.5s-20.667 -16.167 -33 -21.5s-25.5 -8 -39.5 -8s-27.167 2.66699 -39.5 8
s-23.333 12.5 -33 21.5s-17.167 19.833 -22.5 32.5s-8 26 -8 40z" />
    <glyph glyph-name="Jcircumflex" unicode="&#x134;" horiz-adv-x="1466" 
d="M278 327c12 -38 30.6641 -71.999 55.9971 -101.999c10.667 -12.667 23.334 -25 38.001 -37s31.5 -22.833 50.5 -32.5s40.5 -17.334 64.5 -23.001s51 -8.5 81 -8.5c112.667 0 195.334 32 248.001 96s79 158.667 79 284v930h162v-970c0 -81.333 -11.667 -152.333 -35 -213
s-56.333 -111 -99 -151s-94.167 -70 -154.5 -90s-127.166 -30 -200.499 -30c-52 0 -98.667 5 -140 15s-77.833 23 -109.5 39s-59.167 34.333 -82.5 55s-43 42 -59 64c-38 51.333 -63.667 109.333 -77 174h178zM926.997 1888h98l281 -324h-158l-172 180l-172 -180h-158z" />
    <glyph glyph-name="jcircumflex" unicode="&#x135;" horiz-adv-x="516" 
d="M189 1006l154.001 -0.00195312v-1071c0 -76.667 -6.16699 -144.167 -18.5 -202.5s-31.833 -107 -58.5 -146s-61.167 -68.5 -103.5 -88.5s-93.5 -30 -153.5 -30c-32.667 0 -61.834 1.83301 -87.501 5.5s-47.5 7.83398 -65.5 12.501c-21.333 5.33301 -40 11.666 -56 18.999
l56 120c13.333 -5.33301 28 -9.66602 44 -12.999c13.333 -3.33301 28.5 -6.16602 45.5 -8.49902s34.833 -3.5 53.5 -3.5c34 0 63 5.66699 87 17s43.667 30.166 59 56.499s26.5 60.833 33.5 103.5s10.5 95.334 10.5 158.001v1071zM217.001 1434h98l281 -324h-158l-172 180
l-172 -180h-158z" />
    <glyph glyph-name="Kcommaaccent" unicode="&#x136;" horiz-adv-x="1414" 
d="M1130 1434h214l-683 -599l683 -835h-189l-604 739l-229 -201v-538h-162v1434h162v-707zM582 -96h178l-199 -436h-146z" />
    <glyph glyph-name="kcommaaccent" unicode="&#x137;" horiz-adv-x="1080" 
d="M817 1006h213l-472 -399l472 -607h-183l-397 515l-156 -133v-382h-154v1516h154v-953zM452 -96h178l-199 -436h-146z" />
    <glyph glyph-name="kgreenlandic" unicode="&#x138;" horiz-adv-x="1414" 
d="M1130 1434h214l-683 -599l683 -835h-189l-604 739l-229 -201v-538h-162v1434h162v-707z" />
    <glyph glyph-name="Lacute" unicode="&#x139;" horiz-adv-x="1248" 
d="M325 144h803v-144h-965v1434h162v-1290zM433 1878h209l-310 -305h-172z" />
    <glyph glyph-name="lacute" unicode="&#x13a;" horiz-adv-x="482" 
d="M169 0v1516h154v-1516h-154zM433 1888h209l-310 -305h-172z" />
    <glyph glyph-name="Lcommaaccent" unicode="&#x13b;" horiz-adv-x="1245" 
d="M322 144h803v-144h-965v1434h162v-1290zM572 -96h178l-199 -436h-146z" />
    <glyph glyph-name="lcommaaccent" unicode="&#x13c;" horiz-adv-x="495" 
d="M173 0v1516h154v-1516h-154zM157 -96h178l-199 -436h-146z" />
    <glyph glyph-name="Lcaron" unicode="&#x13d;" horiz-adv-x="1245" 
d="M501 1434h178l-99 -436h-146zM322 144h803v-144h-965v1434h162v-1290z" />
    <glyph glyph-name="lcaron" unicode="&#x13e;" horiz-adv-x="568" 
d="M427 1516h178l-99 -436h-146zM160 0v1516h154v-1516h-154z" />
    <glyph glyph-name="Ldot" unicode="&#x13f;" horiz-adv-x="1215" 
d="M322 144h803v-144h-965v1434h162v-1290zM766 776c0 14 2.66699 27.167 8 39.5s12.666 23.333 21.999 33s20.333 17.167 33 22.5s26 8 40 8s27.333 -2.66699 40 -8s23.667 -12.833 33 -22.5s16.666 -20.667 21.999 -33s8 -25.5 8 -39.5s-2.66699 -27.167 -8 -39.5
s-12.666 -23.333 -21.999 -33s-20.333 -17.167 -33 -22.5s-26 -8 -40 -8s-27.333 2.66699 -40 8s-23.667 12.833 -33 22.5s-16.666 20.667 -21.999 33s-8 25.5 -8 39.5z" />
    <glyph glyph-name="ldot" unicode="&#x140;" horiz-adv-x="559" 
d="M160 0v1516h154v-1516h-154zM393 792c0 14 2.66699 27.167 8 39.5s12.666 23.333 21.999 33s20.333 17.167 33 22.5s26 8 40 8s27.333 -2.66699 40 -8s23.667 -12.833 33 -22.5s16.666 -20.667 21.999 -33s8 -25.5 8 -39.5s-2.66699 -27.167 -8 -39.5
s-12.666 -23.333 -21.999 -33s-20.333 -17.167 -33 -22.5s-26 -8 -40 -8s-27.333 2.66699 -40 8s-23.667 12.833 -33 22.5s-16.666 20.667 -21.999 33s-8 25.5 -8 39.5z" />
    <glyph glyph-name="Lslash" unicode="&#x141;" horiz-adv-x="1382" 
d="M459 858l227 157v-154l-227 -156v-561h803v-144h-965v594l-227 -156v153l227 156v687h162v-576z" />
    <glyph glyph-name="lslash" unicode="&#x142;" horiz-adv-x="700" 
d="M273 0v706l-183 -116v153l183 116v657h154v-560l183 116v-153l-183 -116v-803h-154z" />
    <glyph glyph-name="Nacute" unicode="&#x143;" horiz-adv-x="1484" 
d="M160 1434h190l812 -1205v1205h162v-1434h-190l-812 1205v-1205h-162v1434zM911 1878h209l-310 -305h-172z" />
    <glyph glyph-name="nacute" unicode="&#x144;" 
d="M790 1434h209l-310 -305h-172zM1062 0l-154 -0.000976562v503c0 54 -5.5 104.667 -16.5 152s-28.667 88.666 -53 123.999s-56 63.333 -95 84s-86.5 31 -142.5 31s-103.5 -10.333 -142.5 -31s-70.667 -48.667 -95 -84s-42 -76.666 -53 -123.999s-16.5 -98 -16.5 -152v-503
h-154v1006h154v-192c0.666992 2 3.16699 8.5 7.5 19.5s11.333 24.333 21 40s22.5 32.5 38.5 50.5s35.833 34.5 59.5 49.5s52 27.5 85 37.5s71.5 15 115.5 15c74 0 138.667 -12.333 194 -37s101.333 -59.667 138 -105s64 -100.166 82 -164.499s27 -136.5 27 -216.5v-503z" />
    <glyph glyph-name="Ncommaaccent" unicode="&#x145;" horiz-adv-x="1484" 
d="M160 1434h190l812 -1205v1205h162v-1434h-190l-812 1205v-1205h-162v1434zM651 -96h178l-199 -436h-146z" />
    <glyph glyph-name="ncommaaccent" unicode="&#x146;" 
d="M1062 0l-154 -0.000976562v503c0 54 -5.5 104.667 -16.5 152s-28.667 88.666 -53 123.999s-56 63.333 -95 84s-86.5 31 -142.5 31s-103.5 -10.333 -142.5 -31s-70.667 -48.667 -95 -84s-42 -76.666 -53 -123.999s-16.5 -98 -16.5 -152v-503h-154v1006h154v-192
c0.666992 2 3.16699 8.5 7.5 19.5s11.333 24.333 21 40s22.5 32.5 38.5 50.5s35.833 34.5 59.5 49.5s52 27.5 85 37.5s71.5 15 115.5 15c74 0 138.667 -12.333 194 -37s101.333 -59.667 138 -105s64 -100.166 82 -164.499s27 -136.5 27 -216.5v-503zM504 -96.001h178
l-199 -436h-146z" />
    <glyph glyph-name="Ncaron" unicode="&#x147;" horiz-adv-x="1484" 
d="M160 1434h190l812 -1205v1205h162v-1434h-190l-812 1205v-1205h-162v1434zM412 1888h158l172 -180l172 180h158l-281 -324h-98z" />
    <glyph glyph-name="ncaron" unicode="&#x148;" 
d="M552 1434h98l281 -324h-158l-172 180l-172 -180h-158zM1062 0l-154 -0.000976562v503c0 54 -5.5 104.667 -16.5 152s-28.667 88.666 -53 123.999s-56 63.333 -95 84s-86.5 31 -142.5 31s-103.5 -10.333 -142.5 -31s-70.667 -48.667 -95 -84s-42 -76.666 -53 -123.999
s-16.5 -98 -16.5 -152v-503h-154v1006h154v-192c0.666992 2 3.16699 8.5 7.5 19.5s11.333 24.333 21 40s22.5 32.5 38.5 50.5s35.833 34.5 59.5 49.5s52 27.5 85 37.5s71.5 15 115.5 15c74 0 138.667 -12.333 194 -37s101.333 -59.667 138 -105s64 -100.166 82 -164.499
s27 -136.5 27 -216.5v-503z" />
    <glyph glyph-name="Eng" unicode="&#x14a;" horiz-adv-x="1484" 
d="M545 -185c12 -38 30.6641 -71.999 55.9971 -101.999c10.667 -12.667 23.334 -25 38.001 -37s31.5 -22.833 50.5 -32.5s40.5 -17.334 64.5 -23.001s51 -8.5 81 -8.5c112.667 0 195.334 32 248.001 96s79 158.667 79 284v8h-28l-812 1205v-1205h-162v1434h190l812 -1205
v1205h162v-1482c0 -81.333 -11.667 -152.333 -35 -213s-56.333 -111 -99 -151s-94.167 -70 -154.5 -90s-127.166 -30 -200.499 -30c-52 0 -98.667 5 -140 15s-77.833 23 -109.5 39s-59.167 34.333 -82.5 55s-43 42 -59 64c-38 51.333 -63.667 109.333 -77 174h178z" />
    <glyph glyph-name="eng" unicode="&#x14b;" 
d="M1062 -65c0 -76.667 -6.16602 -144.17 -18.499 -202.503s-31.833 -107 -58.5 -146s-61.167 -68.5 -103.5 -88.5s-93.5 -30 -153.5 -30c-32.667 0 -61.834 1.83301 -87.501 5.5s-47.5 7.83398 -65.5 12.501c-21.333 5.33301 -40 11.666 -56 18.999l56 120
c13.333 -5.33301 28 -9.66602 44 -12.999c13.333 -3.33301 28.5 -6.16602 45.5 -8.49902s34.833 -3.5 53.5 -3.5c34 0 63 5.66699 87 17s43.667 30.166 59 56.499s26.5 60.833 33.5 103.5s10.5 95.334 10.5 158.001v568c0 54 -5.5 104.667 -16.5 152
s-28.667 88.666 -53 123.999s-56 63.333 -95 84s-86.5 31 -142.5 31s-103.5 -10.333 -142.5 -31s-70.667 -48.667 -95 -84s-42 -76.666 -53 -123.999s-16.5 -98 -16.5 -152v-503h-154v1006h154v-192c0.666992 2 3.16699 8.5 7.5 19.5s11.333 24.333 21 40
s22.5 32.5 38.5 50.5s35.833 34.5 59.5 49.5s52 27.5 85 37.5s71.5 15 115.5 15c74 0 138.667 -12.333 194 -37s101.333 -59.667 138 -105s64 -100.166 82 -164.499s27 -136.5 27 -216.5v-568z" />
    <glyph glyph-name="Omacron" unicode="&#x14c;" horiz-adv-x="1714" 
d="M120 717c0 68 8.83301 133.333 26.5 196s42.5 121.334 74.5 176.001s70.333 104.334 115 149.001s94.334 83 149.001 115s113.334 56.833 176.001 74.5s128 26.5 196 26.5s133.333 -8.83301 196 -26.5s121.334 -42.5 176.001 -74.5s104.334 -70.333 149.001 -115
s83 -94.334 115 -149.001s56.833 -113.334 74.5 -176.001s26.5 -128 26.5 -196s-8.83301 -133.333 -26.5 -196s-42.5 -121.334 -74.5 -176.001s-70.333 -104.334 -115 -149.001s-94.334 -83 -149.001 -115s-113.334 -56.833 -176.001 -74.5s-128 -26.5 -196 -26.5
s-133.333 8.83301 -196 26.5s-121.334 42.5 -176.001 74.5s-104.334 70.333 -149.001 115s-83 94.334 -115 149.001s-56.833 113.334 -74.5 176.001s-26.5 128 -26.5 196zM286 717c0 -82 14.333 -159 43 -231s68.5 -134.833 119.5 -188.5s111.333 -96 181 -127
s145.5 -46.5 227.5 -46.5s157.833 15.5 227.5 46.5s130 73.333 181 127s90.833 116.5 119.5 188.5s43 149 43 231s-14.333 159 -43 231s-68.5 134.833 -119.5 188.5s-111.333 96 -181 127s-145.5 46.5 -227.5 46.5s-157.833 -15.5 -227.5 -46.5s-130 -73.333 -181 -127
s-90.833 -116.5 -119.5 -188.5s-43 -149 -43 -231zM505 1724h704v-133h-704v133z" />
    <glyph glyph-name="omacron" unicode="&#x14d;" horiz-adv-x="1246" 
d="M271 1434h704v-133h-704v133zM100 503c0 77.333 13.667 148 41 212s64.666 119 111.999 165s102.833 81.833 166.5 107.5s131.5 38.5 203.5 38.5s139.833 -12.833 203.5 -38.5s119.167 -61.5 166.5 -107.5s84.666 -101 111.999 -165s41 -134.667 41 -212
s-13.667 -148 -41 -212s-64.666 -119 -111.999 -165s-102.833 -81.833 -166.5 -107.5s-131.5 -38.5 -203.5 -38.5s-139.833 12.833 -203.5 38.5s-119.167 61.5 -166.5 107.5s-84.666 101 -111.999 165s-41 134.667 -41 212zM254 503c0 -56.667 9.66699 -108.834 29 -156.501
s45.666 -88.834 78.999 -123.501s72.333 -61.834 117 -81.501s92.667 -29.5 144 -29.5c50.667 0 98.5 9.83301 143.5 29.5s84.167 46.834 117.5 81.501s59.666 75.834 78.999 123.501s29 99.834 29 156.501s-9.66699 108.834 -29 156.501s-45.666 88.834 -78.999 123.501
s-72.5 61.834 -117.5 81.501s-92.833 29.5 -143.5 29.5c-51.333 0 -99.333 -9.83301 -144 -29.5s-83.667 -46.834 -117 -81.501s-59.666 -75.834 -78.999 -123.501s-29 -99.834 -29 -156.501z" />
    <glyph glyph-name="Obreve" unicode="&#x14e;" horiz-adv-x="1714" 
d="M120 717c0 68 8.83301 133.333 26.5 196s42.5 121.334 74.5 176.001s70.333 104.334 115 149.001s94.334 83 149.001 115s113.334 56.833 176.001 74.5s128 26.5 196 26.5s133.333 -8.83301 196 -26.5s121.334 -42.5 176.001 -74.5s104.334 -70.333 149.001 -115
s83 -94.334 115 -149.001s56.833 -113.334 74.5 -176.001s26.5 -128 26.5 -196s-8.83301 -133.333 -26.5 -196s-42.5 -121.334 -74.5 -176.001s-70.333 -104.334 -115 -149.001s-94.334 -83 -149.001 -115s-113.334 -56.833 -176.001 -74.5s-128 -26.5 -196 -26.5
s-133.333 8.83301 -196 26.5s-121.334 42.5 -176.001 74.5s-104.334 70.333 -149.001 115s-83 94.334 -115 149.001s-56.833 113.334 -74.5 176.001s-26.5 128 -26.5 196zM286 717c0 -82 14.333 -159 43 -231s68.5 -134.833 119.5 -188.5s111.333 -96 181 -127
s145.5 -46.5 227.5 -46.5s157.833 15.5 227.5 46.5s130 73.333 181 127s90.833 116.5 119.5 188.5s43 149 43 231s-14.333 159 -43 231s-68.5 134.833 -119.5 188.5s-111.333 96 -181 127s-145.5 46.5 -227.5 46.5s-157.833 -15.5 -227.5 -46.5s-130 -73.333 -181 -127
s-90.833 -116.5 -119.5 -188.5s-43 -149 -43 -231zM857 1582c-37.333 0 -70.834 3.5 -100.501 10.5s-56 16.167 -79 27.5s-42.833 24.5 -59.5 39.5s-31 30.167 -43 45.5c-28 36.667 -47.333 78 -58 124h121c10.667 -24 26 -45 46 -63c16.667 -16 39 -30.5 67 -43.5
s63.333 -19.5 106 -19.5s77.834 6.5 105.501 19.5s50.167 27.5 67.5 43.5c19.333 18 34.666 39 45.999 63h121c-10.667 -46 -30 -87.333 -58 -124c-12 -15.333 -26.5 -30.5 -43.5 -45.5s-37 -28.167 -60 -39.5s-49.167 -20.5 -78.5 -27.5s-62.666 -10.5 -99.999 -10.5z" />
    <glyph glyph-name="obreve" unicode="&#x14f;" horiz-adv-x="1246" 
d="M623 1187c-37.333 0 -70.834 3.5 -100.501 10.5s-56 16.167 -79 27.5s-42.833 24.5 -59.5 39.5s-31 30.167 -43 45.5c-28 36.667 -47.333 78 -58 124h121c10.667 -24 26 -45 46 -63c16.667 -16 39 -30.5 67 -43.5s63.333 -19.5 106 -19.5s77.834 6.5 105.501 19.5
s50.167 27.5 67.5 43.5c19.333 18 34.666 39 45.999 63h121c-10.667 -46 -30 -87.333 -58 -124c-12 -15.333 -26.5 -30.5 -43.5 -45.5s-37 -28.167 -60 -39.5s-49.167 -20.5 -78.5 -27.5s-62.666 -10.5 -99.999 -10.5zM99.999 503c0 77.333 13.667 148 41 212
s64.666 119 111.999 165s102.833 81.833 166.5 107.5s131.5 38.5 203.5 38.5s139.833 -12.833 203.5 -38.5s119.167 -61.5 166.5 -107.5s84.666 -101 111.999 -165s41 -134.667 41 -212s-13.667 -148 -41 -212s-64.666 -119 -111.999 -165s-102.833 -81.833 -166.5 -107.5
s-131.5 -38.5 -203.5 -38.5s-139.833 12.833 -203.5 38.5s-119.167 61.5 -166.5 107.5s-84.666 101 -111.999 165s-41 134.667 -41 212zM253.999 503c0 -56.667 9.66699 -108.834 29 -156.501s45.666 -88.834 78.999 -123.501s72.333 -61.834 117 -81.501
s92.667 -29.5 144 -29.5c50.667 0 98.5 9.83301 143.5 29.5s84.167 46.834 117.5 81.501s59.666 75.834 78.999 123.501s29 99.834 29 156.501s-9.66699 108.834 -29 156.501s-45.666 88.834 -78.999 123.501s-72.5 61.834 -117.5 81.501s-92.833 29.5 -143.5 29.5
c-51.333 0 -99.333 -9.83301 -144 -29.5s-83.667 -46.834 -117 -81.501s-59.666 -75.834 -78.999 -123.501s-29 -99.834 -29 -156.501z" />
    <glyph glyph-name="Ohungarumlaut" unicode="&#x150;" horiz-adv-x="1714" 
d="M120 717c0 68 8.83301 133.333 26.5 196s42.5 121.334 74.5 176.001s70.333 104.334 115 149.001s94.334 83 149.001 115s113.334 56.833 176.001 74.5s128 26.5 196 26.5s133.333 -8.83301 196 -26.5s121.334 -42.5 176.001 -74.5s104.334 -70.333 149.001 -115
s83 -94.334 115 -149.001s56.833 -113.334 74.5 -176.001s26.5 -128 26.5 -196s-8.83301 -133.333 -26.5 -196s-42.5 -121.334 -74.5 -176.001s-70.333 -104.334 -115 -149.001s-94.334 -83 -149.001 -115s-113.334 -56.833 -176.001 -74.5s-128 -26.5 -196 -26.5
s-133.333 8.83301 -196 26.5s-121.334 42.5 -176.001 74.5s-104.334 70.333 -149.001 115s-83 94.334 -115 149.001s-56.833 113.334 -74.5 176.001s-26.5 128 -26.5 196zM286 717c0 -82 14.333 -159 43 -231s68.5 -134.833 119.5 -188.5s111.333 -96 181 -127
s145.5 -46.5 227.5 -46.5s157.833 15.5 227.5 46.5s130 73.333 181 127s90.833 116.5 119.5 188.5s43 149 43 231s-14.333 159 -43 231s-68.5 134.833 -119.5 188.5s-111.333 96 -181 127s-145.5 46.5 -227.5 46.5s-157.833 -15.5 -227.5 -46.5s-130 -73.333 -181 -127
s-90.833 -116.5 -119.5 -188.5s-43 -149 -43 -231zM1042 1914h175l-159 -348h-142zM795 1914h175l-160 -348h-141z" />
    <glyph glyph-name="ohungarumlaut" unicode="&#x151;" horiz-adv-x="1246" 
d="M799 1434h175l-159 -348h-142zM552 1434h175l-160 -348h-141zM100 503c0 77.333 13.667 148 41 212s64.666 119 111.999 165s102.833 81.833 166.5 107.5s131.5 38.5 203.5 38.5s139.833 -12.833 203.5 -38.5s119.167 -61.5 166.5 -107.5s84.666 -101 111.999 -165
s41 -134.667 41 -212s-13.667 -148 -41 -212s-64.666 -119 -111.999 -165s-102.833 -81.833 -166.5 -107.5s-131.5 -38.5 -203.5 -38.5s-139.833 12.833 -203.5 38.5s-119.167 61.5 -166.5 107.5s-84.666 101 -111.999 165s-41 134.667 -41 212zM254 503
c0 -56.667 9.66699 -108.834 29 -156.501s45.666 -88.834 78.999 -123.501s72.333 -61.834 117 -81.501s92.667 -29.5 144 -29.5c50.667 0 98.5 9.83301 143.5 29.5s84.167 46.834 117.5 81.501s59.666 75.834 78.999 123.501s29 99.834 29 156.501
s-9.66699 108.834 -29 156.501s-45.666 88.834 -78.999 123.501s-72.5 61.834 -117.5 81.501s-92.833 29.5 -143.5 29.5c-51.333 0 -99.333 -9.83301 -144 -29.5s-83.667 -46.834 -117 -81.501s-59.666 -75.834 -78.999 -123.501s-29 -99.834 -29 -156.501z" />
    <glyph glyph-name="OE" unicode="&#x152;" horiz-adv-x="2409" 
d="M2152 805v-144.005h-755v-517h872v-144h-1034v84c-56 -34 -115.667 -59.833 -179 -77.5s-129.666 -26.5 -198.999 -26.5c-68 0 -133.333 8.83301 -196 26.5s-121.334 42.5 -176.001 74.5s-104.334 70.333 -149.001 115s-83 94.334 -115 149.001
s-56.833 113.334 -74.5 176.001s-26.5 128 -26.5 196s8.83301 133.333 26.5 196s42.5 121.334 74.5 176.001s70.333 104.334 115 149.001s94.334 83 149.001 115s113.334 56.833 176.001 74.5s128 26.5 196 26.5c69.333 0 135.666 -9.16699 198.999 -27.5
s123 -44.166 179 -77.499v85h1024v-144h-862v-485h755zM857 123.995c74.667 0 143.834 12.667 207.501 38s120.5 60.666 170.5 105.999v898c-50 44.667 -106.833 79.834 -170.5 105.501s-132.834 38.5 -207.501 38.5c-82 0 -157.833 -15.5 -227.5 -46.5
s-130 -73.333 -181 -127s-90.833 -116.5 -119.5 -188.5s-43 -149 -43 -231s14.333 -159 43 -231s68.5 -134.833 119.5 -188.5s111.333 -96 181 -127s145.5 -46.5 227.5 -46.5z" />
    </font>
</defs>
</svg>
